<svg xmlns="http://www.w3.org/2000/svg" viewBox="0 0 734 549"><defs><style>.cls-1{fill:#f1f2f2;}.cls-2{fill:#d9efef;}.cls-3{fill:#d2ecfa;}.cls-16,.cls-4{fill:#b0d9f4;}.cls-5{fill:#e9f6f8;}.cls-6{fill:#fffafc;opacity:0.57;}.cls-7{fill:#febc11;}.cls-8{fill:#4e90cd;}.cls-9{fill:#6eb7d8;}.cls-10{fill:#83c4e8;}.cls-11{fill:#9acef0;}.cls-12{fill:#f8991d;}.cls-13{fill:#1e4382;}.cls-14{fill:#fff;}.cls-15{fill:#e8f1fa;}.cls-16{font-size:10.15px;font-family:Montserrat-SemiBold, Montserrat SemiBold;font-weight:600;}.cls-17{letter-spacing:0.01em;}.cls-18{letter-spacing:-0.01em;}.cls-19{letter-spacing:0em;}.cls-20{letter-spacing:0em;}.cls-21{fill:#f89f78;}.cls-22{fill:#122d51;}.cls-23{fill:#fab697;}.cls-24{fill:#f9ad85;}.cls-25{fill:#1d3463;}.cls-26{fill:#144f91;}.cls-27{fill:#fbaa19;}.cls-28{fill:#f06aa4;}.cls-29{fill:#fdd814;}</style></defs><g id="Layer_2" data-name="Layer 2"><g id="Layer_1-2" data-name="Layer 1"><rect class="cls-1" width="734" height="549"/><path class="cls-2" d="M500.56,349s78.91-122.93,42.55-201.55S420,68.36,390,101.22c-18.34,20.08-13,53.63-56.41,66.6-26.56,7.94-45.89-4.79-85.48-18.59s-85.55,16.2-91.2,64.12c-6.34,53.78,42.61,81.89,69.48,101.25s13.26,51.46,24.4,81.53S441.57,458.12,500.56,349Z"/><path class="cls-1" d="M539.6,213.35s6-69.49-39-104c-38.74-29.7-77.46-15.3-89.65-2.25s1.15,28.81,34.82,26.56S530.45,154.63,539.6,213.35Z"/><ellipse class="cls-3" cx="325.08" cy="469.36" rx="42.91" ry="9.28"/><ellipse class="cls-3" cx="477.32" cy="460.08" rx="42.91" ry="9.28"/><ellipse class="cls-3" cx="409.05" cy="450.81" rx="111.35" ry="9.28"/><ellipse class="cls-3" cx="273.87" cy="444.5" rx="111.35" ry="9.28"/><circle class="cls-4" cx="247.69" cy="262.25" r="70.72"/><circle class="cls-5" cx="247.69" cy="262.25" r="61.26"/><path class="cls-6" d="M269.6,264.63c8.54-12.91,9.45-36.18,5.16-48.57a53.54,53.54,0,0,0-75.22,69.61,5.17,5.17,0,0,1,1.25.18C220.34,294,253.54,288.91,269.6,264.63Z"/><rect class="cls-4" x="240.46" y="211.48" width="15.21" height="3.74" rx="1.87" transform="translate(32.78 459.74) rotate(-89.55)"/><rect class="cls-4" x="239.7" y="309.27" width="15.21" height="3.74" rx="1.87" transform="matrix(0.01, -1, 1, 0.01, -65.77, 555.99)"/><rect class="cls-4" x="294.71" y="255.02" width="3.74" height="15.21" rx="1.87" transform="translate(31.63 557.14) rotate(-89.55)"/><rect class="cls-4" x="196.92" y="254.26" width="3.74" height="15.21" rx="1.87" transform="translate(-64.63 458.59) rotate(-89.55)"/><circle class="cls-4" cx="273.16" cy="218.92" r="1.87"/><circle class="cls-4" cx="222.21" cy="305.57" r="1.87"/><circle class="cls-4" cx="291.41" cy="237.46" r="1.87"/><circle class="cls-4" cx="203.96" cy="287.03" r="1.87"/><circle class="cls-4" cx="291.01" cy="287.72" r="1.87"/><circle class="cls-4" cx="204.36" cy="236.77" r="1.87"/><circle class="cls-4" cx="272.47" cy="305.97" r="1.87"/><circle class="cls-4" cx="222.9" cy="218.52" r="1.87"/><path class="cls-7" d="M266.69,248.17c5.6-2.19,31.74-13.43,31.74-13.43l.09.18.19.35.1.18S275,251.06,270.12,254.53s-22.32,8.89-22.32,8.89l-.32-.59-.19-.35-.32-.59S261.1,250.35,266.69,248.17Z"/><path class="cls-7" d="M229.92,266.05c-4.29-.67-24.63-2.84-24.63-2.84v-.81s20.27-2.78,24.53-3.58S247,261.31,247,261.31v1.74S234.2,266.71,229.92,266.05Z"/><circle class="cls-4" cx="247.69" cy="262.25" r="3.74"/><path class="cls-4" d="M210.51,338.72l-16.66,99.79a1.88,1.88,0,0,0,1.86,2.19h0a1.87,1.87,0,0,0,1.84-1.48l21.81-100.5Z"/><path class="cls-4" d="M226.61,332.73,214.88,433.21a1.89,1.89,0,0,0,2,2.11h0a1.9,1.9,0,0,0,1.77-1.58L235.46,332.3Z"/><path class="cls-4" d="M295.48,338.72l16.66,99.79a1.88,1.88,0,0,1-1.86,2.19h0a1.87,1.87,0,0,1-1.84-1.48l-21.81-100.5Z"/><path class="cls-4" d="M279.37,332.73l11.74,100.48a1.89,1.89,0,0,1-2,2.11h0a1.9,1.9,0,0,1-1.77-1.58L270.53,332.3Z"/><rect class="cls-8" x="193.48" y="331.83" width="120.7" height="9.22" rx="4.61"/><path class="cls-9" d="M199.47,418l-.29-.1a45.78,45.78,0,0,0,1.43-20.74c-1.75-10.31-8.4-24.26-30.15-32.13l.1-.28c9.66,3.49,17.2,8.47,22.4,14.78a37.07,37.07,0,0,1,7.95,17.6A46.26,46.26,0,0,1,199.47,418Z"/><path class="cls-9" d="M173.51,366.09s-5.72.87-8.67-1.77S166.92,360.42,173.51,366.09Z"/><path class="cls-9" d="M179.44,368.9s-1.79-7.56-4.57-9S171.7,363.75,179.44,368.9Z"/><path class="cls-9" d="M178.53,368.38s-7.7-1.09-10.1.95S170.91,373.71,178.53,368.38Z"/><path class="cls-9" d="M183.26,371.28s-7.7-1.09-10.1,1S175.64,376.61,183.26,371.28Z"/><path class="cls-9" d="M188,374.65s-7.7-1.1-10.1,1S180.4,380,188,374.65Z"/><path class="cls-9" d="M192.64,379.3s-7.59-1.71-10.15.13S184.61,384,192.64,379.3Z"/><path class="cls-9" d="M196.85,385.47s-7-3.28-9.94-2S188,388.36,196.85,385.47Z"/><path class="cls-9" d="M199.92,393s-5.63-5.36-8.77-5.09S190.62,392.94,199.92,393Z"/><path class="cls-9" d="M201.26,401.87s-3.52-6.94-6.57-7.73S192.52,398.67,201.26,401.87Z"/><path class="cls-9" d="M200.92,410.55s-1.83-7.56-4.61-9S193.15,405.43,200.92,410.55Z"/><path class="cls-9" d="M184.74,372.2s.76-6.65-1.8-10.21-3.42.52-2.44,2.82A79.65,79.65,0,0,0,184.74,372.2Z"/><path class="cls-9" d="M188.62,375.28s1.8-6.45-.16-10.37-3.46,0-2.86,2.4A80.39,80.39,0,0,0,188.62,375.28Z"/><path class="cls-9" d="M192.24,378.91s3.24-5.86,2.24-10.12-3.36-.83-3.33,1.67A79.87,79.87,0,0,0,192.24,378.91Z"/><path class="cls-9" d="M195.76,383.58s3.24-5.85,2.24-10.12-3.36-.83-3.33,1.67A79.49,79.49,0,0,0,195.76,383.58Z"/><path class="cls-9" d="M198.83,390s4-5.39,3.52-9.75-3.22-1.26-3.52,1.22A79.72,79.72,0,0,0,198.83,390Z"/><path class="cls-9" d="M200.9,398.46s4.92-4.53,5.31-8.9-2.93-1.84-3.69.54A81.25,81.25,0,0,0,200.9,398.46Z"/><path class="cls-9" d="M201.24,406.18s5.74-3.46,7-7.66-2.5-2.39-3.72-.21A79.31,79.31,0,0,0,201.24,406.18Z"/><path class="cls-9" d="M236.4,403.16l.29-.1a45.75,45.75,0,0,1-1.43-20.73c1.74-10.32,8.4-24.27,30.15-32.14l-.1-.28c-9.67,3.49-17.2,8.47-22.4,14.78a37.07,37.07,0,0,0-7.95,17.6A46.23,46.23,0,0,0,236.4,403.16Z"/><path class="cls-9" d="M262.36,351.21s5.72.87,8.67-1.77S269,345.54,262.36,351.21Z"/><path class="cls-9" d="M256.43,354s1.79-7.56,4.57-9S264.17,348.87,256.43,354Z"/><path class="cls-9" d="M257.34,353.5s7.69-1.09,10.1.95S265,358.83,257.34,353.5Z"/><path class="cls-9" d="M252.6,356.4s7.7-1.09,10.11,1S260.23,361.73,252.6,356.4Z"/><path class="cls-9" d="M247.84,359.77s7.7-1.1,10.1,1S255.47,365.09,247.84,359.77Z"/><path class="cls-9" d="M243.23,364.42s7.59-1.71,10.15.13S251.26,369.11,243.23,364.42Z"/><path class="cls-9" d="M239,370.59s7.06-3.28,10-2S247.86,373.48,239,370.59Z"/><path class="cls-9" d="M236,378.15s5.63-5.36,8.77-5.09S245.25,378.06,236,378.15Z"/><path class="cls-9" d="M234.61,387s3.52-6.94,6.57-7.73S243.34,383.79,234.61,387Z"/><path class="cls-9" d="M235,395.67s1.83-7.56,4.61-9S242.72,390.55,235,395.67Z"/><path class="cls-9" d="M251.13,357.32s-.76-6.65,1.8-10.21,3.42.52,2.44,2.82A79.65,79.65,0,0,1,251.13,357.32Z"/><path class="cls-9" d="M247.24,360.4s-1.79-6.45.17-10.37,3.46,0,2.85,2.4A77.87,77.87,0,0,1,247.24,360.4Z"/><path class="cls-9" d="M243.63,364s-3.24-5.86-2.24-10.12,3.36-.83,3.33,1.67A79.87,79.87,0,0,1,243.63,364Z"/><path class="cls-9" d="M240.11,368.7s-3.24-5.85-2.24-10.12,3.36-.83,3.33,1.67A79.49,79.49,0,0,1,240.11,368.7Z"/><path class="cls-9" d="M237,375.1s-4-5.39-3.52-9.75,3.22-1.26,3.51,1.22A77.82,77.82,0,0,1,237,375.1Z"/><path class="cls-9" d="M235,383.58s-4.92-4.53-5.31-8.9,2.93-1.84,3.69.54A81.25,81.25,0,0,1,235,383.58Z"/><path class="cls-9" d="M234.62,391.3s-5.73-3.46-7-7.66,2.5-2.39,3.72-.21A78.51,78.51,0,0,1,234.62,391.3Z"/><path class="cls-10" d="M203.26,390.2s-6.69-19.78-.67-25.47-1.45-13.74.32-19,8.25-8.37,11.07,1.27,3.62,9.93,10.72,10.38,6.56,14.73,5.3,21.31,5.72-3.81,7.83,3.25-8.11,21.61-18.85,29.2-23.89-14-23-19.39S200.84,393.58,203.26,390.2Z"/><path class="cls-9" d="M204.2,362.6a7.58,7.58,0,0,1-1.61,2.13c-6,5.69.67,25.47.67,25.47-2.42,3.38-6.37-3.85-7.27,1.55s12.24,27,23,19.39c.57-.41,1.15-.84,1.72-1.29A97.39,97.39,0,0,0,204.2,362.6Z"/><path class="cls-11" d="M215.32,413a.48.48,0,0,1-.82-.41c.05-.26,5-27.33-7.51-66.57a.47.47,0,1,1,.9-.29c12.6,39.49,7.6,66.77,7.54,67A.38.38,0,0,1,215.32,413Z"/><path class="cls-11" d="M210.74,357.66l-6.33-5.1a.48.48,0,1,1,.6-.74l5.48,4.42,2.89-4.84a.47.47,0,1,1,.81.48Z"/><path class="cls-11" d="M226.23,361.54l0,0-12.32,11.27-9.79-6.65a.49.49,0,0,1-.13-.67.47.47,0,0,1,.66-.12l9.17,6.22,11.76-10.76a.5.5,0,0,1,.68,0A.49.49,0,0,1,226.23,361.54Z"/><path class="cls-11" d="M228.9,377.26h0l-13,13.16-12.89-10.27a.48.48,0,1,1,.59-.75l12.22,9.75,12.46-12.56a.46.46,0,0,1,.67,0A.48.48,0,0,1,228.9,377.26Z"/><path class="cls-11" d="M234.51,386.53v0l-18.64,18.94-16-11.18a.48.48,0,0,1-.12-.66.49.49,0,0,1,.67-.12l15.32,10.71,18.07-18.36a.47.47,0,0,1,.67,0A.46.46,0,0,1,234.51,386.53Z"/><path class="cls-11" d="M200.25,415.64s-14.61-7.31-14.4-13.78-8.37-6.84-10.28-10.73,0-9.19,6.84-5.39,7.49,3.52,11.68-.14,11.75,4.58,14.67,8.92,1.08-5.26,6.14-2.5,7.39,16.46,5.6,26.59-21,5.38-23.44,1.89S200.76,418.85,200.25,415.64Z"/><path class="cls-10" d="M185.58,399.79a5.87,5.87,0,0,1,.27,2.07c-.21,6.47,14.4,13.78,14.4,13.78.51,3.21-5.66,1.37-3.19,4.86s21.65,8.24,23.44-1.89c.1-.54.18-1.1.25-1.66A76,76,0,0,0,185.58,399.79Z"/><path class="cls-4" d="M219.5,421.67a.35.35,0,0,1-.16.32.37.37,0,0,1-.52-.1c-.12-.18-12.27-17.94-40.82-32.84a.36.36,0,0,1-.16-.5.38.38,0,0,1,.5-.16c28.74,15,41,32.91,41.1,33.09A.33.33,0,0,1,219.5,421.67Z"/><path class="cls-4" d="M186.49,393.45l-6.32.65a.37.37,0,0,1-.08-.74l5.47-.57-1.06-4.27a.37.37,0,0,1,.27-.45.38.38,0,0,1,.46.27Z"/><path class="cls-4" d="M197.23,387.08v0l-.64,13-9.1,1.7a.37.37,0,0,1-.43-.3.36.36,0,0,1,.3-.43l8.51-1.59.61-12.45a.38.38,0,0,1,.75,0Z"/><path class="cls-4" d="M207.36,394.33v14.52l-12.82,1.39a.38.38,0,0,1-.41-.33.37.37,0,0,1,.33-.41l12.15-1.32V394.35A.38.38,0,0,1,207,394,.37.37,0,0,1,207.36,394.33Z"/><path class="cls-4" d="M215.58,396.4a0,0,0,0,1,0,0l.07,20.78-15,2.59a.37.37,0,0,1-.43-.3.38.38,0,0,1,.31-.43l14.4-2.49-.07-20.15a.38.38,0,0,1,.37-.37A.37.37,0,0,1,215.58,396.4Z"/><path class="cls-4" d="M233.08,413.58s19.25-8.1,19.53-16.37,11.26-8,14-12.83.81-11.72-8.28-7.45-9.84,3.86-14.88-1.16-15.38,4.85-19.48,10.15-.93-6.81-7.61-3.71S205.55,402.6,207,415.67s26.3,8.63,29.75,4.38S232.16,417.63,233.08,413.58Z"/><path class="cls-11" d="M253.13,394.59a7.77,7.77,0,0,0-.52,2.62c-.28,8.27-19.53,16.37-19.53,16.37-.92,4.05,7.1,2.22,3.66,6.47s-28.32,8.7-29.75-4.38c-.08-.7-.14-1.42-.18-2.14A97.34,97.34,0,0,1,253.13,394.59Z"/><path class="cls-3" d="M208,419.65a.49.49,0,0,0,.19.43.47.47,0,0,0,.66-.08c.17-.22,17.17-21.86,54.86-38.48a.46.46,0,0,0,.24-.62.47.47,0,0,0-.62-.25c-37.93,16.72-55.06,38.55-55.23,38.76A.5.5,0,0,0,208,419.65Z"/><path class="cls-3" d="M252.5,386.42l8,1.36a.47.47,0,0,0,.55-.39.49.49,0,0,0-.39-.55l-6.94-1.18,1.71-5.36a.47.47,0,0,0-.31-.6.47.47,0,0,0-.59.31Z"/><path class="cls-3" d="M239.34,377.39v0l-.29,16.7,11.47,2.92a.47.47,0,0,0,.58-.34.49.49,0,0,0-.35-.58L240,393.39l.27-15.94a.49.49,0,0,0-.47-.49A.49.49,0,0,0,239.34,377.39Z"/><path class="cls-3" d="M225.8,385.8v0l-1.22,18.5,16.24,2.85a.48.48,0,0,0,.55-.39.47.47,0,0,0-.39-.55l-15.39-2.7,1.16-17.65a.48.48,0,0,0-.95-.08Z"/><path class="cls-3" d="M215.13,387.73v0l-1.84,26.51,19,4.57a.47.47,0,1,0,.22-.92l-18.17-4.38,1.79-25.71a.48.48,0,0,0-1-.09Z"/><path class="cls-10" d="M289.2,389s5.57-16.48.56-21.21,1.21-11.45-.27-15.82-6.86-7-9.21,1.05-3,8.27-8.93,8.64-5.46,12.28-4.41,17.75-4.76-3.17-6.52,2.7,6.75,18,15.7,24.32,19.89-11.65,19.13-16.14S291.22,391.76,289.2,389Z"/><path class="cls-9" d="M288.42,366a6.32,6.32,0,0,0,1.34,1.77c5,4.73-.56,21.21-.56,21.21,2,2.81,5.3-3.21,6.05,1.29s-10.19,22.45-19.13,16.14c-.48-.34-1-.7-1.44-1.07A81.06,81.06,0,0,1,288.42,366Z"/><path class="cls-11" d="M279.16,407.94a.4.4,0,0,0,.68-.34c0-.22-4.16-22.76,6.26-55.44a.39.39,0,0,0-.26-.49.39.39,0,0,0-.5.25c-10.49,32.88-6.32,55.6-6.27,55.83A.34.34,0,0,0,279.16,407.94Z"/><path class="cls-11" d="M283,361.86l5.27-4.25a.4.4,0,0,0,.06-.56.39.39,0,0,0-.55-.06l-4.57,3.68-2.4-4a.39.39,0,0,0-.68.4Z"/><path class="cls-11" d="M270.08,365.09l0,0,10.25,9.39,8.15-5.54a.4.4,0,0,0-.44-.66l-7.63,5.19-9.8-9a.4.4,0,0,0-.56,0A.4.4,0,0,0,270.08,365.09Z"/><path class="cls-11" d="M267.86,378.17h0l10.87,11,10.73-8.55a.4.4,0,0,0,.06-.56A.39.39,0,0,0,289,380l-10.18,8.12-10.37-10.46a.4.4,0,0,0-.57.55Z"/><path class="cls-11" d="M263.18,385.89h0l15.52,15.77,13.31-9.3a.4.4,0,0,0-.46-.65l-12.75,8.92-15.05-15.29a.4.4,0,0,0-.56,0A.4.4,0,0,0,263.18,385.89Z"/><path class="cls-11" d="M266.76,411.92s-14.61-7.31-14.4-13.78-8.37-6.84-10.28-10.73,0-9.19,6.84-5.39,7.49,3.52,11.67-.14,11.76,4.58,14.68,8.92,1.08-5.26,6.13-2.5,7.4,16.46,5.61,26.59-21,5.38-23.44,1.89S267.27,415.13,266.76,411.92Z"/><path class="cls-10" d="M252.09,396.07a5.87,5.87,0,0,1,.27,2.07c-.21,6.47,14.4,13.78,14.4,13.78.51,3.21-5.66,1.36-3.19,4.86S285.22,425,287,414.89c.1-.54.18-1.1.25-1.66A76,76,0,0,0,252.09,396.07Z"/><path class="cls-4" d="M286,418a.35.35,0,0,1-.16.32.37.37,0,0,1-.52-.1c-.12-.18-12.27-17.94-40.82-32.84a.36.36,0,0,1-.16-.5.37.37,0,0,1,.5-.16c28.74,15,41,32.91,41.1,33.09A.31.31,0,0,1,286,418Z"/><path class="cls-4" d="M253,389.73l-6.32.65a.37.37,0,0,1-.41-.33.37.37,0,0,1,.33-.41l5.47-.57L251,384.8a.36.36,0,0,1,.27-.45.37.37,0,0,1,.45.27Z"/><path class="cls-4" d="M263.74,383.36v0l-.64,13-9.1,1.7a.38.38,0,0,1-.43-.3.36.36,0,0,1,.3-.43l8.51-1.59.61-12.46a.38.38,0,0,1,.75,0Z"/><path class="cls-4" d="M273.87,390.61v14.52l-12.81,1.39a.37.37,0,0,1-.41-.33.36.36,0,0,1,.33-.41l12.15-1.32V390.63a.38.38,0,0,1,.75,0Z"/><path class="cls-4" d="M282.09,392.67v0l.08,20.78-15,2.59a.38.38,0,0,1-.43-.3.37.37,0,0,1,.31-.43l14.4-2.49-.07-20.15a.38.38,0,0,1,.37-.37A.37.37,0,0,1,282.09,392.67Z"/><path class="cls-10" d="M246.73,416s-13.27-1.72-14.84-6.78-8.32-3-10.84-5.54-2.5-7.1,3.84-6,6.74.71,9-3.24,10.32.38,13.75,2.95-.58-4.36,4.07-3.59,10.15,10.75,11.49,19.07-14.77,9.8-17.62,7.76S248,418.39,246.73,416Z"/><path class="cls-9" d="M231.12,407.73a4.88,4.88,0,0,1,.77,1.53c1.57,5.06,14.84,6.78,14.84,6.78,1.26,2.35-4,2.58-1.16,4.62s19,.55,17.62-7.76c-.07-.45-.16-.9-.25-1.36A62.35,62.35,0,0,0,231.12,407.73Z"/><path class="cls-11" d="M263.24,415.53a.3.3,0,0,1-.46.36c-.14-.11-14.32-10.58-40.42-14.43a.3.3,0,0,1,.09-.6c26.26,3.87,40.55,14.43,40.69,14.54A.26.26,0,0,1,263.24,415.53Z"/><path class="cls-11" d="M230.12,402.58l-4.72,2.2a.31.31,0,0,1-.41-.15.3.3,0,0,1,.15-.4l4.08-1.91-2-3a.31.31,0,0,1,.09-.42.29.29,0,0,1,.42.09Z"/><path class="cls-11" d="M236.71,394.76v0l3,10.26-6.58,3.76a.31.31,0,0,1-.42-.12.3.3,0,0,1,.12-.41l6.16-3.52-2.88-9.8a.31.31,0,0,1,.21-.38A.32.32,0,0,1,236.71,394.76Z"/><path class="cls-11" d="M246.5,397.65h0l3.9,11.22-9.54,4.52a.31.31,0,0,1-.41-.14.3.3,0,0,1,.15-.41l9-4.29-3.71-10.7a.29.29,0,0,1,.18-.38A.3.3,0,0,1,246.5,397.65Z"/><path class="cls-11" d="M253.41,397v0l5.64,16.05-10.92,6a.3.3,0,0,1-.42-.12.31.31,0,0,1,.12-.41l10.48-5.79-5.48-15.57a.31.31,0,0,1,.19-.39A.3.3,0,0,1,253.41,397Z"/><path class="cls-4" d="M299.59,413.58s19.25-8.1,19.52-16.37,11.27-8,14-12.83.81-11.72-8.28-7.45S315,380.79,310,375.77s-15.38,4.85-19.48,10.15-.93-6.81-7.61-3.71-10.83,20.39-9.39,33.46,26.3,8.63,29.75,4.38S298.67,417.63,299.59,413.58Z"/><path class="cls-11" d="M319.64,394.59a8,8,0,0,0-.53,2.62c-.27,8.27-19.52,16.37-19.52,16.37-.92,4.05,7.1,2.22,3.66,6.47s-28.32,8.7-29.75-4.38c-.08-.7-.14-1.42-.18-2.14A97.34,97.34,0,0,1,319.64,394.59Z"/><path class="cls-3" d="M274.51,419.65a.49.49,0,0,0,.19.43.47.47,0,0,0,.66-.08c.17-.22,17.17-21.86,54.86-38.48a.46.46,0,0,0,.24-.62.48.48,0,0,0-.63-.25c-37.92,16.72-55.05,38.55-55.22,38.76A.5.5,0,0,0,274.51,419.65Z"/><path class="cls-3" d="M319,386.42l8,1.36a.47.47,0,0,0,.55-.39.49.49,0,0,0-.39-.55l-6.94-1.18L322,380.3a.47.47,0,0,0-.31-.6.47.47,0,0,0-.59.31Z"/><path class="cls-3" d="M305.85,377.39a.06.06,0,0,1,0,0l-.28,16.7L317,397.05a.47.47,0,0,0,.58-.34.49.49,0,0,0-.35-.58l-10.73-2.74.27-15.94a.49.49,0,0,0-.47-.49A.48.48,0,0,0,305.85,377.39Z"/><path class="cls-3" d="M292.31,385.8v0l-1.22,18.5,16.24,2.85a.48.48,0,0,0,.55-.39.47.47,0,0,0-.39-.55l-15.39-2.7,1.16-17.65a.49.49,0,0,0-.45-.51A.48.48,0,0,0,292.31,385.8Z"/><path class="cls-3" d="M281.64,387.73v0l-1.84,26.51,18.95,4.57a.47.47,0,1,0,.22-.92l-18.17-4.38,1.79-25.71a.49.49,0,0,0-.44-.51A.48.48,0,0,0,281.64,387.73Z"/><polygon class="cls-12" points="328.93 444.5 185.53 444.5 181.93 411.75 332.53 411.75 328.93 444.5"/><polygon class="cls-7" points="329.97 434.98 184.48 434.98 184.75 437.45 329.7 437.45 329.97 434.98"/><polygon class="cls-7" points="330.94 426.2 183.51 426.2 184.04 431 330.41 431 330.94 426.2"/><rect class="cls-7" x="179.68" y="409.48" width="154.83" height="7.71"/><path class="cls-13" d="M462,451.93H340.25c-8.62,0-22-6.48-21-15.1l37.19-258.91a18,18,0,0,1,17.42-15.61l114.33-4.46c13.9,0,22.25,11.45,21.25,20.07l-30,258.4A18,18,0,0,1,462,451.93Z"/><path class="cls-8" d="M453.06,447.39H331.28a13.62,13.62,0,0,1-13.8-15.6l30-258.4a18,18,0,0,1,17.42-15.61H486.66a13.62,13.62,0,0,1,13.8,15.61l-30,258.4A18,18,0,0,1,453.06,447.39Z"/><path class="cls-4" d="M453,442H332.56a10.37,10.37,0,0,1-10.5-11.88l29.69-255.91A13.72,13.72,0,0,1,365,162.31H485.48A10.37,10.37,0,0,1,496,174.19L466.29,430.1A13.72,13.72,0,0,1,453,442Z"/><path class="cls-8" d="M403.74,435.54H378.63a4.62,4.62,0,0,1-4.67-5.29h0a6.1,6.1,0,0,1,5.9-5.28H405a4.62,4.62,0,0,1,4.67,5.28h0A6.12,6.12,0,0,1,403.74,435.54Z"/><ellipse class="cls-8" cx="367.88" cy="171.79" rx="4.21" ry="3.75" transform="translate(-17.58 299.33) rotate(-43.34)"/><ellipse class="cls-8" cx="378.51" cy="171.79" rx="2.53" ry="2.26" transform="translate(-14.68 306.63) rotate(-43.34)"/><polygon class="cls-14" points="461.17 418.92 328.76 418.92 356.21 182.37 488.62 182.37 461.17 418.92"/><path class="cls-15" d="M470.29,218.87H366.19a5.06,5.06,0,0,1-5.12-5.79l2.1-18.13a6.68,6.68,0,0,1,6.46-5.79h104.1a5.05,5.05,0,0,1,5.12,5.79l-2.1,18.13A6.69,6.69,0,0,1,470.29,218.87Z"/><text class="cls-16" transform="matrix(0.99, 0, -0.12, 0.99, 380.49, 206.7)"><tspan class="cls-17">M</tspan><tspan x="8.22" y="0">ond</tspan><tspan class="cls-18" x="25.14" y="0">a</tspan><tspan class="cls-19" x="29.95" y="0">y 11.00 </tspan><tspan class="cls-20" x="61.95" y="0">A</tspan><tspan x="68.12" y="0">M</tspan></text><polygon class="cls-15" points="380.31 251.43 356.62 251.43 359.37 227.73 383.06 227.73 380.31 251.43"/><polygon class="cls-4" points="410.98 251.43 387.28 251.43 390.03 227.73 413.72 227.73 410.98 251.43"/><polygon class="cls-15" points="441.64 251.43 417.94 251.43 420.69 227.73 444.38 227.73 441.64 251.43"/><polygon class="cls-15" points="472.3 251.43 448.6 251.43 451.35 227.73 475.05 227.73 472.3 251.43"/><polygon class="cls-15" points="376.8 281.73 353.11 281.73 355.85 258.03 379.55 258.03 376.8 281.73"/><polygon class="cls-15" points="407.46 281.73 383.77 281.73 386.51 258.03 410.21 258.03 407.46 281.73"/><polygon class="cls-15" points="438.12 281.73 414.43 281.73 417.18 258.03 440.87 258.03 438.12 281.73"/><polygon class="cls-15" points="468.78 281.73 445.09 281.73 447.84 258.03 471.53 258.03 468.78 281.73"/><polygon class="cls-15" points="373.28 312.03 349.59 312.03 352.34 288.33 376.03 288.33 373.28 312.03"/><polygon class="cls-15" points="403.94 312.03 380.25 312.03 383 288.33 406.69 288.33 403.94 312.03"/><polygon class="cls-15" points="434.61 312.03 410.91 312.03 413.66 288.33 437.36 288.33 434.61 312.03"/><polygon class="cls-15" points="465.27 312.03 441.57 312.03 444.32 288.33 468.02 288.33 465.27 312.03"/><polygon class="cls-15" points="369.77 342.33 346.07 342.33 348.82 318.63 372.52 318.63 369.77 342.33"/><polygon class="cls-15" points="400.43 342.33 376.74 342.33 379.48 318.63 403.18 318.63 400.43 342.33"/><polygon class="cls-15" points="431.09 342.33 407.4 342.33 410.14 318.63 433.84 318.63 431.09 342.33"/><polygon class="cls-15" points="461.75 342.33 438.06 342.33 440.81 318.63 464.5 318.63 461.75 342.33"/><path class="cls-15" d="M363.93,391.33A3.9,3.9,0,0,1,367.7,388h21.41a5.51,5.51,0,0,0,4.85-3,4.59,4.59,0,0,0-.44-5.32l-8.31-9.4a4.3,4.3,0,0,0-3.28-1.43h-26a2.91,2.91,0,0,1-2.92-2.26l-1.11-4.74a3.57,3.57,0,0,1,.79-3.06,3.81,3.81,0,0,1,2.91-1.42h35.93a3,3,0,0,1,2.25,1l13.45,15c.11-.66.25-1.32.38-2l-12.64-14.1a4.33,4.33,0,0,0-3.27-1.41H355.74a5.49,5.49,0,0,0-4.22,2.06,5.12,5.12,0,0,0-1.14,4.43l1.1,4.74a4.23,4.23,0,0,0,4.23,3.27h26a3,3,0,0,1,2.27,1l8.31,9.4a3.2,3.2,0,0,1,.31,3.67,3.85,3.85,0,0,1-3.36,2.08H367.87a5.65,5.65,0,0,0-5.45,4.88l-.57,5a4.26,4.26,0,0,0,4.31,4.88h23.66a3,3,0,0,1,3,3.42A3.88,3.88,0,0,1,389,408H341.71l-.18,1.51h47.32a5.64,5.64,0,0,0,5.46-4.93,4.27,4.27,0,0,0-4.32-4.88H366.34a2.94,2.94,0,0,1-3-3.37Z"/><path class="cls-4" d="M416,361.14c-.44,3.85-8.6,14.07-8.6,14.07S401.59,365,402,361.14a8.05,8.05,0,0,1,7.79-7A6.08,6.08,0,0,1,416,361.14Z"/><ellipse class="cls-14" cx="409.05" cy="360.81" rx="3.97" ry="3.53" transform="matrix(0.73, -0.69, 0.69, 0.73, -136.09, 379.14)"/><ellipse class="cls-4" cx="344.67" cy="408.73" rx="6.2" ry="5.52" transform="translate(-186.53 348.02) rotate(-43.34)"/><ellipse class="cls-14" cx="344.67" cy="408.73" rx="3.2" ry="2.85" transform="translate(-186.53 348.02) rotate(-43.34)"/><path class="cls-12" d="M289.67,300.3s12.45-18.12,14.42-22.43,2.19-8-.91-10.22-8.79-4-13.83,3.1S275,299.66,274.62,306.48,305.09,334,307.83,335.3c3-.79,4.31-5.3,4.31-5.3S292.22,304.7,289.67,300.3Z"/><path class="cls-21" d="M299.88,450.2s.63,3.58-1.42,9-2.16,7.11,0,8.3,3.69,1.53,9.72,0a75.27,75.27,0,0,0,12.73-4.89s-6.54-4.15-8.13-5.91-4.94-8.07-4.89-9S299.88,450.2,299.88,450.2Z"/><path class="cls-22" d="M316.26,459.48c-2.42,1.61-4.74,3.38-7.84,2.93-2.49-.62-3.43-3.11-5-5a4.77,4.77,0,0,0-4.18-.7,23,23,0,0,1-.79,2.45c-2,5.4-2.16,7.11,0,8.3s3.69,1.53,9.72,0a75.27,75.27,0,0,0,12.73-4.89S318.51,461.07,316.26,459.48Z"/><path class="cls-23" d="M373,263.75l7.54,3.25c2.5-3.1,4.38-5.43,5.6-5.69,3.2.43,4.57-.92,5.42-2s-.21-1.72-.07-2.13c.88-1.3-.62-1.81-.38-2.12.93-1.08.76-1.67.2-2s-1.5-.58-1.33-1.12,2.47-2,4.46-2.94,4.19-2.46,3-3.26-12.55,4.65-14.67,7-1.58,4.79-4.24,7.35A31.54,31.54,0,0,1,373,263.75Z"/><path class="cls-24" d="M307.76,449.11s.53,7.35-1.82,13.33-1.66,8.64,2.58,9.85,6.59-1.67,12.12-1.51,12.88-.46,14.78-5.54-6.95-2.8-12.31-4.39-3-11-3-11Z"/><path class="cls-25" d="M323.27,460.74c-.48,1.61,3.88,3.31,2.59,4.17-4.67,3.42-10.28-2.5-15.57-4.36a5.57,5.57,0,0,0-3.62-.3c-.21.74-.45,1.47-.73,2.19-2.35,6-1.66,8.64,2.58,9.85s6.59-1.67,12.12-1.51,16-.9,17.89-6S328.63,462.24,323.27,460.74Z"/><path class="cls-22" d="M337.88,462.38a3,3,0,0,1-.11.37c-1.9,5.07-12.36,6.12-17.89,6s-7.88,2.73-12.12,1.51a5.7,5.7,0,0,1-3.12-1.83c.18,2,1.43,3.19,3.88,3.89,4.24,1.21,6.59-1.67,12.12-1.51s16-.9,17.89-6A1.8,1.8,0,0,0,337.88,462.38Z"/><path class="cls-13" d="M316.7,354.85a13.45,13.45,0,0,1-6.1-5.66,16.87,16.87,0,0,1-1.4-12.52c1.36-4.09,6.82-14.4,6.82-14.4l-13.41-2.48a153.61,153.61,0,0,0-9.09,18.58c-3.07,8.19-.57,16.82.91,23.3s5.22,25,3.63,31.94-4.54,17.5-3.75,25.57,4.78,27.27,4.66,31.59a8.87,8.87,0,0,0,3.87.78,11.82,11.82,0,0,0,6.36-2.25s.91-33.08,4.32-47.62S320.34,360.08,316.7,354.85Z"/><path class="cls-25" d="M316.7,354.85a13.45,13.45,0,0,1-6.1-5.66c-5.68-2.68-1.72-13.1-2.18-19.53-2.25,6.21-10.85,17.4.9,31.33,4.18,3.89.1,34.35-3.48,48.09-3.22,11.65-1.81,30.36-1.24,42.26a12,12,0,0,0,4.6-2s.91-33.08,4.32-47.62S320.34,360.08,316.7,354.85Z"/><path class="cls-13" d="M338.14,322.12a106.65,106.65,0,0,1,2.73,31.07c-1.21,16.06-12,43-13.18,48.94s-2.88,22.91-4.4,30.55-2.27,14.76-1.44,16.73c-3.56,3.79-13,3.33-15.15,0,.76-15.61.38-29,3.33-39.55s1.14-13.26,2.35-19.85,2.43-27,3-29.4S310,357,307.76,353,301,339.62,313.6,320.3A117.33,117.33,0,0,1,338.14,322.12Z"/><path class="cls-26" d="M338.14,322.12a117.33,117.33,0,0,0-24.54-1.82c-.26.39-.49.77-.73,1.15a115.6,115.6,0,0,1,19.53,1.87,106.61,106.61,0,0,1,2.73,31.06c-1.21,16.06-9.8,42.59-11,48.5s-1.69,22.13-3.2,29.77c-1.31,6.59-1.55,14.79-1.06,18.19a7,7,0,0,0,2-1.43c-.83-2-.07-9.09,1.44-16.73s3.19-24.64,4.4-30.55,12-32.88,13.18-48.94A106.65,106.65,0,0,0,338.14,322.12Z"/><path class="cls-24" d="M331.25,231.51s1.14,13.48-.38,17.65-3,7.2-3.86,8-4.85-.68-5.65,0-.72,8.49-.72,8.49l-11.14-.46s1.29-14.09,2.28-18S330.11,231.2,331.25,231.51Z"/><path class="cls-27" d="M304.88,265s8.64-4.32,15.69-.91,18.07,17.73,19.77,20.46,2.84,8.86,0,14.43-1.82,21.93-.34,24.77c-11.93,3.53-30.46,1.25-39-2.5,4.77-6.93,7.27-9.54,3.86-17.16S297.38,274.84,304.88,265Z"/><path class="cls-12" d="M335,300c2.84-5.57,1.7-11.71,0-14.43s-12.73-17.05-19.78-20.46a14.56,14.56,0,0,0-7.44-1.25,22,22,0,0,0-2.88,1.11c-7.5,9.88-3.41,31.48,0,39.09s.91,10.23-3.86,17.16c7.17,3.16,21.42,5.27,32.87,3.76l.75-.21C333.16,321.92,332.14,305.56,335,300Z"/><path class="cls-7" d="M348.41,281.44s-18-12.65-22.28-14.66-7.95-2.28-10.22.79-4.1,8.75,2.95,13.87,28.75,14.66,35.57,15.11,27.81-30.17,29.17-32.9c-.75-3-5.25-4.36-5.25-4.36S352.84,278.94,348.41,281.44Z"/><path class="cls-28" d="M318.86,281.44l-.66-.51Z"/><path class="cls-29" d="M315.47,270.54c2.27-3.07,5.93-2.81,10.23-.8s21.59,13.33,21.59,13.33c4.43-2.5,31.06-23.78,31.06-23.78s-25.51,19.65-29.94,22.15c0,0-18-12.65-22.28-14.66s-7.95-2.28-10.22.79a9.75,9.75,0,0,0-2,5.7A10.29,10.29,0,0,1,315.47,270.54Z"/><path class="cls-13" d="M330.42,225.14c-5.16-5.15-14.7-7.12-14.7-7.12-8.1-2.75-14.4,4.85-16.22,11.67s-.92,14.75-3.71,23.71c-1.41,4.37-21.59,35.62,4.87,58.26,6.72,3.32,11.87,4.78,19.14-.83-7.66-18.2-5.24-35.67-3.7-40.91,1.49-5.07,4.56-5.26,7.38-4.21l.38.15c-.26-.51-.6-1.1-1-1.75-1.42-4.23-.08-13,2.82-16.09,3.41-3.63,5-9.54,5.57-13.86A13.21,13.21,0,0,1,329,244.27C333.86,240.52,335.57,230.29,330.42,225.14Z"/><path class="cls-25" d="M298,292.9c-3-20.91,5.38-42.42,13.14-62.13,2.33-6,9-8.83,15.77-8.36A39.52,39.52,0,0,0,315.72,218c-8.1-2.75-14.4,4.85-16.22,11.67s-.92,14.75-3.71,23.71c-1.41,4.37-21.59,35.62,4.87,58.26,5.43,2.68,9.84,4.15,15.17,1.65a16.06,16.06,0,0,1-5.5-2.34C304.35,306.78,299.17,300.06,298,292.9Z"/><path class="cls-10" d="M458.26,311.86s-11.46-33.92-1.15-43.66-2.48-23.57.55-32.57,14.14-14.36,19,2.16,6.21,17,18.38,17.79,11.23,25.27,9.08,36.54,9.8-6.53,13.42,5.57-13.9,37.05-32.32,50.05-40.94-24-39.4-33.23S454.11,317.64,458.26,311.86Z"/><path class="cls-9" d="M459.88,264.55a13.22,13.22,0,0,1-2.77,3.65c-10.31,9.74,1.15,43.66,1.15,43.66-4.15,5.78-10.91-6.6-12.46,2.65s21,46.23,39.4,33.23c1-.7,2-1.44,3-2.2A166.84,166.84,0,0,0,459.88,264.55Z"/><path class="cls-11" d="M478.93,351a.79.79,0,0,1-.75.25.81.81,0,0,1-.65-1c.09-.46,8.58-46.86-12.88-114.12a.81.81,0,1,1,1.55-.5c21.6,67.69,13,114.47,12.93,114.93A.84.84,0,0,1,478.93,351Z"/><path class="cls-11" d="M471.09,256.08l-10.85-8.75a.81.81,0,0,1-.13-1.14.82.82,0,0,1,1.15-.13l9.39,7.57,5-8.29a.81.81,0,1,1,1.4.83Z"/><path class="cls-11" d="M497.63,262.73l-.05.06L476.46,282.1l-16.78-11.4a.82.82,0,0,1,.92-1.35L476.31,280l20.17-18.45a.81.81,0,0,1,1.15,1.15Z"/><path class="cls-11" d="M502.21,289.66l0,0L479.8,312.25l-22.09-17.61a.82.82,0,0,1,1-1.28l20.95,16.7L501,288.54a.82.82,0,0,1,1.16,0A.81.81,0,0,1,502.21,289.66Z"/><path class="cls-11" d="M511.83,305.57l0,0-31.95,32.46L452.47,318.9a.82.82,0,0,1-.2-1.14.83.83,0,0,1,1.14-.2l26.25,18.36,31-31.47a.82.82,0,0,1,1.19,1.12Z"/><path class="cls-11" d="M453.54,387.18s-25-12.53-24.67-23.62-14.35-11.72-17.63-18.39-.05-15.75,11.74-9.24,12.82,6,20-.24,20.15,7.85,25.16,15.29,1.84-9,10.51-4.29,12.68,28.23,9.61,45.59-35.94,9.22-40.18,3.23S454.42,392.68,453.54,387.18Z"/><path class="cls-10" d="M428.4,360a10.22,10.22,0,0,1,.47,3.55c-.36,11.09,24.67,23.62,24.67,23.62.88,5.5-9.69,2.34-5.46,8.33s37.11,14.13,40.18-3.23c.17-.93.31-1.89.43-2.85A130.49,130.49,0,0,0,428.4,360Z"/><path class="cls-4" d="M486.55,397.51a.64.64,0,0,1-1.17.39c-.2-.31-21-30.75-70-56.29a.65.65,0,0,1-.27-.87.64.64,0,0,1,.86-.27c49.26,25.71,70.25,56.41,70.45,56.72A.56.56,0,0,1,486.55,397.51Z"/><path class="cls-4" d="M430,349.14l-10.84,1.12A.64.64,0,0,1,419,349l9.38-1-1.82-7.33a.64.64,0,0,1,.47-.77.63.63,0,0,1,.77.46Z"/><path class="cls-4" d="M448.36,338.22s0,0,0,.06l-1.09,22.36-15.59,2.9a.64.64,0,1,1-.23-1.25l14.6-2.72,1-21.35a.65.65,0,0,1,.67-.61A.64.64,0,0,1,448.36,338.22Z"/><path class="cls-4" d="M465.73,350.66v24.88l-22,2.38a.63.63,0,0,1-.7-.56.64.64,0,0,1,.56-.71l20.83-2.26v-23.7a.64.64,0,0,1,1.27,0Z"/><path class="cls-4" d="M479.83,354.19v0l.13,35.62-25.75,4.44A.64.64,0,1,1,454,393l24.69-4.26-.12-34.53a.64.64,0,0,1,.63-.65A.63.63,0,0,1,479.83,354.19Z"/><path class="cls-4" d="M518.87,371s21.42-28.68,14.64-41.14,9.68-21.63,9.6-31.14-9-18-18.71-3.83-11.2,14.26-23,11.21-18.52,20.52-20,31.91-7.28-9.26-14.48,1.12,1.71,39.54,15.18,57.62,46.37-10.09,47.77-19.36S521,377.79,518.87,371Z"/><path class="cls-11" d="M532,325.52a13,13,0,0,0,1.49,4.34c6.78,12.46-14.64,41.14-14.64,41.14,2.15,6.79,12.42-2.88,11,6.39s-34.3,37.43-47.77,19.36c-.72-1-1.43-2-2.13-3A167,167,0,0,1,532,325.52Z"/><path class="cls-3" d="M487.08,401.75a.79.79,0,0,0,.64.47.81.81,0,0,0,.91-.7c.06-.47,6.39-47.21,47.68-104.49a.82.82,0,1,0-1.33-.95c-41.54,57.64-47.91,104.76-48,105.23A.81.81,0,0,0,487.08,401.75Z"/><path class="cls-3" d="M524,314l13-4.95a.82.82,0,0,0,.48-1.05.83.83,0,0,0-1.06-.47l-11.27,4.27L523,302.38a.82.82,0,0,0-1-.61.81.81,0,0,0-.61,1Z"/><path class="cls-3" d="M496.7,312.08l0,.07,14.08,24.92,19.48-5.63a.82.82,0,1,0-.45-1.57l-18.25,5.27-13.44-23.8a.81.81,0,0,0-1.45.74Z"/><path class="cls-3" d="M484,336.26v0l14.27,28.4,26.47-9.89a.81.81,0,1,0-.57-1.52l-25.1,9.37-13.61-27.09a.81.81,0,0,0-1.47.7Z"/><path class="cls-3" d="M469.9,348.39v0l20.3,40.77,32-9.7a.81.81,0,0,0,.54-1,.82.82,0,0,0-1-.55l-30.66,9.3-19.68-39.54a.81.81,0,0,0-1.47.7Z"/><polygon class="cls-12" points="448.06 399.22 511.13 399.22 498.01 461.66 457.35 461.66 448.06 399.22"/><polygon class="cls-7" points="505.71 425.02 451.9 425.02 452.87 431.55 504.34 431.55 505.71 425.02"/><polygon class="cls-7" points="503.75 434.37 453.29 434.37 453.77 437.63 503.06 437.63 503.75 434.37"/><rect class="cls-7" x="446.16" y="398.19" width="66.74" height="8.87"/></g></g></svg>