<svg id="Livello_1" data-name="Livello 1" xmlns="http://www.w3.org/2000/svg" viewBox="0 0 74 74">
  <title>pink_free_cancelation</title>
  <g>
    <ellipse cx="37.2923" cy="65.0746" rx="11.705" ry="1.375" style="fill: #96cdce"/>
    <g>
      <g>
        <path d="M36.433,58.9315a1.9728,1.9728,0,0,0,1.7185,0c2.6472-1.2712,10.74-5.6189,14.7257-12.94,3.854-7.0787,4.3613-16.3415,4.41-19.749A1.9892,1.9892,0,0,0,56.0715,24.38c-3.2747-1.394-12.4751-5.0553-18.7792-5.0553-6.8958,0-15.6812,3.6375-18.8156,5.0417a1.988,1.988,0,0,0-1.18,1.8475c.0467,3.3839.546,12.6789,4.4108,19.7775C25.6935,53.3126,33.7858,57.66,36.433,58.9315Z" style="fill: #f2f2f2"/>
        <path d="M37.292,59.6287a2.4842,2.4842,0,0,1-1.0762-.2466h0c-2.4736-1.188-10.8623-5.6474-14.9482-13.1513-3.8867-7.1412-4.4209-16.3726-4.4707-20.01A2.4907,2.4907,0,0,1,18.2725,23.91c3.4131-1.5289,12.1-5.0855,19.02-5.0855,6.3272,0,15.3779,3.5635,18.9756,5.0957a2.4856,2.4856,0,0,1,1.52,2.33c-.0527,3.6357-.5957,12.8608-4.4717,19.981-4.0879,7.5063-12.4756,11.9638-14.9482,13.1513A2.4914,2.4914,0,0,1,37.292,59.6287Zm0-39.8042c-6.7275,0-15.2558,3.4956-18.6113,4.9985a1.4905,1.4905,0,0,0-.8838,1.3833c.0479,3.564.5684,12.6016,4.35,19.5459,3.9424,7.2413,12.0967,11.5733,14.5029,12.7286h0a1.4767,1.4767,0,0,0,1.2852,0c2.4053-1.1548,10.56-5.4849,14.5029-12.7286,3.77-6.9238,4.2989-15.9555,4.3506-19.517A1.49,1.49,0,0,0,55.876,24.84C52.334,23.3323,43.4356,19.8245,37.292,19.8245Z" style="fill: #262626"/>
      </g>
      <g>
        <path d="M37.292,52.3211a1.0073,1.0073,0,0,1-.3838-.0762c-.2978-.124-7.3515-3.1045-10.4961-8.9775A31.7164,31.7164,0,0,1,23.2129,30.243a.9986.9986,0,0,1,.5244-.8887c.3125-.169,7.7168-4.1372,13.5547-4.1372,5.71,0,13.2315,3.9648,13.5488,4.1338a1,1,0,0,1,.53.8921,31.7164,31.7164,0,0,1-3.1992,13.0244c-3.1445,5.873-10.1982,8.8535-10.4961,8.9775A1.0069,1.0069,0,0,1,37.292,52.3211Z" style="fill: #fff"/>
        <path d="M37.2923,26.2169c5.5258,0,13.0788,4.0167,13.0788,4.0167a30.9954,30.9954,0,0,1-3.0806,12.5616c-3.0122,5.6262-9.9982,8.526-9.9982,8.526s-6.9861-2.9-9.9983-8.526a30.9954,30.9954,0,0,1-3.0806-12.5616s7.4265-4.0167,13.0789-4.0167m0-2c-6.0887,0-13.709,4.0837-14.03,4.2575a2,2,0,0,0-1.0484,1.778,32.8194,32.8194,0,0,0,3.3173,13.4868c3.3111,6.1846,10.6825,9.3,10.9947,9.4292a2,2,0,0,0,1.5335,0c.3122-.13,7.6836-3.2446,10.9947-9.4292a32.8236,32.8236,0,0,0,3.3174-13.4867A2,2,0,0,0,51.31,28.4678c-.3264-.1736-8.0618-4.2509-14.0179-4.2509Z" style="fill: #f466ba"/>
      </g>
    </g>
    <g>
      <path d="M17.656,20.42c-1.4824-.1264-4.0107-.5019-4.48-.9721-.4512-.4512-.7754-2.9248-.875-4.3784a.25.25,0,0,0-.4981,0c-.0986,1.4531-.4228,3.9267-.874,4.3784-.47.47-2.9981.8457-4.4815.9721a.25.25,0,0,0,.0108.4991c1.49.0615,4.0215.3271,4.4707.7758.4678.4683.7842,3.0528.873,4.5718a.25.25,0,0,0,.5,0c.0889-1.519.4063-4.1035.8741-4.5718.4492-.4487,2.98-.7143,4.47-.7758a.25.25,0,0,0,.0107-.4991Z" style="fill: #96cdce"/>
      <path d="M6.4627,17.57a.25.25,0,0,0,.25-.2353,5.1749,5.1749,0,0,1,.3027-1.7232,5.0673,5.0673,0,0,1,1.6816-.2656.25.25,0,0,0,.0108-.499,5.1452,5.1452,0,0,1-1.6914-.3438,5.0405,5.0405,0,0,1-.3047-1.6484.25.25,0,0,0-.4981,0,5.0015,5.0015,0,0,1-.3056,1.6484,5.1272,5.1272,0,0,1-1.6914.3443.25.25,0,0,0,.0107.499A5.0974,5.0974,0,0,1,5.908,15.61a5.18,5.18,0,0,1,.3047,1.7246A.2506.2506,0,0,0,6.4627,17.57Z" style="fill: #96cdce"/>
      <path d="M19.5242,10.82a9.09,9.09,0,0,1-3.1807-.68,8.7813,8.7813,0,0,1-.6084-3.1054.25.25,0,0,0-.498,0,8.7747,8.7747,0,0,1-.6094,3.1054,9.089,9.089,0,0,1-3.1807.68.25.25,0,0,0,.0108.4991,8.7406,8.7406,0,0,1,3.17.5371,9.0565,9.0565,0,0,1,.6084,3.2446.25.25,0,0,0,.5,0,9.0652,9.0652,0,0,1,.6074-3.2446,8.7453,8.7453,0,0,1,3.17-.5371.25.25,0,0,0,.0107-.4991Z" style="fill: #96cdce"/>
    </g>
    <g>
      <path d="M67.9153,61.116c-1.4825-.1265-4.0108-.5019-4.48-.9722-.4512-.4511-.7754-2.9248-.875-4.3784a.25.25,0,0,0-.4981,0c-.0986,1.4531-.4228,3.9268-.874,4.3784-.47.47-2.998.8457-4.4814.9722a.25.25,0,0,0,.0107.499c1.49.0616,4.0215.3272,4.4707.7759.4678.4683.7842,3.0527.8731,4.5718a.25.25,0,0,0,.5,0c.0888-1.5191.4062-4.1035.874-4.5718.4492-.4487,2.9795-.7143,4.47-.7759a.25.25,0,0,0,.0108-.499Z" style="fill: #96cdce"/>
      <path d="M56.7219,58.2664a.25.25,0,0,0,.25-.2354,5.1769,5.1769,0,0,1,.3027-1.7231,5.0647,5.0647,0,0,1,1.6817-.2656.25.25,0,0,0,.0107-.499A5.1452,5.1452,0,0,1,57.2756,55.2a5.044,5.044,0,0,1-.3047-1.6484.25.25,0,0,0-.498,0,5.004,5.004,0,0,1-.3057,1.6484,5.1272,5.1272,0,0,1-1.6914.3443.25.25,0,0,0,.0107.499,5.0977,5.0977,0,0,1,1.6807.2641,5.18,5.18,0,0,1,.3047,1.7246A.2507.2507,0,0,0,56.7219,58.2664Z" style="fill: #96cdce"/>
      <path d="M69.7834,51.5164a9.0935,9.0935,0,0,1-3.1806-.68,8.7774,8.7774,0,0,1-.6084-3.1055.25.25,0,0,0-.4981,0,8.7753,8.7753,0,0,1-.6094,3.1055,9.0935,9.0935,0,0,1-3.1806.68.25.25,0,0,0,.0107.499,8.745,8.745,0,0,1,3.17.5371,9.0576,9.0576,0,0,1,.6084,3.2447.25.25,0,0,0,.5,0,9.0637,9.0637,0,0,1,.6075-3.2447,8.749,8.749,0,0,1,3.17-.5371.25.25,0,0,0,.0107-.499Z" style="fill: #96cdce"/>
    </g>
    <path d="M30.168,48.54a2,2,0,0,1-1.5791-3.2265L43.1475,26.5618a2,2,0,0,1,3.16,2.4531L31.749,47.7664A1.9977,1.9977,0,0,1,30.168,48.54Z" style="fill: #ec008c"/>
  </g>
</svg>
