<?xml version="1.0" standalone="no"?><!-- Generator: Gravit.io --><svg xmlns="http://www.w3.org/2000/svg" xmlns:xlink="http://www.w3.org/1999/xlink" style="isolation:isolate" viewBox="0 0 74 74" width="74px" height="74px"><linearGradient id="_lgradient_0" x1="-1.0637210798953158" y1="0.5637818181818162" x2="2.0253182400683465" y2="0.5637818181818162" gradientTransform="matrix(23.41,0,0,2.75,25.587,63.7)" gradientUnits="userSpaceOnUse"><stop offset="0.43478260869565216%" stop-opacity="0.7" style="stop-color:rgb(235,0,141)"/><stop offset="100%" stop-opacity="0.7" style="stop-color:rgb(153,102,255)"/></linearGradient><ellipse vector-effect="non-scaling-stroke" cx="37.2923" cy="65.0746" rx="11.704999999999998" ry="1.375" fill="url(#_lgradient_0)"/><g><g><path d=" M 36.433 58.932 C 36.976 59.194 37.609 59.194 38.152 58.932 C 40.799 57.66 48.892 53.313 52.877 45.992 C 56.731 38.913 57.239 29.65 57.287 26.243 C 57.299 25.432 56.818 24.695 56.072 24.38 C 52.797 22.986 43.596 19.325 37.292 19.325 C 30.396 19.325 21.611 22.962 18.477 24.366 C 17.749 24.69 17.284 25.417 17.297 26.214 C 17.343 29.598 17.843 38.893 21.707 45.991 C 25.694 53.313 33.786 57.66 36.433 58.932 Z " fill="rgb(231,195,247)"/><linearGradient id="_lgradient_1" x1="-0.3929512174490935" y1="0.4945001594471533" x2="1.3527922856781727" y2="0.4821930095431347" gradientTransform="matrix(40.992,0,0,40.804,16.797,18.825)" gradientUnits="userSpaceOnUse"><stop offset="0.43478260869565216%" stop-opacity="1" style="stop-color:rgb(235,0,141)"/><stop offset="100%" stop-opacity="1" style="stop-color:rgb(153,102,255)"/></linearGradient><path d=" M 37.292 59.629 C 36.919 59.628 36.551 59.544 36.216 59.382 L 36.216 59.382 C 33.742 58.194 25.354 53.735 21.268 46.231 C 17.381 39.09 16.847 29.858 16.797 26.221 C 16.782 25.225 17.363 24.316 18.273 23.91 C 21.686 22.381 30.373 18.825 37.293 18.825 C 43.62 18.825 52.67 22.388 56.268 23.92 C 57.203 24.314 57.804 25.236 57.788 26.25 C 57.735 29.886 57.192 39.111 53.316 46.231 C 49.229 53.738 40.841 58.195 38.368 59.383 C 38.032 59.544 37.665 59.628 37.292 59.629 Z  M 37.292 19.825 C 30.565 19.825 22.036 23.32 18.681 24.823 C 18.136 25.066 17.788 25.61 17.797 26.206 C 17.845 29.77 18.365 38.808 22.147 45.752 C 26.089 52.994 34.244 57.326 36.65 58.481 L 36.65 58.481 C 37.056 58.677 37.529 58.677 37.935 58.481 C 40.34 57.326 48.495 52.996 52.438 45.752 C 56.208 38.828 56.737 29.797 56.789 26.235 C 56.797 25.628 56.436 25.075 55.876 24.84 C 52.334 23.332 43.436 19.825 37.292 19.825 Z " fill="url(#_lgradient_1)"/></g><g><path d=" M 37.292 52.321 C 37.16 52.321 37.03 52.295 36.908 52.245 C 36.61 52.121 29.557 49.14 26.412 43.267 C 24.429 39.204 23.339 34.763 23.213 30.243 C 23.209 29.872 23.411 29.53 23.737 29.354 C 24.05 29.185 31.454 25.217 37.292 25.217 C 43.002 25.217 50.524 29.182 50.841 29.351 C 51.17 29.526 51.374 29.87 51.371 30.243 C 51.245 34.763 50.154 39.204 48.172 43.267 C 45.027 49.14 37.973 52.121 37.676 52.245 C 37.554 52.295 37.424 52.321 37.292 52.321 Z " fill="rgb(255,255,255)"/><linearGradient id="_lgradient_2" x1="-0.7054909569147181" y1="0.48209060603574955" x2="1.6757266902692078" y2="0.49934520953755207" gradientTransform="matrix(30.158,0,0,29.104,22.214,24.217)" gradientUnits="userSpaceOnUse"><stop offset="0.43478260869565216%" stop-opacity="1" style="stop-color:rgb(235,0,141)"/><stop offset="97.82608695652173%" stop-opacity="1" style="stop-color:rgb(153,102,255)"/></linearGradient><path d=" M 37.292 26.217 C 42.818 26.217 50.371 30.234 50.371 30.234 C 50.239 34.591 49.189 38.871 47.291 42.795 C 44.278 48.421 37.292 51.321 37.292 51.321 C 37.292 51.321 30.306 48.421 27.294 42.795 C 25.395 38.871 24.345 34.591 24.213 30.234 C 24.213 30.234 31.64 26.217 37.292 26.217 M 37.292 24.217 C 31.204 24.217 23.583 28.301 23.262 28.474 C 22.61 28.827 22.207 29.511 22.214 30.252 C 22.345 34.933 23.476 39.532 25.531 43.739 C 28.842 49.924 36.214 53.039 36.526 53.168 C 37.017 53.372 37.569 53.372 38.059 53.168 C 38.372 53.038 45.743 49.924 49.054 43.739 C 51.109 39.532 52.24 34.933 52.372 30.253 C 52.378 29.506 51.969 28.818 51.31 28.468 C 50.984 28.294 43.248 24.217 37.292 24.217 L 37.292 24.217 Z " fill="url(#_lgradient_2)"/></g></g><g><linearGradient id="_lgradient_3" x1="-0.4739439022028023" y1="0.5276817745215135" x2="5.722363564019258" y2="0.48466977678752465" gradientTransform="matrix(11.671,0,0,11.675,6.217,14.841)" gradientUnits="userSpaceOnUse"><stop offset="0.43478260869565216%" stop-opacity="0.7" style="stop-color:rgb(235,0,141)"/><stop offset="100%" stop-opacity="0.7" style="stop-color:rgb(153,102,255)"/></linearGradient><path d=" M 17.656 20.42 C 16.174 20.294 13.645 19.918 13.176 19.448 C 12.725 18.997 12.401 16.523 12.301 15.07 C 12.29 14.94 12.182 14.841 12.052 14.841 C 11.922 14.841 11.814 14.94 11.803 15.07 C 11.704 16.523 11.38 18.996 10.929 19.448 C 10.459 19.918 7.931 20.294 6.447 20.42 C 6.315 20.43 6.214 20.542 6.217 20.675 C 6.22 20.807 6.326 20.915 6.458 20.919 C 7.948 20.981 10.48 21.246 10.929 21.695 C 11.397 22.163 11.713 24.748 11.802 26.267 C 11.802 26.405 11.914 26.517 12.052 26.517 C 12.19 26.517 12.302 26.405 12.302 26.267 C 12.391 24.748 12.708 22.163 13.176 21.695 C 13.625 21.246 16.156 20.981 17.646 20.919 C 17.779 20.915 17.884 20.807 17.887 20.675 C 17.89 20.542 17.789 20.43 17.657 20.42 L 17.656 20.42 Z " fill="url(#_lgradient_3)"/><linearGradient id="_lgradient_4" x1="-0.6665947297017764" y1="0.42911528245864766" x2="13.889486351585145" y2="0.530699322888293" gradientTransform="matrix(4.951,0,0,4.944,3.987,12.626)" gradientUnits="userSpaceOnUse"><stop offset="0.43478260869565216%" stop-opacity="0.7" style="stop-color:rgb(235,0,141)"/><stop offset="100%" stop-opacity="0.7" style="stop-color:rgb(153,102,255)"/></linearGradient><path d=" M 6.463 17.57 C 6.595 17.57 6.705 17.467 6.713 17.335 C 6.715 16.747 6.817 16.165 7.015 15.611 C 7.557 15.429 8.125 15.339 8.697 15.346 C 8.829 15.341 8.935 15.234 8.937 15.101 C 8.94 14.969 8.84 14.858 8.708 14.847 C 8.129 14.828 7.557 14.712 7.016 14.503 C 6.824 13.974 6.721 13.417 6.712 12.855 C 6.7 12.726 6.592 12.626 6.463 12.626 C 6.333 12.626 6.225 12.726 6.214 12.855 C 6.205 13.417 6.102 13.975 5.908 14.503 C 5.368 14.713 4.796 14.829 4.217 14.847 C 4.085 14.858 3.984 14.97 3.987 15.102 C 3.99 15.234 4.095 15.341 4.227 15.346 C 4.798 15.339 5.366 15.429 5.908 15.61 C 6.107 16.163 6.21 16.747 6.213 17.335 C 6.221 17.467 6.33 17.57 6.463 17.57 Z " fill="url(#_lgradient_4)"/><linearGradient id="_lgradient_5" x1="-1.2333211659157162" y1="0.5495460094529955" x2="7.235831264013885" y2="0.4907689102663238" gradientTransform="matrix(8.539,0,0,8.544,11.216,6.807)" gradientUnits="userSpaceOnUse"><stop offset="0.43478260869565216%" stop-opacity="0.7" style="stop-color:rgb(235,0,141)"/><stop offset="100%" stop-opacity="0.7" style="stop-color:rgb(153,102,255)"/></linearGradient><path d=" M 19.524 10.82 C 18.432 10.786 17.354 10.556 16.343 10.14 C 15.954 9.15 15.748 8.098 15.735 7.035 C 15.724 6.906 15.616 6.807 15.486 6.807 C 15.357 6.807 15.249 6.906 15.237 7.035 C 15.224 8.098 15.017 9.15 14.628 10.14 C 13.617 10.556 12.539 10.786 11.447 10.82 C 11.315 10.83 11.214 10.942 11.216 11.075 C 11.219 11.207 11.325 11.315 11.458 11.319 C 12.539 11.301 13.613 11.483 14.628 11.856 C 15.028 12.891 15.234 13.991 15.236 15.101 C 15.236 15.239 15.348 15.351 15.486 15.351 C 15.624 15.351 15.736 15.239 15.736 15.101 C 15.738 13.991 15.944 12.891 16.344 11.856 C 17.358 11.483 18.433 11.301 19.514 11.319 C 19.646 11.315 19.752 11.207 19.755 11.075 C 19.758 10.942 19.657 10.83 19.524 10.82 L 19.524 10.82 Z " fill="url(#_lgradient_5)"/></g><g><linearGradient id="_lgradient_6" x1="-4.781326668653484" y1="0.5321238720109296" x2="1.4374170355804132" y2="0.5321238720109296" gradientTransform="matrix(11.669,0,0,11.676,56.477,55.537)" gradientUnits="userSpaceOnUse"><stop offset="0.43478260869565216%" stop-opacity="0.7" style="stop-color:rgb(235,0,141)"/><stop offset="100%" stop-opacity="0.7" style="stop-color:rgb(153,102,255)"/></linearGradient><path d=" M 67.915 61.116 C 66.433 60.99 63.905 60.614 63.435 60.144 C 62.984 59.693 62.66 57.219 62.56 55.765 C 62.549 55.636 62.441 55.537 62.311 55.537 C 62.182 55.537 62.073 55.636 62.062 55.765 C 61.964 57.219 61.639 59.692 61.188 60.144 C 60.718 60.614 58.19 60.99 56.707 61.116 C 56.575 61.127 56.474 61.238 56.477 61.371 C 56.48 61.503 56.585 61.61 56.717 61.615 C 58.207 61.677 60.739 61.942 61.188 62.391 C 61.656 62.859 61.972 65.444 62.061 66.963 C 62.061 67.101 62.173 67.213 62.311 67.213 C 62.449 67.213 62.561 67.101 62.561 66.963 C 62.65 65.444 62.967 62.859 63.435 62.391 C 63.884 61.942 66.415 61.677 67.905 61.615 C 68.038 61.61 68.143 61.503 68.146 61.371 C 68.149 61.238 68.048 61.127 67.916 61.116 L 67.915 61.116 Z " fill="url(#_lgradient_6)"/><linearGradient id="_lgradient_7" x1="-10.819270908371339" y1="0.4908609638567558" x2="3.93958746939904" y2="0.4908609638567558" gradientTransform="matrix(4.951,0,0,4.942,54.246,53.324)" gradientUnits="userSpaceOnUse"><stop offset="0.43478260869565216%" stop-opacity="0.7" style="stop-color:rgb(235,0,141)"/><stop offset="100%" stop-opacity="0.7" style="stop-color:rgb(153,102,255)"/></linearGradient><path d=" M 56.722 58.266 C 56.854 58.267 56.964 58.163 56.972 58.031 C 56.974 57.444 57.077 56.861 57.275 56.308 C 57.816 56.125 58.385 56.035 58.956 56.042 C 59.088 56.037 59.194 55.93 59.197 55.798 C 59.2 55.666 59.099 55.554 58.967 55.543 C 58.388 55.525 57.816 55.409 57.276 55.2 C 57.083 54.671 56.98 54.114 56.971 53.552 C 56.959 53.423 56.851 53.324 56.722 53.324 C 56.592 53.324 56.484 53.423 56.473 53.552 C 56.464 54.114 56.361 54.672 56.167 55.2 C 55.627 55.41 55.055 55.526 54.476 55.544 C 54.344 55.555 54.243 55.667 54.246 55.799 C 54.249 55.931 54.354 56.038 54.487 56.043 C 55.058 56.037 55.626 56.126 56.167 56.307 C 56.366 56.861 56.469 57.444 56.472 58.032 C 56.48 58.164 56.59 58.266 56.722 58.266 Z " fill="url(#_lgradient_7)"/><linearGradient id="_lgradient_8" x1="-7.121114821677195" y1="0.4680785713661729" x2="1.3791338804592028" y2="0.40930604341205684" gradientTransform="matrix(8.537,0,0,8.545,61.477,47.503)" gradientUnits="userSpaceOnUse"><stop offset="0.43478260869565216%" stop-opacity="0.7" style="stop-color:rgb(235,0,141)"/><stop offset="100%" stop-opacity="0.7" style="stop-color:rgb(153,102,255)"/></linearGradient><path d=" M 69.783 51.516 C 68.691 51.483 67.614 51.252 66.603 50.836 C 66.214 49.847 66.007 48.794 65.994 47.731 C 65.983 47.602 65.875 47.503 65.745 47.503 C 65.616 47.503 65.508 47.602 65.496 47.731 C 65.483 48.794 65.277 49.847 64.887 50.836 C 63.876 51.252 62.799 51.483 61.706 51.516 C 61.574 51.527 61.474 51.639 61.477 51.771 C 61.479 51.903 61.585 52.01 61.717 52.015 C 62.798 51.997 63.873 52.179 64.887 52.553 C 65.287 53.588 65.493 54.687 65.495 55.797 C 65.495 55.935 65.607 56.047 65.745 56.047 C 65.883 56.047 65.995 55.935 65.995 55.797 C 65.998 54.688 66.203 53.588 66.603 52.552 C 67.617 52.179 68.692 51.997 69.773 52.015 C 69.905 52.01 70.01 51.903 70.013 51.771 C 70.016 51.639 69.915 51.527 69.784 51.516 L 69.783 51.516 Z " fill="url(#_lgradient_8)"/></g><linearGradient id="_lgradient_9" x1="-1.4943083298549187" y1="0.5259468250304522" x2="2.402123418204695" y2="0.4818026184931503" gradientTransform="matrix(18.559,0,0,22.752,28.169,25.788)" gradientUnits="userSpaceOnUse"><stop offset="0.43478260869565216%" stop-opacity="1" style="stop-color:rgb(235,0,141)"/><stop offset="97.82608695652173%" stop-opacity="1" style="stop-color:rgb(153,102,255)"/></linearGradient><path d=" M 30.168 48.54 C 29.405 48.54 28.708 48.105 28.372 47.419 C 28.037 46.733 28.121 45.917 28.589 45.314 L 43.148 26.562 C 43.825 25.689 45.081 25.531 45.954 26.208 C 46.827 26.886 46.985 28.142 46.308 29.015 L 31.749 47.766 C 31.37 48.255 30.786 48.541 30.168 48.54 Z " fill="url(#_lgradient_9)"/></svg>