<?xml version="1.0" standalone="no"?><!-- Generator: Gravit.io --><svg xmlns="http://www.w3.org/2000/svg" xmlns:xlink="http://www.w3.org/1999/xlink" style="isolation:isolate" viewBox="0 0 70 60" width="70px" height="60px"><g><linearGradient id="_lgradient_17" x1="0" y1="0.5" x2="1" y2="0.5" gradientTransform="matrix(65.674,0,0,60,2.163,0)" gradientUnits="userSpaceOnUse"><stop offset="2.1739130434782608%" stop-opacity="0.7" style="stop-color:rgb(145,171,255)"/><stop offset="98.69565217391305%" stop-opacity="0.7" style="stop-color:rgb(174,1,157)"/></linearGradient><path d=" M 62.234 11.348 L 46.277 11.348 L 46.277 8.087 C 47.222 7.767 47.999 7.031 48.349 6.06 C 48.971 4.33 48.071 2.417 46.342 1.794 C 43.085 0.62 39.163 0 35 0 C 30.837 0 26.915 0.62 23.658 1.794 C 21.929 2.417 21.028 4.33 21.651 6.06 C 22.009 7.053 22.793 7.772 23.723 8.087 L 23.723 11.348 L 7.766 11.348 C 4.677 11.348 2.163 13.861 2.163 16.95 L 2.163 54.397 C 2.163 57.487 4.677 60 7.766 60 L 62.234 60 C 65.323 60 67.837 57.487 67.837 54.397 L 67.837 16.95 C 67.837 13.861 65.323 11.348 62.234 11.348 Z  M 24.379 3.796 C 27.407 2.704 31.08 2.128 35 2.128 C 38.92 2.128 42.593 2.704 45.621 3.796 C 46.247 4.021 46.572 4.713 46.347 5.338 C 46.175 5.816 45.719 6.136 45.213 6.136 C 45.074 6.136 44.936 6.112 44.804 6.065 C 42.074 5.081 38.593 4.539 35 4.539 C 31.407 4.539 27.926 5.081 25.196 6.065 C 24.57 6.29 23.878 5.964 23.653 5.339 C 23.428 4.713 23.753 4.021 24.379 3.796 Z  M 25.851 8.088 C 25.873 8.081 25.895 8.074 25.917 8.066 C 28.421 7.164 31.647 6.667 35 6.667 C 38.353 6.667 41.579 7.164 44.083 8.067 C 44.105 8.074 44.127 8.08 44.149 8.087 L 44.149 11.348 L 25.851 11.348 L 25.851 8.088 Z  M 4.291 16.95 C 4.291 15.034 5.85 13.475 7.766 13.475 L 62.234 13.475 C 64.15 13.475 65.709 15.034 65.709 16.95 L 65.709 27.163 C 65.709 34.085 60.078 39.716 53.156 39.716 L 39.468 39.716 L 39.468 38.511 C 39.468 36.673 37.973 35.177 36.135 35.177 L 33.865 35.177 C 32.027 35.177 30.532 36.673 30.532 38.511 L 30.532 39.716 L 16.844 39.716 C 9.922 39.716 4.291 34.085 4.291 27.163 L 4.291 16.95 Z  M 37.34 40.78 C 37.34 41.445 36.8 41.986 36.135 41.986 L 33.865 41.986 C 33.2 41.986 32.66 41.445 32.66 40.78 L 32.66 38.511 C 32.66 37.846 33.2 37.305 33.865 37.305 L 36.135 37.305 C 36.8 37.305 37.34 37.846 37.34 38.511 L 37.34 40.78 Z  M 32.66 43.887 C 33.034 44.033 33.44 44.113 33.865 44.113 L 36.135 44.113 C 36.56 44.113 36.966 44.033 37.34 43.887 L 37.34 45.319 C 37.34 45.984 36.8 46.525 36.135 46.525 L 33.865 46.525 C 33.2 46.525 32.66 45.984 32.66 45.319 L 32.66 43.887 Z  M 65.709 54.397 C 65.709 56.313 64.15 57.872 62.234 57.872 L 7.766 57.872 C 5.85 57.872 4.291 56.313 4.291 54.397 L 4.291 34.769 C 6.868 39.007 11.531 41.844 16.844 41.844 L 30.532 41.844 L 30.532 45.319 C 30.532 47.157 32.027 48.652 33.865 48.652 L 36.135 48.652 C 37.973 48.652 39.468 47.157 39.468 45.319 L 39.468 41.844 L 53.156 41.844 C 58.469 41.844 63.132 39.007 65.709 34.769 L 65.709 54.397 Z " fill="url(#_lgradient_17)"/></g></svg>