<?xml version="1.0" standalone="no"?><!-- Generator: Gravit.io --><svg xmlns="http://www.w3.org/2000/svg" xmlns:xlink="http://www.w3.org/1999/xlink" style="isolation:isolate" viewBox="0 0 1350 660" width="1350px" height="660px"><linearGradient id="_lgradient_12" x1="0" y1="0.5" x2="1" y2="0.5" gradientTransform="matrix(1350.358,-361.827,361.827,1350.358,-180.892,-544.551)" gradientUnits="userSpaceOnUse"><stop offset="2.1739130434782608%" stop-opacity="1" style="stop-color:rgb(145,171,255)"/><stop offset="98.69565217391305%" stop-opacity="1" style="stop-color:rgb(174,1,157)"/></linearGradient><path d=" M 1315.333 191.372 L 1259.857 287.415 L 1204.382 383.459 C 1185.059 416.913 1142.204 459.752 1108.742 479.062 L 1012.678 534.501 L 916.613 589.939 C 883.151 609.25 824.619 624.921 785.984 624.914 L 675.071 624.893 L 564.157 624.872 C 525.523 624.864 466.997 609.17 433.542 589.847 L 337.499 534.371 L 241.455 478.896 C 208.001 459.573 165.163 416.718 145.852 383.256 L 90.413 287.192 L 34.975 191.127 C 15.664 157.665 -0.007 99.133 0 60.499 L 0.021 -50.415 L 0.042 -161.329 C 0.05 -199.963 15.744 -258.489 35.067 -291.944 L 90.543 -387.987 L 146.018 -484.031 C 165.341 -517.485 208.196 -560.323 241.658 -579.634 L 337.722 -635.072 L 433.787 -690.511 C 467.249 -709.822 525.781 -725.493 564.416 -725.486 L 675.329 -725.465 L 786.243 -725.443 C 824.877 -725.436 883.403 -709.742 916.858 -690.418 L 1012.901 -634.943 L 1108.945 -579.468 C 1142.399 -560.145 1185.237 -517.29 1204.548 -483.828 L 1259.987 -387.763 L 1315.425 -291.699 C 1334.736 -258.237 1350.407 -199.704 1350.4 -161.07 L 1350.379 -50.157 L 1350.358 60.757 C 1350.35 99.391 1334.656 157.918 1315.333 191.372 Z " fill="url(#_lgradient_12)" style="mix-blend-mode:multiply;"/></svg>