<svg xmlns="http://www.w3.org/2000/svg" xmlns:xlink="http://www.w3.org/1999/xlink" viewBox="0 0 437.17 125.09"><defs><style>.cls-1{fill:none;}.cls-2{fill:#34b1cd;}.cls-3{clip-path:url(#clip-path);}.cls-4{fill:#26a3bf;}.cls-5,.cls-7{fill:#34b4d1;}.cls-10,.cls-11,.cls-12,.cls-14,.cls-15,.cls-5,.cls-8{fill-rule:evenodd;}.cls-6,.cls-8{fill:#168199;}.cls-10,.cls-9{fill:#48c0db;}.cls-11{fill:#fff;}.cls-12,.cls-13{fill:#e6e6e6;}.cls-14{fill:#b3b3b3;}.cls-15{fill:#ccc;}</style><clipPath id="clip-path" transform="translate(1.72)"><rect class="cls-1" width="430.87" height="125.07"/></clipPath></defs><g id="Layer_2" data-name="Layer 2"><g id="OBJECTS"><rect class="cls-2" x="1.72" width="430.87" height="125.07"/><g class="cls-3"><rect class="cls-4" x="1.72" width="430.87" height="125.07"/><path class="cls-5" d="M0,100.42c0-5.93,4.75-11,11.51-13.16.06-6.54,5.88-12,13.78-13.65a11.11,11.11,0,0,1-.54-3.41C24.75,62.33,33.11,56,43.42,56a23.71,23.71,0,0,1,7.27,1.12c3-5,9.52-8.62,17.06-8.9,10.41-.38,18.85,5.76,18.85,13.7a11.38,11.38,0,0,1-.13,1.66,23.68,23.68,0,0,1,10.47-2.8c9.52-.35,17.38,4.74,18.66,11.69a32.09,32.09,0,0,1,14-3.71,29.35,29.35,0,0,1,17.33,4.55c4.34-6.2,12.75-10.6,22.4-11,7.49-.27,14.22,1.94,18.89,5.68,3.19-4.58,9.41-7.84,16.55-8.1,9.93-.37,18.07,5.2,18.79,12.62a24.88,24.88,0,0,1,3.91-.45A21.28,21.28,0,0,1,241,76c4.05-6.82,12.91-11.77,23.18-12.15a32,32,0,0,1,8.53.81A22.81,22.81,0,0,1,285.92,60l.78,0,.78,0a21.5,21.5,0,0,1,13.18,3.63,33.24,33.24,0,0,1,8.54-1.43c10.27-.38,19.12,3.93,23.18,10.46a22.69,22.69,0,0,1,13.54-4.89,26.45,26.45,0,0,1,3.91.17c.72-7.47,8.86-13.63,18.79-14,6.74-.25,12.65,2.23,16,6.17,3.37-3.71,9-6.15,15.36-6.15,10.31,0,18.66,6.38,18.66,14.25a11.29,11.29,0,0,1-1.31,5.26C423.62,75.73,428,79.58,428,86.32a34.1,34.1,0,0,1-.65,5.74,12.11,12.11,0,0,1,3.54,8.36v24.65H0Z" transform="translate(1.72)"/><rect class="cls-6" x="24.03" y="71.65" width="5.01" height="24.26"/><rect class="cls-6" x="2.62" y="83.34" width="29.8" height="3.89"/><rect class="cls-6" y="85.97" width="35.03" height="32.81"/><rect class="cls-7" x="10.34" y="109.53" width="14.35" height="9.25"/><rect class="cls-6" x="8.15" y="111.76" width="18.74" height="0.38"/><rect class="cls-6" x="17.28" y="108.48" width="0.47" height="3.66"/><rect class="cls-6" x="13.46" y="108.48" width="0.47" height="3.66"/><rect class="cls-6" x="21.1" y="108.48" width="0.47" height="3.66"/><rect class="cls-7" y="109.15" width="35.03" height="0.38"/><rect class="cls-7" y="101.91" width="35.03" height="0.38"/><rect class="cls-7" x="2.62" y="101.91" width="5.8" height="5.63"/><rect class="cls-6" x="5.3" y="102.27" width="0.44" height="5.27"/><rect class="cls-6" x="2.26" y="104.73" width="6.52" height="0.36"/><rect class="cls-7" x="10.62" y="101.91" width="5.8" height="5.63"/><rect class="cls-6" x="13.3" y="102.27" width="0.44" height="5.27"/><rect class="cls-6" x="10.26" y="104.73" width="6.52" height="0.36"/><rect class="cls-7" x="18.62" y="101.91" width="5.8" height="5.63"/><rect class="cls-6" x="21.29" y="102.27" width="0.44" height="5.27"/><rect class="cls-6" x="18.26" y="104.73" width="6.52" height="0.36"/><rect class="cls-7" x="26.61" y="101.91" width="5.8" height="5.63"/><rect class="cls-6" x="29.29" y="102.27" width="0.44" height="5.27"/><rect class="cls-6" x="26.26" y="104.73" width="6.52" height="0.36"/><rect class="cls-7" y="94.38" width="35.03" height="0.38"/><rect class="cls-7" x="2.62" y="94.38" width="5.8" height="5.63"/><rect class="cls-6" x="5.3" y="94.74" width="0.44" height="5.27"/><rect class="cls-6" x="2.26" y="97.2" width="6.52" height="0.36"/><rect class="cls-7" x="10.62" y="94.38" width="5.8" height="5.63"/><rect class="cls-6" x="13.3" y="94.74" width="0.44" height="5.27"/><rect class="cls-6" x="10.26" y="97.2" width="6.52" height="0.36"/><rect class="cls-7" x="18.62" y="94.38" width="5.8" height="5.63"/><rect class="cls-6" x="21.29" y="94.74" width="0.44" height="5.27"/><rect class="cls-6" x="18.26" y="97.2" width="6.52" height="0.36"/><rect class="cls-7" x="26.61" y="94.38" width="5.8" height="5.63"/><rect class="cls-6" x="29.29" y="94.74" width="0.44" height="5.27"/><rect class="cls-6" x="26.26" y="97.2" width="6.52" height="0.36"/><rect class="cls-7" y="86.85" width="35.03" height="0.38"/><rect class="cls-7" x="2.62" y="86.85" width="5.8" height="5.63"/><rect class="cls-6" x="5.3" y="87.21" width="0.44" height="5.27"/><rect class="cls-6" x="2.26" y="89.67" width="6.52" height="0.36"/><rect class="cls-7" x="10.62" y="86.85" width="5.8" height="5.63"/><rect class="cls-6" x="13.3" y="87.21" width="0.44" height="5.27"/><rect class="cls-6" x="10.26" y="89.67" width="6.52" height="0.36"/><rect class="cls-7" x="18.62" y="86.85" width="5.8" height="5.63"/><rect class="cls-6" x="21.29" y="87.21" width="0.44" height="5.27"/><rect class="cls-6" x="18.26" y="89.67" width="6.52" height="0.36"/><rect class="cls-7" x="26.61" y="86.85" width="5.8" height="5.63"/><rect class="cls-6" x="29.29" y="87.21" width="0.44" height="5.27"/><rect class="cls-6" x="26.26" y="89.67" width="6.52" height="0.36"/><rect class="cls-7" x="2.62" y="84.11" width="29.8" height="0.38"/><polygon class="cls-8" points="2.62 83.34 32.42 83.34 17.52 71.67 2.62 83.34"/><rect class="cls-7" x="14.62" y="77.37" width="5.8" height="5.63"/><rect class="cls-6" x="17.3" y="77.73" width="0.44" height="5.27"/><rect class="cls-6" x="14.26" y="80.18" width="6.52" height="0.36"/><rect class="cls-7" x="12.12" y="77.34" width="10.79" height="0.38"/><rect class="cls-7" x="24.03" y="72.85" width="5.01" height="0.38"/><rect class="cls-6" x="75.17" y="86.53" width="39.39" height="7.51"/><rect class="cls-6" x="75.17" y="91.81" width="10.5" height="26.59"/><rect class="cls-7" x="72.62" y="99.24" width="15.59" height="1.28"/><rect class="cls-7" x="76.73" y="93.38" width="7.38" height="4.89"/><path class="cls-5" d="M76.18,111.57h5v-6.1A2.52,2.52,0,0,0,78.7,103h0a2.52,2.52,0,0,0-2.52,2.51Z" transform="translate(1.72)"/><rect class="cls-7" x="77.9" y="112.99" width="5.03" height="0.83"/><path class="cls-8" d="M102.33,118.4H99.47V101.85a6.35,6.35,0,0,0-6.33-6.33h0a6.34,6.34,0,0,0-6.32,6.33V118.4H84V91.81h18.38Z" transform="translate(1.72)"/><rect class="cls-6" x="104.06" y="91.81" width="10.5" height="26.59"/><rect class="cls-7" x="103.99" y="99.24" width="13.11" height="1.28"/><rect class="cls-7" x="105.62" y="93.38" width="7.38" height="4.89"/><path class="cls-5" d="M105.07,111.57h5v-6.1a2.52,2.52,0,0,0-2.51-2.51h0a2.52,2.52,0,0,0-2.52,2.51Z" transform="translate(1.72)"/><rect class="cls-7" x="106.79" y="112.99" width="5.03" height="0.83"/><rect class="cls-7" x="72.62" y="88.9" width="44.48" height="1.28"/><rect class="cls-7" x="75.17" y="90.18" width="39.39" height="0.29"/><rect class="cls-7" x="75.17" y="100.53" width="10.8" height="0.29"/><rect class="cls-6" x="74.17" y="85.25" width="41.38" height="1.28"/><rect class="cls-9" x="75.17" y="86.53" width="39.39" height="0.29"/><rect class="cls-6" x="77.61" y="94.21" width="5.62" height="3.23"/><rect class="cls-7" x="78.04" y="94.64" width="4.77" height="2.38"/><rect class="cls-6" x="106.5" y="94.21" width="5.62" height="3.23"/><rect class="cls-7" x="106.93" y="94.64" width="4.77" height="2.38"/><path class="cls-8" d="M76.8,111h3.8v-5.39a1.91,1.91,0,0,0-1.9-1.9h0a1.91,1.91,0,0,0-1.9,1.9Z" transform="translate(1.72)"/><path class="cls-5" d="M77.18,110.56h3v-4.91a1.53,1.53,0,0,0-1.52-1.52h0a1.53,1.53,0,0,0-1.52,1.52Z" transform="translate(1.72)"/><path class="cls-8" d="M105.69,111h3.8v-5.39a1.91,1.91,0,0,0-1.9-1.9h0a1.91,1.91,0,0,0-1.9,1.9Z" transform="translate(1.72)"/><path class="cls-5" d="M106.07,110.56h3v-4.91a1.52,1.52,0,0,0-1.51-1.52h0a1.53,1.53,0,0,0-1.52,1.52Z" transform="translate(1.72)"/><path class="cls-10" d="M72.45,85.92h.94V84.15a.48.48,0,0,0-.47-.48h0a.48.48,0,0,0-.47.48Z" transform="translate(1.72)"/><path class="cls-10" d="M75,85.92h.94V84.15a.48.48,0,0,0-.47-.48h0a.48.48,0,0,0-.47.48Z" transform="translate(1.72)"/><path class="cls-8" d="M77.51,85.92h.94V84.15a.48.48,0,0,0-.47-.48h0a.48.48,0,0,0-.47.48Z" transform="translate(1.72)"/><path class="cls-8" d="M80,85.92h1V84.15a.48.48,0,0,0-.47-.48h0a.49.49,0,0,0-.48.48Z" transform="translate(1.72)"/><path class="cls-8" d="M82.56,85.92h.94V84.15a.48.48,0,0,0-.47-.48h0a.48.48,0,0,0-.47.48Z" transform="translate(1.72)"/><path class="cls-8" d="M85.09,85.92H86V84.15a.48.48,0,0,0-.47-.48h0a.48.48,0,0,0-.47.48Z" transform="translate(1.72)"/><path class="cls-8" d="M87.62,85.92h.94V84.15a.48.48,0,0,0-.47-.48h0a.48.48,0,0,0-.47.48Z" transform="translate(1.72)"/><path class="cls-8" d="M90.14,85.92h1V84.15a.48.48,0,0,0-.47-.48h0a.49.49,0,0,0-.48.48Z" transform="translate(1.72)"/><path class="cls-8" d="M92.67,85.92h.94V84.15a.48.48,0,0,0-.47-.48h0a.48.48,0,0,0-.47.48Z" transform="translate(1.72)"/><path class="cls-8" d="M95.2,85.92h.94V84.15a.48.48,0,0,0-.47-.48h0a.48.48,0,0,0-.47.48Z" transform="translate(1.72)"/><path class="cls-8" d="M97.73,85.92h.94V84.15a.48.48,0,0,0-.47-.48h0a.48.48,0,0,0-.47.48Z" transform="translate(1.72)"/><path class="cls-8" d="M100.25,85.92h1V84.15a.49.49,0,0,0-.48-.48h0a.48.48,0,0,0-.47.48Z" transform="translate(1.72)"/><path class="cls-8" d="M102.78,85.92h.94V84.15a.48.48,0,0,0-.47-.48h0a.48.48,0,0,0-.47.48Z" transform="translate(1.72)"/><path class="cls-8" d="M105.31,85.92h.94V84.15a.48.48,0,0,0-.47-.48h0a.48.48,0,0,0-.47.48Z" transform="translate(1.72)"/><path class="cls-8" d="M107.83,85.92h1V84.15a.48.48,0,0,0-.47-.48h0a.49.49,0,0,0-.48.48Z" transform="translate(1.72)"/><path class="cls-8" d="M110.36,85.92h1V84.15a.49.49,0,0,0-.48-.48h0a.48.48,0,0,0-.47.48Z" transform="translate(1.72)"/><path class="cls-8" d="M112.89,85.92h.94V84.15a.48.48,0,0,0-.47-.48h0a.48.48,0,0,0-.47.48Z" transform="translate(1.72)"/><rect class="cls-7" x="85.67" y="90.47" width="0.29" height="27.93"/><rect class="cls-7" x="103.76" y="90.47" width="0.29" height="27.93"/><rect class="cls-7" x="103.76" y="100.53" width="10.8" height="0.29"/><circle class="cls-6" cx="54.63" cy="66.09" r="1.93"/><path class="cls-8" d="M61.36,65.65a1.93,1.93,0,1,1-2.47,1.15A1.92,1.92,0,0,1,61.36,65.65Z" transform="translate(1.72)"/><path class="cls-8" d="M68.79,69.94a1.93,1.93,0,1,1-2.71.24A1.92,1.92,0,0,1,68.79,69.94Z" transform="translate(1.72)"/><path class="cls-8" d="M74.31,76.51a1.93,1.93,0,1,1-2.64-.7A1.93,1.93,0,0,1,74.31,76.51Z" transform="translate(1.72)"/><path class="cls-8" d="M77.24,84.58A1.92,1.92,0,1,1,75,83,1.91,1.91,0,0,1,77.24,84.58Z" transform="translate(1.72)"/><path class="cls-8" d="M77.24,93.16a1.92,1.92,0,1,1-1.56-2.24A1.91,1.91,0,0,1,77.24,93.16Z" transform="translate(1.72)"/><path class="cls-8" d="M74.31,101.22A1.93,1.93,0,1,1,71,99.29a1.93,1.93,0,0,1,3.34,1.93Z" transform="translate(1.72)"/><path class="cls-8" d="M68.79,107.79a1.93,1.93,0,1,1,.24-2.71A1.92,1.92,0,0,1,68.79,107.79Z" transform="translate(1.72)"/><path class="cls-8" d="M61.36,112.09a1.93,1.93,0,1,1,1.15-2.48A1.93,1.93,0,0,1,61.36,112.09Z" transform="translate(1.72)"/><path class="cls-8" d="M52.91,113.58a1.93,1.93,0,1,1,1.93-1.93A1.94,1.94,0,0,1,52.91,113.58Z" transform="translate(1.72)"/><path class="cls-8" d="M44.46,112.09a1.93,1.93,0,1,1,2.47-1.16A1.93,1.93,0,0,1,44.46,112.09Z" transform="translate(1.72)"/><path class="cls-8" d="M37,107.79a1.93,1.93,0,1,1,2.72-.23A1.92,1.92,0,0,1,37,107.79Z" transform="translate(1.72)"/><path class="cls-8" d="M31.51,101.22a1.93,1.93,0,1,1,2.64.71A1.93,1.93,0,0,1,31.51,101.22Z" transform="translate(1.72)"/><path class="cls-8" d="M28.58,93.16a1.93,1.93,0,1,1,2.23,1.56A1.93,1.93,0,0,1,28.58,93.16Z" transform="translate(1.72)"/><path class="cls-8" d="M28.58,84.58a1.93,1.93,0,1,1,1.56,2.23A1.93,1.93,0,0,1,28.58,84.58Z" transform="translate(1.72)"/><path class="cls-8" d="M31.51,76.51a1.93,1.93,0,1,1,.71,2.64A1.93,1.93,0,0,1,31.51,76.51Z" transform="translate(1.72)"/><path class="cls-8" d="M37,69.94a1.93,1.93,0,1,1-.24,2.72A1.92,1.92,0,0,1,37,69.94Z" transform="translate(1.72)"/><path class="cls-8" d="M44.46,65.65a1.93,1.93,0,1,1-1.15,2.47A1.92,1.92,0,0,1,44.46,65.65Z" transform="translate(1.72)"/><path class="cls-8" d="M52.91,91.86a3,3,0,1,0-3-3A3,3,0,0,0,52.91,91.86Z" transform="translate(1.72)"/><polygon class="cls-6" points="54.63 92.51 48.32 118.57 46.62 118.24 53.78 88.68 54.63 88.85 55.48 88.68 62.64 118.24 60.95 118.57 54.63 92.51"/><path class="cls-6" d="M52.91,67.58a21.29,21.29,0,1,1,0,42.57v-.87a20.42,20.42,0,1,0,0-40.83Zm0,42.57a21.29,21.29,0,0,1,0-42.57v.87a20.42,20.42,0,1,0,0,40.83Z" transform="translate(1.72)"/><path class="cls-6" d="M52.91,71.24a17.63,17.63,0,0,1,0,35.25v-.87a16.76,16.76,0,0,0,0-33.51Zm0,35.25a17.63,17.63,0,0,1,0-35.25v.87a16.76,16.76,0,1,0,0,33.51Z" transform="translate(1.72)"/><rect class="cls-6" x="50.13" y="69.46" width="4.05" height="0.87" transform="translate(-30.48 92) rotate(-67.95)"/><rect class="cls-6" x="53.24" y="67.87" width="0.87" height="4.05" transform="translate(-20.59 25.25) rotate(-22.04)"/><rect class="cls-6" x="53.43" y="69.62" width="4.05" height="0.86" transform="translate(-31.62 79.89) rotate(-57.96)"/><polygon class="cls-6" points="58.67 72.38 57.83 68.42 58.68 68.24 59.52 72.2 58.67 72.38"/><rect class="cls-6" x="56.66" y="70.34" width="4.05" height="0.87" transform="translate(-31.46 66.96) rotate(-47.96)"/><rect class="cls-6" x="59.68" y="69.27" width="0.87" height="4.05" transform="matrix(1, -0.04, 0.04, 1, -0.78, 2.19)"/><rect class="cls-6" x="59.72" y="71.62" width="4.05" height="0.87" transform="translate(-29.54 53.21) rotate(-37.95)"/><polygon class="cls-6" points="64.07 74.76 64.63 70.75 65.49 70.87 64.93 74.88 64.07 74.76"/><rect class="cls-6" x="62.5" y="73.41" width="4.05" height="0.87" transform="translate(-25.37 38.87) rotate(-27.96)"/><polygon class="cls-6" points="66.38 76.61 67.62 72.76 68.45 73.03 67.2 76.88 66.38 76.61"/><polygon class="cls-6" points="66.62 76.3 70.47 75.05 70.74 75.88 66.89 77.12 66.62 76.3"/><rect class="cls-6" x="65.91" y="76.82" width="4.05" height="0.87" transform="translate(-30.43 101.05) rotate(-62.04)"/><polygon class="cls-6" points="68.62 78.57 72.63 78.01 72.75 78.87 68.74 79.43 68.62 78.57"/><rect class="cls-6" x="67.7" y="79.61" width="4.05" height="0.87" transform="translate(-34.55 85.79) rotate(-52.05)"/><rect class="cls-6" x="70.05" y="79.64" width="0.87" height="4.05" transform="translate(-11.92 149.19) rotate(-87.96)"/><rect class="cls-6" x="68.98" y="82.66" width="4.05" height="0.87" transform="translate(-35.65 68.94) rotate(-42.04)"/><polygon class="cls-6" points="71.3 83.98 75.26 84.82 75.08 85.67 71.12 84.83 71.3 83.98"/><rect class="cls-6" x="69.71" y="85.89" width="4.05" height="0.86" transform="translate(-33.15 51.22) rotate(-32.05)"/><rect class="cls-6" x="71.45" y="86.08" width="0.87" height="4.05" transform="translate(-35.04 121.67) rotate(-67.96)"/><rect class="cls-6" x="69.86" y="89.19" width="4.05" height="0.87" transform="translate(-26.66 33.53) rotate(-22.05)"/><rect class="cls-6" x="71.3" y="89.39" width="0.86" height="4.05" transform="translate(-42.09 103.71) rotate(-57.96)"/><polygon class="cls-6" points="71.12 92.91 75.08 92.06 75.26 92.91 71.3 93.76 71.12 92.91"/><rect class="cls-6" x="70.57" y="92.62" width="0.87" height="4.05" transform="translate(-45.11 83.99) rotate(-47.96)"/><rect class="cls-6" x="68.46" y="95.64" width="4.05" height="0.87" transform="translate(-1.67 2.58) rotate(-2.05)"/><rect class="cls-6" x="69.29" y="95.67" width="0.87" height="4.05" transform="translate(-43.62 63.54) rotate(-37.95)"/><polygon class="cls-6" points="68.74 98.3 72.75 98.86 72.63 99.72 68.62 99.16 68.74 98.3"/><rect class="cls-6" x="67.5" y="98.46" width="0.87" height="4.05" transform="translate(-37.46 43.57) rotate(-27.96)"/><polygon class="cls-6" points="66.89 100.61 70.74 101.86 70.47 102.68 66.62 101.43 66.89 100.61"/><polygon class="cls-6" points="67.2 100.86 68.45 104.71 67.62 104.97 66.38 101.12 67.2 100.86"/><rect class="cls-6" x="64.09" y="101.87" width="0.87" height="4.05" transform="translate(-55.77 112.19) rotate(-62.05)"/><polygon class="cls-6" points="64.93 102.86 65.49 106.86 64.63 106.98 64.07 102.98 64.93 102.86"/><rect class="cls-6" x="61.31" y="103.66" width="0.86" height="4.05" transform="translate(-57.84 89.36) rotate(-52.04)"/><rect class="cls-6" x="58.09" y="106.01" width="4.05" height="0.87" transform="translate(-46.68 162.71) rotate(-87.95)"/><rect class="cls-6" x="58.25" y="104.93" width="0.87" height="4.05" transform="translate(-54.8 66.83) rotate(-42.04)"/><polygon class="cls-6" points="59.52 105.53 58.68 109.49 57.83 109.31 58.67 105.35 59.52 105.53"/><rect class="cls-6" x="55.03" y="105.66" width="0.86" height="4.05" transform="translate(-46.96 45.83) rotate(-32.04)"/><rect class="cls-6" x="51.65" y="107.41" width="4.05" height="0.87" transform="translate(-64.71 117.11) rotate(-67.95)"/><rect class="cls-6" x="51.72" y="105.82" width="0.87" height="4.05" transform="translate(-34.95 27.46) rotate(-22.05)"/><rect class="cls-6" x="48.34" y="107.25" width="4.05" height="0.86" transform="translate(-65.91 93.23) rotate(-57.95)"/><polygon class="cls-6" points="50.59 105.35 51.44 109.31 50.59 109.49 49.74 105.53 50.59 105.35"/><rect class="cls-6" x="45.11" y="106.52" width="4.05" height="0.87" transform="translate(-62.14 70.33) rotate(-47.96)"/><rect class="cls-6" x="45.28" y="104.41" width="0.87" height="4.05" transform="translate(-2.05 1.7) rotate(-2.05)"/><rect class="cls-6" x="42.06" y="105.25" width="4.05" height="0.86" transform="translate(-53.95 49.46) rotate(-37.95)"/><polygon class="cls-6" points="45.2 102.98 44.64 106.98 43.78 106.86 44.34 102.86 45.2 102.98"/><rect class="cls-6" x="39.27" y="103.46" width="4.05" height="0.87" transform="translate(-42.16 31.48) rotate(-27.95)"/><polygon class="cls-6" points="42.89 101.12 41.64 104.97 40.82 104.71 42.06 100.86 42.89 101.12"/><polygon class="cls-6" points="42.64 101.43 38.79 102.68 38.53 101.86 42.38 100.61 42.64 101.43"/><rect class="cls-6" x="35.86" y="100.05" width="4.05" height="0.87" transform="translate(-66.91 86.84) rotate(-62.04)"/><polygon class="cls-6" points="40.64 99.16 36.63 99.72 36.52 98.86 40.52 98.3 40.64 99.16"/><rect class="cls-6" x="34.08" y="97.26" width="4.05" height="0.87" transform="translate(-61.42 66.07) rotate(-52.04)"/><rect class="cls-6" x="34.91" y="94.05" width="0.87" height="4.05" transform="translate(-60.21 127.96) rotate(-87.95)"/><rect class="cls-6" x="32.8" y="94.21" width="4.05" height="0.87" transform="translate(-52.7 47.68) rotate(-42.04)"/><polygon class="cls-6" points="37.97 93.76 34.01 92.91 34.19 92.06 38.15 92.91 37.97 93.76"/><rect class="cls-6" x="32.07" y="90.98" width="4.05" height="0.86" transform="translate(-41.59 32.02) rotate(-32.04)"/><rect class="cls-6" x="33.5" y="87.6" width="0.87" height="4.05" transform="translate(-60.15 87.44) rotate(-67.95)"/><rect class="cls-6" x="31.91" y="87.67" width="4.05" height="0.87" transform="translate(-28.87 19.18) rotate(-22.05)"/><rect class="cls-6" x="33.66" y="84.3" width="0.86" height="4.05" transform="translate(-55.44 69.41) rotate(-57.95)"/><polygon class="cls-6" points="38.15 84.83 34.19 85.67 34.01 84.82 37.97 83.98 38.15 84.83"/><rect class="cls-6" x="34.39" y="81.07" width="0.87" height="4.05" transform="translate(-48.48 53.3) rotate(-47.95)"/><rect class="cls-6" x="33.32" y="81.23" width="4.05" height="0.87" transform="matrix(1, -0.04, 0.04, 1, -1.17, 1.31)"/><rect class="cls-6" x="35.67" y="78.01" width="0.87" height="4.05" transform="translate(-39.87 39.13) rotate(-37.96)"/><polygon class="cls-6" points="40.52 79.43 36.52 78.87 36.63 78.01 40.64 78.57 40.52 79.43"/><rect class="cls-6" x="37.45" y="75.23" width="0.87" height="4.05" transform="translate(-30.07 26.77) rotate(-27.95)"/><polygon class="cls-6" points="42.38 77.12 38.53 75.88 38.79 75.05 42.64 76.3 42.38 77.12"/><polygon class="cls-6" points="42.06 76.88 40.82 73.03 41.64 72.76 42.89 76.61 42.06 76.88"/><rect class="cls-6" x="40.86" y="71.82" width="0.87" height="4.05" transform="translate(-41.57 75.7) rotate(-62.04)"/><polygon class="cls-6" points="44.34 74.88 43.78 70.87 44.64 70.75 45.2 74.76 44.34 74.88"/><rect class="cls-6" x="43.65" y="70.03" width="0.87" height="4.05" transform="translate(-38.12 62.5) rotate(-52.05)"/><rect class="cls-6" x="43.68" y="70.86" width="4.05" height="0.87" transform="translate(-25.45 114.43) rotate(-87.96)"/><rect class="cls-6" x="46.7" y="68.75" width="0.87" height="4.05" transform="translate(-33.55 49.78) rotate(-42.05)"/><polygon class="cls-6" points="49.74 72.2 50.59 68.24 51.44 68.42 50.59 72.38 49.74 72.2"/><rect class="cls-6" x="49.93" y="68.03" width="0.86" height="4.05" transform="translate(-27.77 37.4) rotate(-32.05)"/><rect class="cls-6" x="54.36" y="71.68" width="0.54" height="17.19"/><polygon class="cls-6" points="60.77 72.81 54.89 88.96 54.38 88.78 60.26 72.62 60.77 72.81"/><rect class="cls-6" x="49.84" y="82.01" width="17.19" height="0.54" transform="translate(-40.44 74.16) rotate(-50)"/><polygon class="cls-6" points="69.65 80.51 54.77 89.1 54.5 88.63 69.38 80.04 69.65 80.51"/><polygon class="cls-6" points="71.61 86.15 54.68 89.13 54.59 88.6 71.51 85.61 71.61 86.15"/><polygon class="cls-6" points="71.51 92.12 54.59 89.13 54.68 88.6 71.61 91.58 71.51 92.12"/><polygon class="cls-6" points="69.38 97.7 54.5 89.1 54.77 88.63 69.65 97.23 69.38 97.7"/><rect class="cls-6" x="58.17" y="86.86" width="0.54" height="17.19" transform="translate(-45.96 59.89) rotate(-40)"/><polygon class="cls-6" points="60.26 105.11 54.38 88.96 54.89 88.78 60.77 104.93 60.26 105.11"/><rect class="cls-6" x="54.36" y="88.87" width="0.54" height="17.19"/><polygon class="cls-6" points="48.5 104.93 54.38 88.78 54.89 88.96 49.01 105.11 48.5 104.93"/><polygon class="cls-6" points="43.38 101.86 54.42 88.69 54.84 89.04 43.79 102.21 43.38 101.86"/><polygon class="cls-6" points="39.61 97.23 54.5 88.63 54.77 89.1 39.88 97.7 39.61 97.23"/><polygon class="cls-6" points="37.66 91.58 54.59 88.6 54.68 89.13 37.75 92.12 37.66 91.58"/><polygon class="cls-6" points="37.75 85.61 54.68 88.6 54.59 89.13 37.66 86.15 37.75 85.61"/><polygon class="cls-6" points="39.88 80.04 54.77 88.63 54.5 89.1 39.61 80.51 39.88 80.04"/><polygon class="cls-6" points="43.79 75.53 54.84 88.69 54.42 89.04 43.38 75.87 43.79 75.53"/><polygon class="cls-6" points="49.01 72.62 54.89 88.78 54.38 88.96 48.5 72.81 49.01 72.62"/><rect class="cls-6" x="1.72" y="117.29" width="430.87" height="7.8"/><path class="cls-6" d="M390.36,102.61H393c-.08-.32-.15-.63-.22-.94,0,0,0,0,0,0-.18-.78-.34-1.57-.49-2.39v0h0c-.14-.79-.27-1.61-.38-2.49v0c0-.18,0-.36-.07-.54h-1.42V52.75h0a.34.34,0,0,1,.29.21.9.9,0,0,1,.08.39h0a4.77,4.77,0,0,0,.42,2.22,1.25,1.25,0,0,0,1.09.79.13.13,0,0,1,.13.14h0v.63h0a.13.13,0,0,1-.13.14h-.44v.88c.29.09.47.22.47.4v.12h0v.44a1.48,1.48,0,0,1-.72,1.31l0,.2c0,.48.05,1,.07,1.43h0v0h0l.05,1h0c0,.47,0,.94.07,1.39v0h0c0,.49.05,1,.07,1.44v0h0c0,.46,0,.92.07,1.37,0,0,0,0,0,0,0,.47.06.92.08,1.37v0h0L392,70.3h0c0,.54.07,1.07.1,1.59h0v0h0c0,.42.06.83.08,1.24v0h0c0,.4.06.8.08,1.19h0v0h0v.06c0,.4.05.78.08,1.17h0c0,.57.09,1.13.13,1.68h0c0,.59.09,1.17.14,1.72h0c0,.49.08,1,.12,1.43a.13.13,0,0,1,.05.11.16.16,0,0,1,0,.09c0,.52.09,1,.14,1.51h0v0c.07.72.14,1.4.21,2.07h0c.08.78.17,1.51.26,2.22h0c.1.85.21,1.65.32,2.41h0c.09.6.18,1.18.27,1.73h1a.14.14,0,0,1,.14.14h0v.27h0l-.63,2.14a35.35,35.35,0,0,0,3.32,9.27h.73a.13.13,0,0,1,.13.14h0v1.55h0v1.51l.92,1.53v0l.29.47a.14.14,0,0,1,.09.13v0l1.66,2.75v0l1.26,2.11h0l1.39,2.32a.11.11,0,0,1,0,.08s0,.35,0,.73v2h-14v-2.86h7.57a5.79,5.79,0,0,0-.18-.63h0A6.73,6.73,0,0,0,395,111h0l-.57-.33-.26-.14h0a8.84,8.84,0,0,0-3.77-.84Zm-2.6,0h2.6v7h0a8.83,8.83,0,0,0-3.8.84h0l-.26.14a6.32,6.32,0,0,0-.56.33h0a6.71,6.71,0,0,0-2.77,3.55h0a5.79,5.79,0,0,0-.18.63h7.62V118h-14v-2.71h0a.19.19,0,0,1,0-.08l1.4-2.32v0l1.26-2.1a0,0,0,0,0,0,0l1.7-2.83v0l.31-.52,0,0,.91-1.53v-1.51h0v-1.55h0a.14.14,0,0,1,.14-.14h.73c.17-.35.35-.69.51-1h0a34.39,34.39,0,0,0,2.53-7.06v0q.13-.56.27-1.14l-.63-2.14h0v-.27h0a.14.14,0,0,1,.14-.14h1c.46-2.67.86-5.92,1.23-10.07a0,0,0,0,1,0,0,.43.43,0,0,1,0,0c.33-3.65.62-8,.91-13.21h0v0c.07-1.35.15-2.76.22-4.23v0c0-.8.08-1.61.12-2.44l0-.19a1.49,1.49,0,0,1-.72-1.32v-.44h0v-.12c0-.18.18-.31.47-.4v-.88h-.44a.14.14,0,0,1-.14-.14V56.5h0a.14.14,0,0,1,.14-.14,1.25,1.25,0,0,0,1.09-.79,4.77,4.77,0,0,0,.42-2.22h0a.9.9,0,0,1,.08-.39.34.34,0,0,1,.29-.21V96.17h-1.43c0,.18,0,.37-.07.55h0c-.12.88-.24,1.7-.38,2.49h0c-.15.83-.31,1.62-.49,2.4h0C387.91,102,387.83,102.29,387.76,102.61Z" transform="translate(1.72)"/><polygon class="cls-8" points="355.57 78.65 358.48 78.65 358.48 74.09 357.02 70.5 355.57 74.09 355.57 78.65"/><rect class="cls-6" x="337.19" y="98.48" width="1.64" height="16.29"/><rect class="cls-6" x="336.64" y="96.99" width="2.74" height="1.49"/><rect class="cls-6" x="344.71" y="98.48" width="1.64" height="16.29"/><rect class="cls-6" x="344.16" y="96.99" width="2.74" height="1.49"/><rect class="cls-6" x="352.23" y="98.48" width="1.64" height="16.29"/><rect class="cls-6" x="351.68" y="96.99" width="2.74" height="1.49"/><rect class="cls-6" x="359.74" y="98.48" width="1.64" height="16.29"/><rect class="cls-6" x="359.2" y="96.99" width="2.74" height="1.49"/><rect class="cls-6" x="367.26" y="98.48" width="1.64" height="16.29"/><rect class="cls-6" x="366.71" y="96.99" width="2.74" height="1.49"/><rect class="cls-6" x="374.78" y="98.48" width="1.64" height="16.29"/><rect class="cls-6" x="374.23" y="96.99" width="2.74" height="1.49"/><rect class="cls-6" x="350.69" y="84.12" width="12.65" height="5.52"/><path class="cls-8" d="M355.3,90.71A6.34,6.34,0,1,0,349,84.37,6.35,6.35,0,0,0,355.3,90.71Z" transform="translate(1.72)"/><path class="cls-6" d="M355.3,78a3.57,3.57,0,0,1,2.92,1.89,7.91,7.91,0,0,1,1.13,3.37l-.13,0a7.91,7.91,0,0,0-1.11-3.26,3.06,3.06,0,0,0-5.61,0,7.77,7.77,0,0,0-1.11,3.26l-.14,0a8,8,0,0,1,1.14-3.37A3.56,3.56,0,0,1,355.3,78Z" transform="translate(1.72)"/><polygon class="cls-8" points="376.98 95.5 356.83 83.34 336.64 95.5 336.64 96.99 376.98 96.99 376.98 95.5"/><path class="cls-8" d="M373.42,96a.27.27,0,1,0-.27-.27A.27.27,0,0,0,373.42,96Z" transform="translate(1.72)"/><path class="cls-8" d="M355.32,84.49a.28.28,0,0,1,.27.27.27.27,0,1,1-.27-.27Z" transform="translate(1.72)"/><path class="cls-8" d="M356.71,85.33a.27.27,0,0,1,.27.27.27.27,0,1,1-.54,0A.27.27,0,0,1,356.71,85.33Z" transform="translate(1.72)"/><path class="cls-8" d="M358.1,86.16a.27.27,0,0,1,.27.27.28.28,0,0,1-.28.27.27.27,0,0,1-.27-.27A.28.28,0,0,1,358.1,86.16Z" transform="translate(1.72)"/><path class="cls-8" d="M359.49,87a.27.27,0,0,1,0,.54.28.28,0,0,1-.27-.28A.26.26,0,0,1,359.49,87Z" transform="translate(1.72)"/><path class="cls-8" d="M360.87,87.83a.27.27,0,1,1-.27.27A.27.27,0,0,1,360.87,87.83Z" transform="translate(1.72)"/><path class="cls-8" d="M362.26,88.66a.28.28,0,0,1,.27.28.25.25,0,0,1-.27.26.27.27,0,0,1,0-.54Z" transform="translate(1.72)"/><path class="cls-8" d="M363.65,89.5a.27.27,0,1,1-.27.27A.27.27,0,0,1,363.65,89.5Z" transform="translate(1.72)"/><path class="cls-8" d="M365,90.33a.27.27,0,1,1,0,.54.27.27,0,0,1,0-.54Z" transform="translate(1.72)"/><path class="cls-8" d="M366.43,91.17a.27.27,0,0,1,.27.27.28.28,0,0,1-.28.27.26.26,0,0,1-.26-.28A.27.27,0,0,1,366.43,91.17Z" transform="translate(1.72)"/><path class="cls-8" d="M367.82,92a.27.27,0,1,1-.28.27A.28.28,0,0,1,367.82,92Z" transform="translate(1.72)"/><path class="cls-8" d="M369.2,92.84a.27.27,0,0,1,0,.54.28.28,0,0,1-.27-.28A.25.25,0,0,1,369.2,92.84Z" transform="translate(1.72)"/><path class="cls-8" d="M370.59,93.67a.27.27,0,1,1-.27.27A.27.27,0,0,1,370.59,93.67Z" transform="translate(1.72)"/><path class="cls-8" d="M372,94.5a.28.28,0,0,1,.27.28A.25.25,0,0,1,372,95a.27.27,0,1,1,0-.54Z" transform="translate(1.72)"/><path class="cls-8" d="M337.21,96a.27.27,0,1,0-.27-.27A.27.27,0,0,0,337.21,96Z" transform="translate(1.72)"/><path class="cls-8" d="M353.93,85.33a.27.27,0,0,0,0,.54.28.28,0,0,0,.27-.28A.27.27,0,0,0,353.93,85.33Z" transform="translate(1.72)"/><path class="cls-8" d="M352.54,86.16a.27.27,0,1,0,.27.27A.27.27,0,0,0,352.54,86.16Z" transform="translate(1.72)"/><path class="cls-8" d="M351.15,87a.27.27,0,0,0-.27.27.28.28,0,0,0,.27.27.28.28,0,0,0,.27-.28A.25.25,0,0,0,351.15,87Z" transform="translate(1.72)"/><path class="cls-8" d="M349.76,87.83a.27.27,0,0,0-.27.27.28.28,0,0,0,.28.27.27.27,0,0,0,.27-.27A.28.28,0,0,0,349.76,87.83Z" transform="translate(1.72)"/><path class="cls-8" d="M348.37,88.66a.28.28,0,0,0-.26.28.25.25,0,0,0,.27.26.27.27,0,0,0,.27-.27A.28.28,0,0,0,348.37,88.66Z" transform="translate(1.72)"/><path class="cls-8" d="M347,89.5a.27.27,0,1,0,.27.27A.27.27,0,0,0,347,89.5Z" transform="translate(1.72)"/><path class="cls-8" d="M345.6,90.33a.28.28,0,0,0-.27.27.27.27,0,1,0,.27-.27Z" transform="translate(1.72)"/><path class="cls-8" d="M344.21,91.17a.27.27,0,0,0,0,.54.28.28,0,0,0,.27-.28A.27.27,0,0,0,344.21,91.17Z" transform="translate(1.72)"/><path class="cls-8" d="M342.82,92a.27.27,0,0,0-.27.27.28.28,0,0,0,.27.27.27.27,0,1,0,0-.54Z" transform="translate(1.72)"/><path class="cls-8" d="M341.43,92.84a.27.27,0,0,0-.27.27.28.28,0,0,0,.28.27.27.27,0,0,0,.26-.28A.25.25,0,0,0,341.43,92.84Z" transform="translate(1.72)"/><path class="cls-8" d="M340,93.67a.26.26,0,0,0-.26.27.27.27,0,0,0,.54,0A.28.28,0,0,0,340,93.67Z" transform="translate(1.72)"/><path class="cls-8" d="M338.66,94.5a.28.28,0,0,0-.27.28.25.25,0,0,0,.27.26.27.27,0,1,0,0-.54Z" transform="translate(1.72)"/><path class="cls-8" d="M371.41,96a.27.27,0,1,0-.27-.27A.27.27,0,0,0,371.41,96Z" transform="translate(1.72)"/><path class="cls-8" d="M367.39,96a.27.27,0,1,0-.27-.27A.27.27,0,0,0,367.39,96Z" transform="translate(1.72)"/><path class="cls-8" d="M363.36,96a.27.27,0,1,0-.27-.27A.28.28,0,0,0,363.36,96Z" transform="translate(1.72)"/><path class="cls-8" d="M359.34,96a.27.27,0,1,0-.27-.27A.27.27,0,0,0,359.34,96Z" transform="translate(1.72)"/><path class="cls-8" d="M357.33,96a.27.27,0,1,0-.27-.27A.27.27,0,0,0,357.33,96Z" transform="translate(1.72)"/><path class="cls-8" d="M355.32,96a.27.27,0,1,0-.27-.27A.27.27,0,0,0,355.32,96Z" transform="translate(1.72)"/><path class="cls-8" d="M353.31,96a.27.27,0,1,0-.27-.27A.27.27,0,0,0,353.31,96Z" transform="translate(1.72)"/><path class="cls-8" d="M351.29,96a.27.27,0,1,0-.27-.27A.28.28,0,0,0,351.29,96Z" transform="translate(1.72)"/><path class="cls-8" d="M349.28,96a.27.27,0,1,0-.27-.27A.27.27,0,0,0,349.28,96Z" transform="translate(1.72)"/><path class="cls-8" d="M347.27,96a.27.27,0,1,0-.27-.27A.27.27,0,0,0,347.27,96Z" transform="translate(1.72)"/><path class="cls-8" d="M345.26,96a.27.27,0,1,0-.27-.27A.27.27,0,0,0,345.26,96Z" transform="translate(1.72)"/><path class="cls-8" d="M343.25,96a.27.27,0,1,0-.27-.27A.27.27,0,0,0,343.25,96Z" transform="translate(1.72)"/><path class="cls-8" d="M341.24,96a.27.27,0,1,0-.27-.27A.27.27,0,0,0,341.24,96Z" transform="translate(1.72)"/><path class="cls-8" d="M339.22,96a.27.27,0,1,0,0-.54.27.27,0,1,0,0,.54Z" transform="translate(1.72)"/><path class="cls-8" d="M369.4,96a.27.27,0,1,0-.27-.27A.27.27,0,0,0,369.4,96Z" transform="translate(1.72)"/><path class="cls-8" d="M365.38,96a.27.27,0,1,0-.27-.27A.27.27,0,0,0,365.38,96Z" transform="translate(1.72)"/><path class="cls-8" d="M361.35,96a.27.27,0,1,0-.27-.27A.27.27,0,0,0,361.35,96Z" transform="translate(1.72)"/><rect class="cls-6" x="336.64" y="114.77" width="40.33" height="0.74"/><rect class="cls-6" x="335.38" y="115.51" width="42.86" height="0.74"/><rect class="cls-6" x="333.99" y="116.26" width="45.63" height="0.74"/><rect class="cls-6" x="332.71" y="117" width="48.19" height="0.74"/><polygon class="cls-8" points="356.83 83.17 363.65 87.29 363.58 87.41 356.83 83.34 356.83 83.17"/><polygon class="cls-8" points="356.84 83.16 350 87.29 350.08 87.41 356.83 83.34 356.84 83.16"/><path class="cls-6" d="M355.3,78c.46,0,.87.73,1.15,1.91a16.78,16.78,0,0,1,.41,2.94h-.13a17.5,17.5,0,0,0-.4-2.9c-.27-1.12-.64-1.81-1-1.81s-.75.69-1,1.81a17.5,17.5,0,0,0-.4,2.9h-.13a16.86,16.86,0,0,1,.4-2.94C354.44,78.7,354.84,78,355.3,78Z" transform="translate(1.72)"/><path class="cls-6" d="M355.3,82.76A16.09,16.09,0,0,1,361.63,84v.14a16.9,16.9,0,0,0-12.66,0,.61.61,0,0,0,0-.14A16,16,0,0,1,355.3,82.76Z" transform="translate(1.72)"/><path class="cls-8" d="M354.83,76.5h.95V75a.48.48,0,0,0-.48-.48h0a.48.48,0,0,0-.47.48Z" transform="translate(1.72)"/><path class="cls-8" d="M356.07,76.5h.53V75.08a.27.27,0,0,0-.27-.27h0a.27.27,0,0,0-.26.27Z" transform="translate(1.72)"/><path class="cls-8" d="M354,76.5h.54V75.08a.27.27,0,0,0-.27-.27h0a.27.27,0,0,0-.27.27Z" transform="translate(1.72)"/><path class="cls-6" d="M356.76,74.06v.13a3.88,3.88,0,0,0-2.92,0,.57.57,0,0,0,0-.13A3.86,3.86,0,0,1,356.76,74.06Z" transform="translate(1.72)"/><path class="cls-6" d="M356.76,76.53v.58a3.88,3.88,0,0,0-2.92,0s0-.57,0-.58A3.86,3.86,0,0,1,356.76,76.53Z" transform="translate(1.72)"/><rect class="cls-6" x="110.9" y="112.7" width="40.15" height="0.54"/><path class="cls-8" d="M137.71,118.46a2.69,2.69,0,0,0,.68.81v.37H120.71v-.38a2.58,2.58,0,0,0,.79-.8H110v-.41c.19-.13,1.24-1.15.58-2.16h0c-.13-.13-.25-.26-.37-.4a3.73,3.73,0,0,1-1.06-2.52,2.44,2.44,0,0,1,0-.27h40.12a2.45,2.45,0,0,1,0,.27,3.59,3.59,0,0,1-.83,2.24,4.55,4.55,0,0,1-.58.68h0c-.66,1,.4,2,.58,2.16v.41Z" transform="translate(1.72)"/><path class="cls-8" d="M129.25,119.12c5.15,0,9.35-3.24,9.35-7.22s-4.2-7.23-9.35-7.23-9.35,3.25-9.35,7.23S124.1,119.12,129.25,119.12Z" transform="translate(1.72)"/><rect class="cls-6" x="126.66" y="99.98" width="8.62" height="8.95"/><rect class="cls-6" x="125.69" y="99.51" width="10.56" height="0.46"/><polygon class="cls-8" points="127.15 99.04 134.79 99.04 136.25 99.52 125.69 99.52 127.15 99.04"/><rect class="cls-7" x="127.15" y="98.57" width="7.64" height="0.46"/><polygon class="cls-8" points="128.59 98.05 133.36 98.05 134.79 98.57 127.15 98.57 128.59 98.05"/><rect class="cls-6" x="128.59" y="96.65" width="4.77" height="1.4"/><polygon class="cls-8" points="128.22 96.34 133.73 96.34 133.36 96.65 128.59 96.65 128.22 96.34"/><rect class="cls-7" x="128.22" y="94.95" width="5.51" height="1.4"/><polygon class="cls-5" points="128.22 94.94 133.73 94.94 133.36 94.64 128.59 94.64 128.22 94.94"/><polygon class="cls-8" points="129.84 64.33 132.1 64.33 133.36 94.64 128.59 94.64 129.84 64.33"/><polygon class="cls-8" points="129.84 64.33 132.1 64.33 131 61.23 130.95 61.23 129.84 64.33"/><polygon class="cls-8" points="131.67 59.98 131.49 60.92 132.39 61.23 131.49 61.55 131.67 62.49 130.95 61.86 130.22 62.49 130.41 61.55 129.5 61.23 130.41 60.92 130.22 59.98 130.95 60.61 131.67 59.98"/><rect class="cls-6" x="130.81" y="56.43" width="0.28" height="4.8"/><rect class="cls-6" x="129.62" y="57.7" width="2.66" height="0.28"/><ellipse class="cls-6" cx="147.51" cy="117.11" rx="3.04" ry="1.6"/><path class="cls-8" d="M145.78,112.07c1,0,1.73-.41,1.73-.91s-.77-.91-1.73-.91-1.73.41-1.73.91S144.83,112.07,145.78,112.07Z" transform="translate(1.72)"/><rect class="cls-6" x="144.48" y="116.87" width="6.05" height="0.44" rx="0.09"/><path class="cls-8" d="M144,115.89h3.67c.21,0,.37-.11.35-.34l-.43-4.28c0-.19-.13-.34-.28-.34h-2.95c-.15,0-.26.15-.28.34l-.43,4.28C143.57,115.79,143.73,115.89,144,115.89Z" transform="translate(1.72)"/><polygon class="cls-8" points="147.84 75.81 147.84 75.8 147.27 75.8 147.27 75.81 146.64 112.07 148.39 112.08 147.84 75.81"/><path class="cls-8" d="M148.51,117.11l-.19-1.89c0-.28-.19-.52-.42-.52h-4.23c-.23,0-.39.24-.42.52l-.2,1.89Z" transform="translate(1.72)"/><path class="cls-8" d="M145.8,76.09H147l1.15-4.62-2.31-.93v.92h0l1.91.24-1,4.1h-1Zm-1.17,0h1.17V75.8h-1l-1-4.1,1.92-.24v-.92l-2.31.93Z" transform="translate(1.72)"/><rect class="cls-6" x="147.34" y="69.97" width="0.36" height="5.83"/><path class="cls-8" d="M145.79,78.5a.7.7,0,1,0-.7-.69A.7.7,0,0,0,145.79,78.5Z" transform="translate(1.72)"/><path class="cls-8" d="M145.79,70.07a.34.34,0,1,0-.34-.34A.34.34,0,0,0,145.79,70.07Z" transform="translate(1.72)"/><path class="cls-8" d="M153,78.68h1.16l1.15-4.62L153,73.13v.92l1.92.24-1,4.1h-1Zm-1.16,0H153v-.29h-1l-1-4.1,1.92-.24v-.92l-2.31.93Z" transform="translate(1.72)"/><rect class="cls-6" x="154.55" y="72.56" width="0.36" height="5.83"/><circle class="cls-6" cx="154.72" cy="80.4" r="0.7"/><path class="cls-8" d="M153,72.66a.34.34,0,1,0,0-.67.34.34,0,0,0,0,.67Z" transform="translate(1.72)"/><polygon class="cls-8" points="155.05 78.39 155.05 78.39 154.49 78.39 154.49 78.39 154.44 80.47 155.09 80.47 155.05 78.39"/><path class="cls-8" d="M147.27,84.32c-.07-1,1.37-1.07,1.42.12.06,1.5-2.42,1.43-2.57-.21-.28-3,2.27-4.35,5.32-4.35,4.65,0,4.56,4.56,1.81,4.63-2,0-1.77-2.15-.26-2.13.89,0,1,1,.12,1,.45,0,.53-.65-.14-.7-.83,0-.94,1.4.26,1.3,2.17-.17,1.54-3.65-2-3.5-2.3.1-4.76,1.28-4.63,3.48.08,1.34,1.65,1.51,1.65.55A.49.49,0,0,0,147.27,84.32Z" transform="translate(1.72)"/><path class="cls-8" d="M149.78,80.62c1.61-.39,2.72.94,2.05,1.78s-1.64-.06-1.18-.69c-.3.49.54.94.86.37s-1.25-1.51-2.57-1.17C148.76,80.92,149.31,80.56,149.78,80.62Z" transform="translate(1.72)"/><path class="cls-8" d="M147.66,84.69a.38.38,0,1,0-.38-.38A.38.38,0,0,0,147.66,84.69Z" transform="translate(1.72)"/><path class="cls-8" d="M151,82.3a.38.38,0,0,0,0-.76.38.38,0,1,0,0,.76Z" transform="translate(1.72)"/><path class="cls-8" d="M153.19,83.35a.38.38,0,0,0,.38-.38.39.39,0,1,0-.77,0A.38.38,0,0,0,153.19,83.35Z" transform="translate(1.72)"/><path class="cls-8" d="M147.75,90.69c0-1.23-1.41-1.14-1.53-.06-.2,1.82,2.64,1.85,2.7-.17s-2.39-3.19-2.82-6.54c0,3.64,2.33,4.62,2.27,6.56,0,1.45-1.88,1.27-1.72.17C146.74,90,147.8,90.09,147.75,90.69Z" transform="translate(1.72)"/><path class="cls-8" d="M147.35,87.44c.76,1.48,2.49,1.43,2.68.38s-1.12-1.2-1.29-.44c.17-.54,1.06-.21.84.41s-2,0-2.57-1.17C146.9,86.47,147,87.13,147.35,87.44Z" transform="translate(1.72)"/><path class="cls-8" d="M148.8,87.72a.38.38,0,1,0,0-.54A.38.38,0,0,0,148.8,87.72Z" transform="translate(1.72)"/><path class="cls-8" d="M147.08,90.78a.39.39,0,0,0,.54,0,.39.39,0,0,0-.51-.58A.39.39,0,0,0,147.08,90.78Z" transform="translate(1.72)"/><path class="cls-8" d="M139.72,78.68h-1.17v-.29h1l.95-4.1-1.92-.24h0v-.92h0l2.31.93Zm-1.17,0h-1.16l-1.15-4.62,2.31-.93v.92l-1.91.24,1,4.1h1Z" transform="translate(1.72)"/><rect class="cls-6" x="140.09" y="72.56" width="0.36" height="5.83"/><circle class="cls-6" cx="140.28" cy="80.4" r="0.7"/><path class="cls-8" d="M138.56,72.66a.34.34,0,1,0,0-.67.34.34,0,0,0,0,.67Z" transform="translate(1.72)"/><polygon class="cls-8" points="139.95 78.39 139.95 78.39 140.52 78.39 140.52 78.39 140.56 80.47 139.91 80.47 139.95 78.39"/><path class="cls-8" d="M144.29,84.32c.07-1-1.37-1.07-1.42.12-.06,1.5,2.42,1.43,2.58-.21.27-3-2.27-4.35-5.32-4.35-4.66,0-4.56,4.56-1.82,4.63,2,0,1.77-2.15.26-2.13-.89,0-1,1-.12,1-.44,0-.53-.65.14-.7.83,0,.95,1.4-.25,1.3-2.17-.17-1.54-3.65,2-3.5,2.3.1,4.75,1.28,4.63,3.48-.08,1.34-1.65,1.51-1.65.55A.49.49,0,0,1,144.29,84.32Z" transform="translate(1.72)"/><path class="cls-8" d="M141.79,80.62c-1.62-.39-2.72.94-2,1.78s1.64-.06,1.18-.69c.3.49-.54.94-.86.37s1.24-1.51,2.57-1.17C142.81,80.92,142.25,80.56,141.79,80.62Z" transform="translate(1.72)"/><path class="cls-8" d="M143.9,84.69a.38.38,0,1,0-.38-.38A.38.38,0,0,0,143.9,84.69Z" transform="translate(1.72)"/><path class="cls-8" d="M140.62,82.3a.38.38,0,1,0-.38-.38A.38.38,0,0,0,140.62,82.3Z" transform="translate(1.72)"/><path class="cls-8" d="M138.38,83.35a.38.38,0,0,0,.38-.38.38.38,0,1,0-.76,0A.38.38,0,0,0,138.38,83.35Z" transform="translate(1.72)"/><path class="cls-8" d="M143.81,90.69c0-1.23,1.42-1.14,1.54-.06.2,1.82-2.64,1.85-2.71-.17s2.39-3.19,2.83-6.54c0,3.64-2.34,4.62-2.28,6.56.05,1.45,1.88,1.27,1.73.17C144.83,90,143.77,90.09,143.81,90.69Z" transform="translate(1.72)"/><path class="cls-8" d="M144.22,87.44c-.76,1.48-2.49,1.43-2.69.38s1.13-1.2,1.3-.44c-.18-.54-1.07-.21-.84.41s1.95,0,2.57-1.17C144.66,86.47,144.58,87.13,144.22,87.44Z" transform="translate(1.72)"/><path class="cls-8" d="M142.76,87.72a.38.38,0,1,1,0-.54A.39.39,0,0,1,142.76,87.72Z" transform="translate(1.72)"/><path class="cls-8" d="M144.49,90.78a.39.39,0,0,1-.54,0,.38.38,0,1,1,.54,0Z" transform="translate(1.72)"/><rect class="cls-6" x="283.37" y="78.73" width="52.14" height="4.02"/><polygon class="cls-8" points="285.48 84.76 287.77 84.76 289.88 82.75 283.37 82.75 285.48 84.76"/><rect class="cls-6" x="285.48" y="84.76" width="2.3" height="34.66"/><polygon class="cls-8" points="294.6 84.76 296.9 84.76 299 82.75 292.5 82.75 294.6 84.76"/><rect class="cls-6" x="294.6" y="84.76" width="2.3" height="34.66"/><polygon class="cls-8" points="303.73 84.76 306.03 84.76 308.13 82.75 301.62 82.75 303.73 84.76"/><rect class="cls-6" x="303.73" y="84.76" width="2.3" height="34.66"/><polygon class="cls-8" points="312.86 84.76 315.15 84.76 317.26 82.75 310.75 82.75 312.86 84.76"/><rect class="cls-6" x="312.85" y="84.76" width="2.3" height="34.66"/><polygon class="cls-8" points="321.98 84.76 324.28 84.76 326.38 82.75 319.88 82.75 321.98 84.76"/><rect class="cls-6" x="321.98" y="84.76" width="2.3" height="34.66"/><polygon class="cls-8" points="331.11 84.76 333.4 84.76 335.51 82.75 329 82.75 331.11 84.76"/><rect class="cls-6" x="331.11" y="84.76" width="2.3" height="34.66"/><rect class="cls-6" x="280.19" y="77.1" width="58.49" height="1.63"/><polygon class="cls-8" points="302.07 73.45 316.81 73.45 318.78 77.1 300.1 77.1 302.07 73.45"/><rect class="cls-6" x="305.62" y="70.96" width="7.64" height="2.48"/><rect class="cls-6" x="285.07" y="111.19" width="3.12" height="8.24"/><rect class="cls-6" x="294.19" y="111.19" width="3.12" height="8.24"/><rect class="cls-6" x="303.32" y="111.19" width="3.12" height="8.24"/><rect class="cls-6" x="312.44" y="111.19" width="3.12" height="8.24"/><rect class="cls-6" x="321.57" y="111.19" width="3.12" height="8.24"/><rect class="cls-6" x="330.7" y="111.19" width="3.12" height="8.24"/><polygon class="cls-8" points="155.12 89.5 188.75 89.5 191.55 87.37 152.32 87.37 155.12 89.5"/><path class="cls-8" d="M153.4,120.76h2.25v-5.53a1.66,1.66,0,0,1,1.81-1.43h0a1.66,1.66,0,0,1,1.81,1.43v5.53H162v-5.53a1.67,1.67,0,0,1,1.82-1.43h0a1.67,1.67,0,0,1,1.81,1.43v5.53h2.75v-5.53a1.67,1.67,0,0,1,1.81-1.43h0a1.67,1.67,0,0,1,1.82,1.43v5.53h2.75v-5.53a1.66,1.66,0,0,1,1.81-1.43h0a1.66,1.66,0,0,1,1.81,1.43v5.53h2.75v-5.53A1.67,1.67,0,0,1,183,113.8h0a1.67,1.67,0,0,1,1.81,1.43v5.53H187V84.87H153.4Z" transform="translate(1.72)"/><rect class="cls-7" x="155.12" y="111.62" width="33.62" height="0.43"/><rect class="cls-7" x="157.37" y="108.92" width="1.55" height="2.69"/><rect class="cls-7" x="159.44" y="108.92" width="1.55" height="2.69"/><rect class="cls-7" x="163.75" y="108.92" width="1.55" height="2.69"/><rect class="cls-7" x="165.82" y="108.92" width="1.55" height="2.69"/><rect class="cls-7" x="170.12" y="108.92" width="1.55" height="2.69"/><rect class="cls-7" x="172.2" y="108.92" width="1.55" height="2.69"/><rect class="cls-7" x="176.5" y="108.92" width="1.55" height="2.69"/><rect class="cls-7" x="178.57" y="108.92" width="1.55" height="2.69"/><rect class="cls-7" x="182.88" y="108.92" width="1.55" height="2.69"/><rect class="cls-7" x="184.95" y="108.92" width="1.55" height="2.69"/><rect class="cls-7" x="157.37" y="104.42" width="1.55" height="2.69"/><rect class="cls-7" x="159.44" y="104.42" width="1.55" height="2.69"/><rect class="cls-7" x="163.75" y="104.42" width="1.55" height="2.69"/><rect class="cls-7" x="165.82" y="104.42" width="1.55" height="2.69"/><rect class="cls-7" x="170.12" y="104.42" width="1.55" height="2.69"/><rect class="cls-7" x="172.2" y="104.42" width="1.55" height="2.69"/><rect class="cls-7" x="176.5" y="104.42" width="1.55" height="2.69"/><rect class="cls-7" x="178.57" y="104.42" width="1.55" height="2.69"/><rect class="cls-7" x="182.88" y="104.42" width="1.55" height="2.69"/><rect class="cls-7" x="184.95" y="104.42" width="1.55" height="2.69"/><rect class="cls-7" x="157.37" y="99.92" width="1.55" height="2.69"/><rect class="cls-7" x="159.44" y="99.92" width="1.55" height="2.69"/><rect class="cls-7" x="163.75" y="99.92" width="1.55" height="2.69"/><rect class="cls-7" x="165.82" y="99.92" width="1.55" height="2.69"/><rect class="cls-7" x="170.12" y="99.92" width="1.55" height="2.69"/><rect class="cls-7" x="172.2" y="99.92" width="1.55" height="2.69"/><rect class="cls-7" x="176.5" y="99.92" width="1.55" height="2.69"/><rect class="cls-7" x="178.57" y="99.92" width="1.55" height="2.69"/><rect class="cls-7" x="182.88" y="99.92" width="1.55" height="2.69"/><rect class="cls-7" x="184.95" y="99.92" width="1.55" height="2.69"/><rect class="cls-7" x="157.37" y="95.42" width="1.55" height="2.69"/><rect class="cls-7" x="159.44" y="95.42" width="1.55" height="2.69"/><rect class="cls-7" x="163.75" y="95.42" width="1.55" height="2.69"/><rect class="cls-7" x="165.82" y="95.42" width="1.55" height="2.69"/><rect class="cls-7" x="170.12" y="95.42" width="1.55" height="2.69"/><rect class="cls-7" x="172.2" y="95.42" width="1.55" height="2.69"/><rect class="cls-7" x="176.5" y="95.42" width="1.55" height="2.69"/><rect class="cls-7" x="178.57" y="95.42" width="1.55" height="2.69"/><rect class="cls-7" x="182.88" y="95.42" width="1.55" height="2.69"/><rect class="cls-7" x="184.95" y="95.42" width="1.55" height="2.69"/><rect class="cls-7" x="155.12" y="94.02" width="33.62" height="0.43"/><path class="cls-5" d="M157.46,90.34h0a1.65,1.65,0,0,1,1.81,1.42V94h-3.62V91.76a1.65,1.65,0,0,1,1.81-1.42Zm6.38,0h0a1.66,1.66,0,0,1,1.81,1.42V94H162V91.76a1.66,1.66,0,0,1,1.82-1.42Zm6.37,0h0A1.66,1.66,0,0,1,172,91.76V94H168.4V91.76a1.66,1.66,0,0,1,1.81-1.42Zm6.38,0h0a1.65,1.65,0,0,1,1.81,1.42V94h-3.62V91.76a1.65,1.65,0,0,1,1.81-1.42Zm6.38,0h0a1.66,1.66,0,0,1,1.81,1.42V94h-3.63V91.76A1.66,1.66,0,0,1,183,90.34Z" transform="translate(1.72)"/><rect class="cls-7" x="157.37" y="86.03" width="3.63" height="1.35"/><rect class="cls-7" x="163.75" y="86.03" width="3.63" height="1.35"/><rect class="cls-7" x="170.12" y="86.03" width="3.63" height="1.35"/><rect class="cls-7" x="176.5" y="86.03" width="3.63" height="1.35"/><rect class="cls-7" x="182.88" y="86.03" width="3.63" height="1.35"/><rect class="cls-6" x="188.35" y="112.39" width="99.43" height="1.08"/><path class="cls-8" d="M273.69,120.31a17.48,17.48,0,0,0-1-3.49c-2.54-6.21-8.29-10.31-13.95-12.83A49.78,49.78,0,0,0,248,100.7a62.2,62.2,0,0,0-11.7-1.15v.77a60.82,60.82,0,0,1,11.57,1.13,49.23,49.23,0,0,1,10.54,3.25,34.11,34.11,0,0,1,6.7,3.89v1.68a33.83,33.83,0,0,0-6.09-3.45,49.59,49.59,0,0,0-10.73-3.27,65.07,65.07,0,0,0-11.81-1.12h-.18v.76h.17a64.56,64.56,0,0,1,11.69,1.11,48.83,48.83,0,0,1,10.59,3.22C264.35,110,270,114,272.2,120.31ZM236.34,99.55h-.05a61.28,61.28,0,0,0-11,.93,49.37,49.37,0,0,0-10.13,2.89c-5.66,2.34-11.19,6.11-14.29,11.87a20.93,20.93,0,0,0-1.91,5.07h1.5c2.09-6.36,7.79-10.44,13.38-12.89a49.18,49.18,0,0,1,10.75-3.2,64.11,64.11,0,0,1,11.73-1v-.76a64.53,64.53,0,0,0-11.85,1,49.31,49.31,0,0,0-10.9,3.25,33.52,33.52,0,0,0-6.07,3.41v-1.51a33.34,33.34,0,0,1,7.92-4.54,48.64,48.64,0,0,1,10-2.85,59.86,59.86,0,0,1,10.86-.91h.05Z" transform="translate(1.72)"/><path class="cls-6" d="M235.34,100a.27.27,0,0,1,.4,0,.31.31,0,0,1,0,.43L234,102.66l0,0a.27.27,0,0,1-.4,0l-1.68-1.94-1.36,2.08a.27.27,0,0,1-.39.08l0,0-1.95-1.59-1,2,0,.06a.28.28,0,0,1-.4,0L225,101.81l-1,1.94,0,0a.27.27,0,0,1-.4.07l-1.74-1.38-.87,1.93s0,0,0,0a.27.27,0,0,1-.39.11l-1.92-1.17-.77,1.92v0a.27.27,0,0,1-.22.17h-.16l-1.83-1-.54,1.89s0,0,0,0a.26.26,0,0,1-.12.15h0a.21.21,0,0,1-.19,0h0l-1.78-.84-.51,2a.09.09,0,0,1,0,0,.25.25,0,0,1-.16.16h0a.22.22,0,0,1-.16,0h0l-1.81-.83-.38,2v0a.29.29,0,0,1-.15.19h0a.19.19,0,0,1-.15,0h0l-2-.63a.31.31,0,0,1-.19-.38.27.27,0,0,1,.35-.2l1.68.53.39-2a.29.29,0,0,1,.34-.24l.07,0,1.82.83.51-2a.43.43,0,0,0,0,0,.28.28,0,0,1,.38-.16l1.8.85.54-1.9s0,0,0-.06a.27.27,0,0,1,.2-.16h.05a.22.22,0,0,1,.11,0h0l1.85,1,.78-1.93s0,0,0,0a.28.28,0,0,1,.39-.11l1.93,1.18.89-2a.09.09,0,0,1,0-.06h0a.26.26,0,0,1,.16-.09h.1l.09,0h0l0,0,1.75,1.38,1-2a.16.16,0,0,1,0-.07.27.27,0,0,1,.4,0l1.69,1.52,1-1.94a.27.27,0,0,1,.39-.11l.05,0,2,1.61,1.39-2.13a.28.28,0,0,1,.4-.08l.05.06,1.7,2Z" transform="translate(1.72)"/><path class="cls-6" d="M235.35,100.37a.31.31,0,0,1,0-.43.27.27,0,0,1,.4,0l1.74,2.06,1.81-2,0,0a.28.28,0,0,1,.4.06l1.48,2.15,2.12-1.62,0,0a.27.27,0,0,1,.39.1l1.11,2,1.81-1.54,0,0h0l.05,0h0a.32.32,0,0,1,.14,0h0l.08,0,.09.09h0l1.07,2,1.89-1.4a.27.27,0,0,1,.39.08l0,0,1,2,2-1.19h0a.24.24,0,0,1,.27,0h0l0,0h0l0,0h0l0,0h0a.08.08,0,0,1,0,0h0l.83,2,2-1,0,0a.25.25,0,0,1,.25,0h.06s0,0,0,0h0a0,0,0,0,0,0,0l.58,1.93,1.93-.86a.27.27,0,0,1,.37.16s0,0,0,0l.54,2,1.95-.83s0,0,.07,0a.29.29,0,0,1,.34.23l.41,2,1.8-.55a.29.29,0,0,1,.35.22.29.29,0,0,1-.19.37l-2.08.62h0a.27.27,0,0,1-.34-.23l-.41-2-1.95.83a.27.27,0,0,1-.37-.17s0,0,0,0l-.53-2-1.92.85h0a.25.25,0,0,1-.17,0h0a.35.35,0,0,1-.17-.17,0,0,0,0,0,0,0l-.58-1.91-1.95,1h0a.31.31,0,0,1-.19,0h-.19l-.83-1.94-2.05,1.19a.28.28,0,0,1-.39-.13v0l-.93-2-1.87,1.39a.26.26,0,0,1-.39-.08l0,0-1.06-2L245,103.31l0,0a.27.27,0,0,1-.39-.1l-1.12-2-2.09,1.61h0a.28.28,0,0,1-.4-.06l-1.45-2.11-1.79,2,0,0a.27.27,0,0,1-.4,0Z" transform="translate(1.72)"/><rect class="cls-6" x="287.23" y="109.75" width="0.55" height="2.92"/><rect class="cls-6" x="188.35" y="109.75" width="99.43" height="0.47"/><rect class="cls-6" x="285.12" y="109.75" width="0.55" height="2.92"/><rect class="cls-6" x="283.02" y="109.75" width="0.55" height="2.92"/><rect class="cls-6" x="280.91" y="109.75" width="0.55" height="2.92"/><rect class="cls-6" x="278.81" y="109.75" width="0.55" height="2.92"/><rect class="cls-6" x="276.71" y="109.75" width="0.55" height="2.92"/><rect class="cls-6" x="274.6" y="109.75" width="0.55" height="2.92"/><rect class="cls-6" x="272.5" y="109.75" width="0.55" height="2.92"/><rect class="cls-6" x="270.4" y="109.75" width="0.55" height="2.92"/><rect class="cls-6" x="268.29" y="109.75" width="0.55" height="2.92"/><rect class="cls-6" x="266.19" y="109.75" width="0.55" height="2.92"/><rect class="cls-6" x="264.08" y="109.75" width="0.55" height="2.92"/><rect class="cls-6" x="261.98" y="109.75" width="0.55" height="2.92"/><rect class="cls-6" x="259.88" y="109.75" width="0.55" height="2.92"/><rect class="cls-6" x="257.77" y="109.75" width="0.55" height="2.92"/><rect class="cls-6" x="255.67" y="109.75" width="0.55" height="2.92"/><rect class="cls-6" x="253.56" y="109.75" width="0.55" height="2.92"/><rect class="cls-6" x="251.46" y="109.75" width="0.55" height="2.92"/><rect class="cls-6" x="249.36" y="109.75" width="0.55" height="2.92"/><rect class="cls-6" x="247.25" y="109.75" width="0.55" height="2.92"/><rect class="cls-6" x="245.15" y="109.75" width="0.55" height="2.92"/><rect class="cls-6" x="243.05" y="109.75" width="0.55" height="2.92"/><rect class="cls-6" x="240.94" y="109.75" width="0.55" height="2.92"/><rect class="cls-6" x="238.84" y="109.75" width="0.55" height="2.92"/><rect class="cls-6" x="236.73" y="109.75" width="0.55" height="2.92"/><rect class="cls-6" x="234.63" y="109.75" width="0.55" height="2.92"/><rect class="cls-6" x="232.53" y="109.75" width="0.55" height="2.92"/><rect class="cls-6" x="230.42" y="109.75" width="0.55" height="2.92"/><rect class="cls-6" x="228.32" y="109.75" width="0.55" height="2.92"/><rect class="cls-6" x="226.21" y="109.75" width="0.55" height="2.92"/><rect class="cls-6" x="224.11" y="109.75" width="0.55" height="2.92"/><rect class="cls-6" x="222.01" y="109.75" width="0.55" height="2.92"/><rect class="cls-6" x="219.9" y="109.75" width="0.55" height="2.92"/><rect class="cls-6" x="217.8" y="109.75" width="0.55" height="2.92"/><rect class="cls-6" x="215.7" y="109.75" width="0.55" height="2.92"/><rect class="cls-6" x="213.59" y="109.75" width="0.55" height="2.92"/><rect class="cls-6" x="211.49" y="109.75" width="0.55" height="2.92"/><rect class="cls-6" x="209.38" y="109.75" width="0.55" height="2.92"/><rect class="cls-6" x="207.28" y="109.75" width="0.55" height="2.92"/><rect class="cls-6" x="205.18" y="109.75" width="0.55" height="2.92"/><rect class="cls-6" x="203.07" y="109.75" width="0.55" height="2.92"/><rect class="cls-6" x="200.97" y="109.75" width="0.55" height="2.92"/><rect class="cls-6" x="198.86" y="109.75" width="0.55" height="2.92"/><rect class="cls-6" x="196.76" y="109.75" width="0.55" height="2.92"/><rect class="cls-6" x="194.66" y="109.75" width="0.55" height="2.92"/><rect class="cls-6" x="192.55" y="109.75" width="0.55" height="2.92"/><rect class="cls-6" x="190.45" y="109.75" width="0.55" height="2.92"/><rect class="cls-6" x="188.35" y="109.75" width="0.55" height="2.92"/><path class="cls-8" d="M286.05,109.9a33.33,33.33,0,0,0-13.85,10.41h1.49c2.5-3.11,7.28-6.15,12.36-8.07Z" transform="translate(1.72)"/><path class="cls-8" d="M186.62,109.9a33.36,33.36,0,0,1,13.86,10.41H199c-2.49-3.11-7.28-6.15-12.36-8.07Z" transform="translate(1.72)"/><path class="cls-8" d="M401.91,90.56h32.32v28h-2.74v-8.45a1.42,1.42,0,0,0-1.49-1.33h0a1.42,1.42,0,0,0-1.49,1.33v8.45h-1.57v-8.45a1.42,1.42,0,0,0-1.49-1.33h0a1.42,1.42,0,0,0-1.49,1.33v8.45h-2.18v-6.46a3.54,3.54,0,0,0-3.71-3.32h0a3.54,3.54,0,0,0-3.71,3.32v6.46h-2.18v-8.45a1.42,1.42,0,0,0-1.49-1.33h0a1.42,1.42,0,0,0-1.49,1.33v8.45h-1.57v-8.45a1.42,1.42,0,0,0-1.49-1.33h0a1.42,1.42,0,0,0-1.49,1.33v8.45h-2.74Z" transform="translate(1.72)"/><rect class="cls-9" x="406.37" y="101.93" width="2.98" height="5.16"/><rect class="cls-9" x="410.92" y="101.93" width="2.98" height="5.16"/><rect class="cls-9" x="416.32" y="101.93" width="6.95" height="5.16"/><rect class="cls-9" x="425.68" y="101.93" width="2.98" height="5.16"/><rect class="cls-9" x="430.23" y="101.93" width="2.98" height="5.16"/><rect class="cls-9" x="406.37" y="94.98" width="2.98" height="5.16"/><rect class="cls-9" x="410.92" y="94.98" width="2.98" height="5.16"/><rect class="cls-9" x="416.32" y="94.98" width="6.95" height="5.16"/><rect class="cls-9" x="425.68" y="94.98" width="2.98" height="5.16"/><rect class="cls-9" x="430.23" y="94.98" width="2.98" height="5.16"/><rect class="cls-9" x="403.64" y="106.3" width="32.31" height="0.79"/><rect class="cls-9" x="403.64" y="99.35" width="32.31" height="0.79"/><rect class="cls-6" x="402.42" y="89.09" width="34.75" height="1.47"/><rect class="cls-6" x="403.64" y="90.56" width="32.31" height="0.79"/><rect class="cls-6" x="435.36" y="86.29" width="1.8" height="4.28"/><rect class="cls-6" x="435.36" y="86.9" width="1.8" height="0.79"/><rect class="cls-6" x="427.13" y="86.29" width="1.8" height="4.28"/><rect class="cls-6" x="427.13" y="86.9" width="1.8" height="0.79"/><rect class="cls-6" x="418.89" y="86.29" width="1.8" height="4.28"/><rect class="cls-6" x="418.89" y="86.9" width="1.8" height="0.79"/><rect class="cls-6" x="410.65" y="86.29" width="1.8" height="4.28"/><rect class="cls-6" x="410.65" y="86.9" width="1.8" height="0.79"/><rect class="cls-6" x="402.42" y="86.29" width="1.8" height="4.28"/><rect class="cls-6" x="402.42" y="86.9" width="1.8" height="0.79"/></g><path class="cls-11" d="M142.54,31.81c-.57-.27-5.53-.31-5.38.43l-1.84,0c-1.91,0-13.79,1.35-15.63,1.75-2.24.49-2.35,2.82.27,2.83,2.41,0,15.2-.68,17.07-.68h.32c0,.25,0,.5.21.61a11,11,0,0,0,2.58,0c.8-.05,2.81-.23,3-.63C143.53,35.33,143.61,32.32,142.54,31.81Z" transform="translate(1.72)"/><path class="cls-12" d="M142.54,31.81c-.57-.27-5.68-.35-5.38.43.93,1.21.43,3.24.17,3.94h0c0,.25,0,.5.21.61a11,11,0,0,0,2.58,0c.8-.05,2.81-.23,3-.63C143.53,35.33,143.61,32.32,142.54,31.81Z" transform="translate(1.72)"/><path class="cls-12" d="M142.51,36.5c.76,0,1.38-1,1.38-2.35s-.62-2.35-1.38-2.35-1.38,1.05-1.38,2.35S141.75,36.5,142.51,36.5Z" transform="translate(1.72)"/><ellipse class="cls-13" cx="139.4" cy="34.06" rx="1.63" ry="2.78"/><path class="cls-14" d="M142.51,36.2c.59,0,1.07-.92,1.07-2.05s-.48-2-1.07-2-1.06.92-1.06,2S141.93,36.2,142.51,36.2Z" transform="translate(1.72)"/><path class="cls-11" d="M112.24,42.91l14.93-12.38c3.66-3,16-3.07,14-.52l-8.53,10.61Z" transform="translate(1.72)"/><path class="cls-11" d="M150.73,36.15,85.29,42.44,69.15,46.17a6.68,6.68,0,0,0-1.86.73c-1.16.68-1.2,1.7.36,2,2.44.54,7.92,1.07,10.56,1.38,2.38.28,12,1.24,15.06,1.24s8.84-.8,8.84-.8L149.87,46c2.4-.24,13-3.46,12.8-5.26C162.45,39.09,156.76,35.57,150.73,36.15Z" transform="translate(1.72)"/><path class="cls-11" d="M85.23,42.46c-1.93.11-4.15-1.68-4.15-1.68l-14.37-12a1.56,1.56,0,0,0-1.16-.4l-3.71.31,8.63,17.17Z" transform="translate(1.72)"/><path class="cls-8" d="M160.73,38.62a14.43,14.43,0,0,0-1.38-.79c-.64.05-1.33.14-1.48.17s-.1.13-.05.27a8,8,0,0,0,.38.88c.1.15.23.24.42.11A3.43,3.43,0,0,1,160.73,38.62Z" transform="translate(1.72)"/><path class="cls-12" d="M80.06,46.66c-1,0-12.77-1.43-13.7-1.43s1.53,1.72,2.17,2.29,6.41.64,8.62.56S81.84,46.71,80.06,46.66Z" transform="translate(1.72)"/><path class="cls-15" d="M66.46,48.09c.06.37.44.69,1.19.85,2.44.54,7.92,1.07,10.56,1.38,2.38.28,12,1.24,15.06,1.24s8.84-.8,8.84-.8L149.87,46c2.4-.24,13-3.46,12.8-5.26v0c-4.4,3.76-22.91,4.48-28.39,4.93S106,48.78,106,48.78s-5.21.29-11.44.87-9.69-.37-13.2-.63S67,49,66.46,48.09Z" transform="translate(1.72)"/><path class="cls-6" d="M153.57,38.28l.36,0a11.69,11.69,0,0,1,.28,1.36,12.44,12.44,0,0,1,.1,1.38l-.74,0v.72l1,0a.52.52,0,0,0,.38-.19.62.62,0,0,0,.13-.38,14,14,0,0,0-.12-1.62,12.72,12.72,0,0,0-.31-1.54.75.75,0,0,0-.21-.32h0a.52.52,0,0,0-.38-.13l-.45,0Zm-.73,0,.73,0v-.72l-1,0h-.1a.57.57,0,0,0-.29.19.48.48,0,0,0-.12.35h0a.34.34,0,0,0,0,.1,15,15,0,0,1,.28,1.49c.07.5.11,1,.13,1.49v0a.57.57,0,0,0,.21.4.55.55,0,0,0,.37.12h0l.48,0V41l-.37,0c0-.47-.06-.94-.12-1.4S152.94,38.77,152.84,38.32Z" transform="translate(1.72)"/><path class="cls-11" d="M152.6,38,154,37.9a.23.23,0,0,1,.22.18,12.15,12.15,0,0,1,.42,3.06.19.19,0,0,1-.17.21l-1.44.07a.21.21,0,0,1-.22-.18,15.13,15.13,0,0,0-.42-3.06A.18.18,0,0,1,152.6,38Z" transform="translate(1.72)"/><path class="cls-8" d="M150.68,39.21l.55,0a.08.08,0,0,1,.08.07,3.48,3.48,0,0,1,.1,1.08.06.06,0,0,1-.07.07l-.54,0s-.09,0-.08-.07a5.64,5.64,0,0,0-.1-1.08A.06.06,0,0,1,150.68,39.21Z" transform="translate(1.72)"/><path class="cls-8" d="M148.39,39.44l.55,0s.08,0,.08.06a3.48,3.48,0,0,1,.1,1.08.08.08,0,0,1-.06.08l-.55,0s-.08,0-.08-.06a5.64,5.64,0,0,0-.1-1.08A.06.06,0,0,1,148.39,39.44Z" transform="translate(1.72)"/><path class="cls-8" d="M146.1,39.66l.55,0a.07.07,0,0,1,.08.06,3.48,3.48,0,0,1,.1,1.08s0,.07-.06.07l-.55,0a.08.08,0,0,1-.08-.07,5.64,5.64,0,0,0-.1-1.08A.06.06,0,0,1,146.1,39.66Z" transform="translate(1.72)"/><path class="cls-8" d="M143.82,39.89l.54,0a.08.08,0,0,1,.08.07,3.48,3.48,0,0,1,.1,1.08s0,.07-.06.07l-.55,0a.08.08,0,0,1-.08-.07,5.64,5.64,0,0,0-.1-1.08S143.77,39.89,143.82,39.89Z" transform="translate(1.72)"/><path class="cls-8" d="M141.53,40.12l.54,0a.08.08,0,0,1,.08.07,3.39,3.39,0,0,1,.1,1.07s0,.08-.06.08l-.55,0a.06.06,0,0,1-.08-.06,5.64,5.64,0,0,0-.1-1.08S141.48,40.12,141.53,40.12Z" transform="translate(1.72)"/><path class="cls-8" d="M139.24,40.34l.54,0a.09.09,0,0,1,.09.06,4.22,4.22,0,0,1,.1,1.08s0,.07-.07.07l-.55,0s-.08,0-.08-.06a5.49,5.49,0,0,0-.1-1.08S139.19,40.35,139.24,40.34Z" transform="translate(1.72)"/><path class="cls-8" d="M137,40.57l.54,0a.09.09,0,0,1,.09.07,3.82,3.82,0,0,1,.09,1.08s0,.07-.06.07l-.55,0a.08.08,0,0,1-.08-.07,5.64,5.64,0,0,0-.1-1.08S136.9,40.57,137,40.57Z" transform="translate(1.72)"/><path class="cls-8" d="M134.66,40.8l.54,0a.09.09,0,0,1,.09.07,4.22,4.22,0,0,1,.1,1.08s0,.07-.07.07l-.55,0a.06.06,0,0,1-.08-.06,5.64,5.64,0,0,0-.1-1.08S134.61,40.8,134.66,40.8Z" transform="translate(1.72)"/><path class="cls-8" d="M132.37,41l.54,0a.09.09,0,0,1,.09.06,4.22,4.22,0,0,1,.1,1.08.1.1,0,0,1-.07.08l-.55,0s-.08,0-.08-.06a5.57,5.57,0,0,0-.1-1.08S132.33,41,132.37,41Z" transform="translate(1.72)"/><path class="cls-8" d="M130.08,41.25l.54,0a.07.07,0,0,1,.09.06,4.22,4.22,0,0,1,.1,1.08s0,.07-.07.07l-.55,0a.08.08,0,0,1-.08-.07,5.64,5.64,0,0,0-.1-1.08S130,41.25,130.08,41.25Z" transform="translate(1.72)"/><path class="cls-8" d="M127.79,41.48l.55,0a.08.08,0,0,1,.08.07,4.22,4.22,0,0,1,.1,1.08s0,.07-.07.07l-.55,0a.08.08,0,0,1-.08-.07,5.64,5.64,0,0,0-.1-1.08S127.75,41.48,127.79,41.48Z" transform="translate(1.72)"/><path class="cls-8" d="M125.5,41.71l.55,0a.09.09,0,0,1,.08.06,4.22,4.22,0,0,1,.1,1.08.1.1,0,0,1-.07.08l-.55,0s-.08,0-.08-.06a5.64,5.64,0,0,0-.1-1.08S125.46,41.71,125.5,41.71Z" transform="translate(1.72)"/><path class="cls-8" d="M123.21,41.93l.55,0s.07,0,.08.06a4.22,4.22,0,0,1,.1,1.08.07.07,0,0,1-.07.07l-.55,0a.08.08,0,0,1-.08-.07,5.46,5.46,0,0,0-.1-1.07A.07.07,0,0,1,123.21,41.93Z" transform="translate(1.72)"/><path class="cls-8" d="M120.92,42.16l.55,0a.08.08,0,0,1,.08.07,4.22,4.22,0,0,1,.1,1.08.07.07,0,0,1-.07.07l-.55,0a.08.08,0,0,1-.08-.07,5.64,5.64,0,0,0-.1-1.08S120.88,42.16,120.92,42.16Z" transform="translate(1.72)"/><path class="cls-8" d="M118.63,42.39l.55,0a.08.08,0,0,1,.08.07,4.18,4.18,0,0,1,.1,1.08.08.08,0,0,1-.07.07l-.55,0a.06.06,0,0,1-.08-.06,5.64,5.64,0,0,0-.1-1.08S118.59,42.39,118.63,42.39Z" transform="translate(1.72)"/><path class="cls-8" d="M116.34,42.61l.55,0a.09.09,0,0,1,.08.06,4.22,4.22,0,0,1,.1,1.08.07.07,0,0,1-.07.07l-.55,0s-.08,0-.08-.06a5.49,5.49,0,0,0-.1-1.08S116.3,42.62,116.34,42.61Z" transform="translate(1.72)"/><path class="cls-8" d="M114.05,42.84l.55,0a.08.08,0,0,1,.08.07,4.22,4.22,0,0,1,.1,1.08.07.07,0,0,1-.07.07l-.55,0a.08.08,0,0,1-.08-.07,4.94,4.94,0,0,0-.1-1.08S114,42.84,114.05,42.84Z" transform="translate(1.72)"/><path class="cls-8" d="M111.76,43.07l.55,0a.08.08,0,0,1,.08.07,4.22,4.22,0,0,1,.1,1.08.08.08,0,0,1-.07.07l-.55,0a.06.06,0,0,1-.08-.06,4.94,4.94,0,0,0-.1-1.08S111.72,43.07,111.76,43.07Z" transform="translate(1.72)"/><path class="cls-8" d="M109.47,43.3l.55,0a.09.09,0,0,1,.08.06,4.22,4.22,0,0,1,.1,1.08.08.08,0,0,1-.07.08l-.55,0s-.08,0-.08-.06a4.88,4.88,0,0,0-.1-1.08S109.43,43.3,109.47,43.3Z" transform="translate(1.72)"/><path class="cls-8" d="M107.18,43.52l.55,0s.07,0,.08.06a4.22,4.22,0,0,1,.1,1.08.07.07,0,0,1-.07.07l-.55,0a.08.08,0,0,1-.08-.07,4.94,4.94,0,0,0-.1-1.08S107.14,43.52,107.18,43.52Z" transform="translate(1.72)"/><path class="cls-8" d="M104.89,43.75l.55,0a.08.08,0,0,1,.08.07,4.22,4.22,0,0,1,.1,1.08.07.07,0,0,1-.07.07L105,45a.08.08,0,0,1-.08-.07,4.94,4.94,0,0,0-.1-1.08S104.85,43.75,104.89,43.75Z" transform="translate(1.72)"/><path class="cls-8" d="M102.6,44l.55,0a.08.08,0,0,1,.08.07,4.1,4.1,0,0,1,.1,1.07.08.08,0,0,1-.07.08l-.55,0s-.08,0-.08-.06a4.94,4.94,0,0,0-.1-1.08S102.56,44,102.6,44Z" transform="translate(1.72)"/><path class="cls-8" d="M100.31,44.2l.55,0a.09.09,0,0,1,.08.06,3.82,3.82,0,0,1,.1,1.08.07.07,0,0,1-.07.07l-.55,0a.08.08,0,0,1-.08-.07,4.79,4.79,0,0,0-.1-1.07S100.27,44.21,100.31,44.2Z" transform="translate(1.72)"/><path class="cls-8" d="M98,44.43l.55,0a.08.08,0,0,1,.08.07,3.82,3.82,0,0,1,.1,1.08.07.07,0,0,1-.07.07l-.55,0a.08.08,0,0,1-.08-.07A4.94,4.94,0,0,0,98,44.5S98,44.43,98,44.43Z" transform="translate(1.72)"/><path class="cls-8" d="M95.73,44.66l.55,0a.08.08,0,0,1,.08.07,3.82,3.82,0,0,1,.1,1.08.08.08,0,0,1-.07.07l-.55,0a.06.06,0,0,1-.08-.06,4.94,4.94,0,0,0-.1-1.08S95.69,44.66,95.73,44.66Z" transform="translate(1.72)"/><path class="cls-8" d="M93.44,44.88l.55,0a.09.09,0,0,1,.08.06,3.82,3.82,0,0,1,.1,1.08.07.07,0,0,1-.07.07l-.55,0s-.08,0-.08-.06a4.3,4.3,0,0,0-.1-1.08A.08.08,0,0,1,93.44,44.88Z" transform="translate(1.72)"/><path class="cls-8" d="M91.15,45.11l.55,0s.07,0,.08.06a3.82,3.82,0,0,1,.1,1.08.07.07,0,0,1-.07.07l-.55,0a.08.08,0,0,1-.08-.07,4.39,4.39,0,0,0-.1-1.08A.08.08,0,0,1,91.15,45.11Z" transform="translate(1.72)"/><path class="cls-6" d="M87.66,44.91l.44,0a9.46,9.46,0,0,1,.19,1.33,10.87,10.87,0,0,1,0,1.4l-.66,0v.72l.86,0a.56.56,0,0,0,.38-.19.57.57,0,0,0,.14-.36,12.38,12.38,0,0,0,0-1.62,11,11,0,0,0-.23-1.54.64.64,0,0,0-.19-.33.55.55,0,0,0-.39-.14l-.54,0Zm-.45,0,.45,0v-.72l-.45,0v.72Zm.45,2.73-.45,0v.19h0v.53l.45,0ZM87,45l.22,0v-.72l-.45,0h-.07a.6.6,0,0,0-.32.18.57.57,0,0,0-.14.38.07.07,0,0,1,0,.05v0a14.44,14.44,0,0,1,.2,1.49c0,.5.06,1,0,1.5h0v0a.56.56,0,0,0,.19.38.59.59,0,0,0,.36.13h.17v-.53h0v-.6c0-.33,0-.65,0-1S87.07,45.4,87,45Z" transform="translate(1.72)"/><path class="cls-11" d="M86.78,44.6l1.44-.08a.22.22,0,0,1,.21.19,11.31,11.31,0,0,1,.25,3.06.2.2,0,0,1-.18.21l-1.44.07a.19.19,0,0,1-.21-.18,15.84,15.84,0,0,0-.25-3.07A.18.18,0,0,1,86.78,44.6Z" transform="translate(1.72)"/><path class="cls-11" d="M127.14,49.9c-.57-.28-5.53-.32-5.39.42l-1.83,0c-1.91,0-13.79,1.35-15.63,1.75-2.25.49-2.35,2.81.27,2.82,2.41,0,15.2-.68,17.06-.68H122c0,.26,0,.5.21.62a11.09,11.09,0,0,0,2.58,0c.79,0,2.8-.23,3-.62C128.13,53.41,128.2,50.41,127.14,49.9Z" transform="translate(1.72)"/><path class="cls-12" d="M127.14,49.9c-.57-.28-5.68-.35-5.39.42.94,1.21.44,3.24.18,3.94h0c0,.26,0,.5.21.62a11.09,11.09,0,0,0,2.58,0c.79,0,2.8-.23,3-.62C128.13,53.41,128.2,50.41,127.14,49.9Z" transform="translate(1.72)"/><path class="cls-12" d="M127.11,54.59c.76,0,1.38-1.06,1.38-2.36s-.62-2.35-1.38-2.35-1.38,1.06-1.38,2.35S126.35,54.59,127.11,54.59Z" transform="translate(1.72)"/><path class="cls-12" d="M122.28,54.92c.89,0,1.62-1.25,1.62-2.78s-.73-2.77-1.62-2.77-1.63,1.24-1.63,2.77S121.38,54.92,122.28,54.92Z" transform="translate(1.72)"/><path class="cls-14" d="M127.11,54.29c.58,0,1.06-.93,1.06-2.06s-.48-2-1.06-2-1.06.92-1.06,2S126.53,54.29,127.11,54.29Z" transform="translate(1.72)"/><path class="cls-11" d="M130.36,44.86l-15,12.56c-3.64,3.06-16,3.09-14,.53L110,47.15Z" transform="translate(1.72)"/></g></g></svg>