<svg xmlns="http://www.w3.org/2000/svg" xmlns:xlink="http://www.w3.org/1999/xlink" viewBox="0 0 440.45 148.18"><defs><style>.cls-1{fill:none;}.cls-2{fill:#34b1cd;}.cls-3{clip-path:url(#clip-path);}.cls-4{fill:#26a3bf;}.cls-5,.cls-7{fill:#34b4d1;}.cls-10,.cls-11,.cls-12,.cls-14,.cls-15,.cls-5,.cls-8{fill-rule:evenodd;}.cls-6,.cls-8{fill:#168199;}.cls-10,.cls-9{fill:#48c0db;}.cls-11{fill:#fff;}.cls-12,.cls-13{fill:#e6e6e6;}.cls-14{fill:#b3b3b3;}.cls-15{fill:#ccc;}</style><clipPath id="clip-path" transform="translate(4.98 4.87)"><rect class="cls-1" width="430.87" height="125.07"/></clipPath></defs><g id="Layer_2" data-name="Layer 2"><g id="OBJECTS"><rect class="cls-2" x="4.98" y="4.87" width="430.87" height="125.07"/><g class="cls-3"><rect class="cls-4" width="440.45" height="148.18"/><path class="cls-5" d="M0,112.22A17.52,17.52,0,0,1,11.51,96.08c.06-8,5.88-14.73,13.78-16.73a16.38,16.38,0,0,1-.54-4.17c0-9.65,8.36-17.47,18.67-17.47a19.79,19.79,0,0,1,7.27,1.37,20,20,0,0,1,17.06-10.9c10.41-.47,18.85,7,18.85,16.79a17.15,17.15,0,0,1-.13,2,20.51,20.51,0,0,1,10.47-3.44c9.52-.42,17.38,5.82,18.66,14.34a27.62,27.62,0,0,1,14-4.55,25.41,25.41,0,0,1,17.33,5.57,27.26,27.26,0,0,1,22.4-13.41,25.14,25.14,0,0,1,18.89,7,20.11,20.11,0,0,1,16.55-9.94c9.93-.44,18.07,6.39,18.79,15.48a20.14,20.14,0,0,1,3.91-.56A18.64,18.64,0,0,1,241,82.22a27.14,27.14,0,0,1,23.18-14.89,26.57,26.57,0,0,1,8.53,1,20.39,20.39,0,0,1,13.18-5.62l.78,0,.78,0a18.68,18.68,0,0,1,13.18,4.44,27.75,27.75,0,0,1,8.54-1.75c10.27-.46,19.12,4.82,23.18,12.82a20.29,20.29,0,0,1,17.45-5.78c.72-9.15,8.86-16.71,18.79-17.15a18.21,18.21,0,0,1,16,7.56A19,19,0,0,1,400,55.24c10.31,0,18.66,7.82,18.66,17.46a16.41,16.41,0,0,1-1.31,6.45C423.62,82,428,86.67,428,94.93a50.79,50.79,0,0,1-.65,7,16.66,16.66,0,0,1,3.54,10.25v30.21H0Z" transform="translate(4.98 4.87)"/><rect class="cls-6" x="27.29" y="76.52" width="5.01" height="24.26"/><rect class="cls-6" x="5.87" y="88.22" width="29.8" height="3.89"/><rect class="cls-6" x="3.25" y="90.85" width="35.03" height="32.81"/><rect class="cls-7" x="13.6" y="114.4" width="14.35" height="9.25"/><rect class="cls-6" x="11.4" y="116.63" width="18.74" height="0.38"/><rect class="cls-6" x="20.53" y="113.35" width="0.47" height="3.66"/><rect class="cls-6" x="16.71" y="113.35" width="0.47" height="3.66"/><rect class="cls-6" x="24.36" y="113.35" width="0.47" height="3.66"/><rect class="cls-7" x="3.25" y="114.02" width="35.03" height="0.38"/><rect class="cls-7" x="3.25" y="106.79" width="35.03" height="0.38"/><rect class="cls-7" x="5.87" y="106.79" width="5.8" height="5.63"/><rect class="cls-6" x="8.55" y="107.15" width="0.44" height="5.27"/><rect class="cls-6" x="5.51" y="109.6" width="6.52" height="0.36"/><rect class="cls-7" x="13.87" y="106.79" width="5.8" height="5.63"/><rect class="cls-6" x="16.55" y="107.15" width="0.44" height="5.27"/><rect class="cls-6" x="13.51" y="109.6" width="6.52" height="0.36"/><rect class="cls-7" x="21.87" y="106.79" width="5.8" height="5.63"/><rect class="cls-6" x="24.55" y="107.15" width="0.44" height="5.27"/><rect class="cls-6" x="21.51" y="109.6" width="6.52" height="0.36"/><rect class="cls-7" x="29.87" y="106.79" width="5.8" height="5.63"/><rect class="cls-6" x="32.55" y="107.15" width="0.44" height="5.27"/><rect class="cls-6" x="29.51" y="109.6" width="6.52" height="0.36"/><rect class="cls-7" x="3.25" y="99.26" width="35.03" height="0.38"/><rect class="cls-7" x="5.87" y="99.26" width="5.8" height="5.63"/><rect class="cls-6" x="8.55" y="99.62" width="0.44" height="5.27"/><rect class="cls-6" x="5.51" y="102.07" width="6.52" height="0.36"/><rect class="cls-7" x="13.87" y="99.26" width="5.8" height="5.63"/><rect class="cls-6" x="16.55" y="99.62" width="0.44" height="5.27"/><rect class="cls-6" x="13.51" y="102.07" width="6.52" height="0.36"/><rect class="cls-7" x="21.87" y="99.26" width="5.8" height="5.63"/><rect class="cls-6" x="24.55" y="99.62" width="0.44" height="5.27"/><rect class="cls-6" x="21.51" y="102.07" width="6.52" height="0.36"/><rect class="cls-7" x="29.87" y="99.26" width="5.8" height="5.63"/><rect class="cls-6" x="32.55" y="99.62" width="0.44" height="5.27"/><rect class="cls-6" x="29.51" y="102.07" width="6.52" height="0.36"/><rect class="cls-7" x="3.25" y="91.73" width="35.03" height="0.38"/><rect class="cls-7" x="5.87" y="91.73" width="5.8" height="5.63"/><rect class="cls-6" x="8.55" y="92.09" width="0.44" height="5.27"/><rect class="cls-6" x="5.51" y="94.54" width="6.52" height="0.36"/><rect class="cls-7" x="13.87" y="91.73" width="5.8" height="5.63"/><rect class="cls-6" x="16.55" y="92.09" width="0.44" height="5.27"/><rect class="cls-6" x="13.51" y="94.54" width="6.52" height="0.36"/><rect class="cls-7" x="21.87" y="91.73" width="5.8" height="5.63"/><rect class="cls-6" x="24.55" y="92.09" width="0.44" height="5.27"/><rect class="cls-6" x="21.51" y="94.54" width="6.52" height="0.36"/><rect class="cls-7" x="29.87" y="91.73" width="5.8" height="5.63"/><rect class="cls-6" x="32.55" y="92.09" width="0.44" height="5.27"/><rect class="cls-6" x="29.51" y="94.54" width="6.52" height="0.36"/><rect class="cls-7" x="5.87" y="88.98" width="29.8" height="0.38"/><polygon class="cls-8" points="5.87 88.22 35.67 88.22 20.77 76.54 5.87 88.22"/><rect class="cls-7" x="17.87" y="82.24" width="5.8" height="5.63"/><rect class="cls-6" x="20.55" y="82.6" width="0.44" height="5.27"/><rect class="cls-6" x="17.51" y="85.06" width="6.52" height="0.36"/><rect class="cls-7" x="15.38" y="82.22" width="10.79" height="0.38"/><rect class="cls-7" x="27.29" y="77.72" width="5.01" height="0.38"/><rect class="cls-6" x="78.42" y="91.41" width="39.39" height="7.51"/><rect class="cls-6" x="78.42" y="96.69" width="10.5" height="26.59"/><rect class="cls-7" x="75.88" y="104.12" width="15.59" height="1.28"/><rect class="cls-7" x="79.99" y="98.26" width="7.38" height="4.89"/><path class="cls-5" d="M76.18,111.57h5v-6.1A2.52,2.52,0,0,0,78.7,103h0a2.52,2.52,0,0,0-2.52,2.51Z" transform="translate(4.98 4.87)"/><rect class="cls-7" x="81.16" y="117.86" width="5.03" height="0.83"/><path class="cls-8" d="M102.33,118.4H99.47V101.85a6.35,6.35,0,0,0-6.33-6.33h0a6.34,6.34,0,0,0-6.32,6.33V118.4H84V91.81h18.38Z" transform="translate(4.98 4.87)"/><rect class="cls-6" x="107.31" y="96.69" width="10.5" height="26.59"/><rect class="cls-7" x="107.25" y="104.12" width="13.11" height="1.28"/><rect class="cls-7" x="108.87" y="98.26" width="7.38" height="4.89"/><path class="cls-5" d="M105.07,111.57h5v-6.1a2.52,2.52,0,0,0-2.51-2.51h0a2.52,2.52,0,0,0-2.52,2.51Z" transform="translate(4.98 4.87)"/><rect class="cls-7" x="110.05" y="117.86" width="5.03" height="0.83"/><rect class="cls-7" x="75.88" y="93.77" width="44.48" height="1.28"/><rect class="cls-7" x="78.42" y="95.05" width="39.39" height="0.29"/><rect class="cls-7" x="78.42" y="105.4" width="10.8" height="0.29"/><rect class="cls-6" x="77.43" y="90.12" width="41.38" height="1.28"/><rect class="cls-9" x="78.42" y="91.41" width="39.39" height="0.29"/><rect class="cls-6" x="80.86" y="99.09" width="5.62" height="3.23"/><rect class="cls-7" x="81.29" y="99.51" width="4.77" height="2.38"/><rect class="cls-6" x="109.75" y="99.09" width="5.62" height="3.23"/><rect class="cls-7" x="110.18" y="99.51" width="4.77" height="2.38"/><path class="cls-8" d="M76.8,111h3.8v-5.39a1.91,1.91,0,0,0-1.9-1.9h0a1.91,1.91,0,0,0-1.9,1.9Z" transform="translate(4.98 4.87)"/><path class="cls-5" d="M77.18,110.56h3v-4.91a1.53,1.53,0,0,0-1.52-1.52h0a1.53,1.53,0,0,0-1.52,1.52Z" transform="translate(4.98 4.87)"/><path class="cls-8" d="M105.69,111h3.8v-5.39a1.91,1.91,0,0,0-1.9-1.9h0a1.91,1.91,0,0,0-1.9,1.9Z" transform="translate(4.98 4.87)"/><path class="cls-5" d="M106.07,110.56h3v-4.91a1.52,1.52,0,0,0-1.51-1.52h0a1.53,1.53,0,0,0-1.52,1.52Z" transform="translate(4.98 4.87)"/><path class="cls-10" d="M72.45,85.92h.94V84.15a.48.48,0,0,0-.47-.48h0a.48.48,0,0,0-.47.48Z" transform="translate(4.98 4.87)"/><path class="cls-10" d="M75,85.92h.94V84.15a.48.48,0,0,0-.47-.48h0a.48.48,0,0,0-.47.48Z" transform="translate(4.98 4.87)"/><path class="cls-8" d="M77.51,85.92h.94V84.15a.48.48,0,0,0-.47-.48h0a.48.48,0,0,0-.47.48Z" transform="translate(4.98 4.87)"/><path class="cls-8" d="M80,85.92h1V84.15a.48.48,0,0,0-.47-.48h0a.49.49,0,0,0-.48.48Z" transform="translate(4.98 4.87)"/><path class="cls-8" d="M82.56,85.92h.94V84.15a.48.48,0,0,0-.47-.48h0a.48.48,0,0,0-.47.48Z" transform="translate(4.98 4.87)"/><path class="cls-8" d="M85.09,85.92H86V84.15a.48.48,0,0,0-.47-.48h0a.48.48,0,0,0-.47.48Z" transform="translate(4.98 4.87)"/><path class="cls-8" d="M87.62,85.92h.94V84.15a.48.48,0,0,0-.47-.48h0a.48.48,0,0,0-.47.48Z" transform="translate(4.98 4.87)"/><path class="cls-8" d="M90.14,85.92h1V84.15a.48.48,0,0,0-.47-.48h0a.49.49,0,0,0-.48.48Z" transform="translate(4.98 4.87)"/><path class="cls-8" d="M92.67,85.92h.94V84.15a.48.48,0,0,0-.47-.48h0a.48.48,0,0,0-.47.48Z" transform="translate(4.98 4.87)"/><path class="cls-8" d="M95.2,85.92h.94V84.15a.48.48,0,0,0-.47-.48h0a.48.48,0,0,0-.47.48Z" transform="translate(4.98 4.87)"/><path class="cls-8" d="M97.73,85.92h.94V84.15a.48.48,0,0,0-.47-.48h0a.48.48,0,0,0-.47.48Z" transform="translate(4.98 4.87)"/><path class="cls-8" d="M100.25,85.92h1V84.15a.49.49,0,0,0-.48-.48h0a.48.48,0,0,0-.47.48Z" transform="translate(4.98 4.87)"/><path class="cls-8" d="M102.78,85.92h.94V84.15a.48.48,0,0,0-.47-.48h0a.48.48,0,0,0-.47.48Z" transform="translate(4.98 4.87)"/><path class="cls-8" d="M105.31,85.92h.94V84.15a.48.48,0,0,0-.47-.48h0a.48.48,0,0,0-.47.48Z" transform="translate(4.98 4.87)"/><path class="cls-8" d="M107.83,85.92h1V84.15a.48.48,0,0,0-.47-.48h0a.49.49,0,0,0-.48.48Z" transform="translate(4.98 4.87)"/><path class="cls-8" d="M110.36,85.92h1V84.15a.49.49,0,0,0-.48-.48h0a.48.48,0,0,0-.47.48Z" transform="translate(4.98 4.87)"/><path class="cls-8" d="M112.89,85.92h.94V84.15a.48.48,0,0,0-.47-.48h0a.48.48,0,0,0-.47.48Z" transform="translate(4.98 4.87)"/><rect class="cls-7" x="88.93" y="95.35" width="0.29" height="27.93"/><rect class="cls-7" x="107.02" y="95.35" width="0.29" height="27.93"/><rect class="cls-7" x="107.02" y="105.4" width="10.8" height="0.29"/><circle class="cls-6" cx="57.89" cy="70.96" r="1.93"/><path class="cls-8" d="M61.36,65.65a1.93,1.93,0,1,1-2.47,1.15A1.92,1.92,0,0,1,61.36,65.65Z" transform="translate(4.98 4.87)"/><path class="cls-8" d="M68.79,69.94a1.93,1.93,0,1,1-2.71.24A1.92,1.92,0,0,1,68.79,69.94Z" transform="translate(4.98 4.87)"/><path class="cls-8" d="M74.31,76.51a1.93,1.93,0,1,1-2.64-.7A1.93,1.93,0,0,1,74.31,76.51Z" transform="translate(4.98 4.87)"/><path class="cls-8" d="M77.24,84.58A1.92,1.92,0,1,1,75,83,1.91,1.91,0,0,1,77.24,84.58Z" transform="translate(4.98 4.87)"/><path class="cls-8" d="M77.24,93.16a1.92,1.92,0,1,1-1.56-2.24A1.91,1.91,0,0,1,77.24,93.16Z" transform="translate(4.98 4.87)"/><path class="cls-8" d="M74.31,101.22A1.93,1.93,0,1,1,71,99.29a1.93,1.93,0,0,1,3.34,1.93Z" transform="translate(4.98 4.87)"/><path class="cls-8" d="M68.79,107.79a1.93,1.93,0,1,1,.24-2.71A1.92,1.92,0,0,1,68.79,107.79Z" transform="translate(4.98 4.87)"/><path class="cls-8" d="M61.36,112.09a1.93,1.93,0,1,1,1.15-2.48A1.93,1.93,0,0,1,61.36,112.09Z" transform="translate(4.98 4.87)"/><path class="cls-8" d="M52.91,113.58a1.93,1.93,0,1,1,1.93-1.93A1.94,1.94,0,0,1,52.91,113.58Z" transform="translate(4.98 4.87)"/><path class="cls-8" d="M44.46,112.09a1.93,1.93,0,1,1,2.47-1.16A1.93,1.93,0,0,1,44.46,112.09Z" transform="translate(4.98 4.87)"/><path class="cls-8" d="M37,107.79a1.93,1.93,0,1,1,2.72-.23A1.92,1.92,0,0,1,37,107.79Z" transform="translate(4.98 4.87)"/><path class="cls-8" d="M31.51,101.22a1.93,1.93,0,1,1,2.64.71A1.93,1.93,0,0,1,31.51,101.22Z" transform="translate(4.98 4.87)"/><path class="cls-8" d="M28.58,93.16a1.93,1.93,0,1,1,2.23,1.56A1.93,1.93,0,0,1,28.58,93.16Z" transform="translate(4.98 4.87)"/><path class="cls-8" d="M28.58,84.58a1.93,1.93,0,1,1,1.56,2.23A1.93,1.93,0,0,1,28.58,84.58Z" transform="translate(4.98 4.87)"/><path class="cls-8" d="M31.51,76.51a1.93,1.93,0,1,1,.71,2.64A1.93,1.93,0,0,1,31.51,76.51Z" transform="translate(4.98 4.87)"/><path class="cls-8" d="M37,69.94a1.93,1.93,0,1,1-.24,2.72A1.92,1.92,0,0,1,37,69.94Z" transform="translate(4.98 4.87)"/><path class="cls-8" d="M44.46,65.65a1.93,1.93,0,1,1-1.15,2.47A1.92,1.92,0,0,1,44.46,65.65Z" transform="translate(4.98 4.87)"/><path class="cls-8" d="M52.91,91.86a3,3,0,1,0-3-3A3,3,0,0,0,52.91,91.86Z" transform="translate(4.98 4.87)"/><polygon class="cls-6" points="57.89 97.38 51.57 123.44 49.88 123.12 57.04 93.56 57.89 93.72 58.73 93.56 65.9 123.12 64.2 123.44 57.89 97.38"/><path class="cls-6" d="M52.91,67.58a21.29,21.29,0,1,1,0,42.57v-.87a20.42,20.42,0,1,0,0-40.83Zm0,42.57a21.29,21.29,0,0,1,0-42.57v.87a20.42,20.42,0,1,0,0,40.83Z" transform="translate(4.98 4.87)"/><path class="cls-6" d="M52.91,71.24a17.63,17.63,0,0,1,0,35.25v-.87a16.76,16.76,0,0,0,0-33.51Zm0,35.25a17.63,17.63,0,0,1,0-35.25v.87a16.76,16.76,0,1,0,0,33.51Z" transform="translate(4.98 4.87)"/><rect class="cls-6" x="50.13" y="69.46" width="4.05" height="0.87" transform="translate(-27.23 96.87) rotate(-67.95)"/><rect class="cls-6" x="53.24" y="67.87" width="0.87" height="4.05" transform="translate(-17.33 30.13) rotate(-22.04)"/><rect class="cls-6" x="53.43" y="69.62" width="4.05" height="0.86" transform="translate(-28.37 84.77) rotate(-57.96)"/><polygon class="cls-6" points="61.93 77.26 61.08 73.3 61.93 73.12 62.78 77.08 61.93 77.26"/><rect class="cls-6" x="56.66" y="70.34" width="4.05" height="0.87" transform="translate(-28.2 71.84) rotate(-47.96)"/><rect class="cls-6" x="59.68" y="69.27" width="0.87" height="4.05" transform="matrix(1, -0.04, 0.04, 1, 2.47, 7.06)"/><rect class="cls-6" x="59.72" y="71.62" width="4.05" height="0.87" transform="translate(-26.28 58.08) rotate(-37.95)"/><polygon class="cls-6" points="67.32 79.63 67.88 75.63 68.74 75.74 68.18 79.75 67.32 79.63"/><rect class="cls-6" x="62.5" y="73.41" width="4.05" height="0.87" transform="translate(-22.11 43.74) rotate(-27.96)"/><polygon class="cls-6" points="69.63 81.49 70.88 77.64 71.7 77.9 70.45 81.75 69.63 81.49"/><polygon class="cls-6" points="69.88 81.17 73.73 79.93 73.99 80.75 70.14 82 69.88 81.17"/><rect class="cls-6" x="65.91" y="76.82" width="4.05" height="0.87" transform="translate(-27.17 105.92) rotate(-62.04)"/><polygon class="cls-6" points="71.88 83.45 75.89 82.89 76 83.75 72 84.31 71.88 83.45"/><rect class="cls-6" x="67.7" y="79.61" width="4.05" height="0.87" transform="translate(-31.29 90.67) rotate(-52.05)"/><rect class="cls-6" x="70.05" y="79.64" width="0.87" height="4.05" transform="translate(-8.67 154.06) rotate(-87.96)"/><rect class="cls-6" x="68.98" y="82.66" width="4.05" height="0.87" transform="translate(-32.4 73.81) rotate(-42.04)"/><polygon class="cls-6" points="74.55 88.85 78.51 89.7 78.33 90.55 74.37 89.7 74.55 88.85"/><rect class="cls-6" x="69.71" y="85.89" width="4.05" height="0.86" transform="translate(-29.9 56.09) rotate(-32.05)"/><rect class="cls-6" x="71.45" y="86.08" width="0.87" height="4.05" transform="translate(-31.78 126.55) rotate(-67.96)"/><rect class="cls-6" x="69.86" y="89.19" width="4.05" height="0.87" transform="translate(-23.41 38.41) rotate(-22.05)"/><rect class="cls-6" x="71.3" y="89.39" width="0.86" height="4.05" transform="translate(-38.84 108.59) rotate(-57.96)"/><polygon class="cls-6" points="74.37 97.78 78.33 96.94 78.51 97.79 74.55 98.63 74.37 97.78"/><rect class="cls-6" x="70.57" y="92.62" width="0.87" height="4.05" transform="translate(-41.86 88.86) rotate(-47.96)"/><rect class="cls-6" x="68.46" y="95.64" width="4.05" height="0.87" transform="translate(1.59 7.45) rotate(-2.05)"/><rect class="cls-6" x="69.29" y="95.67" width="0.87" height="4.05" transform="translate(-40.36 68.42) rotate(-37.95)"/><polygon class="cls-6" points="72 103.18 76 103.74 75.89 104.6 71.88 104.04 72 103.18"/><rect class="cls-6" x="67.5" y="98.46" width="0.87" height="4.05" transform="translate(-34.2 48.45) rotate(-27.96)"/><polygon class="cls-6" points="70.14 105.48 73.99 106.73 73.73 107.56 69.88 106.31 70.14 105.48"/><polygon class="cls-6" points="70.45 105.73 71.7 109.58 70.88 109.85 69.63 106 70.45 105.73"/><rect class="cls-6" x="64.09" y="101.87" width="0.87" height="4.05" transform="translate(-52.52 117.06) rotate(-62.05)"/><polygon class="cls-6" points="68.18 107.73 68.74 111.74 67.88 111.86 67.32 107.85 68.18 107.73"/><rect class="cls-6" x="61.31" y="103.66" width="0.86" height="4.05" transform="translate(-54.58 94.24) rotate(-52.04)"/><rect class="cls-6" x="58.09" y="106.01" width="4.05" height="0.87" transform="translate(-43.43 167.59) rotate(-87.95)"/><rect class="cls-6" x="58.25" y="104.93" width="0.87" height="4.05" transform="translate(-51.55 71.7) rotate(-42.04)"/><polygon class="cls-6" points="62.78 110.41 61.93 114.36 61.08 114.19 61.93 110.23 62.78 110.41"/><rect class="cls-6" x="55.03" y="105.66" width="0.86" height="4.05" transform="translate(-43.71 50.7) rotate(-32.04)"/><rect class="cls-6" x="51.65" y="107.41" width="4.05" height="0.87" transform="translate(-61.46 121.99) rotate(-67.95)"/><rect class="cls-6" x="51.72" y="105.82" width="0.87" height="4.05" transform="translate(-31.69 32.34) rotate(-22.05)"/><rect class="cls-6" x="48.34" y="107.25" width="4.05" height="0.86" transform="translate(-62.66 98.11) rotate(-57.95)"/><polygon class="cls-6" points="53.85 110.23 54.69 114.19 53.84 114.36 53 110.41 53.85 110.23"/><rect class="cls-6" x="45.11" y="106.52" width="4.05" height="0.87" transform="translate(-58.89 75.2) rotate(-47.96)"/><rect class="cls-6" x="45.28" y="104.41" width="0.87" height="4.05" transform="translate(1.2 6.58) rotate(-2.05)"/><rect class="cls-6" x="42.06" y="105.25" width="4.05" height="0.86" transform="translate(-50.7 54.34) rotate(-37.95)"/><polygon class="cls-6" points="48.45 107.85 47.89 111.86 47.03 111.74 47.59 107.73 48.45 107.85"/><rect class="cls-6" x="39.27" y="103.46" width="4.05" height="0.87" transform="translate(-38.91 36.35) rotate(-27.95)"/><polygon class="cls-6" points="46.14 106 44.9 109.85 44.07 109.58 45.32 105.73 46.14 106"/><polygon class="cls-6" points="45.9 106.31 42.05 107.56 41.78 106.73 45.63 105.48 45.9 106.31"/><rect class="cls-6" x="35.86" y="100.05" width="4.05" height="0.87" transform="translate(-63.65 91.72) rotate(-62.04)"/><polygon class="cls-6" points="43.9 104.04 39.89 104.6 39.77 103.74 43.78 103.18 43.9 104.04"/><rect class="cls-6" x="34.08" y="97.26" width="4.05" height="0.87" transform="translate(-58.16 70.95) rotate(-52.04)"/><rect class="cls-6" x="34.91" y="94.05" width="0.87" height="4.05" transform="translate(-56.96 132.83) rotate(-87.95)"/><rect class="cls-6" x="32.8" y="94.21" width="4.05" height="0.87" transform="translate(-49.45 52.55) rotate(-42.04)"/><polygon class="cls-6" points="41.22 98.63 37.26 97.79 37.44 96.94 41.4 97.78 41.22 98.63"/><rect class="cls-6" x="32.07" y="90.98" width="4.05" height="0.86" transform="translate(-38.33 36.89) rotate(-32.04)"/><rect class="cls-6" x="33.5" y="87.6" width="0.87" height="4.05" transform="translate(-56.9 92.32) rotate(-67.95)"/><rect class="cls-6" x="31.91" y="87.67" width="4.05" height="0.87" transform="translate(-25.62 24.06) rotate(-22.05)"/><rect class="cls-6" x="33.66" y="84.3" width="0.86" height="4.05" transform="translate(-52.19 74.29) rotate(-57.95)"/><polygon class="cls-6" points="41.4 89.7 37.44 90.55 37.26 89.7 41.22 88.85 41.4 89.7"/><rect class="cls-6" x="34.39" y="81.07" width="0.87" height="4.05" transform="translate(-45.23 58.17) rotate(-47.95)"/><rect class="cls-6" x="33.32" y="81.23" width="4.05" height="0.87" transform="matrix(1, -0.04, 0.04, 1, 2.08, 6.19)"/><rect class="cls-6" x="35.67" y="78.01" width="0.87" height="4.05" transform="translate(-36.62 44.01) rotate(-37.96)"/><polygon class="cls-6" points="43.78 84.31 39.77 83.75 39.89 82.89 43.9 83.45 43.78 84.31"/><rect class="cls-6" x="37.45" y="75.23" width="0.87" height="4.05" transform="translate(-26.82 31.65) rotate(-27.95)"/><polygon class="cls-6" points="45.63 82 41.78 80.75 42.05 79.93 45.9 81.17 45.63 82"/><polygon class="cls-6" points="45.32 81.75 44.07 77.9 44.9 77.64 46.14 81.49 45.32 81.75"/><rect class="cls-6" x="40.86" y="71.82" width="0.87" height="4.05" transform="translate(-38.31 80.58) rotate(-62.04)"/><polygon class="cls-6" points="47.59 79.75 47.03 75.74 47.89 75.63 48.45 79.63 47.59 79.75"/><rect class="cls-6" x="43.65" y="70.03" width="0.87" height="4.05" transform="translate(-34.87 67.37) rotate(-52.05)"/><rect class="cls-6" x="43.68" y="70.86" width="4.05" height="0.87" transform="translate(-22.2 119.31) rotate(-87.96)"/><rect class="cls-6" x="46.7" y="68.75" width="0.87" height="4.05" transform="translate(-30.29 54.66) rotate(-42.05)"/><polygon class="cls-6" points="53 77.08 53.84 73.12 54.69 73.3 53.85 77.26 53 77.08"/><rect class="cls-6" x="49.93" y="68.03" width="0.86" height="4.05" transform="translate(-24.52 42.28) rotate(-32.05)"/><rect class="cls-6" x="57.62" y="76.55" width="0.54" height="17.19"/><polygon class="cls-6" points="64.02 77.68 58.14 93.83 57.63 93.65 63.51 77.5 64.02 77.68"/><rect class="cls-6" x="49.84" y="82.01" width="17.19" height="0.54" transform="translate(-37.18 79.03) rotate(-50)"/><polygon class="cls-6" points="72.91 85.38 58.02 93.98 57.75 93.51 72.64 84.91 72.91 85.38"/><polygon class="cls-6" points="74.86 91.02 57.93 94.01 57.84 93.47 74.77 90.49 74.86 91.02"/><polygon class="cls-6" points="74.77 96.99 57.84 94.01 57.93 93.47 74.86 96.46 74.77 96.99"/><polygon class="cls-6" points="72.64 102.57 57.75 93.98 58.02 93.51 72.91 102.1 72.64 102.57"/><rect class="cls-6" x="58.17" y="86.86" width="0.54" height="17.19" transform="translate(-42.71 64.77) rotate(-40)"/><polygon class="cls-6" points="63.51 109.99 57.63 93.83 58.14 93.65 64.02 109.8 63.51 109.99"/><rect class="cls-6" x="57.62" y="93.74" width="0.54" height="17.19"/><polygon class="cls-6" points="51.75 109.8 57.63 93.65 58.14 93.83 52.26 109.99 51.75 109.8"/><polygon class="cls-6" points="46.63 106.73 57.68 93.57 58.09 93.92 47.05 107.08 46.63 106.73"/><polygon class="cls-6" points="42.87 102.1 57.75 93.51 58.02 93.98 43.13 102.57 42.87 102.1"/><polygon class="cls-6" points="40.91 96.46 57.84 93.47 57.93 94.01 41.01 96.99 40.91 96.46"/><polygon class="cls-6" points="41.01 90.49 57.93 93.47 57.84 94.01 40.91 91.02 41.01 90.49"/><polygon class="cls-6" points="43.13 84.91 58.02 93.51 57.75 93.98 42.87 85.38 43.13 84.91"/><polygon class="cls-6" points="47.05 80.4 58.09 93.57 57.68 93.92 46.63 80.75 47.05 80.4"/><polygon class="cls-6" points="52.26 77.5 58.14 93.65 57.63 93.83 51.75 77.68 52.26 77.5"/><rect class="cls-6" x="4.98" y="122.17" width="430.87" height="7.8"/><path class="cls-6" d="M390.36,102.61H393c-.08-.32-.15-.63-.22-.94,0,0,0,0,0,0-.18-.78-.34-1.57-.49-2.39v0h0c-.14-.79-.27-1.61-.38-2.49v0c0-.18,0-.36-.07-.54h-1.42V52.75h0a.34.34,0,0,1,.29.21.9.9,0,0,1,.08.39h0a4.77,4.77,0,0,0,.42,2.22,1.25,1.25,0,0,0,1.09.79.13.13,0,0,1,.13.14h0v.63h0a.13.13,0,0,1-.13.14h-.44v.88c.29.09.47.22.47.4v.12h0v.44a1.48,1.48,0,0,1-.72,1.31l0,.2c0,.48.05,1,.07,1.43h0v0h0l.05,1h0c0,.47,0,.94.07,1.39v0h0c0,.49.05,1,.07,1.44v0h0c0,.46,0,.92.07,1.37,0,0,0,0,0,0,0,.47.06.92.08,1.37v0h0L392,70.3h0c0,.54.07,1.07.1,1.59h0v0h0c0,.42.06.83.08,1.24v0h0c0,.4.06.8.08,1.19h0v0h0v.06c0,.4.05.78.08,1.17h0c0,.57.09,1.13.13,1.68h0c0,.59.09,1.17.14,1.72h0c0,.49.08,1,.12,1.43a.13.13,0,0,1,.05.11.16.16,0,0,1,0,.09c0,.52.09,1,.14,1.51h0v0c.07.72.14,1.4.21,2.07h0c.08.78.17,1.51.26,2.22h0c.1.85.21,1.65.32,2.41h0c.09.6.18,1.18.27,1.73h1a.14.14,0,0,1,.14.14h0v.27h0l-.63,2.14a35.35,35.35,0,0,0,3.32,9.27h.73a.13.13,0,0,1,.13.14h0v1.55h0v1.51l.92,1.53v0l.29.47a.14.14,0,0,1,.09.13v0l1.66,2.75v0l1.26,2.11h0l1.39,2.32a.11.11,0,0,1,0,.08s0,.35,0,.73v2h-14v-2.86h7.57a5.79,5.79,0,0,0-.18-.63h0A6.73,6.73,0,0,0,395,111h0l-.57-.33-.26-.14h0a8.84,8.84,0,0,0-3.77-.84Zm-2.6,0h2.6v7h0a8.83,8.83,0,0,0-3.8.84h0l-.26.14a6.32,6.32,0,0,0-.56.33h0a6.71,6.71,0,0,0-2.77,3.55h0a5.79,5.79,0,0,0-.18.63h7.62V118h-14v-2.71h0a.19.19,0,0,1,0-.08l1.4-2.32v0l1.26-2.1a0,0,0,0,0,0,0l1.7-2.83v0l.31-.52,0,0,.91-1.53v-1.51h0v-1.55h0a.14.14,0,0,1,.14-.14h.73c.17-.35.35-.69.51-1h0a34.39,34.39,0,0,0,2.53-7.06v0q.13-.56.27-1.14l-.63-2.14h0v-.27h0a.14.14,0,0,1,.14-.14h1c.46-2.67.86-5.92,1.23-10.07a0,0,0,0,1,0,0,.43.43,0,0,1,0,0c.33-3.65.62-8,.91-13.21h0v0c.07-1.35.15-2.76.22-4.23v0c0-.8.08-1.61.12-2.44l0-.19a1.49,1.49,0,0,1-.72-1.32v-.44h0v-.12c0-.18.18-.31.47-.4v-.88h-.44a.14.14,0,0,1-.14-.14V56.5h0a.14.14,0,0,1,.14-.14,1.25,1.25,0,0,0,1.09-.79,4.77,4.77,0,0,0,.42-2.22h0a.9.9,0,0,1,.08-.39.34.34,0,0,1,.29-.21V96.17h-1.43c0,.18,0,.37-.07.55h0c-.12.88-.24,1.7-.38,2.49h0c-.15.83-.31,1.62-.49,2.4h0C387.91,102,387.83,102.29,387.76,102.61Z" transform="translate(4.98 4.87)"/><polygon class="cls-8" points="358.82 83.53 361.74 83.53 361.74 78.97 360.28 75.37 358.82 78.97 358.82 83.53"/><rect class="cls-6" x="340.44" y="103.35" width="1.64" height="16.29"/><rect class="cls-6" x="339.89" y="101.86" width="2.74" height="1.49"/><rect class="cls-6" x="347.96" y="103.35" width="1.64" height="16.29"/><rect class="cls-6" x="347.41" y="101.86" width="2.74" height="1.49"/><rect class="cls-6" x="355.48" y="103.35" width="1.64" height="16.29"/><rect class="cls-6" x="354.93" y="101.86" width="2.74" height="1.49"/><rect class="cls-6" x="363" y="103.35" width="1.64" height="16.29"/><rect class="cls-6" x="362.45" y="101.86" width="2.74" height="1.49"/><rect class="cls-6" x="370.52" y="103.35" width="1.64" height="16.29"/><rect class="cls-6" x="369.97" y="101.86" width="2.74" height="1.49"/><rect class="cls-6" x="378.04" y="103.35" width="1.64" height="16.29"/><rect class="cls-6" x="377.49" y="101.86" width="2.74" height="1.49"/><rect class="cls-6" x="353.95" y="89" width="12.65" height="5.52"/><path class="cls-8" d="M355.3,90.71A6.34,6.34,0,1,0,349,84.37,6.35,6.35,0,0,0,355.3,90.71Z" transform="translate(4.98 4.87)"/><path class="cls-6" d="M355.3,78a3.57,3.57,0,0,1,2.92,1.89,7.91,7.91,0,0,1,1.13,3.37l-.13,0a7.91,7.91,0,0,0-1.11-3.26,3.06,3.06,0,0,0-5.61,0,7.77,7.77,0,0,0-1.11,3.26l-.14,0a8,8,0,0,1,1.14-3.37A3.56,3.56,0,0,1,355.3,78Z" transform="translate(4.98 4.87)"/><polygon class="cls-8" points="380.23 100.37 360.08 88.21 339.89 100.37 339.89 101.86 380.23 101.86 380.23 100.37"/><path class="cls-8" d="M373.42,96a.27.27,0,1,0-.27-.27A.27.27,0,0,0,373.42,96Z" transform="translate(4.98 4.87)"/><path class="cls-8" d="M355.32,84.49a.28.28,0,0,1,.27.27.27.27,0,1,1-.27-.27Z" transform="translate(4.98 4.87)"/><path class="cls-8" d="M356.71,85.33a.27.27,0,0,1,.27.27.27.27,0,1,1-.54,0A.27.27,0,0,1,356.71,85.33Z" transform="translate(4.98 4.87)"/><path class="cls-8" d="M358.1,86.16a.27.27,0,0,1,.27.27.28.28,0,0,1-.28.27.27.27,0,0,1-.27-.27A.28.28,0,0,1,358.1,86.16Z" transform="translate(4.98 4.87)"/><path class="cls-8" d="M359.49,87a.27.27,0,0,1,0,.54.28.28,0,0,1-.27-.28A.26.26,0,0,1,359.49,87Z" transform="translate(4.98 4.87)"/><path class="cls-8" d="M360.87,87.83a.27.27,0,1,1-.27.27A.27.27,0,0,1,360.87,87.83Z" transform="translate(4.98 4.87)"/><path class="cls-8" d="M362.26,88.66a.28.28,0,0,1,.27.28.25.25,0,0,1-.27.26.27.27,0,0,1,0-.54Z" transform="translate(4.98 4.87)"/><path class="cls-8" d="M363.65,89.5a.27.27,0,1,1-.27.27A.27.27,0,0,1,363.65,89.5Z" transform="translate(4.98 4.87)"/><path class="cls-8" d="M365,90.33a.27.27,0,1,1,0,.54.27.27,0,0,1,0-.54Z" transform="translate(4.98 4.87)"/><path class="cls-8" d="M366.43,91.17a.27.27,0,0,1,.27.27.28.28,0,0,1-.28.27.26.26,0,0,1-.26-.28A.27.27,0,0,1,366.43,91.17Z" transform="translate(4.98 4.87)"/><path class="cls-8" d="M367.82,92a.27.27,0,1,1-.28.27A.28.28,0,0,1,367.82,92Z" transform="translate(4.98 4.87)"/><path class="cls-8" d="M369.2,92.84a.27.27,0,0,1,0,.54.28.28,0,0,1-.27-.28A.25.25,0,0,1,369.2,92.84Z" transform="translate(4.98 4.87)"/><path class="cls-8" d="M370.59,93.67a.27.27,0,1,1-.27.27A.27.27,0,0,1,370.59,93.67Z" transform="translate(4.98 4.87)"/><path class="cls-8" d="M372,94.5a.28.28,0,0,1,.27.28A.25.25,0,0,1,372,95a.27.27,0,1,1,0-.54Z" transform="translate(4.98 4.87)"/><path class="cls-8" d="M337.21,96a.27.27,0,1,0-.27-.27A.27.27,0,0,0,337.21,96Z" transform="translate(4.98 4.87)"/><path class="cls-8" d="M353.93,85.33a.27.27,0,0,0,0,.54.28.28,0,0,0,.27-.28A.27.27,0,0,0,353.93,85.33Z" transform="translate(4.98 4.87)"/><path class="cls-8" d="M352.54,86.16a.27.27,0,1,0,.27.27A.27.27,0,0,0,352.54,86.16Z" transform="translate(4.98 4.87)"/><path class="cls-8" d="M351.15,87a.27.27,0,0,0-.27.27.28.28,0,0,0,.27.27.28.28,0,0,0,.27-.28A.25.25,0,0,0,351.15,87Z" transform="translate(4.98 4.87)"/><path class="cls-8" d="M349.76,87.83a.27.27,0,0,0-.27.27.28.28,0,0,0,.28.27.27.27,0,0,0,.27-.27A.28.28,0,0,0,349.76,87.83Z" transform="translate(4.98 4.87)"/><path class="cls-8" d="M348.37,88.66a.28.28,0,0,0-.26.28.25.25,0,0,0,.27.26.27.27,0,0,0,.27-.27A.28.28,0,0,0,348.37,88.66Z" transform="translate(4.98 4.87)"/><path class="cls-8" d="M347,89.5a.27.27,0,1,0,.27.27A.27.27,0,0,0,347,89.5Z" transform="translate(4.98 4.87)"/><path class="cls-8" d="M345.6,90.33a.28.28,0,0,0-.27.27.27.27,0,1,0,.27-.27Z" transform="translate(4.98 4.87)"/><path class="cls-8" d="M344.21,91.17a.27.27,0,0,0,0,.54.28.28,0,0,0,.27-.28A.27.27,0,0,0,344.21,91.17Z" transform="translate(4.98 4.87)"/><path class="cls-8" d="M342.82,92a.27.27,0,0,0-.27.27.28.28,0,0,0,.27.27.27.27,0,1,0,0-.54Z" transform="translate(4.98 4.87)"/><path class="cls-8" d="M341.43,92.84a.27.27,0,0,0-.27.27.28.28,0,0,0,.28.27.27.27,0,0,0,.26-.28A.25.25,0,0,0,341.43,92.84Z" transform="translate(4.98 4.87)"/><path class="cls-8" d="M340,93.67a.26.26,0,0,0-.26.27.27.27,0,0,0,.54,0A.28.28,0,0,0,340,93.67Z" transform="translate(4.98 4.87)"/><path class="cls-8" d="M338.66,94.5a.28.28,0,0,0-.27.28.25.25,0,0,0,.27.26.27.27,0,1,0,0-.54Z" transform="translate(4.98 4.87)"/><path class="cls-8" d="M371.41,96a.27.27,0,1,0-.27-.27A.27.27,0,0,0,371.41,96Z" transform="translate(4.98 4.87)"/><path class="cls-8" d="M367.39,96a.27.27,0,1,0-.27-.27A.27.27,0,0,0,367.39,96Z" transform="translate(4.98 4.87)"/><path class="cls-8" d="M363.36,96a.27.27,0,1,0-.27-.27A.28.28,0,0,0,363.36,96Z" transform="translate(4.98 4.87)"/><path class="cls-8" d="M359.34,96a.27.27,0,1,0-.27-.27A.27.27,0,0,0,359.34,96Z" transform="translate(4.98 4.87)"/><path class="cls-8" d="M357.33,96a.27.27,0,1,0-.27-.27A.27.27,0,0,0,357.33,96Z" transform="translate(4.98 4.87)"/><path class="cls-8" d="M355.32,96a.27.27,0,1,0-.27-.27A.27.27,0,0,0,355.32,96Z" transform="translate(4.98 4.87)"/><path class="cls-8" d="M353.31,96a.27.27,0,1,0-.27-.27A.27.27,0,0,0,353.31,96Z" transform="translate(4.98 4.87)"/><path class="cls-8" d="M351.29,96a.27.27,0,1,0-.27-.27A.28.28,0,0,0,351.29,96Z" transform="translate(4.98 4.87)"/><path class="cls-8" d="M349.28,96a.27.27,0,1,0-.27-.27A.27.27,0,0,0,349.28,96Z" transform="translate(4.98 4.87)"/><path class="cls-8" d="M347.27,96a.27.27,0,1,0-.27-.27A.27.27,0,0,0,347.27,96Z" transform="translate(4.98 4.87)"/><path class="cls-8" d="M345.26,96a.27.27,0,1,0-.27-.27A.27.27,0,0,0,345.26,96Z" transform="translate(4.98 4.87)"/><path class="cls-8" d="M343.25,96a.27.27,0,1,0-.27-.27A.27.27,0,0,0,343.25,96Z" transform="translate(4.98 4.87)"/><path class="cls-8" d="M341.24,96a.27.27,0,1,0-.27-.27A.27.27,0,0,0,341.24,96Z" transform="translate(4.98 4.87)"/><path class="cls-8" d="M339.22,96a.27.27,0,1,0,0-.54.27.27,0,1,0,0,.54Z" transform="translate(4.98 4.87)"/><path class="cls-8" d="M369.4,96a.27.27,0,1,0-.27-.27A.27.27,0,0,0,369.4,96Z" transform="translate(4.98 4.87)"/><path class="cls-8" d="M365.38,96a.27.27,0,1,0-.27-.27A.27.27,0,0,0,365.38,96Z" transform="translate(4.98 4.87)"/><path class="cls-8" d="M361.35,96a.27.27,0,1,0-.27-.27A.27.27,0,0,0,361.35,96Z" transform="translate(4.98 4.87)"/><rect class="cls-6" x="339.89" y="119.64" width="40.33" height="0.74"/><rect class="cls-6" x="338.63" y="120.39" width="42.86" height="0.74"/><rect class="cls-6" x="337.25" y="121.13" width="45.63" height="0.74"/><rect class="cls-6" x="335.97" y="121.87" width="48.19" height="0.74"/><polygon class="cls-8" points="360.08 88.05 366.91 92.17 366.83 92.29 360.08 88.21 360.08 88.05"/><polygon class="cls-8" points="360.1 88.04 353.26 92.17 353.33 92.29 360.08 88.21 360.1 88.04"/><path class="cls-6" d="M355.3,78c.46,0,.87.73,1.15,1.91a16.78,16.78,0,0,1,.41,2.94h-.13a17.5,17.5,0,0,0-.4-2.9c-.27-1.12-.64-1.81-1-1.81s-.75.69-1,1.81a17.5,17.5,0,0,0-.4,2.9h-.13a16.86,16.86,0,0,1,.4-2.94C354.44,78.7,354.84,78,355.3,78Z" transform="translate(4.98 4.87)"/><path class="cls-6" d="M355.3,82.76A16.09,16.09,0,0,1,361.63,84v.14a16.9,16.9,0,0,0-12.66,0,.61.61,0,0,0,0-.14A16,16,0,0,1,355.3,82.76Z" transform="translate(4.98 4.87)"/><path class="cls-8" d="M354.83,76.5h.95V75a.48.48,0,0,0-.48-.48h0a.48.48,0,0,0-.47.48Z" transform="translate(4.98 4.87)"/><path class="cls-8" d="M356.07,76.5h.53V75.08a.27.27,0,0,0-.27-.27h0a.27.27,0,0,0-.26.27Z" transform="translate(4.98 4.87)"/><path class="cls-8" d="M354,76.5h.54V75.08a.27.27,0,0,0-.27-.27h0a.27.27,0,0,0-.27.27Z" transform="translate(4.98 4.87)"/><path class="cls-6" d="M356.76,74.06v.13a3.88,3.88,0,0,0-2.92,0,.57.57,0,0,0,0-.13A3.86,3.86,0,0,1,356.76,74.06Z" transform="translate(4.98 4.87)"/><path class="cls-6" d="M356.76,76.53v.58a3.88,3.88,0,0,0-2.92,0s0-.57,0-.58A3.86,3.86,0,0,1,356.76,76.53Z" transform="translate(4.98 4.87)"/><rect class="cls-6" x="114.15" y="117.57" width="40.15" height="0.54"/><path class="cls-8" d="M137.71,118.46a2.69,2.69,0,0,0,.68.81v.37H120.71v-.38a2.58,2.58,0,0,0,.79-.8H110v-.41c.19-.13,1.24-1.15.58-2.16h0c-.13-.13-.25-.26-.37-.4a3.73,3.73,0,0,1-1.06-2.52,2.44,2.44,0,0,1,0-.27h40.12a2.45,2.45,0,0,1,0,.27,3.59,3.59,0,0,1-.83,2.24,4.55,4.55,0,0,1-.58.68h0c-.66,1,.4,2,.58,2.16v.41Z" transform="translate(4.98 4.87)"/><path class="cls-8" d="M129.25,119.12c5.15,0,9.35-3.24,9.35-7.22s-4.2-7.23-9.35-7.23-9.35,3.25-9.35,7.23S124.1,119.12,129.25,119.12Z" transform="translate(4.98 4.87)"/><rect class="cls-6" x="129.92" y="104.85" width="8.62" height="8.95"/><rect class="cls-6" x="128.95" y="104.39" width="10.56" height="0.46"/><polygon class="cls-8" points="130.41 103.91 138.05 103.91 139.5 104.39 128.95 104.39 130.41 103.91"/><rect class="cls-7" x="130.41" y="103.45" width="7.64" height="0.46"/><polygon class="cls-8" points="131.84 102.92 136.61 102.92 138.05 103.45 130.41 103.45 131.84 102.92"/><rect class="cls-6" x="131.84" y="101.52" width="4.77" height="1.4"/><polygon class="cls-8" points="131.47 101.22 136.98 101.22 136.61 101.52 131.84 101.52 131.47 101.22"/><rect class="cls-7" x="131.47" y="99.82" width="5.51" height="1.4"/><polygon class="cls-5" points="131.47 99.82 136.98 99.82 136.61 99.51 131.84 99.51 131.47 99.82"/><polygon class="cls-8" points="133.1 69.2 135.36 69.2 136.61 99.51 131.84 99.51 133.1 69.2"/><polygon class="cls-8" points="133.1 69.2 135.36 69.2 134.25 66.11 134.2 66.11 133.1 69.2"/><polygon class="cls-8" points="134.93 64.86 134.75 65.8 135.65 66.11 134.75 66.42 134.93 67.36 134.2 66.73 133.48 67.36 133.66 66.42 132.76 66.11 133.66 65.8 133.48 64.86 134.2 65.48 134.93 64.86"/><rect class="cls-6" x="134.06" y="61.31" width="0.28" height="4.8"/><rect class="cls-6" x="132.87" y="62.57" width="2.66" height="0.28"/><ellipse class="cls-6" cx="150.76" cy="121.99" rx="3.04" ry="1.6"/><path class="cls-8" d="M145.78,112.07c1,0,1.73-.41,1.73-.91s-.77-.91-1.73-.91-1.73.41-1.73.91S144.83,112.07,145.78,112.07Z" transform="translate(4.98 4.87)"/><rect class="cls-6" x="147.74" y="121.75" width="6.05" height="0.44" rx="0.09"/><path class="cls-8" d="M144,115.89h3.67c.21,0,.37-.11.35-.34l-.43-4.28c0-.19-.13-.34-.28-.34h-2.95c-.15,0-.26.15-.28.34l-.43,4.28C143.57,115.79,143.73,115.89,144,115.89Z" transform="translate(4.98 4.87)"/><polygon class="cls-8" points="151.09 80.68 151.09 80.68 150.53 80.68 150.53 80.68 149.9 116.95 151.65 116.95 151.09 80.68"/><path class="cls-8" d="M148.51,117.11l-.19-1.89c0-.28-.19-.52-.42-.52h-4.23c-.23,0-.39.24-.42.52l-.2,1.89Z" transform="translate(4.98 4.87)"/><path class="cls-8" d="M145.8,76.09H147l1.15-4.62-2.31-.93v.92h0l1.91.24-1,4.1h-1Zm-1.17,0h1.17V75.8h-1l-1-4.1,1.92-.24v-.92l-2.31.93Z" transform="translate(4.98 4.87)"/><rect class="cls-6" x="150.59" y="74.85" width="0.36" height="5.83"/><path class="cls-8" d="M145.79,78.5a.7.7,0,1,0-.7-.69A.7.7,0,0,0,145.79,78.5Z" transform="translate(4.98 4.87)"/><path class="cls-8" d="M145.79,70.07a.34.34,0,1,0-.34-.34A.34.34,0,0,0,145.79,70.07Z" transform="translate(4.98 4.87)"/><path class="cls-8" d="M153,78.68h1.16l1.15-4.62L153,73.13v.92l1.92.24-1,4.1h-1Zm-1.16,0H153v-.29h-1l-1-4.1,1.92-.24v-.92l-2.31.93Z" transform="translate(4.98 4.87)"/><rect class="cls-6" x="157.81" y="77.44" width="0.36" height="5.83"/><circle class="cls-6" cx="157.98" cy="85.27" r="0.7"/><path class="cls-8" d="M153,72.66a.34.34,0,1,0,0-.67.34.34,0,0,0,0,.67Z" transform="translate(4.98 4.87)"/><polygon class="cls-8" points="158.31 83.27 158.31 83.27 157.74 83.27 157.74 83.27 157.7 85.35 158.35 85.35 158.31 83.27"/><path class="cls-8" d="M147.27,84.32c-.07-1,1.37-1.07,1.42.12.06,1.5-2.42,1.43-2.57-.21-.28-3,2.27-4.35,5.32-4.35,4.65,0,4.56,4.56,1.81,4.63-2,0-1.77-2.15-.26-2.13.89,0,1,1,.12,1,.45,0,.53-.65-.14-.7-.83,0-.94,1.4.26,1.3,2.17-.17,1.54-3.65-2-3.5-2.3.1-4.76,1.28-4.63,3.48.08,1.34,1.65,1.51,1.65.55A.49.49,0,0,0,147.27,84.32Z" transform="translate(4.98 4.87)"/><path class="cls-8" d="M149.78,80.62c1.61-.39,2.72.94,2.05,1.78s-1.64-.06-1.18-.69c-.3.49.54.94.86.37s-1.25-1.51-2.57-1.17C148.76,80.92,149.31,80.56,149.78,80.62Z" transform="translate(4.98 4.87)"/><path class="cls-8" d="M147.66,84.69a.38.38,0,1,0-.38-.38A.38.38,0,0,0,147.66,84.69Z" transform="translate(4.98 4.87)"/><path class="cls-8" d="M151,82.3a.38.38,0,0,0,0-.76.38.38,0,1,0,0,.76Z" transform="translate(4.98 4.87)"/><path class="cls-8" d="M153.19,83.35a.38.38,0,0,0,.38-.38.39.39,0,1,0-.77,0A.38.38,0,0,0,153.19,83.35Z" transform="translate(4.98 4.87)"/><path class="cls-8" d="M147.75,90.69c0-1.23-1.41-1.14-1.53-.06-.2,1.82,2.64,1.85,2.7-.17s-2.39-3.19-2.82-6.54c0,3.64,2.33,4.62,2.27,6.56,0,1.45-1.88,1.27-1.72.17C146.74,90,147.8,90.09,147.75,90.69Z" transform="translate(4.98 4.87)"/><path class="cls-8" d="M147.35,87.44c.76,1.48,2.49,1.43,2.68.38s-1.12-1.2-1.29-.44c.17-.54,1.06-.21.84.41s-2,0-2.57-1.17C146.9,86.47,147,87.13,147.35,87.44Z" transform="translate(4.98 4.87)"/><path class="cls-8" d="M148.8,87.72a.38.38,0,1,0,0-.54A.38.38,0,0,0,148.8,87.72Z" transform="translate(4.98 4.87)"/><path class="cls-8" d="M147.08,90.78a.39.39,0,0,0,.54,0,.39.39,0,0,0-.51-.58A.39.39,0,0,0,147.08,90.78Z" transform="translate(4.98 4.87)"/><path class="cls-8" d="M139.72,78.68h-1.17v-.29h1l.95-4.1-1.92-.24h0v-.92h0l2.31.93Zm-1.17,0h-1.16l-1.15-4.62,2.31-.93v.92l-1.91.24,1,4.1h1Z" transform="translate(4.98 4.87)"/><rect class="cls-6" x="143.35" y="77.44" width="0.36" height="5.83"/><circle class="cls-6" cx="143.54" cy="85.27" r="0.7"/><path class="cls-8" d="M138.56,72.66a.34.34,0,1,0,0-.67.34.34,0,0,0,0,.67Z" transform="translate(4.98 4.87)"/><polygon class="cls-8" points="143.21 83.27 143.21 83.27 143.78 83.27 143.78 83.27 143.82 85.35 143.17 85.35 143.21 83.27"/><path class="cls-8" d="M144.29,84.32c.07-1-1.37-1.07-1.42.12-.06,1.5,2.42,1.43,2.58-.21.27-3-2.27-4.35-5.32-4.35-4.66,0-4.56,4.56-1.82,4.63,2,0,1.77-2.15.26-2.13-.89,0-1,1-.12,1-.44,0-.53-.65.14-.7.83,0,.95,1.4-.25,1.3-2.17-.17-1.54-3.65,2-3.5,2.3.1,4.75,1.28,4.63,3.48-.08,1.34-1.65,1.51-1.65.55A.49.49,0,0,1,144.29,84.32Z" transform="translate(4.98 4.87)"/><path class="cls-8" d="M141.79,80.62c-1.62-.39-2.72.94-2,1.78s1.64-.06,1.18-.69c.3.49-.54.94-.86.37s1.24-1.51,2.57-1.17C142.81,80.92,142.25,80.56,141.79,80.62Z" transform="translate(4.98 4.87)"/><path class="cls-8" d="M143.9,84.69a.38.38,0,1,0-.38-.38A.38.38,0,0,0,143.9,84.69Z" transform="translate(4.98 4.87)"/><path class="cls-8" d="M140.62,82.3a.38.38,0,1,0-.38-.38A.38.38,0,0,0,140.62,82.3Z" transform="translate(4.98 4.87)"/><path class="cls-8" d="M138.38,83.35a.38.38,0,0,0,.38-.38.38.38,0,1,0-.76,0A.38.38,0,0,0,138.38,83.35Z" transform="translate(4.98 4.87)"/><path class="cls-8" d="M143.81,90.69c0-1.23,1.42-1.14,1.54-.06.2,1.82-2.64,1.85-2.71-.17s2.39-3.19,2.83-6.54c0,3.64-2.34,4.62-2.28,6.56.05,1.45,1.88,1.27,1.73.17C144.83,90,143.77,90.09,143.81,90.69Z" transform="translate(4.98 4.87)"/><path class="cls-8" d="M144.22,87.44c-.76,1.48-2.49,1.43-2.69.38s1.13-1.2,1.3-.44c-.18-.54-1.07-.21-.84.41s1.95,0,2.57-1.17C144.66,86.47,144.58,87.13,144.22,87.44Z" transform="translate(4.98 4.87)"/><path class="cls-8" d="M142.76,87.72a.38.38,0,1,1,0-.54A.39.39,0,0,1,142.76,87.72Z" transform="translate(4.98 4.87)"/><path class="cls-8" d="M144.49,90.78a.39.39,0,0,1-.54,0,.38.38,0,1,1,.54,0Z" transform="translate(4.98 4.87)"/><rect class="cls-6" x="286.63" y="83.6" width="52.14" height="4.02"/><polygon class="cls-8" points="288.73 89.63 291.03 89.63 293.13 87.63 286.63 87.63 288.73 89.63"/><rect class="cls-6" x="288.73" y="89.63" width="2.3" height="34.66"/><polygon class="cls-8" points="297.86 89.63 300.15 89.63 302.26 87.63 295.75 87.63 297.86 89.63"/><rect class="cls-6" x="297.86" y="89.63" width="2.3" height="34.66"/><polygon class="cls-8" points="306.98 89.63 309.28 89.63 311.39 87.63 304.88 87.63 306.98 89.63"/><rect class="cls-6" x="306.98" y="89.63" width="2.3" height="34.66"/><polygon class="cls-8" points="316.11 89.63 318.41 89.63 320.51 87.63 314 87.63 316.11 89.63"/><rect class="cls-6" x="316.11" y="89.63" width="2.3" height="34.66"/><polygon class="cls-8" points="325.24 89.63 327.53 89.63 329.64 87.63 323.13 87.63 325.24 89.63"/><rect class="cls-6" x="325.24" y="89.63" width="2.3" height="34.66"/><polygon class="cls-8" points="334.36 89.63 336.66 89.63 338.76 87.63 332.26 87.63 334.36 89.63"/><rect class="cls-6" x="334.36" y="89.63" width="2.3" height="34.66"/><rect class="cls-6" x="283.45" y="81.98" width="58.49" height="1.63"/><polygon class="cls-8" points="305.33 78.32 320.06 78.32 322.03 81.98 303.36 81.98 305.33 78.32"/><rect class="cls-6" x="308.88" y="75.84" width="7.64" height="2.48"/><rect class="cls-6" x="288.32" y="116.06" width="3.12" height="8.24"/><rect class="cls-6" x="297.45" y="116.06" width="3.12" height="8.24"/><rect class="cls-6" x="306.57" y="116.06" width="3.12" height="8.24"/><rect class="cls-6" x="315.7" y="116.06" width="3.12" height="8.24"/><rect class="cls-6" x="324.83" y="116.06" width="3.12" height="8.24"/><rect class="cls-6" x="333.95" y="116.06" width="3.12" height="8.24"/><polygon class="cls-8" points="158.38 94.37 192 94.37 194.8 92.25 155.58 92.25 158.38 94.37"/><path class="cls-8" d="M153.4,120.76h2.25v-5.53a1.66,1.66,0,0,1,1.81-1.43h0a1.66,1.66,0,0,1,1.81,1.43v5.53H162v-5.53a1.67,1.67,0,0,1,1.82-1.43h0a1.67,1.67,0,0,1,1.81,1.43v5.53h2.75v-5.53a1.67,1.67,0,0,1,1.81-1.43h0a1.67,1.67,0,0,1,1.82,1.43v5.53h2.75v-5.53a1.66,1.66,0,0,1,1.81-1.43h0a1.66,1.66,0,0,1,1.81,1.43v5.53h2.75v-5.53A1.67,1.67,0,0,1,183,113.8h0a1.67,1.67,0,0,1,1.81,1.43v5.53H187V84.87H153.4Z" transform="translate(4.98 4.87)"/><rect class="cls-7" x="158.38" y="116.49" width="33.62" height="0.43"/><rect class="cls-7" x="160.62" y="113.8" width="1.55" height="2.69"/><rect class="cls-7" x="162.7" y="113.8" width="1.55" height="2.69"/><rect class="cls-7" x="167" y="113.8" width="1.55" height="2.69"/><rect class="cls-7" x="169.07" y="113.8" width="1.55" height="2.69"/><rect class="cls-7" x="173.38" y="113.8" width="1.55" height="2.69"/><rect class="cls-7" x="175.45" y="113.8" width="1.55" height="2.69"/><rect class="cls-7" x="179.75" y="113.8" width="1.55" height="2.69"/><rect class="cls-7" x="181.83" y="113.8" width="1.55" height="2.69"/><rect class="cls-7" x="186.13" y="113.8" width="1.55" height="2.69"/><rect class="cls-7" x="188.2" y="113.8" width="1.55" height="2.69"/><rect class="cls-7" x="160.62" y="109.3" width="1.55" height="2.69"/><rect class="cls-7" x="162.7" y="109.3" width="1.55" height="2.69"/><rect class="cls-7" x="167" y="109.3" width="1.55" height="2.69"/><rect class="cls-7" x="169.07" y="109.3" width="1.55" height="2.69"/><rect class="cls-7" x="173.38" y="109.3" width="1.55" height="2.69"/><rect class="cls-7" x="175.45" y="109.3" width="1.55" height="2.69"/><rect class="cls-7" x="179.75" y="109.3" width="1.55" height="2.69"/><rect class="cls-7" x="181.83" y="109.3" width="1.55" height="2.69"/><rect class="cls-7" x="186.13" y="109.3" width="1.55" height="2.69"/><rect class="cls-7" x="188.2" y="109.3" width="1.55" height="2.69"/><rect class="cls-7" x="160.62" y="104.8" width="1.55" height="2.69"/><rect class="cls-7" x="162.7" y="104.8" width="1.55" height="2.69"/><rect class="cls-7" x="167" y="104.8" width="1.55" height="2.69"/><rect class="cls-7" x="169.07" y="104.8" width="1.55" height="2.69"/><rect class="cls-7" x="173.38" y="104.8" width="1.55" height="2.69"/><rect class="cls-7" x="175.45" y="104.8" width="1.55" height="2.69"/><rect class="cls-7" x="179.75" y="104.8" width="1.55" height="2.69"/><rect class="cls-7" x="181.83" y="104.8" width="1.55" height="2.69"/><rect class="cls-7" x="186.13" y="104.8" width="1.55" height="2.69"/><rect class="cls-7" x="188.2" y="104.8" width="1.55" height="2.69"/><rect class="cls-7" x="160.62" y="100.3" width="1.55" height="2.69"/><rect class="cls-7" x="162.7" y="100.3" width="1.55" height="2.69"/><rect class="cls-7" x="167" y="100.3" width="1.55" height="2.69"/><rect class="cls-7" x="169.07" y="100.3" width="1.55" height="2.69"/><rect class="cls-7" x="173.38" y="100.3" width="1.55" height="2.69"/><rect class="cls-7" x="175.45" y="100.3" width="1.55" height="2.69"/><rect class="cls-7" x="179.75" y="100.3" width="1.55" height="2.69"/><rect class="cls-7" x="181.83" y="100.3" width="1.55" height="2.69"/><rect class="cls-7" x="186.13" y="100.3" width="1.55" height="2.69"/><rect class="cls-7" x="188.2" y="100.3" width="1.55" height="2.69"/><rect class="cls-7" x="158.38" y="98.9" width="33.62" height="0.43"/><path class="cls-5" d="M157.46,90.34h0a1.65,1.65,0,0,1,1.81,1.42V94h-3.62V91.76a1.65,1.65,0,0,1,1.81-1.42Zm6.38,0h0a1.66,1.66,0,0,1,1.81,1.42V94H162V91.76a1.66,1.66,0,0,1,1.82-1.42Zm6.37,0h0A1.66,1.66,0,0,1,172,91.76V94H168.4V91.76a1.66,1.66,0,0,1,1.81-1.42Zm6.38,0h0a1.65,1.65,0,0,1,1.81,1.42V94h-3.62V91.76a1.65,1.65,0,0,1,1.81-1.42Zm6.38,0h0a1.66,1.66,0,0,1,1.81,1.42V94h-3.63V91.76A1.66,1.66,0,0,1,183,90.34Z" transform="translate(4.98 4.87)"/><rect class="cls-7" x="160.62" y="90.9" width="3.63" height="1.35"/><rect class="cls-7" x="167" y="90.9" width="3.63" height="1.35"/><rect class="cls-7" x="173.38" y="90.9" width="3.63" height="1.35"/><rect class="cls-7" x="179.75" y="90.9" width="3.63" height="1.35"/><rect class="cls-7" x="186.13" y="90.9" width="3.63" height="1.35"/><rect class="cls-6" x="191.6" y="117.27" width="99.43" height="1.08"/><path class="cls-8" d="M273.69,120.31a17.48,17.48,0,0,0-1-3.49c-2.54-6.21-8.29-10.31-13.95-12.83A49.78,49.78,0,0,0,248,100.7a62.2,62.2,0,0,0-11.7-1.15v.77a60.82,60.82,0,0,1,11.57,1.13,49.23,49.23,0,0,1,10.54,3.25,34.11,34.11,0,0,1,6.7,3.89v1.68a33.83,33.83,0,0,0-6.09-3.45,49.59,49.59,0,0,0-10.73-3.27,65.07,65.07,0,0,0-11.81-1.12h-.18v.76h.17a64.56,64.56,0,0,1,11.69,1.11,48.83,48.83,0,0,1,10.59,3.22C264.35,110,270,114,272.2,120.31ZM236.34,99.55h-.05a61.28,61.28,0,0,0-11,.93,49.37,49.37,0,0,0-10.13,2.89c-5.66,2.34-11.19,6.11-14.29,11.87a20.93,20.93,0,0,0-1.91,5.07h1.5c2.09-6.36,7.79-10.44,13.38-12.89a49.18,49.18,0,0,1,10.75-3.2,64.11,64.11,0,0,1,11.73-1v-.76a64.53,64.53,0,0,0-11.85,1,49.31,49.31,0,0,0-10.9,3.25,33.52,33.52,0,0,0-6.07,3.41v-1.51a33.34,33.34,0,0,1,7.92-4.54,48.64,48.64,0,0,1,10-2.85,59.86,59.86,0,0,1,10.86-.91h.05Z" transform="translate(4.98 4.87)"/><path class="cls-6" d="M235.34,100a.27.27,0,0,1,.4,0,.31.31,0,0,1,0,.43L234,102.66l0,0a.27.27,0,0,1-.4,0l-1.68-1.94-1.36,2.08a.27.27,0,0,1-.39.08l0,0-1.95-1.59-1,2,0,.06a.28.28,0,0,1-.4,0L225,101.81l-1,1.94,0,0a.27.27,0,0,1-.4.07l-1.74-1.38-.87,1.93s0,0,0,0a.27.27,0,0,1-.39.11l-1.92-1.17-.77,1.92v0a.27.27,0,0,1-.22.17h-.16l-1.83-1-.54,1.89s0,0,0,0a.26.26,0,0,1-.12.15h0a.21.21,0,0,1-.19,0h0l-1.78-.84-.51,2a.09.09,0,0,1,0,0,.25.25,0,0,1-.16.16h0a.22.22,0,0,1-.16,0h0l-1.81-.83-.38,2v0a.29.29,0,0,1-.15.19h0a.19.19,0,0,1-.15,0h0l-2-.63a.31.31,0,0,1-.19-.38.27.27,0,0,1,.35-.2l1.68.53.39-2a.29.29,0,0,1,.34-.24l.07,0,1.82.83.51-2a.43.43,0,0,0,0,0,.28.28,0,0,1,.38-.16l1.8.85.54-1.9s0,0,0-.06a.27.27,0,0,1,.2-.16h.05a.22.22,0,0,1,.11,0h0l1.85,1,.78-1.93s0,0,0,0a.28.28,0,0,1,.39-.11l1.93,1.18.89-2a.09.09,0,0,1,0-.06h0a.26.26,0,0,1,.16-.09h.1l.09,0h0l0,0,1.75,1.38,1-2a.16.16,0,0,1,0-.07.27.27,0,0,1,.4,0l1.69,1.52,1-1.94a.27.27,0,0,1,.39-.11l.05,0,2,1.61,1.39-2.13a.28.28,0,0,1,.4-.08l.05.06,1.7,2Z" transform="translate(4.98 4.87)"/><path class="cls-6" d="M235.35,100.37a.31.31,0,0,1,0-.43.27.27,0,0,1,.4,0l1.74,2.06,1.81-2,0,0a.28.28,0,0,1,.4.06l1.48,2.15,2.12-1.62,0,0a.27.27,0,0,1,.39.1l1.11,2,1.81-1.54,0,0h0l.05,0h0a.32.32,0,0,1,.14,0h0l.08,0,.09.09h0l1.07,2,1.89-1.4a.27.27,0,0,1,.39.08l0,0,1,2,2-1.19h0a.24.24,0,0,1,.27,0h0l0,0h0l0,0h0l0,0h0a.08.08,0,0,1,0,0h0l.83,2,2-1,0,0a.25.25,0,0,1,.25,0h.06s0,0,0,0h0a0,0,0,0,0,0,0l.58,1.93,1.93-.86a.27.27,0,0,1,.37.16s0,0,0,0l.54,2,1.95-.83s0,0,.07,0a.29.29,0,0,1,.34.23l.41,2,1.8-.55a.29.29,0,0,1,.35.22.29.29,0,0,1-.19.37l-2.08.62h0a.27.27,0,0,1-.34-.23l-.41-2-1.95.83a.27.27,0,0,1-.37-.17s0,0,0,0l-.53-2-1.92.85h0a.25.25,0,0,1-.17,0h0a.35.35,0,0,1-.17-.17,0,0,0,0,0,0,0l-.58-1.91-1.95,1h0a.31.31,0,0,1-.19,0h-.19l-.83-1.94-2.05,1.19a.28.28,0,0,1-.39-.13v0l-.93-2-1.87,1.39a.26.26,0,0,1-.39-.08l0,0-1.06-2L245,103.31l0,0a.27.27,0,0,1-.39-.1l-1.12-2-2.09,1.61h0a.28.28,0,0,1-.4-.06l-1.45-2.11-1.79,2,0,0a.27.27,0,0,1-.4,0Z" transform="translate(4.98 4.87)"/><rect class="cls-6" x="290.48" y="114.63" width="0.55" height="2.92"/><rect class="cls-6" x="191.6" y="114.63" width="99.43" height="0.47"/><rect class="cls-6" x="288.38" y="114.63" width="0.55" height="2.92"/><rect class="cls-6" x="286.27" y="114.63" width="0.55" height="2.92"/><rect class="cls-6" x="284.17" y="114.63" width="0.55" height="2.92"/><rect class="cls-6" x="282.07" y="114.63" width="0.55" height="2.92"/><rect class="cls-6" x="279.96" y="114.63" width="0.55" height="2.92"/><rect class="cls-6" x="277.86" y="114.63" width="0.55" height="2.92"/><rect class="cls-6" x="275.75" y="114.63" width="0.55" height="2.92"/><rect class="cls-6" x="273.65" y="114.63" width="0.55" height="2.92"/><rect class="cls-6" x="271.55" y="114.63" width="0.55" height="2.92"/><rect class="cls-6" x="269.44" y="114.63" width="0.55" height="2.92"/><rect class="cls-6" x="267.34" y="114.63" width="0.55" height="2.92"/><rect class="cls-6" x="265.23" y="114.63" width="0.55" height="2.92"/><rect class="cls-6" x="263.13" y="114.63" width="0.55" height="2.92"/><rect class="cls-6" x="261.03" y="114.63" width="0.55" height="2.92"/><rect class="cls-6" x="258.92" y="114.63" width="0.55" height="2.92"/><rect class="cls-6" x="256.82" y="114.63" width="0.55" height="2.92"/><rect class="cls-6" x="254.72" y="114.63" width="0.55" height="2.92"/><rect class="cls-6" x="252.61" y="114.63" width="0.55" height="2.92"/><rect class="cls-6" x="250.51" y="114.63" width="0.55" height="2.92"/><rect class="cls-6" x="248.4" y="114.63" width="0.55" height="2.92"/><rect class="cls-6" x="246.3" y="114.63" width="0.55" height="2.92"/><rect class="cls-6" x="244.2" y="114.63" width="0.55" height="2.92"/><rect class="cls-6" x="242.09" y="114.63" width="0.55" height="2.92"/><rect class="cls-6" x="239.99" y="114.63" width="0.55" height="2.92"/><rect class="cls-6" x="237.88" y="114.63" width="0.55" height="2.92"/><rect class="cls-6" x="235.78" y="114.63" width="0.55" height="2.92"/><rect class="cls-6" x="233.68" y="114.63" width="0.55" height="2.92"/><rect class="cls-6" x="231.57" y="114.63" width="0.55" height="2.92"/><rect class="cls-6" x="229.47" y="114.63" width="0.55" height="2.92"/><rect class="cls-6" x="227.37" y="114.63" width="0.55" height="2.92"/><rect class="cls-6" x="225.26" y="114.63" width="0.55" height="2.92"/><rect class="cls-6" x="223.16" y="114.63" width="0.55" height="2.92"/><rect class="cls-6" x="221.05" y="114.63" width="0.55" height="2.92"/><rect class="cls-6" x="218.95" y="114.63" width="0.55" height="2.92"/><rect class="cls-6" x="216.85" y="114.63" width="0.55" height="2.92"/><rect class="cls-6" x="214.74" y="114.63" width="0.55" height="2.92"/><rect class="cls-6" x="212.64" y="114.63" width="0.55" height="2.92"/><rect class="cls-6" x="210.53" y="114.63" width="0.55" height="2.92"/><rect class="cls-6" x="208.43" y="114.63" width="0.55" height="2.92"/><rect class="cls-6" x="206.33" y="114.63" width="0.55" height="2.92"/><rect class="cls-6" x="204.22" y="114.63" width="0.55" height="2.92"/><rect class="cls-6" x="202.12" y="114.63" width="0.55" height="2.92"/><rect class="cls-6" x="200.02" y="114.63" width="0.55" height="2.92"/><rect class="cls-6" x="197.91" y="114.63" width="0.55" height="2.92"/><rect class="cls-6" x="195.81" y="114.63" width="0.55" height="2.92"/><rect class="cls-6" x="193.7" y="114.63" width="0.55" height="2.92"/><rect class="cls-6" x="191.6" y="114.63" width="0.55" height="2.92"/><path class="cls-8" d="M286.05,109.9a33.33,33.33,0,0,0-13.85,10.41h1.49c2.5-3.11,7.28-6.15,12.36-8.07Z" transform="translate(4.98 4.87)"/><path class="cls-8" d="M186.62,109.9a33.36,33.36,0,0,1,13.86,10.41H199c-2.49-3.11-7.28-6.15-12.36-8.07Z" transform="translate(4.98 4.87)"/><path class="cls-8" d="M401.91,90.56h32.32v28h-2.74v-8.45a1.42,1.42,0,0,0-1.49-1.33h0a1.42,1.42,0,0,0-1.49,1.33v8.45h-1.57v-8.45a1.42,1.42,0,0,0-1.49-1.33h0a1.42,1.42,0,0,0-1.49,1.33v8.45h-2.18v-6.46a3.54,3.54,0,0,0-3.71-3.32h0a3.54,3.54,0,0,0-3.71,3.32v6.46h-2.18v-8.45a1.42,1.42,0,0,0-1.49-1.33h0a1.42,1.42,0,0,0-1.49,1.33v8.45h-1.57v-8.45a1.42,1.42,0,0,0-1.49-1.33h0a1.42,1.42,0,0,0-1.49,1.33v8.45h-2.74Z" transform="translate(4.98 4.87)"/><rect class="cls-9" x="409.63" y="106.81" width="2.98" height="5.16"/><rect class="cls-9" x="414.18" y="106.81" width="2.98" height="5.16"/><rect class="cls-9" x="419.57" y="106.81" width="6.95" height="5.16"/><rect class="cls-9" x="428.94" y="106.81" width="2.98" height="5.16"/><rect class="cls-9" x="433.49" y="106.81" width="2.98" height="5.16"/><rect class="cls-9" x="409.63" y="99.85" width="2.98" height="5.16"/><rect class="cls-9" x="414.18" y="99.85" width="2.98" height="5.16"/><rect class="cls-9" x="419.57" y="99.85" width="6.95" height="5.16"/><rect class="cls-9" x="428.94" y="99.85" width="2.98" height="5.16"/><rect class="cls-9" x="433.49" y="99.85" width="2.98" height="5.16"/><rect class="cls-9" x="406.89" y="111.18" width="32.31" height="0.79"/><rect class="cls-9" x="406.89" y="104.22" width="32.31" height="0.79"/><rect class="cls-6" x="405.67" y="93.96" width="34.75" height="1.47"/><rect class="cls-6" x="406.89" y="95.44" width="32.31" height="0.79"/><rect class="cls-6" x="438.62" y="91.16" width="1.8" height="4.28"/><rect class="cls-6" x="438.62" y="91.78" width="1.8" height="0.79"/><rect class="cls-6" x="430.38" y="91.16" width="1.8" height="4.28"/><rect class="cls-6" x="430.38" y="91.78" width="1.8" height="0.79"/><rect class="cls-6" x="422.14" y="91.16" width="1.8" height="4.28"/><rect class="cls-6" x="422.14" y="91.78" width="1.8" height="0.79"/><rect class="cls-6" x="413.91" y="91.16" width="1.8" height="4.28"/><rect class="cls-6" x="413.91" y="91.78" width="1.8" height="0.79"/><rect class="cls-6" x="405.67" y="91.16" width="1.8" height="4.28"/><rect class="cls-6" x="405.67" y="91.78" width="1.8" height="0.79"/></g><path class="cls-11" d="M142.54,31.81c-.57-.27-5.53-.31-5.38.43l-1.84,0c-1.91,0-13.79,1.35-15.63,1.75-2.24.49-2.35,2.82.27,2.83,2.41,0,15.2-.68,17.07-.68h.32c0,.25,0,.5.21.61a11,11,0,0,0,2.58,0c.8-.05,2.81-.23,3-.63C143.53,35.33,143.61,32.32,142.54,31.81Z" transform="translate(4.98 4.87)"/><path class="cls-12" d="M142.54,31.81c-.57-.27-5.68-.35-5.38.43.93,1.21.43,3.24.17,3.94h0c0,.25,0,.5.21.61a11,11,0,0,0,2.58,0c.8-.05,2.81-.23,3-.63C143.53,35.33,143.61,32.32,142.54,31.81Z" transform="translate(4.98 4.87)"/><path class="cls-12" d="M142.51,36.5c.76,0,1.38-1,1.38-2.35s-.62-2.35-1.38-2.35-1.38,1.05-1.38,2.35S141.75,36.5,142.51,36.5Z" transform="translate(4.98 4.87)"/><ellipse class="cls-13" cx="142.65" cy="38.93" rx="1.63" ry="2.78"/><path class="cls-14" d="M142.51,36.2c.59,0,1.07-.92,1.07-2.05s-.48-2-1.07-2-1.06.92-1.06,2S141.93,36.2,142.51,36.2Z" transform="translate(4.98 4.87)"/><path class="cls-11" d="M112.24,42.91l14.93-12.38c3.66-3,16-3.07,14-.52l-8.53,10.61Z" transform="translate(4.98 4.87)"/><path class="cls-11" d="M150.73,36.15,85.29,42.44,69.15,46.17a6.68,6.68,0,0,0-1.86.73c-1.16.68-1.2,1.7.36,2,2.44.54,7.92,1.07,10.56,1.38,2.38.28,12,1.24,15.06,1.24s8.84-.8,8.84-.8L149.87,46c2.4-.24,13-3.46,12.8-5.26C162.45,39.09,156.76,35.57,150.73,36.15Z" transform="translate(4.98 4.87)"/><path class="cls-11" d="M85.23,42.46c-1.93.11-4.15-1.68-4.15-1.68l-14.37-12a1.56,1.56,0,0,0-1.16-.4l-3.71.31,8.63,17.17Z" transform="translate(4.98 4.87)"/><path class="cls-8" d="M160.73,38.62a14.43,14.43,0,0,0-1.38-.79c-.64.05-1.33.14-1.48.17s-.1.13-.05.27a8,8,0,0,0,.38.88c.1.15.23.24.42.11A3.43,3.43,0,0,1,160.73,38.62Z" transform="translate(4.98 4.87)"/><path class="cls-12" d="M80.06,46.66c-1,0-12.77-1.43-13.7-1.43s1.53,1.72,2.17,2.29,6.41.64,8.62.56S81.84,46.71,80.06,46.66Z" transform="translate(4.98 4.87)"/><path class="cls-15" d="M66.46,48.09c.06.37.44.69,1.19.85,2.44.54,7.92,1.07,10.56,1.38,2.38.28,12,1.24,15.06,1.24s8.84-.8,8.84-.8L149.87,46c2.4-.24,13-3.46,12.8-5.26v0c-4.4,3.76-22.91,4.48-28.39,4.93S106,48.78,106,48.78s-5.21.29-11.44.87-9.69-.37-13.2-.63S67,49,66.46,48.09Z" transform="translate(4.98 4.87)"/><path class="cls-6" d="M153.57,38.28l.36,0a11.69,11.69,0,0,1,.28,1.36,12.44,12.44,0,0,1,.1,1.38l-.74,0v.72l1,0a.52.52,0,0,0,.38-.19.62.62,0,0,0,.13-.38,14,14,0,0,0-.12-1.62,12.72,12.72,0,0,0-.31-1.54.75.75,0,0,0-.21-.32h0a.52.52,0,0,0-.38-.13l-.45,0Zm-.73,0,.73,0v-.72l-1,0h-.1a.57.57,0,0,0-.29.19.48.48,0,0,0-.12.35h0a.34.34,0,0,0,0,.1,15,15,0,0,1,.28,1.49c.07.5.11,1,.13,1.49v0a.57.57,0,0,0,.21.4.55.55,0,0,0,.37.12h0l.48,0V41l-.37,0c0-.47-.06-.94-.12-1.4S152.94,38.77,152.84,38.32Z" transform="translate(4.98 4.87)"/><path class="cls-11" d="M152.6,38,154,37.9a.23.23,0,0,1,.22.18,12.15,12.15,0,0,1,.42,3.06.19.19,0,0,1-.17.21l-1.44.07a.21.21,0,0,1-.22-.18,15.13,15.13,0,0,0-.42-3.06A.18.18,0,0,1,152.6,38Z" transform="translate(4.98 4.87)"/><path class="cls-8" d="M150.68,39.21l.55,0a.08.08,0,0,1,.08.07,3.48,3.48,0,0,1,.1,1.08.06.06,0,0,1-.07.07l-.54,0s-.09,0-.08-.07a5.64,5.64,0,0,0-.1-1.08A.06.06,0,0,1,150.68,39.21Z" transform="translate(4.98 4.87)"/><path class="cls-8" d="M148.39,39.44l.55,0s.08,0,.08.06a3.48,3.48,0,0,1,.1,1.08.08.08,0,0,1-.06.08l-.55,0s-.08,0-.08-.06a5.64,5.64,0,0,0-.1-1.08A.06.06,0,0,1,148.39,39.44Z" transform="translate(4.98 4.87)"/><path class="cls-8" d="M146.1,39.66l.55,0a.07.07,0,0,1,.08.06,3.48,3.48,0,0,1,.1,1.08s0,.07-.06.07l-.55,0a.08.08,0,0,1-.08-.07,5.64,5.64,0,0,0-.1-1.08A.06.06,0,0,1,146.1,39.66Z" transform="translate(4.98 4.87)"/><path class="cls-8" d="M143.82,39.89l.54,0a.08.08,0,0,1,.08.07,3.48,3.48,0,0,1,.1,1.08s0,.07-.06.07l-.55,0a.08.08,0,0,1-.08-.07,5.64,5.64,0,0,0-.1-1.08S143.77,39.89,143.82,39.89Z" transform="translate(4.98 4.87)"/><path class="cls-8" d="M141.53,40.12l.54,0a.08.08,0,0,1,.08.07,3.39,3.39,0,0,1,.1,1.07s0,.08-.06.08l-.55,0a.06.06,0,0,1-.08-.06,5.64,5.64,0,0,0-.1-1.08S141.48,40.12,141.53,40.12Z" transform="translate(4.98 4.87)"/><path class="cls-8" d="M139.24,40.34l.54,0a.09.09,0,0,1,.09.06,4.22,4.22,0,0,1,.1,1.08s0,.07-.07.07l-.55,0s-.08,0-.08-.06a5.49,5.49,0,0,0-.1-1.08S139.19,40.35,139.24,40.34Z" transform="translate(4.98 4.87)"/><path class="cls-8" d="M137,40.57l.54,0a.09.09,0,0,1,.09.07,3.82,3.82,0,0,1,.09,1.08s0,.07-.06.07l-.55,0a.08.08,0,0,1-.08-.07,5.64,5.64,0,0,0-.1-1.08S136.9,40.57,137,40.57Z" transform="translate(4.98 4.87)"/><path class="cls-8" d="M134.66,40.8l.54,0a.09.09,0,0,1,.09.07,4.22,4.22,0,0,1,.1,1.08s0,.07-.07.07l-.55,0a.06.06,0,0,1-.08-.06,5.64,5.64,0,0,0-.1-1.08S134.61,40.8,134.66,40.8Z" transform="translate(4.98 4.87)"/><path class="cls-8" d="M132.37,41l.54,0a.09.09,0,0,1,.09.06,4.22,4.22,0,0,1,.1,1.08.1.1,0,0,1-.07.08l-.55,0s-.08,0-.08-.06a5.57,5.57,0,0,0-.1-1.08S132.33,41,132.37,41Z" transform="translate(4.98 4.87)"/><path class="cls-8" d="M130.08,41.25l.54,0a.07.07,0,0,1,.09.06,4.22,4.22,0,0,1,.1,1.08s0,.07-.07.07l-.55,0a.08.08,0,0,1-.08-.07,5.64,5.64,0,0,0-.1-1.08S130,41.25,130.08,41.25Z" transform="translate(4.98 4.87)"/><path class="cls-8" d="M127.79,41.48l.55,0a.08.08,0,0,1,.08.07,4.22,4.22,0,0,1,.1,1.08s0,.07-.07.07l-.55,0a.08.08,0,0,1-.08-.07,5.64,5.64,0,0,0-.1-1.08S127.75,41.48,127.79,41.48Z" transform="translate(4.98 4.87)"/><path class="cls-8" d="M125.5,41.71l.55,0a.09.09,0,0,1,.08.06,4.22,4.22,0,0,1,.1,1.08.1.1,0,0,1-.07.08l-.55,0s-.08,0-.08-.06a5.64,5.64,0,0,0-.1-1.08S125.46,41.71,125.5,41.71Z" transform="translate(4.98 4.87)"/><path class="cls-8" d="M123.21,41.93l.55,0s.07,0,.08.06a4.22,4.22,0,0,1,.1,1.08.07.07,0,0,1-.07.07l-.55,0a.08.08,0,0,1-.08-.07,5.46,5.46,0,0,0-.1-1.07A.07.07,0,0,1,123.21,41.93Z" transform="translate(4.98 4.87)"/><path class="cls-8" d="M120.92,42.16l.55,0a.08.08,0,0,1,.08.07,4.22,4.22,0,0,1,.1,1.08.07.07,0,0,1-.07.07l-.55,0a.08.08,0,0,1-.08-.07,5.64,5.64,0,0,0-.1-1.08S120.88,42.16,120.92,42.16Z" transform="translate(4.98 4.87)"/><path class="cls-8" d="M118.63,42.39l.55,0a.08.08,0,0,1,.08.07,4.18,4.18,0,0,1,.1,1.08.08.08,0,0,1-.07.07l-.55,0a.06.06,0,0,1-.08-.06,5.64,5.64,0,0,0-.1-1.08S118.59,42.39,118.63,42.39Z" transform="translate(4.98 4.87)"/><path class="cls-8" d="M116.34,42.61l.55,0a.09.09,0,0,1,.08.06,4.22,4.22,0,0,1,.1,1.08.07.07,0,0,1-.07.07l-.55,0s-.08,0-.08-.06a5.49,5.49,0,0,0-.1-1.08S116.3,42.62,116.34,42.61Z" transform="translate(4.98 4.87)"/><path class="cls-8" d="M114.05,42.84l.55,0a.08.08,0,0,1,.08.07,4.22,4.22,0,0,1,.1,1.08.07.07,0,0,1-.07.07l-.55,0a.08.08,0,0,1-.08-.07,4.94,4.94,0,0,0-.1-1.08S114,42.84,114.05,42.84Z" transform="translate(4.98 4.87)"/><path class="cls-8" d="M111.76,43.07l.55,0a.08.08,0,0,1,.08.07,4.22,4.22,0,0,1,.1,1.08.08.08,0,0,1-.07.07l-.55,0a.06.06,0,0,1-.08-.06,4.94,4.94,0,0,0-.1-1.08S111.72,43.07,111.76,43.07Z" transform="translate(4.98 4.87)"/><path class="cls-8" d="M109.47,43.3l.55,0a.09.09,0,0,1,.08.06,4.22,4.22,0,0,1,.1,1.08.08.08,0,0,1-.07.08l-.55,0s-.08,0-.08-.06a4.88,4.88,0,0,0-.1-1.08S109.43,43.3,109.47,43.3Z" transform="translate(4.98 4.87)"/><path class="cls-8" d="M107.18,43.52l.55,0s.07,0,.08.06a4.22,4.22,0,0,1,.1,1.08.07.07,0,0,1-.07.07l-.55,0a.08.08,0,0,1-.08-.07,4.94,4.94,0,0,0-.1-1.08S107.14,43.52,107.18,43.52Z" transform="translate(4.98 4.87)"/><path class="cls-8" d="M104.89,43.75l.55,0a.08.08,0,0,1,.08.07,4.22,4.22,0,0,1,.1,1.08.07.07,0,0,1-.07.07L105,45a.08.08,0,0,1-.08-.07,4.94,4.94,0,0,0-.1-1.08S104.85,43.75,104.89,43.75Z" transform="translate(4.98 4.87)"/><path class="cls-8" d="M102.6,44l.55,0a.08.08,0,0,1,.08.07,4.1,4.1,0,0,1,.1,1.07.08.08,0,0,1-.07.08l-.55,0s-.08,0-.08-.06a4.94,4.94,0,0,0-.1-1.08S102.56,44,102.6,44Z" transform="translate(4.98 4.87)"/><path class="cls-8" d="M100.31,44.2l.55,0a.09.09,0,0,1,.08.06,3.82,3.82,0,0,1,.1,1.08.07.07,0,0,1-.07.07l-.55,0a.08.08,0,0,1-.08-.07,4.79,4.79,0,0,0-.1-1.07S100.27,44.21,100.31,44.2Z" transform="translate(4.98 4.87)"/><path class="cls-8" d="M98,44.43l.55,0a.08.08,0,0,1,.08.07,3.82,3.82,0,0,1,.1,1.08.07.07,0,0,1-.07.07l-.55,0a.08.08,0,0,1-.08-.07A4.94,4.94,0,0,0,98,44.5S98,44.43,98,44.43Z" transform="translate(4.98 4.87)"/><path class="cls-8" d="M95.73,44.66l.55,0a.08.08,0,0,1,.08.07,3.82,3.82,0,0,1,.1,1.08.08.08,0,0,1-.07.07l-.55,0a.06.06,0,0,1-.08-.06,4.94,4.94,0,0,0-.1-1.08S95.69,44.66,95.73,44.66Z" transform="translate(4.98 4.87)"/><path class="cls-8" d="M93.44,44.88l.55,0a.09.09,0,0,1,.08.06,3.82,3.82,0,0,1,.1,1.08.07.07,0,0,1-.07.07l-.55,0s-.08,0-.08-.06a4.3,4.3,0,0,0-.1-1.08A.08.08,0,0,1,93.44,44.88Z" transform="translate(4.98 4.87)"/><path class="cls-8" d="M91.15,45.11l.55,0s.07,0,.08.06a3.82,3.82,0,0,1,.1,1.08.07.07,0,0,1-.07.07l-.55,0a.08.08,0,0,1-.08-.07,4.39,4.39,0,0,0-.1-1.08A.08.08,0,0,1,91.15,45.11Z" transform="translate(4.98 4.87)"/><path class="cls-6" d="M87.66,44.91l.44,0a9.46,9.46,0,0,1,.19,1.33,10.87,10.87,0,0,1,0,1.4l-.66,0v.72l.86,0a.56.56,0,0,0,.38-.19.57.57,0,0,0,.14-.36,12.38,12.38,0,0,0,0-1.62,11,11,0,0,0-.23-1.54.64.64,0,0,0-.19-.33.55.55,0,0,0-.39-.14l-.54,0Zm-.45,0,.45,0v-.72l-.45,0v.72Zm.45,2.73-.45,0v.19h0v.53l.45,0ZM87,45l.22,0v-.72l-.45,0h-.07a.6.6,0,0,0-.32.18.57.57,0,0,0-.14.38.07.07,0,0,1,0,.05v0a14.44,14.44,0,0,1,.2,1.49c0,.5.06,1,0,1.5h0v0a.56.56,0,0,0,.19.38.59.59,0,0,0,.36.13h.17v-.53h0v-.6c0-.33,0-.65,0-1S87.07,45.4,87,45Z" transform="translate(4.98 4.87)"/><path class="cls-11" d="M86.78,44.6l1.44-.08a.22.22,0,0,1,.21.19,11.31,11.31,0,0,1,.25,3.06.2.2,0,0,1-.18.21l-1.44.07a.19.19,0,0,1-.21-.18,15.84,15.84,0,0,0-.25-3.07A.18.18,0,0,1,86.78,44.6Z" transform="translate(4.98 4.87)"/><path class="cls-11" d="M127.14,49.9c-.57-.28-5.53-.32-5.39.42l-1.83,0c-1.91,0-13.79,1.35-15.63,1.75-2.25.49-2.35,2.81.27,2.82,2.41,0,15.2-.68,17.06-.68H122c0,.26,0,.5.21.62a11.09,11.09,0,0,0,2.58,0c.79,0,2.8-.23,3-.62C128.13,53.41,128.2,50.41,127.14,49.9Z" transform="translate(4.98 4.87)"/><path class="cls-12" d="M127.14,49.9c-.57-.28-5.68-.35-5.39.42.94,1.21.44,3.24.18,3.94h0c0,.26,0,.5.21.62a11.09,11.09,0,0,0,2.58,0c.79,0,2.8-.23,3-.62C128.13,53.41,128.2,50.41,127.14,49.9Z" transform="translate(4.98 4.87)"/><path class="cls-12" d="M127.11,54.59c.76,0,1.38-1.06,1.38-2.36s-.62-2.35-1.38-2.35-1.38,1.06-1.38,2.35S126.35,54.59,127.11,54.59Z" transform="translate(4.98 4.87)"/><path class="cls-12" d="M122.28,54.92c.89,0,1.62-1.25,1.62-2.78s-.73-2.77-1.62-2.77-1.63,1.24-1.63,2.77S121.38,54.92,122.28,54.92Z" transform="translate(4.98 4.87)"/><path class="cls-14" d="M127.11,54.29c.58,0,1.06-.93,1.06-2.06s-.48-2-1.06-2-1.06.92-1.06,2S126.53,54.29,127.11,54.29Z" transform="translate(4.98 4.87)"/><path class="cls-11" d="M130.36,44.86l-15,12.56c-3.64,3.06-16,3.09-14,.53L110,47.15Z" transform="translate(4.98 4.87)"/></g></g></svg>