<svg id="Capa_1" enable-background="new 0 0 512 512" height="512" viewBox="0 0 512 512" width="512" xmlns="http://www.w3.org/2000/svg"><g><path d="m67.5 45c4.142 0 7.5-3.357 7.5-7.5s-3.358-7.5-7.5-7.5-7.5 3.357-7.5 7.5 3.358 7.5 7.5 7.5zm30 0c4.142 0 7.5-3.357 7.5-7.5s-3.358-7.5-7.5-7.5-7.5 3.357-7.5 7.5 3.358 7.5 7.5 7.5zm-67.5-7.5c0 4.143 3.358 7.5 7.5 7.5s7.5-3.357 7.5-7.5-3.358-7.5-7.5-7.5-7.5 3.357-7.5 7.5zm149.426 342.61c-3.007 2.849-3.135 7.596-.286 10.603 20.27 21.396 44.189 38.194 71.095 49.931 1.832.799 3.797 1.197 5.764 1.197s3.934-.399 5.767-1.198c79.412-34.64 130.724-112.988 130.724-199.603v-36.312c0-3.875-1.512-7.516-4.257-10.25-2.748-2.737-6.399-4.243-10.287-4.243h-.057c-26.819.144-49.651-20.744-51.941-47.458-.636-7.418-6.977-13.229-14.438-13.229h-111.027c-7.572 0-13.778 5.679-14.436 13.208-2.327 26.657-25.054 47.484-51.776 47.484-.07.001-.143.001-.211 0-3.892 0-7.547 1.508-10.297 4.248-2.743 2.733-4.253 6.372-4.253 10.245v36.307c0 43.088 12.57 84.745 36.35 120.466 2.295 3.448 6.951 4.382 10.399 2.087 3.448-2.296 4.382-6.951 2.087-10.399-22.136-33.251-33.836-72.032-33.836-112.153v-35.8c34.168-.127 63.215-26.66 66.437-60.692h110.101c3.173 34.05 32.215 60.584 66.443 60.687v35.806c0 80.563-47.681 153.449-121.49 185.753-24.956-10.922-47.15-26.53-65.971-46.396-2.849-3.009-7.596-3.137-10.604-.289zm325.074-183.6c4.142 0 7.5-3.357 7.5-7.5v-150.813c0-21.062-17.135-38.197-38.197-38.197h-435.606c-21.062 0-38.197 17.135-38.197 38.197v435.605c0 21.063 17.135 38.198 38.197 38.198h435.605c21.063 0 38.198-17.135 38.198-38.197v-249.793c0-4.143-3.358-7.5-7.5-7.5s-7.5 3.357-7.5 7.5v249.793c0 12.791-10.406 23.197-23.197 23.197h-435.606c-12.791 0-23.197-10.406-23.197-23.197v-398.803h160.636c16.266 0 29.5-13.233 29.5-29.5v-18c0-6.893 5.607-12.5 12.5-12.5h76.729c6.893 0 12.5 5.607 12.5 12.5v18c0 16.267 13.234 29.5 29.5 29.5h160.635v114.01c0 4.142 3.358 7.5 7.5 7.5zm-314.364-169.01v18c0 7.995-6.505 14.5-14.5 14.5h-160.636v-21.803c0-12.791 10.406-23.197 23.197-23.197h154.956c-1.924 3.753-3.017 8-3.017 12.5zm146.228 32.5c-7.995 0-14.5-6.505-14.5-14.5v-18c0-4.5-1.093-8.747-3.017-12.5h154.956c12.791 0 23.197 10.406 23.197 23.197v21.803zm-46.194 140.653c-9.133-9.121-21.268-14.144-34.17-14.144-26.644 0-48.32 21.677-48.32 48.32v24.898c-9.737 3.507-16.718 12.834-16.718 23.763v46.146c0 13.922 11.327 25.249 25.249 25.249h79.578c13.922 0 25.249-11.327 25.249-25.249v-46.146c0-10.929-6.982-20.256-16.718-23.763v-24.897c0-12.902-5.023-25.038-14.15-34.177zm-67.49 34.177c0-18.373 14.947-33.32 33.32-33.32 8.899 0 17.27 3.465 23.563 9.75 6.292 6.3 9.756 14.671 9.756 23.57v23.412h-66.64v-23.412zm83.358 48.661v46.146c0 5.651-4.598 10.249-10.249 10.249h-79.578c-5.651 0-10.249-4.598-10.249-10.249v-46.146c0-5.651 4.598-10.249 10.249-10.249h79.578c5.651 0 10.249 4.598 10.249 10.249z"/></g></svg>