<svg version="1.1" id="Layer_1" xmlns="http://www.w3.org/2000/svg" x="0" y="0" width="72" height="72" viewBox="0 0 72 72" xml:space="preserve"><style type="text/css">.st0{fill:#231f20}</style><path class="st0" d="M51.2 61c-2.3 0-4.6-.8-6.3-2.3-.4-.3-.7-.7-1.1-1-1.5-1.7-2.4-3.9-2.4-6.2 0-2.7 1.2-5.3 3.2-7.1 1.8-1.6 4.1-2.5 6.5-2.5 2.8 0 5.5 1.2 7.3 3.2 1.6 1.7 2.4 4 2.4 6.3s-.8 4.5-2.4 6.2c-1.6 2.2-4.3 3.4-7.2 3.4zm0-17c-1.9 0-3.8.7-5.2 2-1.6 1.4-2.5 3.4-2.5 5.6 0 1.8.7 3.5 1.9 4.9.3.3.5.6.8.8 1.4 1.2 3.2 1.8 5 1.8 2.3 0 4.4-1 5.9-2.6 1.2-1.4 1.9-3.1 1.9-4.9 0-1.8-.7-3.6-1.9-4.9-1.5-1.8-3.6-2.7-5.9-2.7zM36 60.9c-7.3 0-14.2-3.2-18.9-8.7-3.9-4.5-6-10.3-6-16.3 0-13.8 11.2-25 25-25s25 11.2 25 25c0 1.6-.2 3.2-.5 4.7-.1.5-.6.9-1.2.8-.5-.1-.9-.6-.8-1.2.3-1.4.4-2.9.4-4.4 0-12.7-10.3-23-23-23s-23 10.3-23 23c0 5.1 1.7 10.1 4.8 14.1 4.7-5 11.3-7.8 18.1-7.8 1.3 0 2.6.1 3.9.3.5.1.9.6.8 1.1-.1.5-.6.9-1.1.8-1.2-.2-2.4-.3-3.6-.3-6.4 0-12.5 2.7-16.8 7.3 4.3 4.7 10.4 7.3 16.8 7.3 1.3 0 2.5-.1 3.8-.3.5-.1 1.1.3 1.1.8.1.5-.3 1.1-.8 1.1-1.3.6-2.6.7-4 .7zm13.9-6c-.3 0-.5-.1-.7-.3l-2.5-2.7c-.4-.4-.4-1 0-1.4.4-.4 1-.4 1.4 0l1.9 2 4.8-4.2c.4-.4 1-.3 1.4.1s.3 1-.1 1.4l-5.5 4.9c-.2.1-.4.2-.7.2zM36 39.5c-5.3 0-9.7-4.3-9.7-9.7s4.3-9.7 9.7-9.7 9.7 4.3 9.7 9.7-4.4 9.7-9.7 9.7zm0-17.3c-4.2 0-7.7 3.4-7.7 7.7s3.4 7.7 7.7 7.7c4.2 0 7.7-3.4 7.7-7.7s-3.5-7.7-7.7-7.7z"/></svg>