<?xml version="1.0" standalone="no"?><!-- Generator: Gravit.io --><svg xmlns="http://www.w3.org/2000/svg" xmlns:xlink="http://www.w3.org/1999/xlink" style="isolation:isolate" viewBox="0 0 512 512" width="512px" height="512px"><path d=" M 112 192 C 98.745 192 88 202.745 88 216 C 88 229.255 98.745 240 112 240 C 125.255 240 136 229.255 136 216 C 135.985 202.751 125.249 192.015 112 192 L 112 192 L 112 192 Z  M 112 224 C 107.582 224 104 220.418 104 216 C 104 211.582 107.582 208 112 208 C 116.418 208 120 211.582 120 216 C 119.995 220.416 116.416 223.995 112 224 L 112 224 L 112 224 Z " fill="rgb(255,255,255)"/><path d=" M 485.242 17.956 C 483.49 16.436 481.165 15.752 478.869 16.081 L 368 31.919 L 257.131 16.081 C 256.381 15.973 255.619 15.973 254.869 16.081 L 144 31.919 L 33.131 16.081 C 30.835 15.753 28.51 16.438 26.758 17.957 C 25.007 19.476 24 21.681 24 24 L 24 376 C 24 379.981 26.928 383.357 30.869 383.92 L 142.869 399.92 C 143.619 400.027 144.381 400.027 145.131 399.92 L 256 384.081 L 264 385.224 L 264 432 C 264 433.083 264.22 434.155 264.647 435.151 L 288.647 491.151 C 289.907 494.093 292.8 496 296 496 L 416 496 C 419.571 496 422.71 493.633 423.692 490.2 L 439.692 434.2 C 439.896 433.485 440 432.744 440 432 L 440 389.8 L 481.131 383.924 C 485.074 383.361 488.002 379.983 488 376 L 488 24 C 488 21.681 486.994 19.476 485.242 17.956 L 485.242 17.956 L 485.242 17.956 Z  M 431.891 158.685 L 424.568 114.746 L 472 67.314 L 472 268.686 L 409.734 206.42 L 431.155 163.578 C 431.912 162.066 432.169 160.353 431.891 158.685 L 431.891 158.685 L 431.891 158.685 Z  M 337.869 224 C 343.993 217.166 345.682 207.437 342.219 198.939 C 338.757 190.441 330.749 184.663 321.593 184.056 C 312.437 183.448 303.736 188.117 299.181 196.083 L 264 189.687 L 264 68.944 L 300.422 87.155 C 303.265 88.577 306.68 88.181 309.122 86.146 L 356.73 46.472 L 360 46.939 L 360 273.381 C 354.826 271.543 349.177 271.54 344 273.371 L 344 240 C 344.004 234.092 341.82 228.392 337.869 224 L 337.869 224 L 337.869 224 Z  M 312 208 C 312 203.582 315.582 200 320 200 C 324.418 200 328 203.582 328 208 C 328 212.418 324.418 216 320 216 C 315.584 215.995 312.005 212.416 312 208 Z  M 248 369.061 L 152 382.776 L 152 277.61 L 234.521 200.59 L 248 203.04 L 248 369.061 L 248 369.061 Z  M 71.692 325.8 C 71.212 324.122 70.196 322.647 68.8 321.6 L 40 300 L 40 92.944 L 76.422 111.155 C 78.674 112.281 81.326 112.281 83.578 111.155 L 111.748 97.07 L 136 110.929 L 136 164.9 C 129.063 161.888 121.613 160.234 114.054 160.028 C 112.689 159.985 111.31 159.985 109.947 160.028 C 89.432 160.661 71.584 171.267 62.207 188.396 C 53.657 203.819 54.008 222.636 63.126 237.729 L 105.131 308.1 C 106.368 310.177 108.48 311.582 110.875 311.921 C 113.269 312.259 115.687 311.494 117.452 309.841 L 117.458 309.848 L 136 292.543 L 136 382.776 L 85.927 375.623 L 71.692 325.8 L 71.692 325.8 Z  M 112 288.393 L 76.864 229.532 C 70.593 219.324 70.354 206.517 76.241 196.083 C 82.868 183.983 95.652 176.483 110.441 176.024 C 110.959 176.009 111.479 176 112 176 C 112.521 176 113.041 176.009 113.56 176.024 C 128.348 176.481 141.132 183.979 147.76 196.083 C 153.647 206.517 153.408 219.324 147.137 229.532 L 112 288.393 L 112 288.393 Z  M 233.431 184.129 C 230.944 183.675 228.389 184.425 226.542 186.151 L 147.789 259.651 L 160.874 237.73 C 169.992 222.637 170.343 203.82 161.793 188.397 C 159.197 183.651 155.895 179.326 152 175.572 L 152 120.072 L 164.031 126.946 C 166.209 128.191 168.845 128.342 171.151 127.354 L 227.151 103.354 C 228.362 102.835 229.427 102.026 230.251 100.998 L 248 78.807 L 248 186.778 L 233.431 184.129 L 233.431 184.129 Z  M 152 46.939 L 248 33.224 L 248 53.193 L 219.006 89.437 L 168.506 111.077 L 152 101.643 L 152 46.939 L 152 46.939 Z  M 264 33.224 L 335.395 43.424 L 302.9 70.505 L 264 51.056 L 264 33.224 L 264 33.224 Z  M 136 46.939 L 136 92.5 L 115.969 81.054 C 113.647 79.726 110.814 79.647 108.422 80.845 L 80 95.056 L 40 75.056 L 40 33.224 L 136 46.939 L 136 46.939 Z  M 40 320 L 57.047 332.785 L 68.578 373.144 L 40 369.062 L 40 320 L 40 320 Z  M 264 368 L 264 205.95 L 296.308 211.824 C 297.04 216.357 299.062 220.584 302.131 224 C 298.18 228.392 295.996 234.092 296 240 L 296 328.8 C 277.388 332.627 264.024 348.999 264 368 Z  M 424 430.88 L 409.965 480 L 301.275 480 L 280 430.358 L 280 368 C 280.013 357.834 286.419 348.776 296 345.376 L 296 376 C 296 380.418 299.582 384 304 384 C 308.418 384 312 380.418 312 376 L 312 240 C 312 235.582 315.582 232 320 232 C 324.418 232 328 235.582 328 240 L 328 349.048 C 328 353.466 331.582 357.048 336 357.048 C 340.418 357.048 344 353.466 344 349.048 L 344 296 C 344 291.582 347.582 288 352 288 C 356.418 288 360 291.582 360 296 L 360 360 C 360 364.418 363.582 368 368 368 C 372.418 368 376 364.418 376 360 L 376 304 C 376 299.582 379.582 296 384 296 C 388.418 296 392 299.582 392 304 L 392 376 C 392 380.418 395.582 384 400 384 C 404.418 384 408 380.418 408 376 L 408 328 C 408 323.582 411.582 320 416 320 C 420.418 320 424 323.582 424 328 L 424 430.88 L 424 430.88 Z  M 440 373.633 L 440 328 C 440.001 320.208 436.219 312.902 429.857 308.403 C 423.495 303.904 415.346 302.774 408 305.371 L 408 304 C 408.006 296.207 404.225 288.897 397.861 284.399 C 391.497 279.9 383.345 278.775 376 281.38 L 376 46.939 L 472 33.224 L 472 44.686 L 410.343 106.343 C 408.516 108.17 407.684 110.767 408.109 113.315 L 415.681 158.749 L 392.845 204.422 C 391.305 207.502 391.909 211.222 394.345 213.657 L 472 291.314 L 472 369.062 L 440 373.633 L 440 373.633 Z " fill="rgb(255,255,255)"/></svg>