<svg xmlns="http://www.w3.org/2000/svg" viewBox="0 0 72 72"><defs><style>.cls-1,.cls-2{fill:none;stroke:#010101;stroke-miterlimit:10;stroke-width:2px;}.cls-2{stroke-linecap:round;}</style></defs><title>72x72_1</title><g id="Layer_2" data-name="Layer 2"><path class="cls-1" d="M55.54,23.94V13.07a4.42,4.42,0,0,0-4.41-4.4H19.72a4.42,4.42,0,0,0-4.41,4.4V54.66a4.42,4.42,0,0,0,4.41,4.41H51.13a4.42,4.42,0,0,0,4.41-4.41V46.82"/><path class="cls-2" d="M12.44,51.87s1.73,1.29,6.81.43"/><path class="cls-2" d="M12.44,40.85s1.73,1.3,6.81.43"/><path class="cls-2" d="M12.44,19.18s1.73,1.3,6.81.44"/><path class="cls-2" d="M12.44,29.83s1.73,1.3,6.81.43"/><circle class="cls-1" cx="48.91" cy="34.56" r="3.76"/><path class="cls-1" d="M51.66,52.66l7.62-11.2a12.07,12.07,0,0,0,2.13-6.59v-.41a12.51,12.51,0,0,0-25,.24c0,.13,0,.26,0,.38a12.14,12.14,0,0,0,2.14,6.45l7.59,11.18S48.64,56.84,51.66,52.66Z"/></g></svg>