<?xml version="1.0" standalone="no"?><!-- Generator: Gravit.io --><svg xmlns="http://www.w3.org/2000/svg" xmlns:xlink="http://www.w3.org/1999/xlink" style="isolation:isolate" viewBox="0 0 512 512" width="512px" height="512px"><linearGradient id="_lgradient_18" x1="-1.0694971794592902" y1="0.5262250099919403" x2="1" y2="0.49999999999999856" gradientTransform="matrix(230.08,0,0,329.191,264,166.809)" gradientUnits="userSpaceOnUse"><stop offset="0.43478260869565216%" stop-opacity="0.7" style="stop-color:rgb(235,0,141)"/><stop offset="100%" stop-opacity="0.7" style="stop-color:rgb(153,102,255)"/></linearGradient><path d=" M 468.648 167.376 C 451.575 164.172 434.969 174.854 430.808 191.72 L 411.912 262.12 C 401.81 255.436 388.796 255.046 378.312 261.112 L 323.608 293.2 C 301.602 306.154 288.066 329.76 288 355.296 L 288 416 L 272 416 C 267.582 416 264 419.582 264 424 L 264 488 C 264 492.418 267.582 496 272 496 L 416 496 C 420.418 496 424 492.418 424 488 L 424 424 C 424 419.582 420.418 416 416 416 L 400 416 L 400 406.72 C 399.998 399.714 403.058 393.057 408.376 388.496 L 445.68 356.496 C 451.808 351.257 456.203 344.284 458.288 336.496 L 493 206.96 C 493.729 204.244 494.092 201.444 494.08 198.632 C 493.999 183.532 483.416 170.526 468.648 167.376 L 468.648 167.376 Z  M 408 480 L 280 480 L 280 432 L 408 432 L 408 480 Z  M 477.552 202.808 L 442.832 332.36 C 441.586 337.034 438.949 341.218 435.272 344.36 L 397.968 376.36 C 389.105 383.957 384.003 395.047 384 406.72 L 384 416 L 304 416 L 304 355.296 C 304.041 335.438 314.557 317.076 331.664 306.992 L 386.304 274.936 C 388.738 273.538 391.497 272.801 394.304 272.8 C 400.363 272.746 405.919 276.166 408.6 281.6 C 412.229 289.622 409.049 299.086 401.312 303.288 L 356.512 329.104 C 354.034 330.533 352.507 333.176 352.505 336.036 C 352.504 338.897 354.029 341.541 356.505 342.972 C 358.982 344.404 362.034 344.405 364.512 342.976 L 409.312 317.16 C 423.165 309.44 429.471 292.884 424.264 277.904 L 446.272 195.904 C 448.34 187.321 456.643 181.756 465.368 183.104 C 472.719 184.669 478.001 191.124 478.08 198.64 C 478.091 200.047 477.913 201.448 477.552 202.808 L 477.552 202.808 Z " fill="url(#_lgradient_18)"/><linearGradient id="_lgradient_19" x1="-0.008864489408656254" y1="0.49996549623005776" x2="2.02996807458226" y2="0.5079013633167253" gradientTransform="matrix(230.104,0,0,329.202,17.896,166.798)" gradientUnits="userSpaceOnUse"><stop offset="0.43478260869565216%" stop-opacity="0.7" style="stop-color:rgb(235,0,141)"/><stop offset="100%" stop-opacity="0.7" style="stop-color:rgb(153,102,255)"/></linearGradient><path d=" M 240 416 L 224 416 L 224 355.296 C 223.946 329.765 210.425 306.158 188.432 293.192 L 133.664 261.064 C 123.172 255.015 110.162 255.418 100.064 262.104 L 81.176 191.704 C 76.993 174.846 60.394 164.171 43.32 167.36 C 34.725 169.176 27.253 174.439 22.649 181.921 C 18.046 189.402 16.715 198.446 18.968 206.936 L 53.688 336.488 C 55.766 344.277 60.16 351.251 66.288 356.488 L 103.592 388.488 C 108.924 393.045 111.996 399.706 112 406.72 L 112 416 L 96 416 C 91.582 416 88 419.582 88 424 L 88 488 C 88 492.418 91.582 496 96 496 L 240 496 C 244.418 496 248 492.418 248 488 L 248 424 C 248 419.582 244.418 416 240 416 Z  M 114.032 376.344 L 76.728 344.344 C 73.048 341.205 70.411 337.019 69.168 332.344 L 34.448 202.8 C 34.087 201.443 33.91 200.044 33.92 198.64 C 33.967 191.092 39.264 184.596 46.648 183.032 C 55.371 181.696 63.666 187.256 65.744 195.832 L 87.752 277.824 C 82.541 292.806 88.847 309.367 102.704 317.088 L 147.504 342.904 C 149.982 344.333 153.034 344.332 155.511 342.9 C 157.987 341.469 159.512 338.825 159.511 335.964 C 159.509 333.104 157.982 330.461 155.504 329.032 L 110.704 303.216 C 102.964 299.016 99.78 289.552 103.408 281.528 C 106.11 276.133 111.647 272.747 117.68 272.8 C 120.468 272.794 123.209 273.516 125.632 274.896 L 180.336 307 C 197.444 317.079 207.961 335.44 208 355.296 L 208 416 L 128 416 L 128 406.72 C 128.002 395.041 122.899 383.945 114.032 376.344 L 114.032 376.344 Z  M 232 480 L 104 480 L 104 432 L 232 432 L 232 480 Z " fill="url(#_lgradient_19)"/><linearGradient id="_lgradient_20" x1="-0.4377550058049166" y1="0.5068439260172517" x2="1.4179678651678904" y2="0.4932720773739602" gradientTransform="matrix(256,0,0,296.015,128,15.984)" gradientUnits="userSpaceOnUse"><stop offset="0.43478260869565216%" stop-opacity="0.7" style="stop-color:rgb(235,0,141)"/><stop offset="100%" stop-opacity="0.7" style="stop-color:rgb(153,102,255)"/></linearGradient><path d=" M 384 124.8 L 384 24 C 384.006 21.139 382.483 18.493 380.007 17.06 C 377.531 15.627 374.478 15.626 372 17.056 L 360.6 23.568 C 335.068 38.194 303.907 39.062 277.6 25.88 L 259.512 16.84 C 257.261 15.715 254.611 15.715 252.36 16.84 L 234.4 25.848 C 208.089 39.054 176.912 38.194 151.368 23.56 L 140 17.056 C 137.522 15.626 134.469 15.627 131.993 17.06 C 129.517 18.493 127.994 21.139 128 24 L 128 124.8 C 127.921 198.684 168.652 266.571 233.88 301.272 L 252.232 311.056 C 254.587 312.313 257.413 312.313 259.768 311.056 L 278.12 301.272 C 343.351 266.574 384.083 198.685 384 124.8 Z  M 256 294.936 L 241.416 287.152 C 181.404 255.23 143.928 192.774 144 124.8 L 144 37.784 C 174.085 54.77 210.651 55.67 241.536 40.184 L 255.936 32.984 L 270.448 40.232 C 301.344 55.71 337.919 54.792 368 37.784 L 368 124.8 C 368.075 192.775 330.599 255.233 270.584 287.152 L 256 294.936 Z " fill="url(#_lgradient_20)"/><linearGradient id="_lgradient_21" x1="-0.7660102586474936" y1="0.48766048281907487" x2="1.7187486655627437" y2="0.501113951888228" gradientTransform="matrix(192,0,0,223.965,160,51.768)" gradientUnits="userSpaceOnUse"><stop offset="0.43478260869565216%" stop-opacity="0.7" style="stop-color:rgb(235,0,141)"/><stop offset="100%" stop-opacity="0.7" style="stop-color:rgb(153,102,255)"/></linearGradient><path d=" M 352 72.272 C 352.001 69.853 350.908 67.564 349.026 66.044 C 347.145 64.524 344.676 63.938 342.312 64.448 C 315.616 70.139 287.78 66.634 263.328 54.504 L 259.552 52.624 C 257.288 51.483 254.616 51.483 252.352 52.624 L 248.656 54.472 C 224.201 66.619 196.354 70.132 169.648 64.44 C 167.29 63.944 164.833 64.537 162.961 66.055 C 161.089 67.573 160.001 69.854 160 72.264 L 160 124.8 C 159.931 186.864 194.148 243.889 248.944 273.032 L 252.232 274.792 C 254.585 276.046 257.407 276.046 259.76 274.792 L 263.056 273.032 C 317.852 243.889 352.069 186.864 352 124.8 L 352 72.272 Z  M 336 124.8 C 336.061 180.76 305.313 232.211 256 258.664 C 206.687 232.211 175.939 180.76 176 124.8 L 176 81.816 C 203.322 85.608 231.152 81.072 255.856 68.8 L 256 68.72 L 256.192 68.824 C 280.88 81.091 308.695 85.621 336 81.824 L 336 124.8 Z " fill="url(#_lgradient_21)"/><linearGradient id="_lgradient_22" x1="-1.6251595327806712" y1="0.5302434573729554" x2="2.5499646470580766" y2="0.5181439346025235" gradientTransform="matrix(113.544,0,0,83.009,201.466,108.989)" gradientUnits="userSpaceOnUse"><stop offset="0.43478260869565216%" stop-opacity="0.7" style="stop-color:rgb(235,0,141)"/><stop offset="100%" stop-opacity="0.7" style="stop-color:rgb(153,102,255)"/></linearGradient><path d=" M 301.256 111.432 L 240 172.688 L 215.024 147.712 C 211.885 144.68 206.895 144.724 203.809 147.809 C 200.724 150.895 200.68 155.885 203.712 159.024 L 234.344 189.656 C 237.468 192.779 242.532 192.779 245.656 189.656 L 312.568 122.744 C 314.648 120.735 315.482 117.761 314.75 114.964 C 314.017 112.167 311.833 109.983 309.036 109.25 C 306.239 108.518 303.265 109.352 301.256 111.432 Z " fill="url(#_lgradient_22)"/></svg>