<?xml version="1.0" standalone="no"?><!-- Generator: Gravit.io --><svg xmlns="http://www.w3.org/2000/svg" xmlns:xlink="http://www.w3.org/1999/xlink" style="isolation:isolate" viewBox="0 0 505.4 505.4" width="505.4px" height="505.4px"><g><path d=" M 437.1 233.45 C 451.9 223.05 461.7 205.75 461.7 186.25 C 461.7 154.35 435.9 128.55 404 128.55 C 372.1 128.55 346.3 154.35 346.3 186.25 C 346.3 205.75 356 223.05 370.9 233.45 C 358.2 237.85 346.6 244.65 336.8 253.45 C 323.3 241.95 307.4 233.15 290 227.95 C 311.1 215.15 325.3 191.85 325.3 165.35 C 325.3 124.95 292.6 92.25 252.2 92.25 C 211.8 92.25 179.1 125.05 179.1 165.35 C 179.1 191.85 193.2 215.15 214.4 227.95 C 197.2 233.15 181.5 241.85 168.1 253.15 C 158.3 244.55 146.9 237.85 134.4 233.55 C 149.2 223.15 159 205.85 159 186.35 C 159 154.45 133.2 128.65 101.3 128.65 C 69.4 128.65 43.6 154.45 43.6 186.35 C 43.6 205.85 53.3 223.15 68.2 233.55 C 28.5 247.25 0 284.95 0 329.25 L 0 335.85 C 0 336.05 0.2 336.25 0.4 336.25 L 122.7 336.25 C 122 341.75 121.6 347.45 121.6 353.15 L 121.6 359.95 C 121.6 389.35 145.4 413.15 174.8 413.15 L 329.8 413.15 C 359.2 413.15 383 389.35 383 359.95 L 383 353.15 C 383 347.45 382.6 341.75 381.9 336.25 L 505 336.25 C 505.2 336.25 505.4 336.05 505.4 335.85 L 505.4 329.25 C 505.2 284.85 476.8 247.15 437.1 233.45 Z  M 362.3 186.15 C 362.3 163.15 381 144.45 404 144.45 C 427 144.45 445.7 163.15 445.7 186.15 C 445.7 208.85 427.4 227.35 404.8 227.85 C 404.5 227.85 404.3 227.85 404 227.85 C 403.7 227.85 403.5 227.85 403.2 227.85 C 380.5 227.45 362.3 208.95 362.3 186.15 Z  M 194.9 165.35 C 194.9 133.85 220.5 108.25 252 108.25 C 283.5 108.25 309.1 133.85 309.1 165.35 C 309.1 195.75 285.2 220.65 255.3 222.35 C 254.2 222.35 253.1 222.35 252 222.35 C 250.9 222.35 249.8 222.35 248.7 222.35 C 218.8 220.65 194.9 195.75 194.9 165.35 Z  M 59.3 186.15 C 59.3 163.15 78 144.45 101 144.45 C 124 144.45 142.7 163.15 142.7 186.15 C 142.7 208.85 124.4 227.35 101.8 227.85 C 101.5 227.85 101.3 227.85 101 227.85 C 100.7 227.85 100.5 227.85 100.2 227.85 C 77.6 227.45 59.3 208.95 59.3 186.15 Z  M 125.5 320.15 L 16.2 320.15 C 20.7 277.55 56.7 244.15 100.4 243.85 C 100.6 243.85 100.8 243.85 101 243.85 C 101.2 243.85 101.4 243.85 101.6 243.85 C 122.4 243.95 141.4 251.65 156.1 264.15 C 141.7 279.75 131 298.95 125.5 320.15 Z  M 366.8 359.95 C 366.8 380.45 350.1 397.15 329.6 397.15 L 174.6 397.15 C 154.1 397.15 137.4 380.45 137.4 359.95 L 137.4 353.15 C 137.4 291.05 187 240.25 248.7 238.45 C 249.8 238.55 251 238.55 252.1 238.55 C 253.2 238.55 254.4 238.55 255.5 238.45 C 317.2 240.25 366.8 291.05 366.8 353.15 L 366.8 359.95 L 366.8 359.95 L 366.8 359.95 Z  M 378.7 320.15 C 373.2 299.05 362.7 280.15 348.4 264.55 C 363.2 251.75 382.4 244.05 403.4 243.85 C 403.6 243.85 403.8 243.85 404 243.85 C 404.2 243.85 404.4 243.85 404.6 243.85 C 448.3 244.15 484.3 277.55 488.8 320.15 L 378.7 320.15 L 378.7 320.15 L 378.7 320.15 Z " fill="rgb(255,255,255)"/></g></svg>