<?xml version="1.0" standalone="no"?><!-- Generator: Gravit.io --><svg xmlns="http://www.w3.org/2000/svg" xmlns:xlink="http://www.w3.org/1999/xlink" style="isolation:isolate" viewBox="0 0 80 60" width="80px" height="60px"><g><g><g><linearGradient id="_lgradient_13" x1="0" y1="0.5" x2="1" y2="0.5" gradientTransform="matrix(80,0,0,57.397,0,1.127)" gradientUnits="userSpaceOnUse"><stop offset="2.1739130434782608%" stop-opacity="0.7" style="stop-color:rgb(145,171,255)"/><stop offset="98.26086956521739%" stop-opacity="0.7" style="stop-color:rgb(174,1,157)"/></linearGradient><path d=" M 78.449 5.903 C 78.444 5.903 78.439 5.903 78.434 5.903 L 78.434 5.903 L 73.177 5.903 L 73.177 4.104 C 73.205 3.392 72.745 2.752 72.06 2.553 C 68.411 1.597 64.653 1.118 60.88 1.127 C 54.677 1.127 46.226 2.522 39.977 8.88 C 33.774 2.46 25.261 1.127 19.073 1.127 C 15.301 1.118 11.543 1.597 7.893 2.553 C 7.209 2.752 6.748 3.392 6.777 4.104 L 6.777 5.887 L 1.551 5.887 C 0.694 5.887 0 6.582 0 7.438 L 0 56.967 C 0 57.823 0.694 58.518 1.551 58.518 C 1.817 58.517 2.079 58.448 2.311 58.316 C 2.466 58.239 17.972 49.756 39.62 55.215 L 39.853 55.215 L 39.992 55.215 C 40.116 55.23 40.241 55.23 40.364 55.215 C 62.074 49.71 77.581 58.177 77.674 58.316 C 78.154 58.593 78.745 58.593 79.225 58.316 C 79.701 58.041 79.997 57.533 80 56.983 L 80 7.454 C 80 6.597 79.306 5.903 78.449 5.903 Z  M 3.101 54.502 L 3.101 9.004 L 6.808 9.004 L 6.808 47.896 C 6.798 48.752 7.484 49.454 8.341 49.464 C 8.424 49.465 8.508 49.459 8.591 49.446 C 11.799 48.956 15.038 48.697 18.283 48.671 C 22.778 48.593 27.254 49.269 31.525 50.671 C 21.879 49.505 12.095 50.823 3.101 54.502 Z  M 18.283 45.585 C 15.462 45.591 12.645 45.773 9.847 46.128 L 9.847 5.329 C 12.866 4.657 15.949 4.313 19.042 4.306 C 24.842 4.306 32.844 5.639 38.395 11.904 L 38.442 50.532 C 35.216 48.423 28.92 45.585 18.283 45.585 Z  M 41.543 11.904 C 47.094 5.701 55.096 4.306 60.896 4.306 C 63.989 4.315 67.072 4.658 70.091 5.329 L 70.091 46.128 C 67.309 45.769 64.507 45.583 61.702 45.57 C 51.126 45.57 44.815 48.407 41.543 50.516 L 41.543 11.904 L 41.543 11.904 Z  M 76.883 54.502 C 67.871 50.813 58.064 49.495 48.397 50.671 C 52.689 49.264 57.186 48.588 61.702 48.671 C 64.967 48.689 68.227 48.943 71.456 49.431 C 72.302 49.559 73.093 48.977 73.222 48.13 C 73.234 48.048 73.24 47.964 73.239 47.88 L 73.239 9.004 L 76.945 9.004 L 76.883 54.502 Z " fill="url(#_lgradient_13)"/></g></g></g></svg>