<?xml version="1.0" standalone="no"?><!-- Generator: Gravit.io --><svg xmlns="http://www.w3.org/2000/svg" xmlns:xlink="http://www.w3.org/1999/xlink" style="isolation:isolate" viewBox="0 0 512 512" width="512px" height="512px"><g><g><g><linearGradient id="_lgradient_9" x1="-1.675444643290003" y1="0.6369817081049436" x2="18.294972459861707" y2="0.5781332395851606" gradientTransform="matrix(25.599,0,0,17.067,42.667,34.133)" gradientUnits="userSpaceOnUse"><stop offset="0.43478260869565216%" stop-opacity="0.7" style="stop-color:rgb(235,0,141)"/><stop offset="100%" stop-opacity="0.7" style="stop-color:rgb(153,102,255)"/></linearGradient><path d=" M 59.733 34.133 L 51.2 34.133 C 46.487 34.133 42.667 37.953 42.667 42.666 C 42.667 47.379 46.487 51.2 51.2 51.2 L 59.733 51.2 C 64.446 51.2 68.266 47.38 68.266 42.667 C 68.266 37.954 64.446 34.133 59.733 34.133 Z " fill="url(#_lgradient_9)"/><linearGradient id="_lgradient_10" x1="-3.2632084598009854" y1="0.5195710769951953" x2="16.511035587327626" y2="0.5195710769951958" gradientTransform="matrix(25.599,0,0,17.066,85.334,34.133)" gradientUnits="userSpaceOnUse"><stop offset="0.43478260869565216%" stop-opacity="0.7" style="stop-color:rgb(235,0,141)"/><stop offset="100%" stop-opacity="0.7" style="stop-color:rgb(153,102,255)"/></linearGradient><path d=" M 102.4 34.133 L 93.867 34.133 C 89.154 34.133 85.334 37.953 85.334 42.666 C 85.334 47.379 89.155 51.199 93.867 51.199 L 102.4 51.199 C 107.113 51.199 110.933 47.379 110.933 42.666 C 110.933 37.953 107.113 34.133 102.4 34.133 Z " fill="url(#_lgradient_10)"/><linearGradient id="_lgradient_11" x1="-4.929953254519537" y1="0.8128071494332049" x2="14.844290792609106" y2="0.7539552326262646" gradientTransform="matrix(25.599,0,0,17.066,128.001,34.133)" gradientUnits="userSpaceOnUse"><stop offset="0.43478260869565216%" stop-opacity="0.7" style="stop-color:rgb(235,0,141)"/><stop offset="100%" stop-opacity="0.7" style="stop-color:rgb(153,102,255)"/></linearGradient><path d=" M 145.067 34.133 L 136.534 34.133 C 131.821 34.133 128.001 37.953 128.001 42.666 C 128.001 47.379 131.821 51.199 136.534 51.199 L 145.067 51.199 C 149.78 51.199 153.6 47.379 153.6 42.666 C 153.6 37.953 149.779 34.133 145.067 34.133 Z " fill="url(#_lgradient_11)"/><linearGradient id="_lgradient_12" x1="-0.6783295747707494" y1="0.6961268274159861" x2="1.3631488770174491" y2="0.5195710769951949" gradientTransform="matrix(247.466,0,0,17.066,170.667,34.133)" gradientUnits="userSpaceOnUse"><stop offset="0.43478260869565216%" stop-opacity="0.7" style="stop-color:rgb(235,0,141)"/><stop offset="100%" stop-opacity="0.7" style="stop-color:rgb(153,102,255)"/></linearGradient><path d=" M 409.6 34.133 L 179.2 34.133 C 174.487 34.133 170.667 37.953 170.667 42.666 C 170.667 47.379 174.487 51.199 179.2 51.199 L 409.6 51.199 C 414.313 51.199 418.133 47.379 418.133 42.666 C 418.133 37.953 414.313 34.133 409.6 34.133 Z " fill="url(#_lgradient_12)"/><linearGradient id="_lgradient_13" x1="0" y1="0.5" x2="1" y2="0.5" gradientTransform="matrix(512,0,0,512,0,0)" gradientUnits="userSpaceOnUse"><stop offset="0.43478260869565216%" stop-opacity="0.7" style="stop-color:rgb(235,0,141)"/><stop offset="100%" stop-opacity="0.7" style="stop-color:rgb(153,102,255)"/></linearGradient><path d=" M 512 307.2 C 512 297.774 504.359 290.133 494.933 290.133 L 460.8 290.133 L 460.8 42.667 C 460.772 19.114 441.686 0.028 418.133 0 L 42.667 0 C 19.114 0.028 0.028 19.114 0 42.667 L 0 384 C 0.028 407.552 19.114 426.638 42.667 426.667 L 337.169 426.667 C 352.793 462.393 379.747 491.98 413.867 510.857 C 416.507 512.381 419.76 512.381 422.4 510.857 C 500.651 465.63 510.566 394.804 511.812 376.38 C 511.892 376.079 511.954 375.775 512 375.467 C 512 375.296 511.915 375.16 511.906 374.989 C 511.991 373.359 512 372.327 512 371.994 L 512 307.2 L 512 307.2 Z  M 17.067 42.667 C 17.067 28.529 28.529 17.067 42.667 17.067 L 418.134 17.067 C 432.272 17.067 443.734 28.529 443.734 42.667 L 443.734 68.267 L 17.067 68.267 L 17.067 42.667 L 17.067 42.667 Z  M 51.2 409.6 L 51.2 400.213 C 51.177 386.64 58.706 374.181 70.733 367.889 L 120.004 341.999 C 129.866 336.331 136.113 325.983 136.533 314.616 L 136.533 293.607 C 136.528 292.036 136.095 290.495 135.279 289.153 C 128.291 276.794 123.118 263.493 119.919 249.661 C 119.291 247.588 118.025 245.767 116.301 244.456 C 114.055 241.834 112.242 238.87 110.934 235.675 L 110.934 217.6 L 117.974 207.36 C 118.953 205.931 119.474 204.237 119.467 202.505 L 119.467 169.225 C 119.466 168.871 119.443 168.518 119.399 168.167 C 118.758 159.059 121.673 150.057 127.531 143.053 C 135.936 133.581 150.434 128.76 170.582 128.708 C 190.729 128.657 205.296 133.589 213.727 143.07 C 219.598 150.05 222.54 159.031 221.936 168.132 C 221.892 168.494 221.869 168.859 221.868 169.224 L 221.868 202.504 C 221.866 204.228 222.387 205.912 223.361 207.334 L 230.401 217.6 L 230.401 235.861 C 229.286 238.943 227.681 241.824 225.648 244.394 C 223.785 245.601 222.466 247.487 221.97 249.651 C 218.744 263.493 213.411 276.758 206.158 288.981 C 205.275 290.359 204.804 291.961 204.801 293.597 L 204.801 314.606 C 204.799 326.077 211.172 336.6 221.339 341.913 L 270.602 367.803 C 282.656 374.109 290.189 386.609 290.135 400.213 L 290.135 409.6 L 51.2 409.6 L 51.2 409.6 Z  M 324.361 374.989 C 324.361 375.16 324.267 375.296 324.267 375.467 C 324.312 375.775 324.375 376.079 324.455 376.38 C 325.341 387.66 327.5 398.805 330.889 409.6 L 307.2 409.6 L 307.2 400.213 C 307.23 380.295 296.183 362.013 278.537 352.776 L 229.266 326.826 C 224.723 324.446 221.874 319.743 221.868 314.615 L 221.868 295.987 C 229.021 283.523 234.433 270.138 237.953 256.205 C 241.954 251.54 245.014 246.144 246.964 240.316 C 247.297 239.391 247.467 238.415 247.467 237.432 L 247.467 214.964 C 247.469 213.24 246.948 211.556 245.974 210.134 L 238.934 199.868 L 238.934 169.694 C 239.959 156.014 235.563 142.479 226.697 132.011 C 214.912 118.614 196.045 111.787 170.582 111.685 C 145.118 111.583 126.303 118.589 114.544 132.02 C 105.706 142.5 101.344 156.035 102.401 169.703 L 102.401 199.868 L 95.361 210.108 C 94.387 211.53 93.866 213.214 93.868 214.938 L 93.868 237.406 C 93.867 238.512 94.082 239.607 94.499 240.632 C 96.712 246.315 99.887 251.575 103.886 256.18 C 107.357 270.031 112.593 283.379 119.468 295.894 L 119.468 314.616 C 119.033 319.624 116.301 324.147 112.07 326.861 L 62.799 352.743 C 45.142 361.986 34.093 380.284 34.136 400.214 L 34.136 408.065 C 23.93 404.457 17.097 394.823 17.067 384 L 17.067 85.333 L 443.734 85.333 L 443.734 290.133 L 341.334 290.133 C 331.908 290.133 324.267 297.774 324.267 307.2 L 324.267 371.994 C 324.267 372.327 324.267 373.359 324.361 374.989 Z  M 341.333 307.2 L 409.6 307.2 L 409.6 366.933 L 341.333 366.933 L 341.333 307.2 L 341.333 307.2 Z  M 418.133 493.534 C 387.8 475.702 364.223 448.331 351.078 415.693 C 350.957 415.226 350.791 414.772 350.583 414.336 C 346.783 404.549 344.062 394.377 342.468 384 L 409.6 384 L 409.6 452.267 C 409.6 456.98 413.42 460.8 418.133 460.8 C 422.846 460.8 426.666 456.979 426.666 452.267 L 426.666 384 L 493.798 384 C 486.309 430.023 458.527 470.241 418.133 493.534 Z  M 494.933 366.933 L 426.666 366.933 L 426.666 307.2 L 494.933 307.2 L 494.933 366.933 L 494.933 366.933 Z " fill="url(#_lgradient_13)"/><linearGradient id="_lgradient_14" x1="-1.9148760296247016" y1="0.6177038336138618" x2="1.5468821088332214" y2="0.4999999999999996" gradientTransform="matrix(145.066,0,0,17.066,281.6,119.467)" gradientUnits="userSpaceOnUse"><stop offset="0.43478260869565216%" stop-opacity="0.7" style="stop-color:rgb(235,0,141)"/><stop offset="100%" stop-opacity="0.7" style="stop-color:rgb(153,102,255)"/></linearGradient><path d=" M 290.133 136.533 L 418.133 136.533 C 422.846 136.533 426.666 132.713 426.666 128 C 426.666 123.287 422.846 119.467 418.133 119.467 L 290.133 119.467 C 285.42 119.467 281.6 123.287 281.6 128 C 281.6 132.713 285.421 136.533 290.133 136.533 Z " fill="url(#_lgradient_14)"/><linearGradient id="_lgradient_15" x1="-1.9149663363587492" y1="0.6101078422993795" x2="1.5675623509299206" y2="0.4335520918785899" gradientTransform="matrix(145.066,0,0,17.066,281.6,153.601)" gradientUnits="userSpaceOnUse"><stop offset="0.43478260869565216%" stop-opacity="0.7" style="stop-color:rgb(235,0,141)"/><stop offset="100%" stop-opacity="0.7" style="stop-color:rgb(153,102,255)"/></linearGradient><path d=" M 290.133 170.667 L 418.133 170.667 C 422.846 170.667 426.666 166.847 426.666 162.134 C 426.666 157.421 422.846 153.601 418.133 153.601 L 290.133 153.601 C 285.42 153.601 281.6 157.421 281.6 162.134 C 281.6 166.847 285.421 170.667 290.133 170.667 Z " fill="url(#_lgradient_15)"/><linearGradient id="_lgradient_16" x1="-1.9218597503909824" y1="0.6603988522340954" x2="1.5606689368976874" y2="0.6015469354271633" gradientTransform="matrix(145.066,0,0,17.066,281.6,187.734)" gradientUnits="userSpaceOnUse"><stop offset="0.43478260869565216%" stop-opacity="0.7" style="stop-color:rgb(235,0,141)"/><stop offset="100%" stop-opacity="0.7" style="stop-color:rgb(153,102,255)"/></linearGradient><path d=" M 290.133 204.8 L 418.133 204.8 C 422.846 204.8 426.666 200.98 426.666 196.267 C 426.666 191.554 422.846 187.734 418.133 187.734 L 290.133 187.734 C 285.42 187.734 281.6 191.554 281.6 196.267 C 281.6 200.98 285.421 204.8 290.133 204.8 Z " fill="url(#_lgradient_16)"/><linearGradient id="_lgradient_17" x1="-3.6303368556188538" y1="0.6526055790593616" x2="2.9739840362504726" y2="0.5937536622524339" gradientTransform="matrix(76.799,0,0,17.066,281.601,221.867)" gradientUnits="userSpaceOnUse"><stop offset="0.43478260869565216%" stop-opacity="0.7" style="stop-color:rgb(235,0,141)"/><stop offset="100%" stop-opacity="0.7" style="stop-color:rgb(153,102,255)"/></linearGradient><path d=" M 358.4 230.4 C 358.4 225.687 354.58 221.867 349.867 221.867 L 290.134 221.867 C 285.421 221.867 281.601 225.687 281.601 230.4 C 281.601 235.113 285.421 238.933 290.134 238.933 L 349.867 238.933 C 354.58 238.933 358.4 235.113 358.4 230.4 Z " fill="url(#_lgradient_17)"/></g></g></g></svg>