<svg xmlns="http://www.w3.org/2000/svg" viewBox="0 0 748 568"><defs><style>.cls-1{isolation:isolate;}.cls-2{fill:#f1f2f2;}.cls-3{fill:#424644;}.cls-4{fill:#fff;}.cls-5{fill:#eaf1ed;}.cls-6{fill:#89ceaf;}.cls-7{fill:#010101;}.cls-8{fill:#febe10;}.cls-9{fill:#050706;}.cls-10,.cls-28{fill:none;stroke-miterlimit:10;stroke-width:2px;}.cls-10{stroke:#f89730;stroke-linecap:round;}.cls-11{fill:#040605;}.cls-12{fill:#fbbea4;}.cls-13{fill:#f68d71;}.cls-14{fill:#f15d30;}.cls-15{fill:#d64b27;}.cls-16{fill:#552410;}.cls-17{fill:#813b20;}.cls-18{fill:#9d4742;}.cls-19{fill:#962827;}.cls-20{fill:#0287b6;}.cls-21{fill:#f15b35;}.cls-22{fill:#f8a47f;}.cls-23{fill:#34160e;}.cls-24{fill:#441d16;}.cls-25{fill:#34282d;opacity:0.6;mix-blend-mode:soft-light;}.cls-26{fill:#f69988;}.cls-27{fill:#ba6544;}.cls-28{stroke:#040605;}</style></defs><g class="cls-1"><g id="Layer_1" data-name="Layer 1"><rect class="cls-2" x="39" y="66" width="673" height="433"/><rect class="cls-3" x="237.24" y="126.52" width="171.43" height="319.54" rx="11.43"/><rect class="cls-4" x="248.64" y="143.45" width="148.63" height="286.95" rx="10.09"/><path class="cls-5" d="M299.66,143.45v77.91a7.28,7.28,0,0,1-7.28,7.28H248.64V153.55a10.1,10.1,0,0,1,10.09-10.1Z"/><path class="cls-5" d="M349.94,328v70.82H248.64V357.62A45.42,45.42,0,0,0,291.19,328Z"/><path class="cls-6" d="M307.09,205.79v16.72a13.15,13.15,0,0,1-13.15,13.15h0v49.88h32.82V205.79Z"/><rect class="cls-5" x="358.16" y="327.95" width="39.11" height="70.82"/><path class="cls-6" d="M326.75,406.46c-14.89,6.07-17.4,23.13-17.51,23.94H258.73a10.09,10.09,0,0,1-10.09-10.09V406.46Z"/><rect class="cls-5" x="307.09" y="143.45" width="53.76" height="56.87"/><rect class="cls-5" x="333.55" y="205.79" width="63.72" height="79.56"/><rect class="cls-5" x="293.94" y="292.33" width="103.33" height="28.84"/><path class="cls-5" d="M397.27,153.55v46.77H367.46V143.45h19.72A10.1,10.1,0,0,1,397.27,153.55Z"/><path class="cls-5" d="M286,235.69v73.5c0,21.38-16.7,38.82-37.4,39.32V235.69Z"/><path class="cls-5" d="M350.37,406.45c-23.62,0-30.61,9.93-36.45,23.95h73.26a10.09,10.09,0,0,0,10.09-10.09V406.45Z"/><path class="cls-4" d="M325.39,134.33A2.44,2.44,0,1,1,323,131.9,2.43,2.43,0,0,1,325.39,134.33Z"/><path class="cls-4" d="M482.83,280.53c-.14-4.78.34-10.62-.48-15.27-1-5.66-5.79-4.18-9.47-4.23-2.57,0-5.15,0-7.72,0a218.68,218.68,0,0,0-33.52,2.24c-3.41.48-9.93-.21-12.35,3.83-1.37,2.26-1.19,5.58-1.29,8.28-.19,5.13-.12,10.23-.05,15.3,0,1.16,1,2.21,1.86,1.81l1-.4c.37,2.17,1,4.11,2.79,4.76,3.67,1.35,8.89-.11,12.7-.19q7.68-.15,15.34-.05,15.33.21,30.61,1.23c.52,0,1.09-.63,1.07-1.31Z"/><path class="cls-7" d="M432.58,271h-3.76v-2.21h10.23V271h-3.76v9.53h-2.71Z"/><path class="cls-7" d="M448.79,278h-5.45l-1,2.52h-2.78l5.23-11.74h2.68l5.25,11.74h-2.85Zm-.86-2.06-1.86-4.5-1.86,4.5Z"/><path class="cls-7" d="M461.83,280.53,459,276.45l-2.79,4.08h-3.12l4.35-6-4.13-5.77h3.09l2.7,3.8,2.65-3.8h2.93l-4.09,5.66,4.38,6.08Z"/><path class="cls-7" d="M467.17,268.79h2.72v11.74h-2.72Z"/><path class="cls-8" d="M672.46,421.89s12.75-62-46.34-73.3L567,337.33s-40.54-45.18-68.34-47.5-111.21-9.27-134.38,6.95-39.39,51.81-39.39,51.81-55.6,1.94-64.87,19.08-6.95,54.22-6.95,54.22Z"/><path class="cls-9" d="M555.88,349.66s-37.65-41.56-63.14-44.11-105-6.63-116.25,2-31.11,41.3-31.11,41.3Z"/><path class="cls-9" d="M454.3,361.45h13.05a3.66,3.66,0,0,0,3.66-3.66h0a3.66,3.66,0,0,0-3.66-3.67H454.3a3.67,3.67,0,0,0-3.67,3.67h0A3.66,3.66,0,0,0,454.3,361.45Z"/><path class="cls-9" d="M346.82,361.45h13.05a3.66,3.66,0,0,0,3.66-3.66h0a3.66,3.66,0,0,0-3.66-3.67H346.82a3.66,3.66,0,0,0-3.66,3.67h0A3.66,3.66,0,0,0,346.82,361.45Z"/><path class="cls-9" d="M254.62,433.56h421a8.15,8.15,0,0,0,8.15-8.15h0a8.15,8.15,0,0,0-8.15-8.15h-421a8.15,8.15,0,0,0-8.15,8.15h0A8.15,8.15,0,0,0,254.62,433.56Z"/><path class="cls-4" d="M260.06,367.67a18.16,18.16,0,0,1,6.19-6.22h14a8.79,8.79,0,0,1,0,17.57H256A47.52,47.52,0,0,1,260.06,367.67Z"/><path class="cls-4" d="M616.05,365c5.13,5.75,31.57,2.59,43.22.88a50.3,50.3,0,0,0-4.23-4.14c-6.89-6-16.25-10.72-28.91-13.13l-2.76-.53-6.71-1.27C614.31,352,611.76,360.2,616.05,365Z"/><path class="cls-5" d="M616.05,365c5.13,5.75,31.57,2.59,43.22.88a50.3,50.3,0,0,0-4.23-4.14c-22.62,3.16-29.59-7.9-31.67-13.66l-6.71-1.27C614.31,352,611.76,360.2,616.05,365Z"/><rect class="cls-8" x="441.63" y="299.18" width="9.01" height="58.35" transform="translate(892.26 656.71) rotate(180)"/><line class="cls-10" x1="446.07" y1="357.53" x2="446.07" y2="404.95"/><path class="cls-10" d="M496.41,297.87s34.53,9,68.26,48.92"/><circle class="cls-9" cx="575.89" cy="435.34" r="42.03" transform="translate(-83.39 141.2) rotate(-13.04)"/><circle class="cls-4" cx="575.89" cy="435.34" r="19.1" transform="translate(-86.66 148.63) rotate(-13.69)"/><circle class="cls-9" cx="347.16" cy="435.34" r="42.03" transform="translate(-64.47 60.37) rotate(-9.1)"/><circle class="cls-4" cx="347.16" cy="435.34" r="19.1" transform="translate(-188.62 586.94) rotate(-67.23)"/><path class="cls-11" d="M149.48,442.15a1.12,1.12,0,0,0-1.53-.4,1.15,1.15,0,0,0-.65.21c-3.16,2.06-9.62,1.94-13.41,1.16l-1.06.45c-5,1.45-10,3.07-14.91,5-3,1.17-6.94,2.36-9.09,5-5.63,6.92,5.33,6.49,9.38,6.7,5.71.3,11.44.37,17.16.19,4.07-.12,9.9.55,13.71-1C155.67,456.68,152,446.38,149.48,442.15Z"/><path class="cls-12" d="M149.29,442c-1.42-4-.9-8.73-.6-12.84a.42.42,0,0,0-.05-.26.58.58,0,0,0-.44-.92,40.78,40.78,0,0,0-5.21.88,64.49,64.49,0,0,1-6.52.62.53.53,0,0,0-.83.45,34.43,34.43,0,0,1-2.13,13.37.41.41,0,0,0,.1.48.4.4,0,0,0,.2.18c2.7,1.14,4.86,2.16,7.9,1.91a11.92,11.92,0,0,0,7-2.87.63.63,0,0,0,.18-.34A.49.49,0,0,0,149.29,442Z"/><path class="cls-13" d="M149.79,426.05c-3.28-2.79-9.14-1.49-13.28-1.09a.43.43,0,0,0-.38,0l-.6.05a1,1,0,0,0-.93,1.31c-1.22,1.46-1.74,3.32.51,4.48,3.42,1.76,10.77,1.85,14.16.2C151.53,429.92,151.67,427.65,149.79,426.05Z"/><path class="cls-14" d="M160.27,304.67l-3,.35c-.12-1-1.71-1.29-1.87-.2l-.06.42c-10,1.12-20,2.17-29.9,4,0-.7-1.13-.7-1.1,0v.19l-.93.17a.28.28,0,0,0,.07.55l.88-.05c.7,19.52.93,39.08,1.45,58.61.27,9.92.56,19.83.8,29.74.16,6.36.11,13.13,2.49,19.12.83,3.56,2,7,5,9.37s7.26,2.71,11,1.7c3.93-.25,7.5-2.4,9.32-7.19,2.41-6.38.59-13.84-.11-20.36q-1.56-14.42-1.95-28.92a317.11,317.11,0,0,1,4.6-65.34l3.31-.4C161.39,306.31,161.4,304.54,160.27,304.67Z"/><path class="cls-13" d="M136.71,421.25a102,102,0,0,1-3.88-20.88q-1.05-11.06-1.71-22.14-1.38-22.1-1.23-44.26c.05-8.41.41-16.8.53-25.2,0-.18-.26-.18-.27,0-.56,7.42-.67,14.9-.75,22.35s0,14.91.13,22.36q.51,22.45,2.62,44.83c.75,7.76,1.58,15.64,4,23.1A.28.28,0,0,0,136.71,421.25Z"/><path class="cls-11" d="M165.54,459.4c3.81,1.57,9.64.9,13.71,1q8.58.27,17.16-.19c4.05-.21,15,.22,9.38-6.7-2.16-2.64-6-3.83-9.09-5-4.89-1.89-9.88-3.51-14.91-5l-1.06-.45c-3.79.78-10.25.9-13.41-1.16a1.17,1.17,0,0,0-.65-.21,1.11,1.11,0,0,0-1.53.4C162.63,446.38,158.94,456.68,165.54,459.4Z"/><path class="cls-12" d="M165.74,442.63a.65.65,0,0,0,.19.34,11.92,11.92,0,0,0,7,2.87c3,.25,5.2-.77,7.89-1.91a.47.47,0,0,0,.21-.18.41.41,0,0,0,.1-.48A34.43,34.43,0,0,1,179,429.9a.53.53,0,0,0-.83-.45,65,65,0,0,1-6.53-.62,40.19,40.19,0,0,0-5.21-.88.58.58,0,0,0-.43.92.5.5,0,0,0-.06.26c.31,4.11.82,8.88-.59,12.84A.49.49,0,0,0,165.74,442.63Z"/><path class="cls-13" d="M165.35,431c3.38,1.65,10.74,1.56,14.16-.2,2.24-1.16,1.73-3,.5-4.48a1,1,0,0,0-.92-1.31l-.61-.05a.43.43,0,0,0-.38,0c-4.13-.4-10-1.7-13.28,1.09C162.94,427.65,163.08,429.92,165.35,431Z"/><path class="cls-14" d="M154.35,304.67l3,.35c.12-1,1.71-1.29,1.87-.2l.06.42c10,1.12,20-4,29.9-2.18,0-.7,1.13-.7,1.1,0a1.21,1.21,0,0,1,0,.19l.94.17c.3.06.23.56-.08.55l-.88-.05c-.7,19.52-.92,45.26-1.44,64.79-.27,9.92-.56,19.83-.81,29.74-.15,6.36-.1,13.13-2.48,19.12-.83,3.56-2,7-5,9.37s-7.26,2.71-11,1.7c-3.92-.25-7.5-2.4-9.31-7.19-2.41-6.38-.59-13.84.11-20.36q1.56-14.42,1.95-28.92a317.11,317.11,0,0,0-4.6-65.34l-3.31-.4C153.23,306.31,153.22,304.54,154.35,304.67Z"/><path class="cls-13" d="M185.33,303.75c0-.17-.3-.17-.28,0,1.59,15.9.6,32-.13,47.91s-1.35,31.65-2.2,47.46c-.47,8.75-1.27,17.52-3.67,26-.09.29.36.41.45.12A107.92,107.92,0,0,0,183,402.89c.53-7.88.79-15.78,1.15-23.68.73-16,1.68-32.08,2-48.13A246.89,246.89,0,0,0,185.33,303.75Z"/><path class="cls-15" d="M191.42,151.15c-.71-2.67-1.69-5.4-3.83-7.25a.16.16,0,0,0-.27.11c-10-.47-20.1-.28-30.12.12s-20.25,1.13-30.33,2.2c-.46,0-.46.77,0,.72H127a124.39,124.39,0,0,1,5.73,16.54c.73,2.76,1.4,5.53,1.92,8.33.26,1.36.49,2.72.7,4.09a31.34,31.34,0,0,0,.69,4.56l0,.05-.22,0a.15.15,0,1,0,0,.3c4.5-.68,9.15-.9,13.69-1.28q6.39-.56,12.78-.91,13-.74,26.11-.75a.29.29,0,0,0,.43-.13,38.34,38.34,0,0,0,3.81-17.69A39.4,39.4,0,0,0,191.42,151.15Z"/><path class="cls-14" d="M142.24,155.37c-4.18-6.25-12.5-11.4-20.09-9,0-.1-.07-.2-.19-.17-8,1.93-13.35,9.07-14.47,17a23.33,23.33,0,0,0,1.36,12.24,12.38,12.38,0,0,0,8.66,7.15,30.61,30.61,0,0,0,14,.3c4.15-.81,8.06-2.4,10.76-5.79C147.32,170.75,146.58,161.87,142.24,155.37Z"/><path class="cls-13" d="M132.69,155.69a10.27,10.27,0,0,0-8.6-1.46,11.27,11.27,0,0,0-6.81,6.64c-1.21,3-1,6.83,1.58,9.11a6.35,6.35,0,0,0,8.31.21c2.19-1.92,2.22-5.76-.5-7.26-2.47-1.37-5.77,1-5,3.82a.16.16,0,0,0,.3-.09,3,3,0,0,1,5.74-1.83c1.44,2.69-.56,5.47-3.3,6.09-3.22.73-6.18-1.68-6.93-4.72s.5-6,2.42-8.28a9,9,0,0,1,6.82-3.36,9.85,9.85,0,0,1,7,3c3.8,4,3.49,10.45.36,14.73a15.45,15.45,0,0,1-7,5.26c-2.76,1-6.28,1.37-8.59-.81-.5-.48-1.27.31-.75.75,5.19,4.42,13.3.28,16.84-4.32C138.55,168,138.44,159.62,132.69,155.69Z"/><path class="cls-16" d="M196,235.32a289.75,289.75,0,0,0-4-44.49l-.18-1c0-.21,0-.42,0-.62a10.34,10.34,0,0,0-.69-6.6,11.63,11.63,0,0,0-1.24-2.86.56.56,0,0,0,0-.08,8.34,8.34,0,0,0-4.32-3.49C181,173.37,175.2,173,170,173c-7.54,0-15.1.34-22.63.67-6.88.31-14,.35-20.75,1.82A24.61,24.61,0,0,0,112,184.32c-3.4,4.39-5.34,9.74-6.63,15.09a151,151,0,0,0-3,19.4q-1.2,11.4-1.42,22.87t.56,22.92a172,172,0,0,0,2.33,21c1.1,5.72,3.64,10.95,9.18,13.46s11.62,2.22,17.42,2.21l22.63,0c6.77,0,13.82.37,20.43-1.39a24,24,0,0,0,13.38-9.2A40.29,40.29,0,0,0,193,276.09a113.27,113.27,0,0,0,2.32-18Q196.12,246.73,196,235.32Z"/><path class="cls-17" d="M119.31,187.52c-12,16.68-14.56,38.33-14.54,58.37,0,.74,1,.7,1.12,0,2.06-20.16,2.37-40.51,14.5-57.74C120.85,187.49,119.77,186.88,119.31,187.52Z"/><path class="cls-17" d="M106.73,266.39c0-.82-1.17-.79-1.25,0-.65,7.26-.84,14.49,4.16,20.3,1,1.13,2.61-.51,1.64-1.63C106.77,279.82,106.71,272.93,106.73,266.39Z"/><path class="cls-17" d="M119.31,187.17c-12,16.68-14.56,38.33-14.54,58.37,0,.74,1,.7,1.12,0,2.06-20.16,2.37-40.51,14.5-57.74C120.85,187.14,119.77,186.53,119.31,187.17Z"/><path class="cls-17" d="M119.31,187.52c-12,16.68-14.56,38.33-14.54,58.37,0,.74,1,.7,1.12,0,2.06-20.16,2.37-40.51,14.5-57.74C120.85,187.49,119.77,186.88,119.31,187.52Z"/><path class="cls-17" d="M106.73,266.39c0-.82-1.17-.79-1.25,0-.65,7.26-.84,14.49,4.16,20.3,1,1.13,2.61-.51,1.64-1.63C106.77,279.82,106.71,272.93,106.73,266.39Z"/><path class="cls-17" d="M106.73,266c0-.82-1.17-.79-1.25,0-.65,7.26-.84,14.49,4.16,20.3,1,1.13,2.61-.51,1.64-1.63C106.77,279.47,106.71,272.58,106.73,266Z"/><path class="cls-18" d="M200.25,352.8l-.28-.17a80.6,80.6,0,0,0-.7-15.37c-.63-4.39-1.75-9.13-5.36-12.07a8.74,8.74,0,0,0-10.19-.67c-3.68,2.17-5.65,6.09-6.31,10.2-.93,5.71-.14,11.84.59,17.54l-.13.07c-.09,0-.31.08-.31-.07s-.18-.14-.2,0c0,.29.22.4.48.38A3,3,0,0,0,179,352c1-.62,1.94-1.23,2.88-1.9.35-.25,0-.81-.32-.61-.3-3.58-.8-7.21-.74-10.79.06-3.14.8-6.68,3.26-8.85s6.16-2.6,8.36-.06c2,2.29,2,5.71,2.18,8.57.21,4.07.28,8.15.24,12.23l-.36-.06c-.2,0-.29.26-.08.3s.29.08.44.12v.34a.39.39,0,0,0,.77,0v-.14a13.84,13.84,0,0,1,2.06.78,13.15,13.15,0,0,1,1.47.82.18.18,0,0,0,.07.05c0,.19,0,.38,0,.57,0,.49.72.49.75,0v-.05a.67.67,0,0,0,.57.21.23.23,0,0,0,.15-.2C200.66,353.07,200.45,353,200.25,352.8Z"/><path class="cls-16" d="M211,356.91a20.26,20.26,0,0,0-13.86-11.3c-5.65-1.47-12.08-1-17.12,2.08-5.21,1.68-9.26,6-11.59,10.94-3.2,6.75-3.7,14.56-3.56,21.93a88.22,88.22,0,0,0,1,11.7,52.23,52.23,0,0,0,2.68,11.53c2.22,5.52,7.54,7.9,13.16,8.5a41.9,41.9,0,0,0,18-2,18.76,18.76,0,0,0,7.2-4.42,17.8,17.8,0,0,0,4.3-8.42,84.94,84.94,0,0,0,1.6-11.11c.4-3.88.71-7.78.84-11.68C213.85,368.68,213.47,362.43,211,356.91Z"/><path class="cls-17" d="M186.91,348.51c-11.62,3.56-18.25,16.84-17.75,28.64a.59.59,0,0,0,1.16.16c1.44-5.77,1.4-11.39,4.37-16.74,2.67-4.83,7.21-9.18,12.55-10.86C188,349.47,187.68,348.27,186.91,348.51Z"/><path class="cls-17" d="M202.07,352.69c-.76-.59-1.53.64-.76,1,6.4,2.89,5.54,15.31,5.65,21.14a.78.78,0,0,0,1.56,0C208.34,367.25,208.59,357.73,202.07,352.69Z"/><path class="cls-18" d="M203.59,375.29c-11.39-8.81-29.91-.86-33.28,12.52-1.13,4.52-.69,9.41-.05,14a30.62,30.62,0,0,0,1.69,6.75,17.87,17.87,0,0,0,9.76,3.76,41.9,41.9,0,0,0,18-2,18.76,18.76,0,0,0,7.2-4.42,17.8,17.8,0,0,0,4.3-8.42c.31-1.32.54-2.66.75-4C211.08,386.81,209.11,379.57,203.59,375.29Z"/><path class="cls-19" d="M193,373.66c-5.52,1-10,2.53-14,6.77a23.37,23.37,0,0,0-5.95,13.28c-.1.79,1.31,1,1.41.19,1.27-9.41,8.77-18.14,18.66-19A.62.62,0,1,0,193,373.66Z"/><path class="cls-19" d="M174.55,399.89c.29-.95-1.44-1.07-1.21,0a16,16,0,0,1,0,2.77,3.55,3.55,0,0,0,.37,2.07.48.48,0,0,0,.86-.11,4.69,4.69,0,0,0,0-2.14A7.27,7.27,0,0,1,174.55,399.89Z"/><path class="cls-19" d="M206.85,390.51c-.52-4.32-2.62-7.14-4.75-10.76-.45-.76-1.6.06-1,.76,4.64,5.25,4,13.76,2.43,20-.22.9,1.09,1.53,1.54.65A18.51,18.51,0,0,0,206.85,390.51Z"/><path class="cls-12" d="M202.53,232.84l.48-.27c.8-.5,0-1.74-.84-1.39-3.93,1.7-7.56,4.56-11.67,5.92a.52.52,0,0,0-.86.28h0c-.64.17-3.31.94-3.78,1a167.25,167.25,0,0,1,4.35,38c0,9.57,1.35,19.12,1,28.67-.1,2.63-.16,5.27-.2,7.9-3.23,1.15-5.69,4.84-6.91,8-.35.91-1.33,3.12.17,3.54,1.23.33,3-1.12,4.29-2.41a32.33,32.33,0,0,1-2.59,5.25c-.46.75-1.16,1.68-1.73,2.63a1.54,1.54,0,0,0,.77,2.26,1.69,1.69,0,0,0,1.06,0s1,2.51,3.2,1.38a1.66,1.66,0,0,0,2,1.49,3.1,3.1,0,0,0,2.47-1.72c2-4,8.56-17.13,10.21-25a150.13,150.13,0,0,0,2.33-15.86A192.72,192.72,0,0,0,202.53,232.84Zm-16.69,5.59v0C185.75,238.45,185.76,238.45,185.84,238.43Z"/><path class="cls-20" d="M150.3,177.38s-20.93,5.09-25.17,17.82-12.28,34.86-12.28,34.86,5.51,10.07,16.1,10.07c0,0-9.23,40.32-10.08,70.09,0,0,43.34,9.59,72.56-.1,0,0,.63-48.94-3.18-71.75,0,0,11.86,1.59,16.52-4.47,0,0,2.48-41.1-33.92-57.67Z"/><path class="cls-18" d="M144,186.13c-.19-2.49-.82-5.56-2.82-6.94a4.22,4.22,0,0,0-3.69-.48,3.13,3.13,0,0,0-2.7,1.6l0,.1a.17.17,0,0,0-.25.17l0,.46a4.31,4.31,0,0,0-.11,2.14c-.87,16.23-2,32.44-3.69,48.59q-1.37,12.93-3.22,25.78c-.6,4.18-1.25,8.35-1.91,12.52-.58,3.63-1.5,7.64-.43,11.27a8.53,8.53,0,0,0,1.78,3.23,10.1,10.1,0,0,1-6.45,3.25c-1.64.15-3.83-1-5.38-.32-2,.89-1.13,3.34.33,4.22a10.18,10.18,0,0,0,8.51.78,9.71,9.71,0,0,0,1.29-.42,9.25,9.25,0,0,0,3.4-2.46,10,10,0,0,0,2.16-3.22c1.92-.14,3.45-1.73,4.39-3.67,1.39-2.88,1.86-6.29,2.47-9.47.79-4.17,1.49-8.35,2.13-12.55a406.2,406.2,0,0,0,4.19-50c.11-4.19.16-8.38.19-12.57C144.1,194.13,144.27,190.08,144,186.13Z"/><path class="cls-19" d="M136.33,183.45c1.57,7.3-.21,15.77-1,23.11-.73,7.17-1.8,14.33-2.33,21.52,0,.56.88.69,1,.14,2.84-14.58,4.69-30.15,3.53-44.93A.62.62,0,1,0,136.33,183.45Z"/><path class="cls-19" d="M141.06,217.81c.18,8.59-1.71,17.48-2.67,26-.08.73,1.16.9,1.29.18,1.56-8.63,1.43-17.37,2.6-26C142.41,217.06,141,216.92,141.06,217.81Z"/><path class="cls-18" d="M191.44,289.6l0,6a.77.77,0,0,1-1.08-.09A14.16,14.16,0,0,1,188,291c-.54-1.72-.57-3.69-1.06-5.45a8.46,8.46,0,0,1-2.41-3.69c-1.21-3.13-1.61-7.08-1.9-10.68-.67-8.54-.93-17.22-1.33-25.81s-.82-17.06-1.1-25.61a194.69,194.69,0,0,1,.43-24,100.38,100.38,0,0,1,1.72-11.64c.45-2.13,1.21-5.58,2.94-5.35,1.19-.55,2.47.35,3.13,2,1.13,2.83.88,6.87,1,10.06q.3,13.17.65,26.34l1.32,52.93a79.45,79.45,0,0,1,0,10.69,8.46,8.46,0,0,1-1.57,4.46C190.29,286.69,190.87,288.15,191.44,289.6Z"/><path class="cls-19" d="M185.8,184.37a.63.63,0,0,0-1.21-.33c-1.91,7.27-3.21,15.57-1.49,23,.08.32.53.22.55-.08C184.24,199.3,184.15,191.94,185.8,184.37Z"/><path class="cls-19" d="M188.16,277.07c-2.25-10.61-3-21.08-3.34-31.89a.32.32,0,0,0-.63,0c-1.42,10.73,0,21.81,3.12,32.12A.44.44,0,0,0,188.16,277.07Z"/><rect class="cls-11" x="170.57" y="215.25" width="32.38" height="15.94" rx="2.96" transform="translate(-99.93 273.35) rotate(-60)"/><path class="cls-21" d="M202.88,194.23c0,7.48-9,17.08-9,17.08s-9-9.6-9-17.08,4.8-10,9-10S202.88,186.75,202.88,194.23Z"/><path class="cls-4" d="M199.07,192.82a5.22,5.22,0,1,1-5.22-5.22A5.22,5.22,0,0,1,199.07,192.82Z"/><path class="cls-12" d="M193.18,231.87a.33.33,0,0,0-.09-.33c-.77-.89-2.19-.27-3.1,0,1.33-1,2.23-1.91,1.52-2.56s-3,.39-3.71.67l-1.4.6c1.15-1.08,1.95-2.23.83-2.83-.81-.43-2.57.45-3.3.76-1.78.76-3.39,1.88-5.18,2.64.68-2,2.14-6.36-.37-5.48-.51.17-1,1-1.32,1.41a23.62,23.62,0,0,1-2.4,2.6,24.68,24.68,0,0,1-4.88,3.15A232.23,232.23,0,0,0,147.18,243c-6.84,3.68-13.19,8.09-19.75,12.19a125.84,125.84,0,0,1,1.44-14.62.56.56,0,0,0-.07-.41c-1.05.09-7.42.3-13.56-6.86l0,0a.53.53,0,0,0-.56.44c-2,8.89-4.25,18.33-2.09,27.4.76,3.16,2,7.61,4.5,9.85s6.66,1.89,9.58,1.52c9.32-1.17,17.13-7.33,24.63-12.49,9.65-6.64,19.17-13.53,29-19.87a.64.64,0,0,0,.43-.08c1.9-1.13,4.51-1.42,6.55-2.3,1-.43,3.27-1,3.61-2.17a.35.35,0,0,0-.09-.34,3.36,3.36,0,0,0-2.72-.4c.8-.39,1.61-.76,2.42-1.17S192.79,232.88,193.18,231.87Z"/><path class="cls-12" d="M170.65,176.53c-10.84,7.75-20.4,1.42-20.4,1.42a24.37,24.37,0,0,0,.57-3.92c.06-.87.08-1.74.07-2.61a56.57,56.57,0,0,0-3.71-18l21.83,10C167.07,168.7,170.65,176.53,170.65,176.53Z"/><path class="cls-22" d="M169.37,173c.18.63.37,1.2.55,1.69-11.64,1.58-18.31-6-20.64-13.77l-2.1-7.44,21.76,10.23a15,15,0,0,0,.07,7.86C169.12,172.05,169.24,172.52,169.37,173Z"/><path class="cls-23" d="M200.57,125.24c-2-3.7-9.52-3.22-12.72-3.35a98.35,98.35,0,0,0-21,1.45,100.07,100.07,0,0,0-41,17.44.7.7,0,0,0-.21.87c-.87.09-.81,1.45.12,1.53,16.81,1.55,33.84-1.71,50.25-5C179.86,137.39,205.27,133.91,200.57,125.24Z"/><path class="cls-12" d="M142.83,139.32s-6.36-3.67-8.61-.26,3,12.4,8.09,8.73Z"/><path class="cls-12" d="M181.87,134.43s5.25-5.14,8.28-2.39.13,12.77-5.68,10.46Z"/><path class="cls-12" d="M140.49,140.73a41.64,41.64,0,0,0,2,8.51,33,33,0,0,0,10.42,15.3A19.55,19.55,0,0,0,167.48,169c12.73-1.59,21.31-16.85,19.16-34.05s-14.24-29.88-27-28.28S138.33,123.52,140.49,140.73Z"/><path class="cls-18" d="M185.33,122.39c-3.11-3.15-12.77-2.46-16.64-2.34-8.67.29-25.29,2.13-28.41,12.09a.75.75,0,0,0-.42.66c-.26,4.18-1,9.1,1.63,12.74a.57.57,0,0,0,.51.26c.42.2,1,.11,1-.45a29,29,0,0,1,3.27-10.09c.38.08.76.15,1.15.2a14.89,14.89,0,0,0,4.42-.09c2.63-.44,5.92-1.66,7.52-3.93a.17.17,0,0,0,0-.18.72.72,0,0,0-.16-.73,23.38,23.38,0,0,1,9.44,2,.33.33,0,0,0,.47-.19,6.81,6.81,0,0,0,0-3.14,37.69,37.69,0,0,0,13,.54,59.55,59.55,0,0,1,3.86,9.56.52.52,0,0,0,1-.14C187.28,135.21,188.52,125.61,185.33,122.39Z"/><path class="cls-24" d="M158.86,139.56a4.32,4.32,0,0,0-3.8,4.75.84.84,0,0,0,.94.7.83.83,0,0,0,.73-.91,2.69,2.69,0,0,1,5.34-.69.83.83,0,0,0,.94.7.84.84,0,0,0,.73-.91A4.32,4.32,0,0,0,158.86,139.56Z"/><path class="cls-24" d="M176.85,137.59a4.17,4.17,0,0,0-3.51,4.71.78.78,0,1,0,1.55-.2,2.52,2.52,0,1,1,5-.64.79.79,0,0,0,.87.71.81.81,0,0,0,.68-.91A4.17,4.17,0,0,0,176.85,137.59Z"/><path class="cls-22" d="M171.5,146.23c-.53.69-3.22,1.09-4,.58-.19-.13-.31-.66-.39-1.42-.21-2.48.23-7.33,1.29-7.47a.38.38,0,0,1,.25.05C170,138.59,172,145.58,171.5,146.23Z"/><path class="cls-25" d="M171.5,146.23c-.53.69-3.22,1.09-4,.58-.19-.13-.31-.66-.39-1.42,2.76-1.23,2.14-5.18,1.54-7.42C170,138.59,172,145.58,171.5,146.23Z"/><path class="cls-4" d="M164.48,150.15s3.06-.15,5.63-.48,5.57-.95,5.57-.95a6.07,6.07,0,0,1-11.2,1.43Z"/><path class="cls-18" d="M162.08,133c-3,1.13-5.88,2.36-8.82,3.52a.44.44,0,0,0-.31.38.33.33,0,0,0,0,.49c1.35,1.71,3.73.67,5.52,0a22.07,22.07,0,0,0,3.69-1.59,3.66,3.66,0,0,0,1.53-2.19C164,132.74,162.6,132.56,162.08,133Z"/><path class="cls-18" d="M181,133.46c-2.46-.7-5-1.31-7.42-2a.4.4,0,0,0-.42.15.41.41,0,0,0-.36.37c-.33,2.17,1.72,2.63,3.22,3a14.54,14.54,0,0,0,3.18.74,3.62,3.62,0,0,0,2.32-1C182.21,134.28,181.54,133.38,181,133.46Z"/><path class="cls-26" d="M179.63,150.06a9.44,9.44,0,0,0,3.74,6.39,36.93,36.93,0,0,0,3.6-16.8A9.46,9.46,0,0,0,179.63,150.06Z"/><path class="cls-26" d="M142.48,149.24a33,33,0,0,0,10.42,15.3,9.45,9.45,0,0,0-4.81-18.11A9.27,9.27,0,0,0,142.48,149.24Z"/><path class="cls-16" d="M192.21,119.69c-1.79-.07-3.59-.09-5.39-.09-.9-6.81-3-13.18-8.55-17.71a23.89,23.89,0,0,0-19.41-5c-15.2,2.86-23.2,17.79-20.8,32.26-.76.33-1.52.66-2.27,1-4.39,2.07-12.89,6.31-10.9,12.34a.76.76,0,0,0,1.36.22,1.15,1.15,0,0,0,.14-.17c3.46-5.93,11.13-8.34,17.19-10.66a113.31,113.31,0,0,1,18.17-5.23,110.77,110.77,0,0,1,19.55-2.14c5.69-.13,13.85-.95,18.42,3.13a1.71,1.71,0,0,0,.7.61,1,1,0,0,0,1.24.1,1.26,1.26,0,0,0,.83-1C203.67,120.76,197.35,119.91,192.21,119.69Z"/><path class="cls-27" d="M186.14,115.68c.28,1.28.51,2.6.68,3.93-20.16-1-48.76,9.59-48.76,9.59-.16-1-.27-2-.35-3C152.51,118.52,169.64,116.37,186.14,115.68Z"/><path class="cls-28" d="M191.51,217.56h25.67a7.3,7.3,0,0,1,7.3,7.3h0a7.3,7.3,0,0,0,7.3,7.3H292a11.65,11.65,0,0,0,11.65-11.65V163.36"/><path class="cls-28" d="M303.66,203.16H445.58a7.52,7.52,0,0,1,7.51,7.52v5.81"/><path class="cls-21" d="M329.11,120c0,21.18-25.57,48.35-25.57,48.35S278,141.19,278,120s13.59-28.38,25.57-28.38S329.11,98.82,329.11,120Z"/><circle class="cls-4" cx="303.54" cy="116.01" r="14.78" transform="translate(6.87 248.61) rotate(-45)"/><path class="cls-21" d="M465.89,230.69c0,10.61-12.8,24.21-12.8,24.21s-12.8-13.6-12.8-24.21,6.81-14.2,12.8-14.2S465.89,220.09,465.89,230.69Z"/><circle class="cls-4" cx="453.09" cy="228.69" r="7.4" transform="translate(154.77 639.3) rotate(-80.78)"/></g></g></svg>