<?xml version="1.0" standalone="no"?><!-- Generator: Gravit.io --><svg xmlns="http://www.w3.org/2000/svg" xmlns:xlink="http://www.w3.org/1999/xlink" style="isolation:isolate" viewBox="0 0 512 512" width="512px" height="512px"><linearGradient id="_lgradient_0" x1="-0.5221524745269287" y1="0.4372270742358081" x2="4.572916666666666" y2="0.5000000000000002" gradientTransform="matrix(96,0,0,80,64,144)" gradientUnits="userSpaceOnUse"><stop offset="0.43478260869565216%" stop-opacity="0.7" style="stop-color:rgb(235,0,141)"/><stop offset="100%" stop-opacity="0.7" style="stop-color:rgb(153,102,255)"/></linearGradient><path d=" M 88 224 L 136 224 C 149.255 224 160 213.255 160 200 L 160 168 C 160 154.745 149.255 144 136 144 L 88 144 C 74.745 144 64 154.745 64 168 L 64 200 C 64 213.255 74.745 224 88 224 Z  M 136 208 L 128 208 L 128 192 L 144 192 L 144 200 C 144 204.418 140.418 208 136 208 Z  M 144 168 L 144 176 L 128 176 L 128 160 L 136 160 C 140.418 160 144 163.582 144 168 Z  M 80 168 C 80 163.582 83.582 160 88 160 L 112 160 L 112 208 L 88 208 C 83.582 208 80 204.418 80 200 L 80 168 Z " fill="url(#_lgradient_0)"/><linearGradient id="_lgradient_1" x1="-17.068777292576417" y1="0.5623635371179038" x2="13.125000000000004" y2="0.5937500000000002" gradientTransform="matrix(16,0,0,32,288,160)" gradientUnits="userSpaceOnUse"><stop offset="0.43478260869565216%" stop-opacity="0.7" style="stop-color:rgb(235,0,141)"/><stop offset="100%" stop-opacity="0.7" style="stop-color:rgb(153,102,255)"/></linearGradient><path d=" M 288 160 L 304 160 L 304 192 L 288 192 L 288 160 Z " fill="url(#_lgradient_1)"/><linearGradient id="_lgradient_2" x1="-19.256550218340614" y1="0.5623635371179035" x2="11.000000000000004" y2="0.5937499999999999" gradientTransform="matrix(16,0,0,32,320,160)" gradientUnits="userSpaceOnUse"><stop offset="0.43478260869565216%" stop-opacity="0.7" style="stop-color:rgb(235,0,141)"/><stop offset="100%" stop-opacity="0.7" style="stop-color:rgb(153,102,255)"/></linearGradient><path d=" M 320 160 L 336 160 L 336 192 L 320 192 L 320 160 Z " fill="url(#_lgradient_2)"/><linearGradient id="_lgradient_3" x1="-21.194050218340614" y1="0.7191593886462884" x2="9.062499999999996" y2="0.625000000000003" gradientTransform="matrix(16,0,0,32,352,160)" gradientUnits="userSpaceOnUse"><stop offset="0.43478260869565216%" stop-opacity="0.7" style="stop-color:rgb(235,0,141)"/><stop offset="100%" stop-opacity="0.7" style="stop-color:rgb(153,102,255)"/></linearGradient><path d=" M 352 160 L 368 160 L 368 192 L 352 192 L 352 160 Z " fill="url(#_lgradient_3)"/><linearGradient id="_lgradient_4" x1="-0.3753663382302406" y1="0.5122821717398616" x2="3.3571592484588377" y2="0.5625004595965295" gradientTransform="matrix(128.084,0,0,80,64,288)" gradientUnits="userSpaceOnUse"><stop offset="0.43478260869565216%" stop-opacity="0.7" style="stop-color:rgb(235,0,141)"/><stop offset="100%" stop-opacity="0.7" style="stop-color:rgb(153,102,255)"/></linearGradient><path d=" M 152 288 C 143.299 288.011 134.84 290.865 127.912 296.128 C 121.041 290.884 112.644 288.03 104 288 C 81.909 288 64 305.909 64 328 C 64 350.091 81.909 368 104 368 C 112.644 367.97 121.041 365.116 127.912 359.872 C 141.808 370.41 160.93 370.73 175.171 360.663 C 189.412 350.596 195.489 332.463 190.191 315.848 C 184.893 299.232 169.44 287.964 152 288 Z  M 104 352 C 90.745 352 80 341.255 80 328 C 80 314.745 90.745 304 104 304 C 117.255 304 128 314.745 128 328 C 128 341.255 117.255 352 104 352 Z  M 152 352 C 147.195 351.973 142.51 350.495 138.56 347.76 C 145.813 335.585 145.813 320.415 138.56 308.24 C 147.07 302.441 158.333 302.729 166.536 308.954 C 174.74 315.179 178.047 325.949 174.753 335.706 C 171.458 345.462 162.298 352.022 152 352 Z " fill="url(#_lgradient_4)"/><linearGradient id="_lgradient_5" x1="-6.065365720524018" y1="0.5624999999999998" x2="8.96875" y2="0.5624999999999961" gradientTransform="matrix(32,0,0,16,208,240)" gradientUnits="userSpaceOnUse"><stop offset="0.43478260869565216%" stop-opacity="0.7" style="stop-color:rgb(235,0,141)"/><stop offset="100%" stop-opacity="0.7" style="stop-color:rgb(153,102,255)"/></linearGradient><path d=" M 208 240 L 240 240 L 240 256 L 208 256 L 208 240 Z " fill="url(#_lgradient_5)"/><linearGradient id="_lgradient_6" x1="-8.033706331877724" y1="0.8133187772925765" x2="6.906250000000014" y2="0.6249999999999907" gradientTransform="matrix(32,0,0,16,272,240)" gradientUnits="userSpaceOnUse"><stop offset="0.43478260869565216%" stop-opacity="0.7" style="stop-color:rgb(235,0,141)"/><stop offset="100%" stop-opacity="0.7" style="stop-color:rgb(153,102,255)"/></linearGradient><path d=" M 272 240 L 304 240 L 304 256 L 272 256 L 272 240 Z " fill="url(#_lgradient_6)"/><linearGradient id="_lgradient_7" x1="-10.000136462882082" y1="0.311408296943232" x2="4.40625" y2="0.5625" gradientTransform="matrix(32,0,0,16,336,240)" gradientUnits="userSpaceOnUse"><stop offset="0.43478260869565216%" stop-opacity="0.7" style="stop-color:rgb(235,0,141)"/><stop offset="100%" stop-opacity="0.7" style="stop-color:rgb(153,102,255)"/></linearGradient><path d=" M 336 240 L 368 240 L 368 256 L 336 256 L 336 240 Z " fill="url(#_lgradient_7)"/><linearGradient id="_lgradient_8" x1="-11.968886462882109" y1="0.12336244541484742" x2="2.437499999999984" y2="0.5000000000000002" gradientTransform="matrix(32,0,0,16,400,240)" gradientUnits="userSpaceOnUse"><stop offset="0.43478260869565216%" stop-opacity="0.7" style="stop-color:rgb(235,0,141)"/><stop offset="100%" stop-opacity="0.7" style="stop-color:rgb(153,102,255)"/></linearGradient><path d=" M 400 240 L 432 240 L 432 256 L 400 256 L 400 240 Z " fill="url(#_lgradient_8)"/><linearGradient id="_lgradient_9" x1="0" y1="0.5" x2="1" y2="0.5" gradientTransform="matrix(480.07,0,0,400.301,16,96)" gradientUnits="userSpaceOnUse"><stop offset="0.43478260869565216%" stop-opacity="0.7" style="stop-color:rgb(235,0,141)"/><stop offset="100%" stop-opacity="0.7" style="stop-color:rgb(153,102,255)"/></linearGradient><path d=" M 480 357.6 L 480 136 C 479.974 113.92 462.08 96.026 440 96 L 56 96 C 33.92 96.026 16.026 113.92 16 136 L 16 376 C 16.026 398.08 33.92 415.974 56 416 L 320.408 416 C 323.649 452.882 349.629 483.79 385.403 493.327 C 421.178 502.863 459.095 488.988 480.265 458.614 C 501.435 428.239 501.329 387.863 480 357.6 L 480 357.6 Z  M 32 376 L 32 136 C 32 122.745 42.745 112 56 112 L 440 112 C 453.255 112 464 122.745 464 136 L 464 340.168 C 438.858 319.376 404.27 314.217 374.154 326.765 C 344.038 339.314 323.348 367.507 320.408 400 L 56 400 C 42.745 400 32 389.255 32 376 Z  M 408 480 C 368.235 480 336 447.765 336 408 C 336 368.235 368.235 336 408 336 C 447.765 336 480 368.235 480 408 C 479.952 447.744 447.744 479.952 408 480 L 408 480 Z " fill="url(#_lgradient_9)"/><linearGradient id="_lgradient_10" x1="-5.807138386573168" y1="0.5644427865819037" x2="1.918659998459347" y2="0.5480745696644622" gradientTransform="matrix(61.361,0,0,61.361,377.269,377.37)" gradientUnits="userSpaceOnUse"><stop offset="0.43478260869565216%" stop-opacity="0.7" style="stop-color:rgb(235,0,141)"/><stop offset="100%" stop-opacity="0.7" style="stop-color:rgb(153,102,255)"/></linearGradient><path d=" M 436.288 379.712 C 433.164 376.589 428.1 376.589 424.976 379.712 L 408 396.688 L 391.024 379.712 C 387.885 376.68 382.895 376.724 379.809 379.809 C 376.724 382.895 376.68 387.885 379.712 391.024 L 396.688 408 L 379.712 424.976 C 377.632 426.985 376.798 429.959 377.53 432.756 C 378.263 435.553 380.447 437.737 383.244 438.47 C 386.041 439.202 389.015 438.368 391.024 436.288 L 408 419.312 L 424.976 436.288 C 428.115 439.32 433.105 439.276 436.191 436.191 C 439.276 433.105 439.32 428.115 436.288 424.976 L 419.312 408 L 436.288 391.024 C 439.411 387.9 439.411 382.836 436.288 379.712 Z " fill="url(#_lgradient_10)"/><linearGradient id="_lgradient_11" x1="-23.06850436681223" y1="0.4995906113537118" x2="7.0625" y2="0.59375" gradientTransform="matrix(16,0,0,32,384,160)" gradientUnits="userSpaceOnUse"><stop offset="0.43478260869565216%" stop-opacity="0.7" style="stop-color:rgb(235,0,141)"/><stop offset="100%" stop-opacity="0.7" style="stop-color:rgb(153,102,255)"/></linearGradient><path d=" M 384 160 L 400 160 L 400 192 L 384 192 L 384 160 Z " fill="url(#_lgradient_11)"/><linearGradient id="_lgradient_12" x1="-25.068504366812302" y1="0.37459061135371147" x2="5.0625" y2="0.4687499999999999" gradientTransform="matrix(16,0,0,32,416,160)" gradientUnits="userSpaceOnUse"><stop offset="0.43478260869565216%" stop-opacity="0.7" style="stop-color:rgb(235,0,141)"/><stop offset="100%" stop-opacity="0.7" style="stop-color:rgb(153,102,255)"/></linearGradient><path d=" M 416 160 L 432 160 L 432 192 L 416 192 L 416 160 Z " fill="url(#_lgradient_12)"/><linearGradient id="_lgradient_13" x1="-2.1781750363901016" y1="0.5625909752547309" x2="2.8645833333333326" y2="0.5416666666666689" gradientTransform="matrix(96,0,0,48,224,304)" gradientUnits="userSpaceOnUse"><stop offset="0.43478260869565216%" stop-opacity="0.7" style="stop-color:rgb(235,0,141)"/><stop offset="100%" stop-opacity="0.7" style="stop-color:rgb(153,102,255)"/></linearGradient><path d=" M 312 304 L 232 304 C 227.582 304 224 307.582 224 312 L 224 344 C 224 348.418 227.582 352 232 352 L 312 352 C 316.418 352 320 348.418 320 344 L 320 312 C 320 307.582 316.418 304 312 304 Z  M 304 336 L 240 336 L 240 320 L 304 320 L 304 336 Z " fill="url(#_lgradient_13)"/><linearGradient id="_lgradient_14" x1="-15.07068777292577" y1="0.5625000000000001" x2="15.562499999999995" y2="0.5625000000000001" gradientTransform="matrix(16,0,0,32,256,160)" gradientUnits="userSpaceOnUse"><stop offset="0.43478260869565216%" stop-opacity="0.7" style="stop-color:rgb(235,0,141)"/><stop offset="100%" stop-opacity="0.7" style="stop-color:rgb(153,102,255)"/></linearGradient><path d=" M 256 160 L 272 160 L 272 192 L 256 192 L 256 160 Z " fill="url(#_lgradient_14)"/></svg>