<?xml version="1.0" standalone="no"?><!-- Generator: Gravit.io --><svg xmlns="http://www.w3.org/2000/svg" xmlns:xlink="http://www.w3.org/1999/xlink" style="isolation:isolate" viewBox="0 0 500 500" width="500px" height="500px"><path d=" M 439.07 166.788 L 439.07 274 L 416.41 274 L 416.41 211.961 L 416.63 201.767 L 416.997 190.621 L 416.997 190.621 Q 411.35 196.267 409.15 198.027 L 409.15 198.027 L 396.83 207.927 L 385.904 194.287 L 420.443 166.788 L 439.07 166.788 Z  M 131.953 219.367 L 131.953 219.367 L 131.953 219.367 Q 131.953 245.84 116.883 259.92 L 116.883 259.92 L 116.883 259.92 Q 101.813 274 73.36 274 L 73.36 274 L 43 274 L 43 166.788 L 76.66 166.788 L 76.66 166.788 Q 102.913 166.788 117.433 180.648 L 117.433 180.648 L 117.433 180.648 Q 131.953 194.507 131.953 219.367 Z  M 108.339 219.954 L 108.339 219.954 L 108.339 219.954 Q 108.339 185.414 77.833 185.414 L 77.833 185.414 L 65.733 185.414 L 65.733 255.227 L 75.486 255.227 L 75.486 255.227 Q 108.339 255.227 108.339 219.954 Z  M 244.298 274 L 219.805 274 L 212.032 248.48 L 172.945 248.48 L 165.172 274 L 140.679 274 L 178.519 166.348 L 206.312 166.348 L 244.298 274 Z  M 178.665 229.414 L 206.605 229.414 L 206.605 229.414 Q 195.825 194.727 194.469 190.181 L 194.469 190.181 L 194.469 190.181 Q 193.112 185.634 192.525 182.994 L 192.525 182.994 L 192.525 182.994 Q 190.105 192.381 178.665 229.414 L 178.665 229.414 Z  M 268.938 166.788 L 291.158 210.934 L 313.524 166.788 L 338.017 166.788 L 302.451 232.274 L 302.451 274 L 279.864 274 L 279.864 233.007 L 244.298 166.788 L 268.938 166.788 Z " fill="rgb(247,247,247)"/></svg>