<?xml version="1.0" standalone="no"?><!-- Generator: Gravit.io --><svg xmlns="http://www.w3.org/2000/svg" xmlns:xlink="http://www.w3.org/1999/xlink" style="isolation:isolate" viewBox="43 175 396.1 103.802" width="396.1px" height="103.802px"><path d=" M 439.1 260.604 L 439.1 278.802 L 367.565 278.802 L 367.565 263.753 L 393.253 237.785 L 393.253 237.785 Q 404.663 226.096 408.162 221.581 L 408.162 221.581 L 408.162 221.581 Q 411.662 217.067 413.202 213.217 L 413.202 213.217 L 413.202 213.217 Q 414.742 209.367 414.742 205.238 L 414.742 205.238 L 414.742 205.238 Q 414.742 199.078 411.347 196.068 L 411.347 196.068 L 411.347 196.068 Q 407.952 193.059 402.283 193.059 L 402.283 193.059 L 402.283 193.059 Q 396.333 193.059 390.734 195.788 L 390.734 195.788 L 390.734 195.788 Q 385.134 198.518 379.045 203.558 L 379.045 203.558 L 367.285 189.629 L 367.285 189.629 Q 374.845 183.189 379.814 180.53 L 379.814 180.53 L 379.814 180.53 Q 384.784 177.87 390.664 176.435 L 390.664 176.435 L 390.664 176.435 Q 396.543 175 403.823 175 L 403.823 175 L 403.823 175 Q 413.412 175 420.761 178.5 L 420.761 178.5 L 420.761 178.5 Q 428.111 181.999 432.171 188.299 L 432.171 188.299 L 432.171 188.299 Q 436.23 194.599 436.23 202.718 L 436.23 202.718 L 436.23 202.718 Q 436.23 209.787 433.745 215.982 L 433.745 215.982 L 433.745 215.982 Q 431.261 222.176 426.046 228.686 L 426.046 228.686 L 426.046 228.686 Q 420.831 235.195 407.672 247.235 L 407.672 247.235 L 394.513 259.624 L 394.513 260.604 L 439.1 260.604 Z  M 127.904 226.656 L 127.904 226.656 L 127.904 226.656 Q 127.904 251.924 113.52 265.363 L 113.52 265.363 L 113.52 265.363 Q 99.136 278.802 71.978 278.802 L 71.978 278.802 L 43 278.802 L 43 176.47 L 75.128 176.47 L 75.128 176.47 Q 100.186 176.47 114.045 189.699 L 114.045 189.699 L 114.045 189.699 Q 127.904 202.928 127.904 226.656 Z  M 105.365 227.216 L 105.365 227.216 L 105.365 227.216 Q 105.365 194.249 76.247 194.249 L 76.247 194.249 L 64.698 194.249 L 64.698 260.883 L 74.008 260.883 L 74.008 260.883 Q 105.365 260.883 105.365 227.216 Z  M 235.135 278.802 L 211.757 278.802 L 204.338 254.444 L 167.031 254.444 L 159.611 278.802 L 136.233 278.802 L 172.35 176.05 L 198.878 176.05 L 235.135 278.802 Z  M 172.49 236.245 L 199.158 236.245 L 199.158 236.245 Q 188.869 203.138 187.574 198.798 L 187.574 198.798 L 187.574 198.798 Q 186.279 194.459 185.719 191.939 L 185.719 191.939 L 185.719 191.939 Q 183.409 200.898 172.49 236.245 L 172.49 236.245 Z  M 258.654 176.47 L 279.862 218.607 L 301.21 176.47 L 324.589 176.47 L 290.641 238.975 L 290.641 278.802 L 269.083 278.802 L 269.083 239.675 L 235.135 176.47 L 258.654 176.47 Z " fill="rgb(247,247,247)"/></svg>