<?xml version="1.0" standalone="no"?><!-- Generator: Gravit.io --><svg xmlns="http://www.w3.org/2000/svg" xmlns:xlink="http://www.w3.org/1999/xlink" style="isolation:isolate" viewBox="43 250 396.1 105.463" width="396.1px" height="105.463px"><path d=" M 436.083 274.419 L 436.083 274.419 L 436.083 274.419 Q 436.083 284.032 430.259 290.768 L 430.259 290.768 L 430.259 290.768 Q 424.435 297.504 413.91 300.03 L 413.91 300.03 L 413.91 300.451 L 413.91 300.451 Q 426.329 301.995 432.715 307.994 L 432.715 307.994 L 432.715 307.994 Q 439.1 313.993 439.1 324.168 L 439.1 324.168 L 439.1 324.168 Q 439.1 338.973 428.364 347.218 L 428.364 347.218 L 428.364 347.218 Q 417.629 355.463 397.701 355.463 L 397.701 355.463 L 397.701 355.463 Q 381.001 355.463 368.09 349.92 L 368.09 349.92 L 368.09 331.465 L 368.09 331.465 Q 374.054 334.483 381.211 336.377 L 381.211 336.377 L 381.211 336.377 Q 388.368 338.272 395.385 338.272 L 395.385 338.272 L 395.385 338.272 Q 406.121 338.272 411.243 334.623 L 411.243 334.623 L 411.243 334.623 Q 416.365 330.974 416.365 322.905 L 416.365 322.905 L 416.365 322.905 Q 416.365 315.678 410.471 312.66 L 410.471 312.66 L 410.471 312.66 Q 404.577 309.643 391.666 309.643 L 391.666 309.643 L 383.878 309.643 L 383.878 293.013 L 391.807 293.013 L 391.807 293.013 Q 403.735 293.013 409.243 289.891 L 409.243 289.891 L 409.243 289.891 Q 414.752 286.768 414.752 279.19 L 414.752 279.19 L 414.752 279.19 Q 414.752 267.542 400.157 267.542 L 400.157 267.542 L 400.157 267.542 Q 395.104 267.542 389.877 269.226 L 389.877 269.226 L 389.877 269.226 Q 384.649 270.91 378.264 275.05 L 378.264 275.05 L 368.23 260.104 L 368.23 260.104 Q 382.264 250 401.7 250 L 401.7 250 L 401.7 250 Q 417.629 250 426.856 256.455 L 426.856 256.455 L 426.856 256.455 Q 436.083 262.911 436.083 274.419 Z  M 128.114 301.784 L 128.114 301.784 L 128.114 301.784 Q 128.114 327.115 113.695 340.587 L 113.695 340.587 L 113.695 340.587 Q 99.275 354.06 72.05 354.06 L 72.05 354.06 L 43 354.06 L 43 251.474 L 75.207 251.474 L 75.207 251.474 Q 100.327 251.474 114.221 264.735 L 114.221 264.735 L 114.221 264.735 Q 128.114 277.997 128.114 301.784 Z  M 105.52 302.346 L 105.52 302.346 L 105.52 302.346 Q 105.52 269.296 76.33 269.296 L 76.33 269.296 L 64.752 269.296 L 64.752 336.096 L 74.085 336.096 L 74.085 336.096 Q 105.52 336.096 105.52 302.346 Z  M 235.612 354.06 L 212.176 354.06 L 204.738 329.641 L 167.338 329.641 L 159.9 354.06 L 136.464 354.06 L 172.671 251.053 L 199.265 251.053 L 235.612 354.06 Z  M 172.811 311.397 L 199.545 311.397 L 199.545 311.397 Q 189.231 278.208 187.933 273.857 L 187.933 273.857 L 187.933 273.857 Q 186.634 269.507 186.073 266.981 L 186.073 266.981 L 186.073 266.981 Q 183.758 275.962 172.811 311.397 L 172.811 311.397 Z  M 259.189 251.474 L 280.449 293.715 L 301.851 251.474 L 325.287 251.474 L 291.255 314.134 L 291.255 354.06 L 269.644 354.06 L 269.644 314.836 L 235.612 251.474 L 259.189 251.474 Z " fill="rgb(247,247,247)"/></svg>