<?xml version="1.0" standalone="no"?><!-- Generator: Gravit.io --><svg xmlns="http://www.w3.org/2000/svg" xmlns:xlink="http://www.w3.org/1999/xlink" style="isolation:isolate" viewBox="42.801 313 396.269 105.2" width="396.269px" height="105.2px"><path d=" M 439.07 379.287 L 439.07 396.486 L 426.817 396.486 L 426.817 418.2 L 405.792 418.2 L 405.792 396.486 L 362.35 396.486 L 362.35 381.079 L 406.976 313.43 L 426.817 313.43 L 426.817 379.287 L 439.07 379.287 Z  M 381.286 379.287 L 405.792 379.287 L 405.792 361.515 L 405.792 361.515 Q 405.792 357.072 406.14 348.616 L 406.14 348.616 L 406.14 348.616 Q 406.488 340.16 406.697 338.798 L 406.697 338.798 L 406.14 338.798 L 406.14 338.798 Q 403.564 344.675 399.944 350.264 L 399.944 350.264 L 381.286 379.287 Z  M 127.248 364.812 L 127.248 364.812 L 127.248 364.812 Q 127.248 390.682 112.942 404.441 L 112.942 404.441 L 112.942 404.441 Q 98.635 418.2 71.623 418.2 L 71.623 418.2 L 42.801 418.2 L 42.801 313.43 L 74.756 313.43 L 74.756 313.43 Q 99.679 313.43 113.464 326.974 L 113.464 326.974 L 113.464 326.974 Q 127.248 340.518 127.248 364.812 Z  M 104.831 365.385 L 104.831 365.385 L 104.831 365.385 Q 104.831 331.632 75.87 331.632 L 75.87 331.632 L 64.383 331.632 L 64.383 399.854 L 73.642 399.854 L 73.642 399.854 Q 104.831 399.854 104.831 365.385 Z  M 233.904 418.2 L 210.651 418.2 L 203.272 393.262 L 166.165 393.262 L 158.785 418.2 L 135.533 418.2 L 171.456 313 L 197.841 313 L 233.904 418.2 Z  M 171.595 374.629 L 198.12 374.629 L 198.12 374.629 Q 187.886 340.733 186.598 336.29 L 186.598 336.29 L 186.598 336.29 Q 185.31 331.847 184.753 329.267 L 184.753 329.267 L 184.753 329.267 Q 182.456 338.44 171.595 374.629 L 171.595 374.629 Z  M 257.296 313.43 L 278.39 356.571 L 299.624 313.43 L 322.876 313.43 L 289.111 377.424 L 289.111 418.2 L 267.669 418.2 L 267.669 378.141 L 233.904 313.43 L 257.296 313.43 Z " fill="rgb(247,247,247)"/></svg>