<?xml version="1.0" standalone="no"?><!-- Generator: Gravit.io --><svg xmlns="http://www.w3.org/2000/svg" xmlns:xlink="http://www.w3.org/1999/xlink" style="isolation:isolate" viewBox="72.604 370.348 396 105.6" width="396px" height="105.6px"><path d=" M 436.049 408.244 L 436.049 408.244 L 436.049 408.244 Q 450.955 408.244 459.78 416.69 L 459.78 416.69 L 459.78 416.69 Q 468.604 425.135 468.604 439.825 L 468.604 439.825 L 468.604 439.825 Q 468.604 457.212 457.987 466.58 L 457.987 466.58 L 457.987 466.58 Q 447.369 475.948 427.612 475.948 L 427.612 475.948 L 427.612 475.948 Q 410.455 475.948 399.909 470.341 L 399.909 470.341 L 399.909 451.393 L 399.909 451.393 Q 405.463 454.373 412.846 456.254 L 412.846 456.254 L 412.846 456.254 Q 420.229 458.135 426.838 458.135 L 426.838 458.135 L 426.838 458.135 Q 446.737 458.135 446.737 441.67 L 446.737 441.67 L 446.737 441.67 Q 446.737 425.986 426.135 425.986 L 426.135 425.986 L 426.135 425.986 Q 422.409 425.986 417.909 426.732 L 417.909 426.732 L 417.909 426.732 Q 413.409 427.477 410.596 428.328 L 410.596 428.328 L 401.948 423.644 L 405.815 370.773 L 461.573 370.773 L 461.573 389.367 L 424.869 389.367 L 422.971 409.735 L 425.432 409.238 L 425.432 409.238 Q 429.721 408.244 436.049 408.244 Z  M 157.893 421.657 L 157.893 421.657 L 157.893 421.657 Q 157.893 447.277 143.444 460.902 L 143.444 460.902 L 143.444 460.902 Q 128.994 474.528 101.713 474.528 L 101.713 474.528 L 72.604 474.528 L 72.604 370.773 L 104.877 370.773 L 104.877 370.773 Q 130.049 370.773 143.971 384.186 L 143.971 384.186 L 143.971 384.186 Q 157.893 397.599 157.893 421.657 Z  M 135.252 422.225 L 135.252 422.225 L 135.252 422.225 Q 135.252 388.799 106.002 388.799 L 106.002 388.799 L 94.401 388.799 L 94.401 456.361 L 103.752 456.361 L 103.752 456.361 Q 135.252 456.361 135.252 422.225 Z  M 265.612 474.528 L 242.127 474.528 L 234.674 449.832 L 197.198 449.832 L 189.744 474.528 L 166.26 474.528 L 202.541 370.348 L 229.19 370.348 L 265.612 474.528 Z  M 202.682 431.38 L 229.471 431.38 L 229.471 431.38 Q 219.135 397.812 217.834 393.412 L 217.834 393.412 L 217.834 393.412 Q 216.534 389.012 215.971 386.457 L 215.971 386.457 L 215.971 386.457 Q 213.651 395.541 202.682 431.38 L 202.682 431.38 Z  M 289.237 370.773 L 310.541 413.496 L 331.987 370.773 L 355.471 370.773 L 321.369 434.148 L 321.369 474.528 L 299.713 474.528 L 299.713 434.857 L 265.612 370.773 L 289.237 370.773 Z " fill="rgb(247,247,247)"/></svg>