<?xml version="1.0" standalone="no"?><!-- Generator: Gravit.io --><svg xmlns="http://www.w3.org/2000/svg" xmlns:xlink="http://www.w3.org/1999/xlink" style="isolation:isolate" viewBox="0 0 70 60" width="70px" height="60px"><g><g><linearGradient id="_lgradient_14" x1="-1.6927906710993499" y1="0.6277274459974929" x2="18.681951156894236" y2="0.49824980585444917" gradientTransform="matrix(3,0,0,6.001,9,43)" gradientUnits="userSpaceOnUse"><stop offset="2.1739130434782608%" stop-opacity="0.7" style="stop-color:rgb(145,171,255)"/><stop offset="98.69565217391305%" stop-opacity="0.7" style="stop-color:rgb(174,1,157)"/></linearGradient><path d=" M 11.6 44.8 C 12.042 44.468 12.131 43.842 11.8 43.4 C 11.468 42.958 10.842 42.868 10.4 43.2 C 9.518 43.861 9 44.898 9 46 C 9 47.102 9.518 48.139 10.4 48.8 C 10.836 49.13 11.456 49.045 11.788 48.61 C 12.125 48.175 12.048 47.549 11.615 47.21 C 11.231 46.929 11.003 46.484 11 46.009 C 10.998 45.534 11.22 45.085 11.6 44.8 Z " fill="url(#_lgradient_14)"/><linearGradient id="_lgradient_15" x1="0" y1="0.5" x2="1" y2="0.5" gradientTransform="matrix(60.001,0,0,60,5,0)" gradientUnits="userSpaceOnUse"><stop offset="2.1739130434782608%" stop-opacity="0.7" style="stop-color:rgb(145,171,255)"/><stop offset="98.69565217391305%" stop-opacity="0.7" style="stop-color:rgb(174,1,157)"/></linearGradient><path d=" M 59 39 L 57.022 39 L 57.022 37.771 C 57 35.682 55.383 33.959 53.3 33.805 L 43 33.069 L 43 27.869 C 43.026 27.843 43.047 27.817 43.074 27.791 C 44.663 26.379 45.506 24.31 45.357 22.191 C 46.616 21.385 47.516 20.124 47.868 18.672 C 48.139 16.888 48.168 14.652 46.781 14.152 C 46.526 14.052 46.255 14 45.981 13.999 C 45.99 13.69 45.997 13.362 46.001 13.012 L 46 12.999 L 46 8.384 L 48 7.847 L 48 10.269 L 48 10.276 C 47.998 11.303 48.512 12.263 49.367 12.831 C 49.827 13.138 50.448 13.014 50.754 12.554 C 51.061 12.095 50.937 11.474 50.477 11.167 C 50.179 10.969 50 10.635 50 10.276 L 50 10.269 L 50 7.222 C 50.7 6.818 51.088 6.032 50.983 5.231 C 50.878 4.43 50.302 3.77 49.521 3.559 L 36.515 0.067 C 36.178 -0.022 35.823 -0.022 35.486 0.067 L 22.479 3.559 C 21.605 3.799 21 4.594 21 5.499 C 21 6.405 21.605 7.199 22.479 7.439 L 26 8.384 L 26 12.999 L 26 13.01 C 26 13.366 26.011 13.692 26.021 13.994 C 25.757 13.994 25.495 14.043 25.25 14.139 C 23.836 14.65 23.861 16.886 24.138 18.705 C 24.496 20.143 25.39 21.389 26.638 22.189 C 26.488 24.308 27.331 26.377 28.919 27.789 C 28.947 27.816 28.968 27.843 28.995 27.87 L 28.995 33.07 L 18.715 33.8 C 16.624 33.957 15.006 35.696 15 37.793 L 15 39 L 11 39 C 7.691 39 5 42.14 5 46 C 5 49.86 7.691 53 11 53 L 30 53 L 30 58 C 30 59.105 30.895 60 32 60 L 36 60 C 37.105 60 38 59.105 38 58 L 38 53 L 59 53 C 62.309 53 65 49.86 65 46 C 65 42.14 62.309 39 59 39 Z  M 55.017 37.781 L 55.017 39 L 38.417 39 L 42.378 35.03 L 53.152 35.8 C 54.194 35.875 55.005 36.736 55.017 37.781 Z  M 41 46 C 41 48.757 39.206 51 37 51 L 35.191 51 C 37.603 48.103 37.603 43.897 35.191 41 L 37 41 C 39.206 41 41 43.243 41 46 Z  M 34.73 33 L 37.27 33 C 39.29 33 40.187 31.763 41 30.5 L 41 33.585 L 36.011 38.585 L 31 33.585 L 31 30.5 C 31.813 31.763 32.71 33 34.73 33 Z  M 35 46 C 35 48.757 33.206 51 31 51 L 15.191 51 C 17.603 48.103 17.603 43.897 15.191 41 L 31 41 C 33.206 41 35 43.243 35 46 Z  M 35.994 1.999 L 49.014 5.499 L 49.001 5.499 L 36.006 8.999 L 23 5.491 L 35.994 1.999 Z  M 35.485 10.931 C 35.653 10.976 35.826 10.999 36 10.999 C 36.173 11 36.346 10.977 36.513 10.931 L 44 8.921 L 44 12.486 C 43.228 12.951 40.939 13.999 36.01 13.999 C 31.081 13.999 28.767 12.943 28 12.486 L 28 8.921 L 35.485 10.931 Z  M 28.65 21.9 C 28.751 21.463 28.562 21.011 28.18 20.778 C 28.161 20.767 28.142 20.756 28.122 20.746 C 27.15 20.269 26.421 19.41 26.109 18.374 C 25.973 17.589 25.966 16.787 26.087 15.999 C 26.272 16.028 26.45 16.094 26.61 16.192 C 26.934 16.375 27.333 16.362 27.645 16.159 C 27.956 15.956 28.13 15.597 28.095 15.226 C 28.081 15.075 28.068 14.916 28.057 14.747 C 30.601 15.679 33.303 16.104 36.01 15.999 C 38.712 16.105 41.408 15.68 43.946 14.749 C 43.936 14.916 43.925 15.077 43.913 15.23 C 43.884 15.597 44.058 15.949 44.366 16.149 C 44.674 16.349 45.067 16.363 45.389 16.187 C 45.549 16.089 45.728 16.025 45.914 15.999 C 46.034 16.773 46.028 17.561 45.897 18.333 C 45.591 19.384 44.858 20.259 43.875 20.743 C 43.848 20.756 43.822 20.772 43.796 20.789 L 43.771 20.804 C 43.363 21.05 43.188 21.552 43.354 22 C 43.557 23.638 42.931 25.271 41.684 26.354 C 40.826 27.213 40.077 28.174 39.452 29.215 C 38.6 30.541 38.258 31 37.27 31 L 34.73 31 C 33.742 31 33.398 30.541 32.548 29.213 C 31.923 28.171 31.173 27.209 30.314 26.35 C 29.046 25.241 28.421 23.568 28.65 21.9 Z  M 17 37.793 C 17.004 36.746 17.813 35.878 18.857 35.8 L 29.616 35.032 L 33.6 39 L 17 39 L 17 37.793 Z  M 7 46 C 7 43.243 8.794 41 11 41 C 13.206 41 15 43.243 15 46 C 15 48.757 13.206 51 11 51 C 8.794 51 7 48.757 7 46 Z  M 32 58 L 32 53 L 36 53 L 36 58 L 32 58 Z  M 59 51 L 41.191 51 C 43.603 48.103 43.603 43.897 41.191 41 L 59 41 C 61.206 41 63 43.243 63 46 C 63 48.757 61.206 51 59 51 Z " fill="url(#_lgradient_15)"/></g></g></svg>