<?xml version="1.0" standalone="no"?><!-- Generator: Gravit.io --><svg xmlns="http://www.w3.org/2000/svg" xmlns:xlink="http://www.w3.org/1999/xlink" style="isolation:isolate" viewBox="0 0 1280 677" width="1280px" height="677px"><linearGradient id="_lgradient_1" x1="0" y1="0.5" x2="1" y2="0.5" gradientTransform="matrix(1200.72,0,0,-586.128,65.1,620.448)" gradientUnits="userSpaceOnUse"><stop offset="0.43478260869565216%" stop-opacity="0.7" style="stop-color:rgb(235,0,141)"/><stop offset="100%" stop-opacity="0.7" style="stop-color:rgb(153,102,255)"/></linearGradient><path d=" M 1248 34.848 C 1247.6 35.248 1247.3 39.848 1247.3 45.148 L 1247.3 54.748 L 1233.7 71.748 C 1182.8 135.548 1132.9 207.948 1107.1 255.548 C 1104.2 260.948 1101.4 265.448 1101 265.348 C 1100.3 265.348 1037.2 218.048 948.3 150.848 L 928.8 136.048 L 906.3 136.648 C 893.9 136.948 772.9 137.448 637.3 137.848 C 501.7 138.148 387.7 138.648 383.8 138.748 C 380 138.948 316.7 139.248 243.3 139.448 C 169.9 139.548 99.7 139.848 87.4 140.048 L 65.1 140.348 L 65.8 350.548 C 66.2 466.148 66.7 563.648 66.9 567.248 C 67 570.848 67.2 584.248 67.2 597.148 L 67.3 620.448 L 105.1 619.848 C 125.8 619.548 211.9 619.048 296.3 618.748 C 380.7 618.448 468.9 618.048 492.3 617.748 C 515.7 617.448 601.9 617.048 683.8 616.748 C 765.8 616.448 855.5 615.948 883.3 615.648 L 933.8 615.048 L 1039.3 533.848 C 1097.3 489.148 1152.1 447.048 1161 440.148 L 1177.2 427.748 L 1177.3 394.648 L 1177.3 361.548 L 1182.4 353.148 C 1195.3 331.948 1210.3 297.748 1220.1 267.248 C 1238.2 210.948 1247.8 150.448 1250.9 73.148 L 1251.5 56.548 L 1258.9 47.348 C 1263 42.248 1266.1 37.648 1265.8 37.148 C 1264.5 35.148 1262.2 36.548 1257.1 42.848 L 1251.8 49.448 L 1251.3 42.148 C 1250.8 35.548 1249.8 33.148 1248 34.848 Z  M 1246.1 81.948 C 1242.4 185.048 1219.1 280.648 1182.1 345.248 L 1177.8 352.748 L 1177.5 338.148 L 1177.2 323.548 L 1141.3 296.348 C 1121.5 281.448 1105.3 268.848 1105.3 268.448 C 1105.3 267.148 1124.4 233.548 1132.8 220.248 C 1151.4 190.348 1178.9 150.648 1203.3 118.248 C 1223.5 91.448 1245.5 63.348 1246.3 63.348 C 1246.6 63.248 1246.5 71.648 1246.1 81.948 Z  M 1074 349.948 C 1074.1 369.348 1081.7 381.048 1097.3 385.948 C 1100.3 386.848 1102.9 387.748 1103.1 387.848 C 1103.3 387.948 1102.5 389.748 1101.5 391.948 C 1097.8 398.948 1092.5 404.048 1084.8 407.848 C 1077.6 411.448 1077.2 411.448 1068.1 411.048 C 1060.9 410.748 1057.8 410.048 1054.3 408.348 C 1043.6 402.848 1037.6 395.348 1034.7 384.248 C 1029.2 362.648 1046.2 340.448 1068.4 340.248 L 1074 340.248 L 1074 349.948 Z  M 1083.8 343.248 C 1095.2 348.148 1103.9 360.948 1104.9 374.048 C 1105.6 383.148 1104.9 383.948 1098.4 381.748 C 1090.8 379.248 1085.3 374.648 1081.8 367.848 C 1079.2 362.648 1078.8 360.748 1078.5 351.648 C 1078.2 345.948 1078.3 341.248 1078.6 341.248 C 1078.9 341.248 1081.2 342.148 1083.8 343.248 Z " fill="url(#_lgradient_1)"/><path d=" M 796.929 295.216 L 796.929 295.216 L 796.929 295.216 Q 796.929 337.347 775.623 361.474 L 775.623 361.474 L 775.623 361.474 Q 754.317 385.6 716.387 385.6 L 716.387 385.6 L 716.387 385.6 Q 677.617 385.6 656.551 361.894 L 656.551 361.894 L 656.551 361.894 Q 635.486 338.187 635.486 294.976 L 635.486 294.976 L 635.486 294.976 Q 635.486 252.124 656.611 228.538 L 656.611 228.538 L 656.611 228.538 Q 677.737 204.952 716.627 204.952 L 716.627 204.952 L 716.627 204.952 Q 754.437 204.952 775.683 228.958 L 775.683 228.958 L 775.683 228.958 Q 796.929 252.965 796.929 295.216 Z  M 657.091 295.216 L 657.091 295.216 L 657.091 295.216 Q 657.091 330.865 672.276 349.29 L 672.276 349.29 L 672.276 349.29 Q 687.46 367.715 716.387 367.715 L 716.387 367.715 L 716.387 367.715 Q 745.555 367.715 760.439 349.35 L 760.439 349.35 L 760.439 349.35 Q 775.323 330.985 775.323 295.216 L 775.323 295.216 L 775.323 295.216 Q 775.323 259.806 760.499 241.502 L 760.499 241.502 L 760.499 241.502 Q 745.675 223.197 716.627 223.197 L 716.627 223.197 L 716.627 223.197 Q 687.46 223.197 672.276 241.622 L 672.276 241.622 L 672.276 241.622 Q 657.091 260.047 657.091 295.216 Z  M 975.656 251.644 L 975.656 267.128 L 942.167 267.128 L 942.167 383.199 L 922.242 383.199 L 922.242 267.128 L 898.716 267.128 L 898.716 258.126 L 922.242 250.924 L 922.242 243.602 L 922.242 243.602 Q 922.242 195.109 964.613 195.109 L 964.613 195.109 L 964.613 195.109 Q 975.056 195.109 989.1 199.31 L 989.1 199.31 L 983.939 215.275 L 983.939 215.275 Q 972.416 211.554 964.253 211.554 L 964.253 211.554 L 964.253 211.554 Q 952.97 211.554 947.569 219.056 L 947.569 219.056 L 947.569 219.056 Q 942.167 226.558 942.167 243.122 L 942.167 243.122 L 942.167 251.644 L 975.656 251.644 Z  M 892.354 251.644 L 892.354 267.128 L 858.865 267.128 L 858.865 383.199 L 838.94 383.199 L 838.94 267.128 L 815.414 267.128 L 815.414 258.126 L 838.94 250.924 L 838.94 243.602 L 838.94 243.602 Q 838.94 195.109 881.311 195.109 L 881.311 195.109 L 881.311 195.109 Q 891.754 195.109 905.798 199.31 L 905.798 199.31 L 900.636 215.275 L 900.636 215.275 Q 889.113 211.554 880.951 211.554 L 880.951 211.554 L 880.951 211.554 Q 869.668 211.554 864.267 219.056 L 864.267 219.056 L 864.267 219.056 Q 858.865 226.558 858.865 243.122 L 858.865 243.122 L 858.865 251.644 L 892.354 251.644 Z  M 139.994 276.011 L 139.994 276.011 L 139.994 276.011 Q 167.721 276.011 183.625 289.754 L 183.625 289.754 L 183.625 289.754 Q 199.529 303.498 199.529 327.384 L 199.529 327.384 L 199.529 327.384 Q 199.529 354.632 182.185 370.116 L 182.185 370.116 L 182.185 370.116 Q 164.84 385.6 134.352 385.6 L 134.352 385.6 L 134.352 385.6 Q 104.704 385.6 89.1 376.117 L 89.1 376.117 L 89.1 356.912 L 89.1 356.912 Q 97.502 362.314 109.986 365.375 L 109.986 365.375 L 109.986 365.375 Q 122.469 368.435 134.592 368.435 L 134.592 368.435 L 134.592 368.435 Q 155.718 368.435 167.421 358.473 L 167.421 358.473 L 167.421 358.473 Q 179.124 348.51 179.124 329.665 L 179.124 329.665 L 179.124 329.665 Q 179.124 292.935 134.112 292.935 L 134.112 292.935 L 134.112 292.935 Q 122.709 292.935 103.624 296.416 L 103.624 296.416 L 93.301 289.814 L 99.903 207.713 L 187.166 207.713 L 187.166 226.077 L 116.947 226.077 L 112.506 278.772 L 112.506 278.772 Q 126.31 276.011 139.994 276.011 Z  M 342.007 295.216 L 342.007 295.216 L 342.007 295.216 Q 342.007 340.708 327.664 363.154 L 327.664 363.154 L 327.664 363.154 Q 313.32 385.6 283.792 385.6 L 283.792 385.6 L 283.792 385.6 Q 255.464 385.6 240.7 362.614 L 240.7 362.614 L 240.7 362.614 Q 225.936 339.628 225.936 295.216 L 225.936 295.216 L 225.936 295.216 Q 225.936 249.364 240.22 227.158 L 240.22 227.158 L 240.22 227.158 Q 254.504 204.952 283.792 204.952 L 283.792 204.952 L 283.792 204.952 Q 312.36 204.952 327.183 228.118 L 327.183 228.118 L 327.183 228.118 Q 342.007 251.284 342.007 295.216 Z  M 246.102 295.216 L 246.102 295.216 L 246.102 295.216 Q 246.102 333.506 255.104 350.971 L 255.104 350.971 L 255.104 350.971 Q 264.107 368.435 283.792 368.435 L 283.792 368.435 L 283.792 368.435 Q 303.717 368.435 312.66 350.731 L 312.66 350.731 L 312.66 350.731 Q 321.602 333.026 321.602 295.216 L 321.602 295.216 L 321.602 295.216 Q 321.602 257.406 312.66 239.821 L 312.66 239.821 L 312.66 239.821 Q 303.717 222.236 283.792 222.236 L 283.792 222.236 L 283.792 222.236 Q 264.107 222.236 255.104 239.581 L 255.104 239.581 L 255.104 239.581 Q 246.102 256.926 246.102 295.216 Z  M 383.298 260.047 L 383.298 260.047 L 383.298 260.047 Q 383.298 280.452 387.74 290.655 L 387.74 290.655 L 387.74 290.655 Q 392.181 300.857 402.143 300.857 L 402.143 300.857 L 402.143 300.857 Q 421.829 300.857 421.829 260.047 L 421.829 260.047 L 421.829 260.047 Q 421.829 219.476 402.143 219.476 L 402.143 219.476 L 402.143 219.476 Q 392.181 219.476 387.74 229.558 L 387.74 229.558 L 387.74 229.558 Q 383.298 239.641 383.298 260.047 Z  M 438.273 260.047 L 438.273 260.047 L 438.273 260.047 Q 438.273 287.414 429.091 301.398 L 429.091 301.398 L 429.091 301.398 Q 419.908 315.381 402.143 315.381 L 402.143 315.381 L 402.143 315.381 Q 385.339 315.381 376.037 301.097 L 376.037 301.097 L 376.037 301.097 Q 366.734 286.814 366.734 260.047 L 366.734 260.047 L 366.734 260.047 Q 366.734 232.799 375.676 218.996 L 375.676 218.996 L 375.676 218.996 Q 384.619 205.192 402.143 205.192 L 402.143 205.192 L 402.143 205.192 Q 419.548 205.192 428.911 219.476 L 428.911 219.476 L 428.911 219.476 Q 438.273 233.76 438.273 260.047 Z  M 488.927 330.385 L 488.927 330.385 L 488.927 330.385 Q 488.927 350.911 493.368 361.053 L 493.368 361.053 L 493.368 361.053 Q 497.809 371.196 507.892 371.196 L 507.892 371.196 L 507.892 371.196 Q 517.974 371.196 522.776 361.173 L 522.776 361.173 L 522.776 361.173 Q 527.577 351.151 527.577 330.385 L 527.577 330.385 L 527.577 330.385 Q 527.577 309.86 522.776 299.957 L 522.776 299.957 L 522.776 299.957 Q 517.974 290.055 507.892 290.055 L 507.892 290.055 L 507.892 290.055 Q 497.809 290.055 493.368 299.957 L 493.368 299.957 L 493.368 299.957 Q 488.927 309.86 488.927 330.385 Z  M 544.021 330.385 L 544.021 330.385 L 544.021 330.385 Q 544.021 357.633 534.839 371.616 L 534.839 371.616 L 534.839 371.616 Q 525.656 385.6 507.892 385.6 L 507.892 385.6 L 507.892 385.6 Q 490.847 385.6 481.665 371.316 L 481.665 371.316 L 481.665 371.316 Q 472.482 357.032 472.482 330.385 L 472.482 330.385 L 472.482 330.385 Q 472.482 303.138 481.425 289.334 L 481.425 289.334 L 481.425 289.334 Q 490.367 275.531 507.892 275.531 L 507.892 275.531 L 507.892 275.531 Q 524.936 275.531 534.479 289.634 L 534.479 289.634 L 534.479 289.634 Q 544.021 303.738 544.021 330.385 Z  M 495.408 207.713 L 513.053 207.713 L 415.707 383.199 L 398.062 383.199 L 495.408 207.713 Z " fill="rgb(255,255,255)"/><path d=" M 600.311 509.368 L 600.311 509.368 L 600.311 509.368 Q 600.311 529.179 590.292 540.524 L 590.292 540.524 L 590.292 540.524 Q 580.274 551.869 562.438 551.869 L 562.438 551.869 L 562.438 551.869 Q 544.207 551.869 534.301 540.721 L 534.301 540.721 L 534.301 540.721 Q 524.396 529.574 524.396 509.255 L 524.396 509.255 L 524.396 509.255 Q 524.396 489.105 534.33 478.014 L 534.33 478.014 L 534.33 478.014 Q 544.263 466.923 562.551 466.923 L 562.551 466.923 L 562.551 466.923 Q 580.33 466.923 590.321 478.211 L 590.321 478.211 L 590.321 478.211 Q 600.311 489.5 600.311 509.368 Z  M 534.555 509.368 L 534.555 509.368 L 534.555 509.368 Q 534.555 526.131 541.695 534.795 L 541.695 534.795 L 541.695 534.795 Q 548.835 543.459 562.438 543.459 L 562.438 543.459 L 562.438 543.459 Q 576.154 543.459 583.152 534.823 L 583.152 534.823 L 583.152 534.823 Q 590.151 526.187 590.151 509.368 L 590.151 509.368 L 590.151 509.368 Q 590.151 492.717 583.181 484.11 L 583.181 484.11 L 583.181 484.11 Q 576.21 475.502 562.551 475.502 L 562.551 475.502 L 562.551 475.502 Q 548.835 475.502 541.695 484.166 L 541.695 484.166 L 541.695 484.166 Q 534.555 492.83 534.555 509.368 Z  M 684.354 488.879 L 684.354 496.16 L 668.606 496.16 L 668.606 550.74 L 659.237 550.74 L 659.237 496.16 L 648.174 496.16 L 648.174 491.927 L 659.237 488.54 L 659.237 485.097 L 659.237 485.097 Q 659.237 462.294 679.161 462.294 L 679.161 462.294 L 679.161 462.294 Q 684.072 462.294 690.675 464.27 L 690.675 464.27 L 688.248 471.777 L 688.248 471.777 Q 682.83 470.027 678.992 470.027 L 678.992 470.027 L 678.992 470.027 Q 673.686 470.027 671.146 473.555 L 671.146 473.555 L 671.146 473.555 Q 668.606 477.082 668.606 484.871 L 668.606 484.871 L 668.606 488.879 L 684.354 488.879 Z  M 645.183 488.879 L 645.183 496.16 L 629.435 496.16 L 629.435 550.74 L 620.066 550.74 L 620.066 496.16 L 609.003 496.16 L 609.003 491.927 L 620.066 488.54 L 620.066 485.097 L 620.066 485.097 Q 620.066 462.294 639.99 462.294 L 639.99 462.294 L 639.99 462.294 Q 644.9 462.294 651.504 464.27 L 651.504 464.27 L 649.077 471.777 L 649.077 471.777 Q 643.659 470.027 639.821 470.027 L 639.821 470.027 L 639.821 470.027 Q 634.515 470.027 631.975 473.555 L 631.975 473.555 L 631.975 473.555 Q 629.435 477.082 629.435 484.871 L 629.435 484.871 L 629.435 488.879 L 645.183 488.879 Z  M 721.832 551.869 L 721.832 551.869 L 721.832 551.869 Q 708.116 551.869 700.186 543.515 L 700.186 543.515 L 700.186 543.515 Q 692.256 535.162 692.256 520.317 L 692.256 520.317 L 692.256 520.317 Q 692.256 505.36 699.621 496.555 L 699.621 496.555 L 699.621 496.555 Q 706.987 487.75 719.405 487.75 L 719.405 487.75 L 719.405 487.75 Q 731.032 487.75 737.805 495.398 L 737.805 495.398 L 737.805 495.398 Q 744.578 503.046 744.578 515.576 L 744.578 515.576 L 744.578 521.503 L 701.964 521.503 L 701.964 521.503 Q 702.246 532.396 707.467 538.04 L 707.467 538.04 L 707.467 538.04 Q 712.688 543.685 722.17 543.685 L 722.17 543.685 L 722.17 543.685 Q 732.161 543.685 741.925 539.508 L 741.925 539.508 L 741.925 547.861 L 741.925 547.861 Q 736.958 550.006 732.527 550.937 L 732.527 550.937 L 732.527 550.937 Q 728.097 551.869 721.832 551.869 Z  M 719.292 495.596 L 719.292 495.596 L 719.292 495.596 Q 711.841 495.596 707.411 500.45 L 707.411 500.45 L 707.411 500.45 Q 702.98 505.304 702.19 513.883 L 702.19 513.883 L 734.531 513.883 L 734.531 513.883 Q 734.531 505.021 730.58 500.309 L 730.58 500.309 L 730.58 500.309 Q 726.629 495.596 719.292 495.596 Z  M 788.772 487.75 L 788.772 487.75 L 788.772 487.75 Q 792.893 487.75 796.166 488.427 L 796.166 488.427 L 794.868 497.12 L 794.868 497.12 Q 791.03 496.273 788.095 496.273 L 788.095 496.273 L 788.095 496.273 Q 780.588 496.273 775.254 502.369 L 775.254 502.369 L 775.254 502.369 Q 769.921 508.464 769.921 517.552 L 769.921 517.552 L 769.921 550.74 L 760.551 550.74 L 760.551 488.879 L 768.284 488.879 L 769.356 500.337 L 769.808 500.337 L 769.808 500.337 Q 773.251 494.297 778.105 491.024 L 778.105 491.024 L 778.105 491.024 Q 782.959 487.75 788.772 487.75 Z  M 142.167 550.74 L 96.166 550.74 L 96.166 468.221 L 105.762 468.221 L 105.762 542.048 L 142.167 542.048 L 142.167 550.74 Z  M 164.123 488.879 L 164.123 550.74 L 154.754 550.74 L 154.754 488.879 L 164.123 488.879 Z  M 153.964 472.115 L 153.964 472.115 L 153.964 472.115 Q 153.964 468.898 155.544 467.403 L 155.544 467.403 L 155.544 467.403 Q 157.124 465.907 159.495 465.907 L 159.495 465.907 L 159.495 465.907 Q 161.753 465.907 163.389 467.431 L 163.389 467.431 L 163.389 467.431 Q 165.026 468.955 165.026 472.115 L 165.026 472.115 L 165.026 472.115 Q 165.026 475.276 163.389 476.828 L 163.389 476.828 L 163.389 476.828 Q 161.753 478.381 159.495 478.381 L 159.495 478.381 L 159.495 478.381 Q 157.124 478.381 155.544 476.828 L 155.544 476.828 L 155.544 476.828 Q 153.964 475.276 153.964 472.115 Z  M 272.211 550.74 L 262.841 550.74 L 262.841 510.496 L 262.841 510.496 Q 262.841 503.102 259.68 499.405 L 259.68 499.405 L 259.68 499.405 Q 256.52 495.708 249.859 495.708 L 249.859 495.708 L 249.859 495.708 Q 241.111 495.708 236.934 500.732 L 236.934 500.732 L 236.934 500.732 Q 232.757 505.755 232.757 516.197 L 232.757 516.197 L 232.757 550.74 L 223.388 550.74 L 223.388 510.496 L 223.388 510.496 Q 223.388 503.102 220.227 499.405 L 220.227 499.405 L 220.227 499.405 Q 217.066 495.708 210.35 495.708 L 210.35 495.708 L 210.35 495.708 Q 201.545 495.708 197.452 500.986 L 197.452 500.986 L 197.452 500.986 Q 193.36 506.263 193.36 518.285 L 193.36 518.285 L 193.36 550.74 L 183.991 550.74 L 183.991 488.879 L 191.611 488.879 L 193.135 497.345 L 193.586 497.345 L 193.586 497.345 Q 196.239 492.83 201.065 490.29 L 201.065 490.29 L 201.065 490.29 Q 205.891 487.75 211.874 487.75 L 211.874 487.75 L 211.874 487.75 Q 226.379 487.75 230.838 498.248 L 230.838 498.248 L 231.29 498.248 L 231.29 498.248 Q 234.055 493.394 239.305 490.572 L 239.305 490.572 L 239.305 490.572 Q 244.554 487.75 251.27 487.75 L 251.27 487.75 L 251.27 487.75 Q 261.769 487.75 266.99 493.14 L 266.99 493.14 L 266.99 493.14 Q 272.211 498.531 272.211 510.384 L 272.211 510.384 L 272.211 550.74 Z  M 300.883 488.879 L 300.883 550.74 L 291.514 550.74 L 291.514 488.879 L 300.883 488.879 Z  M 290.724 472.115 L 290.724 472.115 L 290.724 472.115 Q 290.724 468.898 292.304 467.403 L 292.304 467.403 L 292.304 467.403 Q 293.885 465.907 296.255 465.907 L 296.255 465.907 L 296.255 465.907 Q 298.513 465.907 300.15 467.431 L 300.15 467.431 L 300.15 467.431 Q 301.786 468.955 301.786 472.115 L 301.786 472.115 L 301.786 472.115 Q 301.786 475.276 300.15 476.828 L 300.15 476.828 L 300.15 476.828 Q 298.513 478.381 296.255 478.381 L 296.255 478.381 L 296.255 478.381 Q 293.885 478.381 292.304 476.828 L 292.304 476.828 L 292.304 476.828 Q 290.724 475.276 290.724 472.115 Z  M 340.732 544.136 L 340.732 544.136 L 340.732 544.136 Q 343.215 544.136 345.529 543.769 L 345.529 543.769 L 345.529 543.769 Q 347.844 543.402 349.198 543.007 L 349.198 543.007 L 349.198 550.175 L 349.198 550.175 Q 347.674 550.909 344.711 551.389 L 344.711 551.389 L 344.711 551.389 Q 341.748 551.869 339.377 551.869 L 339.377 551.869 L 339.377 551.869 Q 321.428 551.869 321.428 532.961 L 321.428 532.961 L 321.428 496.16 L 312.567 496.16 L 312.567 491.645 L 321.428 487.75 L 325.379 474.543 L 330.798 474.543 L 330.798 488.879 L 348.747 488.879 L 348.747 496.16 L 330.798 496.16 L 330.798 532.565 L 330.798 532.565 Q 330.798 538.153 333.451 541.145 L 333.451 541.145 L 333.451 541.145 Q 336.104 544.136 340.732 544.136 Z  M 387.692 551.869 L 387.692 551.869 L 387.692 551.869 Q 373.976 551.869 366.046 543.515 L 366.046 543.515 L 366.046 543.515 Q 358.116 535.162 358.116 520.317 L 358.116 520.317 L 358.116 520.317 Q 358.116 505.36 365.482 496.555 L 365.482 496.555 L 365.482 496.555 Q 372.848 487.75 385.265 487.75 L 385.265 487.75 L 385.265 487.75 Q 396.892 487.75 403.665 495.398 L 403.665 495.398 L 403.665 495.398 Q 410.438 503.046 410.438 515.576 L 410.438 515.576 L 410.438 521.503 L 367.824 521.503 L 367.824 521.503 Q 368.106 532.396 373.327 538.04 L 373.327 538.04 L 373.327 538.04 Q 378.548 543.685 388.031 543.685 L 388.031 543.685 L 388.031 543.685 Q 398.021 543.685 407.785 539.508 L 407.785 539.508 L 407.785 547.861 L 407.785 547.861 Q 402.819 550.006 398.388 550.937 L 398.388 550.937 L 398.388 550.937 Q 393.957 551.869 387.692 551.869 Z  M 385.152 495.596 L 385.152 495.596 L 385.152 495.596 Q 377.702 495.596 373.271 500.45 L 373.271 500.45 L 373.271 500.45 Q 368.84 505.304 368.05 513.883 L 368.05 513.883 L 400.392 513.883 L 400.392 513.883 Q 400.392 505.021 396.441 500.309 L 396.441 500.309 L 396.441 500.309 Q 392.49 495.596 385.152 495.596 Z  M 469.759 550.74 L 468.518 542.443 L 468.01 542.443 L 468.01 542.443 Q 461.519 551.869 448.593 551.869 L 448.593 551.869 L 448.593 551.869 Q 436.458 551.869 429.713 543.572 L 429.713 543.572 L 429.713 543.572 Q 422.969 535.275 422.969 519.979 L 422.969 519.979 L 422.969 519.979 Q 422.969 504.683 429.742 496.216 L 429.742 496.216 L 429.742 496.216 Q 436.515 487.75 448.593 487.75 L 448.593 487.75 L 448.593 487.75 Q 461.18 487.75 467.897 496.894 L 467.897 496.894 L 468.631 496.894 L 468.235 492.435 L 468.01 488.089 L 468.01 462.915 L 477.379 462.915 L 477.379 550.74 L 469.759 550.74 Z  M 449.779 544.023 L 449.779 544.023 L 449.779 544.023 Q 459.374 544.023 463.692 538.802 L 463.692 538.802 L 463.692 538.802 Q 468.01 533.581 468.01 521.954 L 468.01 521.954 L 468.01 519.979 L 468.01 519.979 Q 468.01 506.828 463.635 501.212 L 463.635 501.212 L 463.635 501.212 Q 459.261 495.596 449.666 495.596 L 449.666 495.596 L 449.666 495.596 Q 441.425 495.596 437.051 502.002 L 437.051 502.002 L 437.051 502.002 Q 432.677 508.408 432.677 520.092 L 432.677 520.092 L 432.677 520.092 Q 432.677 531.945 437.023 537.984 L 437.023 537.984 L 437.023 537.984 Q 441.369 544.023 449.779 544.023 Z " fill="rgb(255,255,255)"/></svg>