<?xml version="1.0" standalone="no"?><!-- Generator: Gravit.io --><svg xmlns="http://www.w3.org/2000/svg" xmlns:xlink="http://www.w3.org/1999/xlink" style="isolation:isolate" viewBox="0 0 1280 1280" width="1280px" height="1280px"><linearGradient id="_lgradient_0" x1="0" y1="0.5" x2="1" y2="0.5" gradientTransform="matrix(889.917,0,0,-1069.37,211.583,1170.714)" gradientUnits="userSpaceOnUse"><stop offset="0.43478260869565216%" stop-opacity="0.7" style="stop-color:rgb(235,0,141)"/><stop offset="100%" stop-opacity="0.7" style="stop-color:rgb(153,102,255)"/></linearGradient><path d=" M 633.5 101.6 C 615.1 103 601.7 104.4 590 106.1 C 459.9 125.6 345.9 201.1 276.2 314 C 266 330.6 249.1 364.1 242.3 381.5 C 228 417.9 219.1 452.4 213.8 492.7 C 211.8 507.5 211.6 513.9 211.6 547 C 211.5 580.5 211.8 586.3 213.8 601.5 C 219.3 642 228.6 678.2 242.5 713 C 247.8 726.3 262.4 756.4 270 769.5 C 298.3 818.7 334.9 860.9 381.1 897.8 C 388.2 903.4 394 908.3 394 908.5 C 394 908.7 382.7 941.6 369 981.6 C 348.6 1040.7 344.2 1054.6 345.2 1055.6 C 350.3 1060.4 492.6 1164.8 493.3 1164.1 C 493.7 1163.7 507.5 1124.4 523.9 1076.9 C 540.3 1029.4 554.5 988.8 555.4 986.6 C 557.3 982.1 555.6 982.1 580.2 986.4 C 608 991.2 623 992.4 657 992.4 C 683.2 992.4 691.6 992 706.7 990.2 C 716.8 988.9 726.3 987.7 727.9 987.4 C 730.6 986.8 731 987.1 732.5 990.6 C 733.4 992.8 747.6 1034 763.9 1082.3 C 780.3 1130.6 794 1170.3 794.3 1170.6 C 794.6 1171 796.1 1170.3 797.7 1169.3 C 824.6 1150.4 941 1067.3 942.4 1066 C 944.2 1064.2 943.8 1062.6 921.1 995.8 C 908.4 958.2 897.9 926.4 897.7 925.1 C 897.5 923.1 899.6 921.3 910.5 913.4 C 951.5 883.9 985.2 851.4 1012.9 814.6 C 1055 758.7 1083.7 692.3 1095.4 624 C 1100.6 594.1 1101.5 582.8 1101.5 547 C 1101.5 511.2 1100.6 499.8 1095.4 470 C 1079.7 378.4 1034.7 293.4 966.9 227.5 C 894.6 157.2 802.7 114.1 702 103.5 C 688.1 102 644 100.8 633.5 101.6 Z " fill="url(#_lgradient_0)"/><path d=" M 885.895 555.628 L 885.895 555.628 L 885.895 555.628 Q 885.895 593.106 866.942 614.568 L 866.942 614.568 L 866.942 614.568 Q 847.989 636.029 814.248 636.029 L 814.248 636.029 L 814.248 636.029 Q 779.76 636.029 761.021 614.941 L 761.021 614.941 L 761.021 614.941 Q 742.282 593.853 742.282 555.414 L 742.282 555.414 L 742.282 555.414 Q 742.282 517.295 761.074 496.314 L 761.074 496.314 L 761.074 496.314 Q 779.867 475.333 814.462 475.333 L 814.462 475.333 L 814.462 475.333 Q 848.096 475.333 866.995 496.688 L 866.995 496.688 L 866.995 496.688 Q 885.895 518.043 885.895 555.628 Z  M 761.502 555.628 L 761.502 555.628 L 761.502 555.628 Q 761.502 587.34 775.009 603.73 L 775.009 603.73 L 775.009 603.73 Q 788.516 620.12 814.248 620.12 L 814.248 620.12 L 814.248 620.12 Q 840.195 620.12 853.435 603.783 L 853.435 603.783 L 853.435 603.783 Q 866.675 587.447 866.675 555.628 L 866.675 555.628 L 866.675 555.628 Q 866.675 524.129 853.488 507.846 L 853.488 507.846 L 853.488 507.846 Q 840.302 491.563 814.462 491.563 L 814.462 491.563 L 814.462 491.563 Q 788.516 491.563 775.009 507.953 L 775.009 507.953 L 775.009 507.953 Q 761.502 524.343 761.502 555.628 Z  M 1044.883 516.868 L 1044.883 530.642 L 1015.093 530.642 L 1015.093 633.894 L 997.368 633.894 L 997.368 530.642 L 976.44 530.642 L 976.44 522.634 L 997.368 516.228 L 997.368 509.714 L 997.368 509.714 Q 997.368 466.577 1035.059 466.577 L 1035.059 466.577 L 1035.059 466.577 Q 1044.349 466.577 1056.842 470.314 L 1056.842 470.314 L 1052.25 484.515 L 1052.25 484.515 Q 1042 481.205 1034.739 481.205 L 1034.739 481.205 L 1034.739 481.205 Q 1024.702 481.205 1019.897 487.879 L 1019.897 487.879 L 1019.897 487.879 Q 1015.093 494.552 1015.093 509.287 L 1015.093 509.287 L 1015.093 516.868 L 1044.883 516.868 Z  M 970.781 516.868 L 970.781 530.642 L 940.991 530.642 L 940.991 633.894 L 923.266 633.894 L 923.266 530.642 L 902.338 530.642 L 902.338 522.634 L 923.266 516.228 L 923.266 509.714 L 923.266 509.714 Q 923.266 466.577 960.958 466.577 L 960.958 466.577 L 960.958 466.577 Q 970.247 466.577 982.74 470.314 L 982.74 470.314 L 978.148 484.515 L 978.148 484.515 Q 967.898 481.205 960.637 481.205 L 960.637 481.205 L 960.637 481.205 Q 950.6 481.205 945.795 487.879 L 945.795 487.879 L 945.795 487.879 Q 940.991 494.552 940.991 509.287 L 940.991 509.287 L 940.991 516.868 L 970.781 516.868 Z  M 301.514 538.544 L 301.514 538.544 L 301.514 538.544 Q 326.179 538.544 340.327 550.769 L 340.327 550.769 L 340.327 550.769 Q 354.475 562.995 354.475 584.243 L 354.475 584.243 L 354.475 584.243 Q 354.475 608.481 339.046 622.255 L 339.046 622.255 L 339.046 622.255 Q 323.617 636.029 296.496 636.029 L 296.496 636.029 L 296.496 636.029 Q 270.122 636.029 256.242 627.594 L 256.242 627.594 L 256.242 610.51 L 256.242 610.51 Q 263.716 615.315 274.82 618.038 L 274.82 618.038 L 274.82 618.038 Q 285.925 620.761 296.709 620.761 L 296.709 620.761 L 296.709 620.761 Q 315.502 620.761 325.912 611.898 L 325.912 611.898 L 325.912 611.898 Q 336.323 603.036 336.323 586.272 L 336.323 586.272 L 336.323 586.272 Q 336.323 553.599 296.282 553.599 L 296.282 553.599 L 296.282 553.599 Q 286.139 553.599 269.161 556.695 L 269.161 556.695 L 259.979 550.823 L 265.851 477.789 L 343.477 477.789 L 343.477 494.125 L 281.013 494.125 L 277.063 540.999 L 277.063 540.999 Q 289.342 538.544 301.514 538.544 Z  M 481.217 555.628 L 481.217 555.628 L 481.217 555.628 Q 481.217 596.095 468.457 616.062 L 468.457 616.062 L 468.457 616.062 Q 455.698 636.029 429.431 636.029 L 429.431 636.029 L 429.431 636.029 Q 404.232 636.029 391.099 615.582 L 391.099 615.582 L 391.099 615.582 Q 377.965 595.134 377.965 555.628 L 377.965 555.628 L 377.965 555.628 Q 377.965 514.84 390.672 495.086 L 390.672 495.086 L 390.672 495.086 Q 403.378 475.333 429.431 475.333 L 429.431 475.333 L 429.431 475.333 Q 454.843 475.333 468.03 495.94 L 468.03 495.94 L 468.03 495.94 Q 481.217 516.548 481.217 555.628 Z  M 395.903 555.628 L 395.903 555.628 L 395.903 555.628 Q 395.903 589.689 403.912 605.225 L 403.912 605.225 L 403.912 605.225 Q 411.92 620.761 429.431 620.761 L 429.431 620.761 L 429.431 620.761 Q 447.156 620.761 455.11 605.011 L 455.11 605.011 L 455.11 605.011 Q 463.065 589.262 463.065 555.628 L 463.065 555.628 L 463.065 555.628 Q 463.065 521.994 455.11 506.351 L 455.11 506.351 L 455.11 506.351 Q 447.156 490.708 429.431 490.708 L 429.431 490.708 L 429.431 490.708 Q 411.92 490.708 403.912 506.137 L 403.912 506.137 L 403.912 506.137 Q 395.903 521.566 395.903 555.628 Z  M 517.947 524.343 L 517.947 524.343 L 517.947 524.343 Q 517.947 542.494 521.898 551.57 L 521.898 551.57 L 521.898 551.57 Q 525.849 560.646 534.711 560.646 L 534.711 560.646 L 534.711 560.646 Q 552.222 560.646 552.222 524.343 L 552.222 524.343 L 552.222 524.343 Q 552.222 488.253 534.711 488.253 L 534.711 488.253 L 534.711 488.253 Q 525.849 488.253 521.898 497.222 L 521.898 497.222 L 521.898 497.222 Q 517.947 506.191 517.947 524.343 Z  M 566.85 524.343 L 566.85 524.343 L 566.85 524.343 Q 566.85 548.687 558.682 561.127 L 558.682 561.127 L 558.682 561.127 Q 550.514 573.566 534.711 573.566 L 534.711 573.566 L 534.711 573.566 Q 519.763 573.566 511.488 560.86 L 511.488 560.86 L 511.488 560.86 Q 503.213 548.153 503.213 524.343 L 503.213 524.343 L 503.213 524.343 Q 503.213 500.105 511.167 487.825 L 511.167 487.825 L 511.167 487.825 Q 519.122 475.546 534.711 475.546 L 534.711 475.546 L 534.711 475.546 Q 550.194 475.546 558.522 488.253 L 558.522 488.253 L 558.522 488.253 Q 566.85 500.959 566.85 524.343 Z  M 611.91 586.913 L 611.91 586.913 L 611.91 586.913 Q 611.91 605.171 615.86 614.194 L 615.86 614.194 L 615.86 614.194 Q 619.811 623.216 628.78 623.216 L 628.78 623.216 L 628.78 623.216 Q 637.749 623.216 642.02 614.301 L 642.02 614.301 L 642.02 614.301 Q 646.291 605.385 646.291 586.913 L 646.291 586.913 L 646.291 586.913 Q 646.291 568.654 642.02 559.845 L 642.02 559.845 L 642.02 559.845 Q 637.749 551.036 628.78 551.036 L 628.78 551.036 L 628.78 551.036 Q 619.811 551.036 615.86 559.845 L 615.86 559.845 L 615.86 559.845 Q 611.91 568.654 611.91 586.913 Z  M 660.919 586.913 L 660.919 586.913 L 660.919 586.913 Q 660.919 611.151 652.751 623.59 L 652.751 623.59 L 652.751 623.59 Q 644.583 636.029 628.78 636.029 L 628.78 636.029 L 628.78 636.029 Q 613.618 636.029 605.45 623.323 L 605.45 623.323 L 605.45 623.323 Q 597.281 610.617 597.281 586.913 L 597.281 586.913 L 597.281 586.913 Q 597.281 562.675 605.236 550.396 L 605.236 550.396 L 605.236 550.396 Q 613.191 538.117 628.78 538.117 L 628.78 538.117 L 628.78 538.117 Q 643.942 538.117 652.431 550.663 L 652.431 550.663 L 652.431 550.663 Q 660.919 563.209 660.919 586.913 Z  M 617.675 477.789 L 633.371 477.789 L 546.777 633.894 L 531.081 633.894 L 617.675 477.789 Z " fill="rgb(255,255,255)"/></svg>