<?xml version="1.0" standalone="no"?><!-- Generator: Gravit.io --><svg xmlns="http://www.w3.org/2000/svg" xmlns:xlink="http://www.w3.org/1999/xlink" style="isolation:isolate" viewBox="0 0 70 60" width="70px" height="60px"><g><g><g><linearGradient id="_lgradient_16" x1="0" y1="0.5" x2="1" y2="0.5" gradientTransform="matrix(49.974,0,0,60,10.013,0)" gradientUnits="userSpaceOnUse"><stop offset="2.1739130434782608%" stop-opacity="0.7" style="stop-color:rgb(145,171,255)"/><stop offset="98.69565217391305%" stop-opacity="0.7" style="stop-color:rgb(174,1,157)"/></linearGradient><path d=" M 58.671 7.532 C 59.446 7.389 59.987 6.738 59.987 5.95 C 59.987 5.162 59.446 4.511 58.671 4.368 L 35.171 0.016 C 35.058 -0.005 34.942 -0.005 34.829 0.016 L 11.329 4.367 C 10.554 4.511 10.013 5.162 10.013 5.95 C 10.013 6.738 10.554 7.389 11.329 7.532 L 21.96 9.501 L 21.377 14.164 C 21.292 14.846 21.385 15.51 21.622 16.109 C 14.968 20.584 11.013 27.978 11.013 36.012 C 11.013 49.239 21.773 60 35 60 C 48.227 60 58.988 49.239 58.988 36.012 C 58.988 32.67 58.312 29.441 56.983 26.409 L 56.983 21.983 C 56.983 21.21 56.683 20.505 56.193 19.979 C 56.683 19.453 56.983 18.749 56.983 17.975 C 56.983 16.68 56.143 15.579 54.979 15.186 L 54.979 8.216 L 58.671 7.532 Z  M 22.711 17.641 C 23.183 18.048 23.758 18.349 24.405 18.498 L 25.293 18.703 C 24.528 19.97 23.857 21.372 23.286 22.881 C 21.579 22.537 19.886 22.119 18.212 21.624 C 19.506 20.12 21.013 18.778 22.711 17.641 Z  M 16.97 23.209 C 18.849 23.789 20.751 24.278 22.671 24.673 C 21.69 27.843 21.127 31.39 21.045 35.073 L 12.914 35.073 C 13.095 30.739 14.525 26.641 16.97 23.209 Z  M 16.983 48.812 C 14.578 45.436 13.098 41.359 12.913 36.952 L 21.045 36.952 C 21.126 40.637 21.685 44.178 22.669 47.353 C 20.754 47.747 18.857 48.234 16.983 48.812 Z  M 18.225 50.398 C 19.894 49.905 21.582 49.488 23.283 49.145 C 23.772 50.434 24.335 51.649 24.971 52.772 C 25.946 54.499 27.05 55.937 28.247 57.065 C 24.314 55.8 20.857 53.463 18.225 50.398 Z  M 34.061 58.053 C 31.281 57.653 28.663 55.486 26.606 51.848 C 26.07 50.899 25.588 49.877 25.163 48.797 C 28.098 48.304 31.07 48.031 34.061 47.984 L 34.061 58.053 Z  M 34.061 46.105 C 30.854 46.154 27.668 46.452 24.525 46.998 C 23.557 43.954 23.006 40.53 22.924 36.952 L 34.061 36.952 L 34.061 46.105 Z  M 34.061 35.073 L 22.924 35.073 C 23.008 31.495 23.563 28.064 24.527 25.027 C 27.669 25.573 30.855 25.871 34.061 25.92 L 34.061 35.073 L 34.061 35.073 Z  M 34.061 24.041 C 31.069 23.994 28.097 23.721 25.162 23.228 C 25.747 21.737 26.439 20.366 27.229 19.15 L 33.437 20.583 C 33.643 20.63 33.851 20.665 34.061 20.694 L 34.061 24.041 L 34.061 24.041 Z  M 34.061 18.792 C 33.993 18.779 33.926 18.767 33.859 18.752 L 24.828 16.668 C 23.792 16.428 23.11 15.452 23.242 14.397 L 23.811 9.844 L 34.061 11.742 L 34.061 18.792 L 34.061 18.792 Z  M 35.939 58.053 L 35.939 47.984 C 38.93 48.031 41.902 48.304 44.837 48.797 C 44.412 49.878 43.93 50.899 43.394 51.848 C 41.337 55.486 38.719 57.653 35.939 58.053 Z  M 51.096 17.975 C 51.096 18.067 51.101 18.159 51.109 18.249 C 50.252 17.471 49.339 16.757 48.378 16.11 C 48.615 15.511 48.708 14.846 48.623 14.164 L 48.04 9.501 L 53.1 8.564 L 53.1 15.186 C 51.937 15.579 51.096 16.68 51.096 17.975 Z  M 52.975 21.983 C 52.975 21.396 53.453 20.919 54.04 20.919 C 54.627 20.919 55.105 21.396 55.105 21.983 L 55.105 26.054 L 52.975 26.054 L 52.975 21.983 L 52.975 21.983 Z  M 51.253 21.037 C 51.168 21.285 51.116 21.548 51.101 21.821 C 49.651 22.23 48.189 22.585 46.714 22.882 C 46.144 21.373 45.472 19.97 44.707 18.703 L 45.595 18.498 C 46.242 18.349 46.816 18.048 47.288 17.642 C 48.738 18.613 50.068 19.752 51.253 21.037 Z  M 45.172 16.668 L 36.141 18.752 C 36.074 18.767 36.007 18.78 35.939 18.792 L 35.939 11.742 L 46.189 9.843 L 46.758 14.397 C 46.89 15.452 46.208 16.428 45.172 16.668 Z  M 36.563 20.583 L 42.771 19.15 C 43.561 20.367 44.253 21.737 44.839 23.228 C 41.903 23.722 38.929 23.995 35.94 24.042 L 35.94 20.694 C 36.149 20.665 36.357 20.63 36.563 20.583 Z  M 45.473 25.025 C 46.437 28.063 46.993 31.493 47.076 35.073 L 35.939 35.073 L 35.939 25.921 C 39.143 25.872 42.329 25.571 45.473 25.025 Z  M 47.076 36.952 C 46.994 40.53 46.443 43.954 45.475 46.998 C 42.332 46.452 39.146 46.154 35.939 46.105 L 35.939 36.952 L 47.076 36.952 Z  M 41.753 57.065 C 42.95 55.937 44.054 54.499 45.03 52.772 C 45.665 51.649 46.228 50.434 46.717 49.145 C 48.418 49.488 50.106 49.905 51.775 50.398 C 49.142 53.463 45.686 55.8 41.753 57.065 Z  M 53.017 48.812 C 51.143 48.234 49.246 47.747 47.331 47.353 C 48.315 44.178 48.874 40.637 48.955 36.952 L 57.087 36.952 C 56.902 41.359 55.422 45.436 53.017 48.812 Z  M 57.087 35.073 L 48.955 35.073 C 48.873 31.39 48.31 27.843 47.329 24.673 C 48.593 24.413 49.85 24.114 51.096 23.773 L 51.096 26.994 C 51.096 27.512 51.517 27.933 52.036 27.933 L 55.585 27.933 C 56.483 30.212 56.985 32.606 57.087 35.073 Z  M 55.104 17.975 C 55.104 18.562 54.627 19.04 54.04 19.04 C 53.453 19.04 52.975 18.562 52.975 17.975 C 52.975 17.388 53.453 16.91 54.04 16.91 C 54.627 16.91 55.104 17.388 55.104 17.975 Z  M 35 10.005 L 13.103 5.95 L 35 1.895 L 56.897 5.95 L 35 10.005 Z " fill="url(#_lgradient_16)"/></g></g></g></svg>