<?xml version="1.0" standalone="no"?><!-- Generator: Gravit.io --><svg xmlns="http://www.w3.org/2000/svg" xmlns:xlink="http://www.w3.org/1999/xlink" style="isolation:isolate" viewBox="0 0 512 512" width="512px" height="512px"><g><g><linearGradient id="_lgradient_3" x1="1.0004093886660492" y1="0.4772744233948801" x2="0.007812452107607726" y2="0.4510580842391306" gradientTransform="matrix(-512,0,0,306.486,512,102.757)" gradientUnits="userSpaceOnUse"><stop offset="0.43478260869565216%" stop-opacity="0.7" style="stop-color:rgb(235,0,141)"/><stop offset="100%" stop-opacity="0.7" style="stop-color:rgb(153,102,255)"/></linearGradient><path d=" M 52.711 196.354 L 52.711 196.354 L 173.652 196.161 L 271.655 115.527 C 281.623 107.28 294.152 102.765 307.089 102.757 L 329.353 102.757 C 341.619 102.759 351.56 112.705 351.558 124.971 C 351.557 129.912 349.908 134.713 346.872 138.612 L 302.192 195.957 L 410.239 195.783 C 415.036 195.718 419.42 193.058 421.694 188.834 C 422.011 188.281 422.373 187.757 422.779 187.266 L 454.597 148.808 C 466 135.008 486.432 133.065 500.233 144.468 C 511.578 153.845 515.183 169.689 509.01 183.051 L 475.181 256.349 C 470.412 268.175 459.695 276.557 447.068 278.336 C 446.976 278.348 446.883 278.36 446.791 278.37 L 299.256 294.265 L 370.627 372.265 C 370.691 372.336 370.754 372.408 370.818 372.48 C 378.855 381.746 377.86 395.772 368.596 403.809 C 364.559 407.312 359.396 409.241 354.051 409.243 L 321.37 409.243 C 308.11 409.242 295.289 404.498 285.223 395.867 L 174.897 306.444 L 52.931 308.652 L 52.729 308.652 C 23.654 308.652 0 283.463 0 252.501 C 0 221.021 23.152 196.369 52.711 196.354 Z  M 329.349 124.966 L 307.089 124.966 C 299.312 124.973 291.781 127.692 285.795 132.656 L 208.673 196.106 L 274.002 196.004 L 329.349 124.966 Z  M 52.639 286.445 L 178.542 284.166 C 181.156 284.12 183.704 284.996 185.736 286.642 L 299.336 378.72 L 299.6 378.942 C 305.651 384.167 313.377 387.04 321.371 387.04 L 354.041 387.04 L 268.057 293.079 C 263.916 288.555 264.227 281.53 268.751 277.391 C 270.497 275.793 272.707 274.794 275.06 274.541 L 444.248 256.305 C 449.005 255.57 452.994 252.32 454.674 247.809 C 454.745 247.632 454.822 247.455 454.896 247.281 L 488.841 173.744 C 491.202 168.626 488.967 162.562 483.848 160.202 C 479.644 158.263 474.661 159.397 471.71 162.964 L 440.454 200.748 C 434.125 211.389 422.641 217.888 410.26 217.835 L 52.744 218.246 L 52.726 218.246 C 35.612 218.246 22.206 233.313 22.206 252.345 C 22.209 271.027 35.851 286.392 52.639 286.445 Z " fill="url(#_lgradient_3)" fill-opacity="0.2"/></g></g></svg>