<?xml version="1.0" standalone="no"?><!-- Generator: Gravit.io --><svg xmlns="http://www.w3.org/2000/svg" xmlns:xlink="http://www.w3.org/1999/xlink" style="isolation:isolate" viewBox="0 0 80 80" width="80px" height="80px"><g><g><g><g><path d=" M 50.073 53.999 C 48.983 54.668 47.586 55.036 46.141 55.036 C 44.696 55.036 43.3 54.668 42.21 53.999 L 24.411 43.083 C 24.411 43.083 22.805 42.099 22.805 44.329 C 22.805 46.863 22.805 54.462 22.805 54.462 C 22.805 54.563 22.805 55.072 22.805 55.23 C 22.805 60.972 33.253 67.162 46.141 67.162 C 59.029 67.162 69.477 60.972 69.477 55.23 C 69.477 55.072 69.477 54.563 69.477 54.462 C 69.477 54.462 69.477 46.402 69.477 43.715 C 69.477 41.924 68.335 42.799 68.335 42.799 L 50.073 53.999 Z " fill="rgb(255,255,255)"/><path d=" M 75.742 34.4 C 77.11 33.562 77.11 32.189 75.742 31.35 L 48.628 17.791 C 47.26 16.953 45.022 16.953 43.655 17.791 L 16.541 31.35 C 15.173 32.189 15.173 33.561 16.541 34.4 L 43.655 51.03 C 45.022 51.868 47.26 51.868 48.628 51.03" fill="rgb(255,255,255)"/><path d=" M 74.621 59.049 C 74.621 54.457 74.621 40.683 74.621 40.683 C 74.621 40.683 74.633 39.813 74.117 40.1 C 73.703 40.331 72.688 40.897 72.331 41.208 C 71.918 41.566 72.011 42.372 72.011 42.372 C 72.011 42.372 72.011 52.197 72.011 56.877 C 72.011 57.729 72.011 58.453 72.011 59.049 C 72.011 59.286 71.807 59.399 71.71 59.456 C 70.773 60.007 70.143 61.024 70.143 62.19 C 70.143 63.942 71.563 65.363 73.316 65.363 C 75.068 65.363 76.489 63.942 76.489 62.19 C 76.489 61.019 75.854 59.999 74.911 59.449 C 74.817 59.395 74.621 59.285 74.621 59.049 Z " fill="rgb(255,255,255)"/></g></g></g></g></svg>