<?xml version="1.0"?>
<svg xmlns="http://www.w3.org/2000/svg" id="Capa_1" enable-background="new 0 0 512 512" height="512px" viewBox="0 0 512 512" width="512px"><g><g><path d="m271 360h30v-30h-30v-135h165v-15c0-99.252-80.748-180-180-180s-180 80.748-180 180v15h165v135h-30v30h30v122h-60v30h150v-30h-60zm134.256-195h-59.555c-1.592-40.549-10.282-87.903-30.781-122.935 49.12 21.064 84.817 67.622 90.336 122.935zm-298.512 0c5.519-55.313 41.215-101.871 90.336-122.935-20.496 35.027-29.188 82.376-30.781 122.935zm109.879-95.466c41.85-92.069 94.729-7.124 99.063 95.466h-119.37c1.531-36.26 8.606-69.725 20.307-95.466z" data-original="#000000" class="active-path" data-old_color="#000000" fill="#FFFFFF"/><path d="m497 435v-105h-137v105h-15v30h30v47h30v-47h47v47h30v-47h30v-30zm-107-75h77v75h-77z" data-original="#000000" class="active-path" data-old_color="#000000" fill="#FFFFFF"/><path d="m150 330h-135v105h-15v30h30v47h30v-47h45v47h30v-47h30v-30h-15zm-105 30h75v75h-75z" data-original="#000000" class="active-path" data-old_color="#000000" fill="#FFFFFF"/></g></g> </svg>
