<?xml version="1.0"?>
<svg xmlns="http://www.w3.org/2000/svg" id="Capa_1" enable-background="new 0 0 510 510" height="512px" viewBox="0 0 510 510" width="512px"><g><g><path d="m414.425 0h-60.588-308.837v510h308.837 60.588c27.887 0 50.575-22.646 50.575-50.482v-409.036c0-27.836-22.688-50.482-50.575-50.482zm-339.425 480v-450h278.837c11.669 0 21.163 9.188 21.163 20.482v409.035c0 11.294-9.494 20.482-21.163 20.482h-278.837zm360-20.482c0 11.294-9.23 20.482-20.575 20.482h-13.843c2.831-6.265 4.418-13.192 4.418-20.482v-409.036c0-7.29-1.587-14.218-4.418-20.482h13.843c11.345 0 20.575 9.188 20.575 20.482z" data-original="#000000" class="active-path" data-old_color="#000000" fill="#FFFFFF"/><path d="m225 60c-66.168 0-120 53.832-120 120s53.832 120 120 120 120-53.832 120-120-53.832-120-120-120zm88.743 105h-34.138c-1.245-24.116-5.472-46.559-12.228-64.379 24.1 12.918 41.667 36.491 46.366 64.379zm-88.743 105c-1.664 0-8.136-4.999-14.268-21.094-5.491-14.415-9.092-33.505-10.289-53.906h49.114c-1.197 20.401-4.799 39.491-10.289 53.906-6.132 16.095-12.604 21.094-14.268 21.094zm-24.557-105c1.197-20.401 4.799-39.491 10.289-53.906 6.132-16.095 12.604-21.094 14.268-21.094s8.136 4.999 14.268 21.094c5.491 14.415 9.092 33.505 10.289 53.906zm-17.82-64.379c-6.756 17.82-10.983 40.263-12.228 64.379h-34.138c4.699-27.888 22.266-51.461 46.366-64.379zm-46.366 94.379h34.138c1.245 24.116 5.472 46.559 12.228 64.379-24.1-12.918-41.667-36.491-46.366-64.379zm131.12 64.379c6.756-17.82 10.983-40.263 12.228-64.379h34.138c-4.699 27.888-22.266 51.461-46.366 64.379z" data-original="#000000" class="active-path" data-old_color="#000000" fill="#FFFFFF"/><path d="m150 345h150v30h-150z" data-original="#000000" class="active-path" data-old_color="#000000" fill="#FFFFFF"/><path d="m180 405h90v30h-90z" data-original="#000000" class="active-path" data-old_color="#000000" fill="#FFFFFF"/></g></g> </svg>
