<?xml version="1.0"?>
<svg xmlns="http://www.w3.org/2000/svg" viewBox="0 0 512 512" width="512px" height="512px" class=""><g><g id="_29-taxi" data-name="29-taxi"><g id="linear_color" data-name="linear color"><circle cx="120" cy="336" r="12" data-original="#000000" class="active-path" data-old_color="#000000" fill="#FFFFFF"/><circle cx="408" cy="336" r="12" data-original="#000000" class="active-path" data-old_color="#000000" fill="#FFFFFF"/><path d="M498.093,244.184l-92.322-16.352-73.833-72.915A23.879,23.879,0,0,0,315.07,148H280.649l-13.265-39.795A12,12,0,0,0,256,100H192a12,12,0,0,0-11.384,8.2L167.351,148H129.06a35.861,35.861,0,0,0-33.273,22.272L71.97,228H28A24.028,24.028,0,0,0,4,252v72a24.028,24.028,0,0,0,24,24H69.413a51.988,51.988,0,0,0,101.174,0H357.413a51.988,51.988,0,0,0,101.174,0H472a36.04,36.04,0,0,0,36-36V256A12,12,0,0,0,498.093,244.184ZM315.078,172l56.708,56H284V172ZM212,172v56H156V172Zm-11.351-48h46.7l8,24h-62.7Zm-82.672,55.417A11.942,11.942,0,0,1,129.06,172H132v56H97.932ZM120,364a28,28,0,1,1,28-28A28.032,28.032,0,0,1,120,364Zm288,0a28,28,0,1,1,28-28A28.032,28.032,0,0,1,408,364Zm76-52a12.013,12.013,0,0,1-12,12H458.587a51.988,51.988,0,0,0-101.174,0H170.587a51.988,51.988,0,0,0-101.174,0H28V252H224a12,12,0,0,0,12-12V172h24v68a12,12,0,0,0,12,12H404.6L484,266.062Z" data-original="#000000" class="active-path" data-old_color="#000000" fill="#FFFFFF"/><path d="M288,260H272a12,12,0,0,0,0,24h16a12,12,0,0,0,0-24Z" data-original="#000000" class="active-path" data-old_color="#000000" fill="#FFFFFF"/><circle cx="120" cy="336" r="12" data-original="#000000" class="active-path" data-old_color="#000000" fill="#FFFFFF"/><circle cx="408" cy="336" r="12" data-original="#000000" class="active-path" data-old_color="#000000" fill="#FFFFFF"/></g></g></g> </svg>
