<svg id="Capa_1" enable-background="new 0 0 512.006 512.006" height="512" viewBox="0 0 512.006 512.006" width="512" xmlns="http://www.w3.org/2000/svg" xmlns:xlink="http://www.w3.org/1999/xlink"><linearGradient id="SVGID_1_" gradientUnits="userSpaceOnUse" x1="256.003" x2="256.003" y1="512.004" y2=".003"><stop offset="0" stop-color="#fd5900"/><stop offset="1" stop-color="#ffde00"/></linearGradient><g><g><path d="m94.989 26.651c6.433-5.22 7.416-14.667 2.196-21.099-5.22-6.432-14.667-7.417-21.099-2.196-30.583 24.817-56.317 56.515-74.418 91.665-3.793 7.365-.897 16.41 6.468 20.203 7.428 3.824 16.443.834 20.203-6.468 16.216-31.49 39.264-59.882 66.65-82.105zm-43.251 101.903c-3.562 7.479-.387 16.43 7.092 19.992 7.494 3.569 16.437.372 19.993-7.093 14.546-30.541 36.944-56.963 64.771-76.407 6.791-4.745 8.449-14.097 3.704-20.887s-14.097-8.45-20.888-3.704c-32.075 22.414-57.897 52.877-74.672 88.099zm458.601-33.533c-18.102-35.151-43.835-66.848-74.418-91.665-6.434-5.221-15.879-4.237-21.099 2.196s-4.237 15.879 2.196 21.099c27.386 22.223 50.434 50.615 66.65 82.105 3.774 7.329 12.803 10.279 20.203 6.468 7.365-3.792 10.261-12.838 6.468-20.203zm-141.928-29.975c27.828 19.445 50.225 45.866 64.771 76.407 3.557 7.468 12.502 10.66 19.993 7.093 7.479-3.562 10.654-12.513 7.092-19.992-16.775-35.221-42.597-65.685-74.673-88.099-6.791-4.746-16.143-3.086-20.888 3.704-4.743 6.791-3.085 16.142 3.705 20.887zm97.592 356.958c-24.808 0-45-20.187-45-45v-151c0-90.981-74.019-165-165-165s-165 74.019-165 165v151c0 24.813-20.183 45-45 45-8.284 0-15 6.716-15 15s6.716 15 15 15h165v15c0 24.813 20.187 45 45 45s45-20.187 45-45v-15h165c8.284 0 15-6.716 15-15s-6.716-15-15-15zm-195 45c0 8.284-6.716 15-15 15s-15-6.716-15-15v-15h30zm-165.039-45c9.437-12.544 15.039-28.129 15.039-45v-151c0-74.439 60.561-135 135-135s135 60.561 135 135v151c0 16.871 5.602 32.456 15.039 45z" fill="url(#SVGID_1_)"/></g></g></svg>