<?xml version="1.0" standalone="no"?><!-- Generator: Gravit.io --><svg xmlns="http://www.w3.org/2000/svg" xmlns:xlink="http://www.w3.org/1999/xlink" style="isolation:isolate" viewBox="0 0 800 800" width="800px" height="800px"><g><g><g><linearGradient id="_lgradient_3" x1="0" y1="0.5" x2="1" y2="0.5" gradientTransform="matrix(380,0,0,180,210,476)" gradientUnits="userSpaceOnUse"><stop offset="2.1739130434782608%" stop-opacity="1" style="stop-color:rgb(145,171,255)"/><stop offset="98.69565217391305%" stop-opacity="1" style="stop-color:rgb(174,1,157)"/></linearGradient><path d=" M 210 476 L 230 656 L 570 656 L 590 476 L 210 476 Z  M 400 580 C 388.954 580 380 571.046 380 560 C 380 548.954 388.954 540 400 540 C 411.046 540 420 548.954 420 560 C 420 571.046 411.046 580 400 580 Z " fill="url(#_lgradient_3)"/></g></g><g><g><linearGradient id="_lgradient_4" x1="0" y1="0.5" x2="1" y2="0.5" gradientTransform="matrix(134,0,0,181,333,144)" gradientUnits="userSpaceOnUse"><stop offset="2.1739130434782608%" stop-opacity="1" style="stop-color:rgb(145,171,255)"/><stop offset="98.69565217391305%" stop-opacity="1" style="stop-color:rgb(174,1,157)"/></linearGradient><path d=" M 400 144 C 362.997 144 333 173.997 333 211 L 333 258 C 333 295.003 362.997 325 400 325 C 437.003 325 467 295.003 467 258 L 467 211 C 467 173.997 437.003 144 400 144 Z " fill="url(#_lgradient_4)"/></g></g><g><g><linearGradient id="_lgradient_5" x1="0" y1="0.5" x2="1" y2="0.5" gradientTransform="matrix(288.338,0,0,106,255.831,340)" gradientUnits="userSpaceOnUse"><stop offset="2.1739130434782608%" stop-opacity="1" style="stop-color:rgb(145,171,255)"/><stop offset="98.69565217391305%" stop-opacity="1" style="stop-color:rgb(174,1,157)"/></linearGradient><path d=" M 400 340 C 332.279 340 274.981 384.585 255.831 446 L 544.169 446 C 525.019 384.585 467.721 340 400 340 Z " fill="url(#_lgradient_5)"/></g></g></g></svg>