<svg xmlns="http://www.w3.org/2000/svg" viewBox="0 0 628 455"><defs><style>.cls-1{fill:#f1f2f2;}.cls-2{fill:#aacadf;}.cls-3{fill:#a3c5d8;}.cls-4{fill:#5a8fc5;}.cls-5{fill:#4985b6;}.cls-6{fill:#9bc9ec;}.cls-7{fill:#89c2e8;}.cls-8{fill:#417da6;}.cls-9{fill:#78b1e0;}.cls-10{fill:#fbc9a8;}.cls-11{fill:#314761;}.cls-12{fill:#506480;}.cls-13{fill:#5cb8a3;}.cls-14{fill:#f1ac8a;}.cls-15{fill:#c8e4f7;}.cls-16,.cls-26{fill:#fff;}.cls-17{fill:#9da8ba;}.cls-18{fill:#429b85;}.cls-19{fill:#2b3a6d;}.cls-20{fill:#d4d8dd;}.cls-21{fill:#faf4f4;}.cls-22{fill:#e9e8e8;}.cls-23{fill:#be6267;}.cls-24{fill:#fdbe56;}.cls-25,.cls-27{fill:#f4a134;}.cls-25{opacity:0.4;}.cls-26{opacity:0.15;}.cls-27{opacity:0.3;}.cls-28{fill:none;stroke:#6994bc;stroke-linecap:round;stroke-miterlimit:10;stroke-width:2px;}</style></defs><g id="Layer_2" data-name="Layer 2"><g id="Layer_1-2" data-name="Layer 1"><rect class="cls-1" width="628" height="455"/><rect class="cls-2" x="281.99" y="335.13" width="57.82" height="64.41"/><path class="cls-3" d="M51.66,388.33H571a12.19,12.19,0,0,1,12.19,12.19v10.22a0,0,0,0,1,0,0H39.47a0,0,0,0,1,0,0V400.52A12.19,12.19,0,0,1,51.66,388.33Z"/><path class="cls-4" d="M385.29,161.89c-1.83-16.77-.89-29.72-1.84-33.36-4.41-17-21.81-21.5-35.6-24.16a192.38,192.38,0,0,0-73.06,0c-13.79,2.66-31.2,7.2-35.6,24.16-.95,3.64,0,16.59-1.84,33.36-6.06,55.28-8.93,139.6-8.93,139.6H394.21S391.34,217.17,385.29,161.89Z"/><path class="cls-5" d="M262.32,301.49h-33.9s2.87-84.32,8.93-139.6c.2-1.85.36-3.66.5-5.4h0s-2.7,28,11,50.28C261.91,227.94,263.43,275,262.32,301.49Z"/><path class="cls-5" d="M360.31,301.49h33.9s-2.87-84.32-8.92-139.6c-.21-1.85-.37-3.66-.51-5.4h0s2.7,28-11,50.28C360.72,227.94,359.2,275,360.31,301.49Z"/><path class="cls-6" d="M218,248h5.37a9.16,9.16,0,0,1,9.16,9.16v48.27a4.31,4.31,0,0,1-4.31,4.31H213.17a4.31,4.31,0,0,1-4.31-4.31V257.17A9.16,9.16,0,0,1,218,248Z"/><path class="cls-6" d="M399.25,248h5.37a9.16,9.16,0,0,1,9.16,9.16v48.27a4.31,4.31,0,0,1-4.31,4.31H394.4a4.31,4.31,0,0,1-4.31-4.31V257.17A9.16,9.16,0,0,1,399.25,248Z"/><path class="cls-7" d="M217.24,258.08h6.93a8.38,8.38,0,0,1,8.38,8.38v39.36a3.94,3.94,0,0,1-3.94,3.94H212.8a3.94,3.94,0,0,1-3.94-3.94V266.45A8.38,8.38,0,0,1,217.24,258.08Z"/><path class="cls-6" d="M51.31,300.07v.82l-.42-.73Z"/><path class="cls-4" d="M51.31,300.07v.82l-.42-.73Z"/><path class="cls-4" d="M401.75,305.45S405,295.4,311.32,295.4s-90.43,10.05-90.43,10.05a139.71,139.71,0,0,0,.31,19,18.43,18.43,0,0,0,18.36,16.91H383.07a18.43,18.43,0,0,0,18.36-16.91A139.57,139.57,0,0,0,401.75,305.45Z"/><path class="cls-8" d="M238.65,299s-3.77,6.68-3.9,12.57,5,15,5.38,18.31a8.53,8.53,0,0,0,2.69,5.2h9.42s119.23-.54,119.9,0,5-2.44,5-2.44,2.25-6.72,4.94-9.68a15.34,15.34,0,0,0,2.56-14.64c-2-5.54-3.29-9.7-3.29-9.7S267.35,293,238.65,299Z"/><path class="cls-8" d="M377.16,332.63c-20.19,0-49.6-4.85-65.84-4.85s-45.66,4.85-65.85,4.85c-19.55,0-24.36-13.38-24.64-14.22.09,2.12.22,4.12.38,6a18.41,18.41,0,0,0,18.35,16.9H383.07a18.43,18.43,0,0,0,18.36-16.9c.16-1.9.29-3.9.37-6C401.52,319.25,396.71,332.63,377.16,332.63Z"/><path class="cls-9" d="M356.18,106.21s-5,1.87-6.83,12.27,2.17,38-38,38-36.24-27.59-38-38-6.82-12.27-6.82-12.27c2.83-.74,5.65-1.32,8.33-1.84a192.38,192.38,0,0,1,73.06,0C350.53,104.89,353.35,105.47,356.18,106.21Z"/><path class="cls-10" d="M342.81,373.26,339,392.31s-7.41,3.27-13.5,0l1.32-22.11"/><path class="cls-11" d="M325.14,410.74h19.78s3.7-.65,3-5.67c-.79-5.5-6.82-9.91-7.19-12.51a2.81,2.81,0,0,1,0-.82v-.28a2.28,2.28,0,0,0-1.71-2.31c-1.89-.68-7.15-.9-8.38-.79s-3.67,4.55-5.13,3.92c-.86,4.08-4.16,10.36-2.34,17A2,2,0,0,0,325.14,410.74Z"/><path class="cls-10" d="M295.36,366.23l8.07,17.66s6.94.11,12.11-4.5l-5.33-19.84"/><path class="cls-12" d="M362.23,289.94s-1.75,8.69-16.38,9.77a59.68,59.68,0,0,1-10.5-.4c-.61,2.36-2.3,4.61-6.6,4.34-4.48-.27-9.69-2.62-13.58-4.74a12.05,12.05,0,0,0-11.5,0c-3.89,2.12-9.12,4.47-13.59,4.74a8,8,0,0,1-2.9-.28,5.26,5.26,0,0,1-3.7-4.06,59.52,59.52,0,0,1-10.48.4c-14.63-1.08-16.38-9.77-16.38-9.77.69-14.91,19.88-34.82,19.88-34.82,5.36-5.57,25-5.41,32.92-5.11,7.88-.3,27.56-.46,32.92,5.11C342.34,255.12,361.54,275,362.23,289.94Z"/><path class="cls-13" d="M314.12,368.29s-2.29,3.27-8.57,5.36c-6.05,2-9.22,1.93-9.44,1.93-3.13-5.51-12-21.2-21.33-38.24-7.31-13.36-14.9-27.55-20.22-38.31-11.32-22.91,10.06-40.78,10.06-40.78,17.79-5.26,21.8,10.62,27.88,26.48,3.36,8.78,11.82,46.8,15.38,58.69C310.5,352.14,313,363.07,314.12,368.29Z"/><path class="cls-13" d="M324.3,379.22s3,2.66,9.57,3.27c6.35.58,9.42-.24,9.63-.29,3.18-10.84,16.74-57.43,22.91-84,5.77-24.89-19.13-37.39-19.13-37.39-18.53-1-18.79,15.33-21.08,32.16-1.26,9.32-.78,48.26-1.53,60.65C324.12,362.68,324.21,373.88,324.3,379.22Z"/><path class="cls-10" d="M329.8,154.07a25.77,25.77,0,0,1-22.13,13.62,28,28,0,0,1-22.55-13.61s9-2.52,11.54-4.16c.59-.38.55-2.62.33-5-.28-3.07-.87-6.39-.87-6.39l15.41-4.24s.36,2,1,4.62c.83,3.29,2.16,7.48,3.84,9.44a36.54,36.54,0,0,0,4.94,2.76A58.83,58.83,0,0,0,329.8,154.07Z"/><path class="cls-14" d="M312.54,138.89c-3,8.58-9.07,9.15-9.07,9.15A8.67,8.67,0,0,1,297,144.9c-.28-3.07-.87-6.39-.87-6.39l15.41-4.24S311.89,136.3,312.54,138.89Z"/><path class="cls-15" d="M344.37,255.46c-13.8,0-31.23,3.43-42.51.73-10.64,1.73-17.35-.08-23.22-.33-6.09,2.49-1.56-23.42-2.21-32.61q-.07-1-.15-2.13c-.32-4.25-.75-9.34-1.22-14.75-.5-5.89-1.06-12.17-1.62-18.16-1.11-12-2.17-23-2.6-27.35l.47-.41a36.1,36.1,0,0,1,10-5.31l.19-.06.31-.11.23-.08.17-.06.13,0,.08,0c3.18-1,6.59-2.1,9.64-2.94,0,0,4,14,19,12.18,11.26-1.33,10.32-12.93,10.32-12.93s5.35,1.33,12,3.75a.31.31,0,0,1,.11,0l1.76.66c2.72,1.11,7.84,3.52,11.21,7.16a10.18,10.18,0,0,1,.89,1.68c-.27,4-1.58,11.6-2.24,21.63-.54,8.38-1.11,17.38-1.53,24.56-.05.86-.1,1.69-.14,2.49-.09,1.56,0,3.31-.16,5.19C341.94,235.47,347.87,248.8,344.37,255.46Z"/><path class="cls-10" d="M355.58,189.89s3.11,13.6,6.43,24.1c1.95,6.16-12.42,20.43-16.91,9.18a109,109,0,0,1-5.58-19.38S354.05,191.56,355.58,189.89Z"/><path class="cls-15" d="M255.92,201.19s4.61,6.05,18.51,6.66c1,0,5,.54,7.42.06,3.24-6.26,6-18.76,8.23-29.27-2.54-8.19-17.45-14.92-18.77-18.18-.16.13-.32.26-.47.4a13.24,13.24,0,0,0-2.93,3.65C263.21,173.15,255.92,201.19,255.92,201.19Z"/><path class="cls-15" d="M359.4,201.19s-4.61,6.05-18.51,6.66c-1,0-5,.54-7.42.06-3.24-6.26-6.05-18.76-8.23-29.27,2.54-8.19,17.45-14.92,18.76-18.18.16.13.33.26.48.4a13,13,0,0,1,2.92,3.65C352.11,173.15,359.4,201.19,359.4,201.19Z"/><path class="cls-16" d="M262.45,182c.16-.52.3-1.08.43-1.71C262.73,180.9,262.6,181.47,262.45,182Z"/><path class="cls-17" d="M332.24,210.71s.57,8.55-9.73,12.42-22.57,3.51-29.21,8-9.9,13.44-9.9,13.44S290.48,236,301.26,234,331.42,228.12,332.24,210.71Z"/><path class="cls-18" d="M286.6,271.68a34.56,34.56,0,0,1,1.73,3.26c1,2.12,2.36,5.19,3.76,9,.71,1.88,1.45,3.93,2.18,6.12s1.52,4.48,2.23,6.89c1.48,4.81,2.86,10,4.2,15.18s2.53,10.41,3.72,15.29,2.25,9.44,3.18,13.35l3.1,13s-1.58-5.12-3.7-12.87c-1-3.88-2.28-8.4-3.49-13.27l-3.85-15.25c-1.29-5.2-2.61-10.38-4-15.18s-2.77-9.29-4.08-13.08-2.48-6.93-3.4-9.08S286.6,271.68,286.6,271.68Z"/><path class="cls-18" d="M328.89,278.88s-.34,1.3-.73,3.61-.83,5.62-1.23,9.61-.71,8.66-1,13.67-.4,10.35-.46,15.7-.18,10.71-.26,15.73-.24,9.7-.36,13.72c-.28,8-.65,13.37-.65,13.37s0-5.35,0-13.38c0-4,0-8.71,0-13.72s.08-10.38.12-15.74.27-10.72.6-15.74c.15-2.51.38-4.93.6-7.22s.46-4.46.72-6.46c.5-4,1.12-7.29,1.61-9.58S328.89,278.88,328.89,278.88Z"/><path class="cls-19" d="M310.71,258.08v1.74s-52.79-5.6-73.1,39.34c-1.89.3-3.58.61-5.08.91v-14a60.73,60.73,0,0,1,4.14-5.47c12.22-14.44,30.47-20.47,49.28-22.51C293.78,257.23,310.71,258.08,310.71,258.08Z"/><path class="cls-19" d="M311.9,258.08v1.74s52.79-5.6,73.1,39.34c1.89.3,3.58.61,5.08.91v-14a62.4,62.4,0,0,0-4.13-5.47c-12.22-14.44-30.48-20.47-49.29-22.51C328.83,257.23,311.9,258.08,311.9,258.08Z"/><rect class="cls-20" x="304.58" y="257.46" width="13.46" height="2.67" rx="0.56"/><path class="cls-21" d="M295,176.27a2.1,2.1,0,0,1-.49.44c-3,2.1-13.91,1.64-18.55-13.8-4.89-16.3,7.55-24.34,12.33-26.76,1.1-.55,1.79-.81,1.79-.81s5.67,2.43,6.74,7.89c1,5.11-.16,7.16-.16,7.16C288.11,155.37,300.2,169.68,295,176.27Z"/><path class="cls-22" d="M295,176.27a2.1,2.1,0,0,1-.49.44c1.61-2.25-2.7-13-3.38-18.54s1.82-8.67,2-10.13-.6-4.07-2.41-6.36a16.34,16.34,0,0,1-2.44-5.53c1.1-.55,1.79-.81,1.79-.81s5.67,2.43,6.74,7.89c1,5.11-.16,7.16-.16,7.16C288.11,155.37,300.2,169.68,295,176.27Z"/><path class="cls-21" d="M337.14,161c-2.95,14.42-13.32,15.8-17.5,14.32a3.35,3.35,0,0,1-1.53-1c-5.19-6.59,6.89-20.91-1.67-25.88,0,0-2.27-2.24-4.12-10.42,1.18-5.45.61-7.05.61-7.05l.59,0C317.72,131.33,342.58,134.4,337.14,161Z"/><path class="cls-22" d="M323.29,157.29c-.94,5.38-5.15,15.49-3.65,18a3.35,3.35,0,0,1-1.53-1c-5.19-6.59,6.89-20.91-1.67-25.88,0,0-2.27-2.24-4.12-10.42,1.18-5.45.61-7.05.61-7.05l.59,0a26.63,26.63,0,0,1-.07,5c-.31,1.61.53,4.4,1.06,5.71s4.61,3.23,6.37,4.68S324.24,151.91,323.29,157.29Z"/><path class="cls-23" d="M282,120.1a5.87,5.87,0,0,0,.49,3.65c.31.5.76.89,1.08,1.37a5.46,5.46,0,0,0,.73,1,3,3,0,0,0,1.22.55.33.33,0,0,0,.29,0,.46.46,0,0,0,.12-.23c.2-.77.89-1.46.71-2.23a14.56,14.56,0,0,0-.3-2.68c-.89-1.18-1.42-1.19-2.46-2.23"/><path class="cls-10" d="M313.13,114.57a39.66,39.66,0,0,1,.28,6.35c-.16,3.53,0,10.67-.64,15.32-1,7.31-10.7,9.59-15.45,7.25-6.11-3-6.55-7.18-8.54-11.22s-2.61-8.72-4.53-14.45c-1.46-4.36,1.86-11.84,11.19-13.23C304,103.31,312.22,106.64,313.13,114.57Z"/><path class="cls-10" d="M288.86,127.15a3.53,3.53,0,0,0-2.19-2.08,2.65,2.65,0,0,0-2.79.69c-1.68,2,2.21,8.23,5.27,7.46C290.93,132.77,289.64,129,288.86,127.15Z"/><path class="cls-14" d="M285.61,126.87a.93.93,0,0,1,.23,0,2,2,0,0,1,.57.28,2.77,2.77,0,0,1,.64.64,3.66,3.66,0,0,1,.48.92,3,3,0,0,1,.21,1,1.08,1.08,0,0,1-.11.5.66.66,0,0,1-.35.33,1,1,0,0,1-.65,0,1,1,0,0,1-.22-.08h.23a1,1,0,0,0,.55-.12.61.61,0,0,0,.24-.64,4.1,4.1,0,0,0-.24-.91,4.17,4.17,0,0,0-.92-1.51A2.34,2.34,0,0,0,285.61,126.87Z"/><path class="cls-10" d="M311.53,122.45a3.57,3.57,0,0,1,1.18-2.79,2.67,2.67,0,0,1,2.84-.47c2.34,1.17,1.25,8.43-1.87,8.94C311.87,128.42,311.56,124.49,311.53,122.45Z"/><path class="cls-14" d="M314.4,120.89a2.5,2.5,0,0,0-.42.71,4.35,4.35,0,0,0-.23,1.76,3.7,3.7,0,0,0,.14.92c.08.28.25.48.47.5a1,1,0,0,0,.56-.11,1,1,0,0,0,.2-.1.84.84,0,0,1-.17.16,1,1,0,0,1-.6.25.66.66,0,0,1-.45-.16,1.07,1.07,0,0,1-.31-.42,3.26,3.26,0,0,1-.21-1,3.88,3.88,0,0,1,.08-1,2.59,2.59,0,0,1,.33-.84,2.22,2.22,0,0,1,.41-.49A.79.79,0,0,1,314.4,120.89Z"/><path class="cls-23" d="M305,109.08a3.21,3.21,0,0,0,1.63,3.42c.42.21.9.33,1.34.52a4.14,4.14,0,0,1,2.24,2.5,8.06,8.06,0,0,0,.51,1.6,19.8,19.8,0,0,1,.93,1.84,11.7,11.7,0,0,1,.87,2.44,37.3,37.3,0,0,0,2.2-3.89,4.29,4.29,0,0,0-.05-2.53,13,13,0,0,0-.52-1.82c-.23-.59-.56-1.13-.79-1.71-.73-1.85-.49-4-1.14-5.82a2.89,2.89,0,0,0-.71-1.22,3.22,3.22,0,0,0-2.43-.61,10,10,0,0,0-2.48.48"/><path class="cls-14" d="M301.76,133a.21.21,0,0,0,.13,0c.37-.31,1.59-1.34,1.58-2s-1.89-3.49-2.44-4.38c-.08-.13-.18-.27-.26-.22s-.07.19,0,.32a21.62,21.62,0,0,1,2.14,4.28c0,.3-.71,1.07-1.38,1.61a.27.27,0,0,0,0,.39A.27.27,0,0,0,301.76,133Z"/><path class="cls-14" d="M306,135.78a15.2,15.2,0,0,1-3.55,1.31c-1.71.36-3.52.18-3.63.32-.23.29,1.6,1.18,4.34.51C305.53,137.35,306.63,135.66,306,135.78Z"/><path class="cls-24" d="M380.33,318.11c-.08.34-.15.7-.23,1.05a66.56,66.56,0,0,1-2.44,8.26c-.15.42-.32.84-.49,1.26-.48,1.28-1,2.6-1.61,3.94a42.13,42.13,0,0,1-9.16,3.81c-.4.13-.82.25-1.24.36a61,61,0,0,1-11,2l-.46,0-.67.06c-3.64.27-7,.37-10.13.34h-1.14c-2.68,0-5.2-.19-7.6-.4-.38,0-.75-.06-1.12-.11-2.57-.24-5-.56-7.36-.91-.37-.07-.73-.12-1.08-.17-2.28-.36-4.49-.75-6.68-1.13l-.23-.05-.71-.11-.12,0c-2.17-.38-4.32-.76-6.49-1.08L309.2,335c-3.23-.46-6.54-.81-10.07-1l-1.19,0c-2.49-.06-5.1,0-7.86.14-2.45.15-4.79.35-7.06.58-.44.06-.88.1-1.32.14-5.39.61-10.22,1.41-14.33,2.24l-1.05.22c-3.51.73-6.46,1.47-8.79,2.13l-1,.29c-3.21.91-4.95,1.57-4.95,1.57s-1.47-2.15-3.45-5.54l-.56-1a107.85,107.85,0,0,1-6.13-12.36l-.42-1a51.77,51.77,0,0,1-3.08-10.7,1.16,1.16,0,0,1,0-.18c0-.28-.08-.56-.12-.82,0,0,0-.06,0-.09a24.65,24.65,0,0,1,1.74-11.34c.14-.38.29-.77.44-1.16A134.22,134.22,0,0,1,246,284.69l.49-.92.66-1.25c.11-.23.22-.44.34-.67a9.08,9.08,0,0,0,.95-4.17,2,2,0,0,0,0-.22c-.08-.29-.15-.57-.2-.83a6,6,0,0,1,.24-3.67,2.11,2.11,0,0,1,.16-.34,1.59,1.59,0,0,1,.13-.22,1.3,1.3,0,0,1,.17-.26,2,2,0,0,1,.25-.31l0,0h0c.75-.87,1.6-1.25,1.6-1.65,0-.66-.65-1.33-1.22-2.23-.08-.12-.15-.25-.23-.38s-.18-.32-.26-.49l0-.12a2,2,0,0,1-.15-.77,2.45,2.45,0,0,1,.65-1.58,23,23,0,0,1-2.32-5c-.13-.34-.23-.71-.34-1.08a39.76,39.76,0,0,1-1.42-12.21v0l0-1.06c.08-3.54.21-7.33.35-11.11,0-.36,0-.72,0-1.09.12-2.78.23-5.55.36-8.21,0-.37,0-.73.05-1.09.13-2.64.24-5.14.36-7.44,0-.37.05-.73.07-1.08.08-1.8.17-3.44.24-4.88,0-.13,0-.26,0-.38s0-.48.06-.72a5.74,5.74,0,0,1,.09-.71,19.68,19.68,0,0,1,4.55-9.95l.35-.4c.43-.49.88-1,1.36-1.51a68.49,68.49,0,0,1,6.82-6.53c.42-.35.86-.7,1.3-1a42.9,42.9,0,0,1,8.53-5.3l.16-.07,1-.42a25.93,25.93,0,0,1,8.92-2.08l1.15,0c.37,0,.73,0,1.09,0,1.54.1,2.95.24,4.25.41.37,0,.74.1,1.08.15a38.22,38.22,0,0,1,10.38,3.08l1,.48c4.07,2,7.31,4.13,12.77,5.31l1,.21c1.18.21,2.46.38,3.86.5q3,.25,5.91.33l1.29,0c3.26,0,6.32-.07,9.16-.29.38,0,.76-.06,1.13-.09h0a93.32,93.32,0,0,0,11.08-1.69c.36-.06.7-.15,1.05-.23,3.21-.73,5.87-1.51,7.93-2.17l1-.33a20.15,20.15,0,0,1,4-1.15c3.37.32,5.64,3.31,7.2,7.76,0,0,0,0,0,.06.12.33.24.68.33,1a66,66,0,0,1,2.34,12.88c0,.36.08.72.11,1.09.33,3.43.53,7,.69,10.36,0,.37,0,.74,0,1.09.15,3.5.26,6.83.4,9.71,0,.4,0,.8.05,1.2s0,.73.05,1.1c.11,2.89.19,5.86.19,8.8,0,.76,0,1.51,0,2.26,0,.34,0,.65,0,1v.11a103.17,103.17,0,0,1-1,12.92c0,.11,0,.21-.05.32s-.09.52-.13.77c-.18,1.07-.38,2.1-.62,3.06a.19.19,0,0,1,0,.08c-.06.29-.14.58-.21.86a15.47,15.47,0,0,0-.26,3.78,4.67,4.67,0,0,0,0,.52v.08c0,.18,0,.34.05.5a9.11,9.11,0,0,0,.26,1.25c.5,1.51.83,1.58,1.07,3.15a13.5,13.5,0,0,1,0,1.8,5.25,5.25,0,0,0,0,.56,1.59,1.59,0,0,0,.06.3,1.42,1.42,0,0,0,.05.22,11.69,11.69,0,0,0,2.11,3.52l0,.05c.11.16.23.32.33.48s.22.38.31.56a4.46,4.46,0,0,1,.37.87,4.39,4.39,0,0,1,.22,1.65v.25c0,.13,0,.27,0,.4a2,2,0,0,0,.07.42,4.92,4.92,0,0,0,.63,1.66,57.44,57.44,0,0,1,4.6,9.58.06.06,0,0,1,0,0c.12.28.21.56.3.84l.06.2a39.15,39.15,0,0,1,2.07,10.41c0,.08,0,.18,0,.28a1,1,0,0,1,0,.18,3.19,3.19,0,0,1,0,.54c0,.1,0,.21,0,.32A47,47,0,0,1,380.33,318.11Z"/><path class="cls-25" d="M313.72,191a9,9,0,0,1,3.34,2.62c.94,1.53,5.31,3.77,7.76,4.15h.54a3.56,3.56,0,0,1,3.1,2.3s.16.35.17.36a14.35,14.35,0,0,0,1.71,3.38c.78.94,1.43.89,1.66.47a18.32,18.32,0,0,0,.4-3s1,2.06,1.55,3,.81,1.43,1.37,1.66,1.23-.2,1.45-1.12a4.33,4.33,0,0,0,1,1.84c.74.67,1,.89,1.34.89s.58-.65.58-.65l.39-2.13a4.58,4.58,0,0,0,1.52,1,2,2,0,0,0,1.46,0,6.2,6.2,0,0,0,.11-1.26l-5-6.05-8.87-5.74S320.12,190.67,313.72,191Z"/><path class="cls-26" d="M367.33,282.27a42.46,42.46,0,0,1,1.81,10.13c0,.48,0,1,0,1.45l-12.41.08c-.6-3.48-1.29-7-1.91-10.5v0A95.68,95.68,0,0,1,367.33,282.27ZM348,304c2.07,0,4.16,0,6.26.16,1,.07,1.95.14,2.92.23.07,1,.13,1.93.15,2.88a86.16,86.16,0,0,1-.39,9.79c-3.07.09-6.15.22-9.22.4.14-1.39.25-2.78.33-4.18A79.75,79.75,0,0,0,348,304Zm8.8-.72c-3-.26-5.92-.34-8.87-.33-.18-2.61-.44-5.19-.74-7.79h.56l8.18-.07c.5,2.72.91,5.46,1.17,8.22Zm-16.58,1c2.26-.15,4.51-.25,6.77-.28.09,1.44.13,2.89.13,4.34a90.64,90.64,0,0,1-.5,9.19l-4.59.33C342.28,313.28,341,308.7,340.21,304.26Zm-21.73,2.6c3.78-.56,7.56-1.1,11.35-1.58,0,.43.06.88.07,1.31a75.29,75.29,0,0,1-.54,12.29c-3.52.31-7.05.62-10.57.87A128.85,128.85,0,0,0,318.48,306.86Zm11-11.57,8.29-.06c.14,1,.25,2,.42,3,.25,1.68.57,3.35.89,5-2.75.21-5.48.49-8.22.81-.11-1.56-.26-3.12-.5-4.67A40.56,40.56,0,0,0,329.44,295.29Zm-73.88-28a77.92,77.92,0,0,1,8.51-.35,26.17,26.17,0,0,1,.47,4.05c0,.25,0,.49,0,.72-1.08-.17-2.16-.3-3.26-.37a53.09,53.09,0,0,0-5.64,0A14.21,14.21,0,0,0,255.56,267.25ZM338.62,294q-.53-3.67-.93-7.37l-.09-1c2.42-.15,4.84-.41,7.31-.75.32,3,.73,6,1.11,9.05Zm7.54,1.12c.31,2.59.58,5.18.76,7.79-2.29,0-4.59.13-6.88.29q-.69-4-1.26-8ZM317.6,245c0,.31.09.61.13.91-4.24.21-8.49.33-12.72.14-1.16-3.63-2.19-7.3-3.06-11a92.15,92.15,0,0,0,15.19-.74A86.8,86.8,0,0,0,317.6,245Zm21.14,10.15c-.9,0-1.8,0-2.69,0q-.14-4.54-.33-9.08c1.71,0,3.42-.05,5.13,0,1.37,0,2.72.08,4.09.13.27,3.07.46,6.14.49,9.22Q342.1,255.14,338.74,255.12Zm6.7,1.36c0,1.88-.06,3.76-.21,5.64-.07.77-.13,1.53-.21,2.3-2.39-.22-4.81-.21-7.23-.22H336.3c-.08-2.66-.15-5.32-.22-8,.88,0,1.77-.06,2.66-.05C341,256.2,343.21,256.31,345.44,256.48Zm-9.76-11.33c-.17-3.73-.4-7.45-.73-11.17a64.68,64.68,0,0,0,8.92,1.34c.37,3.28.68,6.56,1,9.85Q340.25,245.1,335.68,245.15ZM276,279c.18-1.28.32-2.57.41-3.86l.28,0a66,66,0,0,0,11.51.35c0,1-.05,2.08-.1,3.13C284.11,278.91,280.07,279.05,276,279Zm12,.71c-.06,1.34-.16,2.68-.25,4-4.15-.24-8.27-.62-12.42-1.07.18-.86.33-1.72.47-2.58C280,280.12,284,280,288.08,279.69ZM320.51,260c.44,1.79.78,3.56,1.05,5.34-3.26.63-6.44,1.55-9.64,2.43a44.52,44.52,0,0,0-1.57-6.82c-.31-1-.66-1.93-1-2.88a89.31,89.31,0,0,0,10.59-.43Zm-1.56-13c5.22-.28,10.45-.65,15.69-.81.05,1.51.1,3,.14,4.54s.06,3,.1,4.56c-4.71.22-9.43.8-14.13,1.24-.29-1.16-.56-2.34-.81-3.52C319.52,250.93,319.21,248.93,319,246.91Zm2.77,19.47c.19,1.33.34,2.68.49,4a92.5,92.5,0,0,1-9.68,2.83c-.13-1.51-.28-3-.47-4.48,2.49-.68,5-1.38,7.48-1.95C320.26,266.62,321,266.51,321.72,266.38Zm-32.43,9.09c1.42-.06,2.84-.13,4.26-.17,2.76-.1,5.54-.14,8.3-.22.1.79.18,1.6.24,2.4-4.31.37-8.61.78-12.93,1.08C289.23,277.54,289.27,276.51,289.29,275.47Zm-.08-4.52a50.13,50.13,0,0,0,7,.57,38,38,0,0,0,5-.35c.18.94.35,1.88.46,2.84-2.72.07-5.45.12-8.17.21l-4.24.18C289.31,273.23,289.28,272.09,289.21,271Zm10.42,7.82c.84-.08,1.7-.14,2.55-.2.13,1.77.2,3.54.28,5.3-1.38,0-2.77,0-4.16.05-3.21.07-6.37,0-9.54-.16.12-1.37.24-2.75.34-4.13C292.61,279.38,296.12,279.07,299.63,278.77ZM302.3,271a82.79,82.79,0,0,0,8.76-2c.08.58.15,1.16.2,1.74.09.88.15,1.75.23,2.63-.39.05-.78.12-1.17.16-2.5.22-5,.34-7.52.42C302.67,273,302.5,272,302.3,271Zm8.6-3a76.44,76.44,0,0,1-8.82,2,96.19,96.19,0,0,0-4-12.33,71,71,0,0,1,8.25.2c.64.05,1.29.1,1.92.13A61.22,61.22,0,0,1,310.9,268Zm-4.55-11.22a75.69,75.69,0,0,0-8.65-.19c-1.3-3.44-2.6-6.9-3.57-10.44a3.59,3.59,0,0,1-.08-.35,75.28,75.28,0,0,0,10.26,1.27c1.15,3.28,2.43,6.53,3.58,9.81C307.38,256.86,306.87,256.83,306.35,256.78Zm-10.24-.91c.08.26.18.52.28.76-3.55.15-7.09.48-10.64.8-1.38-3-3-5.82-4.51-8.73a56.13,56.13,0,0,1-2.53-5.48,123.58,123.58,0,0,1,14.15,2.37C293.8,249.05,294.87,252.5,296.11,255.87Zm.67,1.83a87.86,87.86,0,0,1,4.28,12.44l-1.4.17a44.23,44.23,0,0,1-10.54-.46,35,35,0,0,0-2.17-9.63c-.23-.59-.5-1.17-.75-1.76C289.73,258.14,293.25,257.84,296.78,257.7Zm-8.6,13.74c0,1,.06,2,.07,3a65,65,0,0,1-11.76-.39c0-.88,0-1.77,0-2.66a26.56,26.56,0,0,0-.29-3c4,.82,7.92,1.75,11.92,2.39C288.14,271,288.17,271.22,288.18,271.44Zm.12,18.43c.1-1.67.23-3.33.38-5,2,.13,4,.2,6,.19l7.85-.11c0,.67.07,1.33.1,2,.13,2.5.3,5,.5,7.46-5,.09-9.94.17-14.92.29C288.17,293.09,288.2,291.48,288.3,289.87ZM302.93,275c2.47-.07,4.93-.18,7.39-.41.42,0,.84-.09,1.26-.16.05.73.11,1.46.18,2.18l-8.57.74C303.11,276.6,303,275.82,302.93,275Zm8.94,2.84a55.77,55.77,0,0,0,.91,6.12q-4.51-.15-9-.13c-.13-1.8-.26-3.58-.43-5.37C306.14,278.29,309,278.12,311.87,277.87Zm.77-3.13,0-.44a86.12,86.12,0,0,0,9.71-2.8c.13,1.19.25,2.38.37,3.58a52.52,52.52,0,0,1-6.71,1.17c-1.06.11-2.11.19-3.18.29C312.75,276,312.68,275.34,312.64,274.74ZM321,257.49c4.63-.44,9.25-1,13.9-1.21.06,2.64.12,5.28.21,7.92a83.24,83.24,0,0,0-10.82.64l-1.56.23C322.28,262.52,321.63,260,321,257.49Zm12.1,7.8,2.05,0c0,1.27.09,2.54.14,3.81a35.55,35.55,0,0,0-8.92.31c-1,.18-2,.43-3,.7-.09-.85-.18-1.7-.28-2.55-.07-.47-.13-.92-.21-1.38A73.59,73.59,0,0,1,333.11,265.29Zm-8.39,5.53a32.82,32.82,0,0,1,10.64-.68c0,.58.05,1.14.08,1.71a32.45,32.45,0,0,0-6,1.32c-1.88.59-3.72,1.14-5.57,1.61-.13-1.2-.24-2.41-.35-3.62Zm10.11-38c-.37-3.87-.86-7.75-1.53-11.6-.1-.61-.2-1.21-.32-1.82,2.59,0,5.18.09,7.77.14h.86c.88,4.82,1.57,9.7,2.13,14.57C340.75,233.84,337.79,233.29,334.83,232.84Zm-.24,12.33c-4.09.06-8.19.2-12.31.46-1.16.07-2.32.14-3.47.19a84,84,0,0,1-.62-10c0-.56,0-1.11,0-1.66.61-.08,1.21-.17,1.82-.27a39.08,39.08,0,0,1,13.81-.07Q334.36,239.46,334.59,245.17Zm-14.9,11.37a89.58,89.58,0,0,1-10.73.39c-1.2-3.27-2.5-6.51-3.6-9.81,1,0,2,.08,3.05.09,3.17,0,6.32-.08,9.46-.24C318.31,250.2,319,253.37,319.69,256.54Zm-17.18-15c.42,1.48.91,3,1.41,4.44a65.8,65.8,0,0,1-8.61-1l-1.56-.29q-1.37-5.21-2.33-10.52l3.33.37q3.08.33,6.08.45C301.35,237.16,301.9,239.34,302.51,241.51Zm-10.64.14c.23.93.47,1.87.7,2.81-4.78-.91-9.45-1.77-14.22-2.21a29.45,29.45,0,0,1-1.83-8.6l0-.87c4.62.23,9.22.74,13.81,1.26C290.77,236.58,291.28,239.12,291.87,241.65Zm-14.22,1.94c1.71,4.25,4.08,8.18,6.15,12.26.28.57.55,1.13.81,1.69-3.48.32-6.95.64-10.42.82l-1,0c-.32-.74-.65-1.49-1-2.22a73.93,73.93,0,0,1-5.16-13,84.81,84.81,0,0,1,9.16-.15c.43,0,.85,0,1.27.07C277.54,243.28,277.6,243.43,277.65,243.59Zm-3.46,15.84c3.62-.17,7.24-.51,10.87-.86a37.16,37.16,0,0,1,3,11.12c-4-.65-8-1.62-12-2.44a40.57,40.57,0,0,0-2.38-7.8Zm1.23,14.45c-3.3-.57-6.53-1.44-9.81-2a29.7,29.7,0,0,0-.47-4.91,53.47,53.47,0,0,1,7.62.77c.79.14,1.58.29,2.36.45A31.11,31.11,0,0,1,275.42,273.88Zm-9.9.25c0-.4.05-.8.06-1.2,3.28.6,6.5,1.47,9.79,2-.09,1.34-.23,2.68-.42,4h-.69c-3.13-.11-6.24-.36-9.34-.73A37.31,37.31,0,0,0,265.52,274.13Zm9.72,9.42c4.18.47,8.36,1,12.51,1.26-.25,3.3-.48,6.6-.52,9.9q-7.29.17-14.59.4c.56-2.69,1.22-5.36,1.83-8C274.73,285.91,275,284.73,275.24,283.55Zm12,12.28a50.25,50.25,0,0,0,.54,7.52c.27,1.78.62,3.56,1,5.31-2.94,0-5.87-.09-8.79-.36s-5.77-.69-8.66-1.09a29.78,29.78,0,0,1,0-3,55.59,55.59,0,0,1,1.08-8Q279.82,296,287.23,295.83Zm1,0,3.59-.08,11.42-.17c.19,2.33.41,4.64.66,7,.18,1.72.38,3.43.6,5.14-3.13.36-6.27.65-9.41.83-1.71.1-3.43.14-5.15.16-.17-.73-.35-1.46-.5-2.2A62.83,62.83,0,0,1,288.2,295.81Zm15.59-10.88c3.07,0,6.13-.05,9.2,0,.74,3.12,1.63,6.18,2.41,9.28-3.68,0-7.37.08-11,.15C304.16,291.23,304,288.08,303.79,284.93Zm9.16-7.15a73.44,73.44,0,0,0,9.87-1.52,39.84,39.84,0,0,0,2,8.43h-.15c-3.57-.31-7.1-.51-10.63-.64C313.6,282,313.22,279.89,313,277.78ZM324,276c.53-.14,1.06-.26,1.59-.41a79.92,79.92,0,0,1,9.92-2.76c.19,3.42.43,6.82.75,10.22.05.57.13,1.13.18,1.7a76.88,76.88,0,0,1-10.52.05l-.22-.61A37.43,37.43,0,0,1,324,276Zm12.36-10.73a76.68,76.68,0,0,1,8.59.24c-.15,1.64-.29,3.27-.41,4.92-1.35-.25-2.7-.48-4-.7s-2.66-.37-4-.52C336.43,267.85,336.38,266.54,336.34,265.22Zm5.83,5.83,2.27.42,0,.42a36.44,36.44,0,0,0-7.81-.17c0-.49-.06-1-.08-1.47C338.41,270.45,340.3,270.73,342.17,271.05Zm-4,1.44a32.8,32.8,0,0,1,6.18.38c-.08,1.67-.1,3.34,0,5,.08,2,.25,4,.46,5.93-2.45.32-4.87.6-7.31.79-.39-4-.66-8-.85-12C337.14,272.56,337.66,272.51,338.19,272.49Zm7.47,9a69.87,69.87,0,0,1-.18-8.43c1.69.29,3.36.68,5,1.11l2.31.62c0,1.09.09,2.17.21,3.25.15,1.5.37,3,.59,4.47l-2.16.34c-1.86.29-3.71.57-5.57.83C345.79,283,345.71,282.21,345.66,281.48Zm7.09-8.53c0,.24,0,.48,0,.72l-1.13-.32a54.92,54.92,0,0,0-6.12-1.3c0-.13,0-.26,0-.38C347.93,272.11,350.34,272.57,352.75,273Zm-7.17-2.37c.09-1.68.2-3.36.31-5,2.46.29,4.73.93,7.05,1.42-.09,1.63-.15,3.28-.17,4.92C350.36,271.49,348,271,345.58,270.58Zm7.57-7.54c0,1-.1,1.93-.16,2.88-1.07-.18-2.17-.42-3.31-.72a26.45,26.45,0,0,0-3.72-.69c.17-2.64.35-5.29.42-7.95,2.29.18,4.58.41,6.87.64C353.26,259.14,353.25,261.09,353.15,263Zm-6.74-7.56c0-2.12,0-4.25-.16-6.38-.07-1-.15-1.92-.22-2.88,2.25.07,4.49.11,6.74.06,0,.44.05.89.08,1.33.2,2.84.34,5.68.39,8.52C351,255.89,348.69,255.66,346.41,255.48Zm1.8-10.28-2.27,0c-.27-3.27-.58-6.55-.95-9.81.5,0,1,.07,1.5.08,1.83,0,3.66-.07,5.48-.2.26,3.3.49,6.6.72,9.91C351.2,245.21,349.72,245.23,348.21,245.2Zm.29-10.84c-1.21,0-2.43,0-3.64-.12-.57-4.91-1.27-9.81-2.14-14.66l7.8.13q.8,7.23,1.36,14.49C350.76,234.28,349.63,234.34,348.5,234.36Zm-6-15.86c-.53-2.82-1.13-5.64-1.83-8.42,2.86.09,5.73,0,8.59-.14.42,2.9.78,5.78,1.12,8.69Zm-1.11,0-1.2,0c-2.47,0-4.95-.1-7.43-.13-.54-3-1.16-6-1.9-9.07q3.92.54,7.88.75c.27,0,.54,0,.81,0C340.27,212.84,340.87,215.65,341.41,218.49Zm-9.73-.15c-2.59,0-5.18,0-7.76.21-1.47.11-2.92.27-4.39.45.18-4.51-1.11-8.63-2.79-12.78,2.25.62,4.49,1.27,6.76,1.75,2.05.45,4.11.81,6.17,1.12C330.45,212.17,331.08,215.28,331.68,218.34Zm-6.77,1.23c2.32-.13,4.64-.16,7-.15.82,4.4,1.42,8.82,1.85,13.26a38.74,38.74,0,0,0-10.27-.39c-1.74.2-3.47.48-5.2.76.23-4.34.87-8.62,1.22-13C321.29,219.88,323.09,219.67,324.91,219.57Zm-7.54,9.56c-.11,1.36-.17,2.73-.22,4.1-2.13.33-4.27.66-6.44.8a72.89,72.89,0,0,1-9,0c-1-4.36-1.79-8.76-2.36-13.19,3.32.14,6.65.3,10,.23a85.53,85.53,0,0,0,9-.83C318.15,223.19,317.6,226.17,317.37,229.13ZM300.61,234c-1.1-.07-2.19-.16-3.29-.27-2-.18-4.06-.41-6.09-.63q-1.07-6.18-1.72-12.4c1.12,0,2.23,0,3.35,0,1.81,0,3.61.07,5.42.14Q299.14,227.41,300.61,234Zm-10.49-1c-4.55-.53-9.1-1.06-13.66-1.29-.08-3.45.06-6.92.19-10.37,3.92-.29,7.84-.5,11.77-.59C288.86,224.78,289.41,228.86,290.12,232.93Zm-13,9.2a66.09,66.09,0,0,0-6.63-.17c-1.22,0-2.45.11-3.68.18a26.7,26.7,0,0,1-.61-4,52.22,52.22,0,0,1-.09-5.31l1.77-.09c2.54-.11,5.06-.07,7.58,0A34.09,34.09,0,0,0,277.12,242.13Zm-1.3-30.24c-.06,2.79-.14,5.59-.2,8.38l-.54,0c-2.67.21-5.33.47-8,.75,0-.27.06-.54.08-.79.29-2.75.59-5.48.9-8.22,2.41-.63,4.82-1.31,7.21-2l.6-.19C275.87,210.51,275.84,211.2,275.82,211.89Zm-.22,9.46q-.11,3.84-.18,7.66c0,.87,0,1.73,0,2.58-1.48-.05-3-.09-4.45-.07s-3.22.07-4.84.14c.15-3.18.5-6.35.84-9.51Q271.29,221.7,275.6,221.35Zm-9.08-5c-.17,1.61-.35,3.22-.54,4.82-3.31.37-6.63.78-9.93,1.2.2-2.6.48-5.19.84-7.79,3.38-.65,6.75-1.41,10.08-2.26Zm-.65,5.91c-.34,3.16-.61,6.31-.7,9.43-3.13.14-6.27.33-9.4.55-.05-1.34-.06-2.67,0-4,0-1.59.11-3.18.22-4.78C259.26,223,262.56,222.64,265.87,222.27Zm-.72,10.56a48.6,48.6,0,0,0,.74,9.4c-2.95.22-5.89.57-8.82,1a58.1,58.1,0,0,1-1.26-9.84C258.92,233.17,262,233,265.15,232.83Zm.94,10.44a35.75,35.75,0,0,0,2.13,6.84c1.21,2.8,2.6,5.53,3.85,8.32q-4.72.21-9.43.25c-1.72-4.32-3.74-8.52-5-13-.13-.46-.25-.92-.35-1.4C260.23,243.83,263.16,243.5,266.09,243.27Zm6.43,16.23a38.36,38.36,0,0,1,2.39,7.31l0,.22-1.88-.34a55.15,55.15,0,0,0-8.14-.81,41.4,41.4,0,0,0-1.67-5.65c-.07-.15-.13-.31-.2-.47C266.21,259.71,269.36,259.64,272.52,259.5Zm-7.84,19.8q3.76.43,7.55.64c.85,0,1.71.07,2.56.09-.13.84-.28,1.67-.44,2.5l-2.42-.26c-2.6-.29-5.22-.55-7.83-.71C264.31,280.8,264.51,280.05,264.68,279.3Zm9.48,4.12-.24,1.22c-.76,3.46-1.64,7-2.35,10.5l-5.24.16c-2.38.09-4.76.16-7.15.24,1.05-3,2.23-5.89,3.24-8.74.5-1.42,1-2.85,1.41-4.3C267.26,282.69,270.71,283,274.16,283.42Zm-10,13c2.38-.09,4.77-.15,7.14-.23a52.41,52.41,0,0,0-1.05,10.84c-1.79-.24-3.59-.45-5.38-.59a68.91,68.91,0,0,0-8.5-.15,47.34,47.34,0,0,1,2.37-9.68Zm-1.72,11c2.63.11,5.25.4,7.85.75a28.84,28.84,0,0,0,1.64,8.28c.44,1.2.95,2.38,1.48,3.54-1.28,0-2.57-.08-3.85-.1-3.68-.06-7.36-.06-11,.05a26.7,26.7,0,0,1-1.87-5.51,24.61,24.61,0,0,1-.4-7C258.37,307.34,260.43,307.31,262.49,307.41Zm8.94.9c2.19.29,4.37.6,6.57.85a94.73,94.73,0,0,0,11,.59,105,105,0,0,0,3.33,10.79c-5.9-.13-11.79-.37-17.69-.53A35.32,35.32,0,0,1,271.43,308.31Zm18.73,1.42c1,0,1.93,0,2.89-.06,3.86-.17,7.72-.5,11.56-.94.51,3.92,1.08,7.83,1.74,11.72-2.17.09-4.36.14-6.53.15s-4.19,0-6.28-.06A101.75,101.75,0,0,1,290.16,309.73Zm15.07-4.62c-.37-3.17-.61-6.37-.81-9.56l11.26-.13c.38,1.63.73,3.26,1,4.93.29,1.87.5,3.73.67,5.59-3.92.57-7.85,1.13-11.79,1.59C305.45,306.73,305.32,305.92,305.23,305.11Zm11.18-10.88c-.72-3.08-1.5-6.15-2.18-9.24,2.29.08,4.56.21,6.84.42,1.38.14,2.75.24,4.11.31.52,1.48,1.07,3,1.62,4.46.47,1.3.89,2.62,1.25,3.94C324.17,294.15,320.29,294.18,316.41,294.23Zm9.85-8.44a100.68,100.68,0,0,0,10.28,0q.45,4.14,1,8.27l-8.45.07C328.28,291.3,327.26,288.56,326.26,285.79Zm4.63,28.46a76.57,76.57,0,0,0,0-9.09c2.78-.34,5.55-.63,8.34-.83.64,3.25,1.28,6.51,1.62,9.78a18.57,18.57,0,0,1,0,3.8c-3.47.27-6.95.57-10.41.87C330.63,317.29,330.79,315.77,330.89,314.25ZM347.05,294c-.37-3.07-.74-6.12-1.08-9.21,2.6-.39,5.2-.82,7.8-1.21.58,3.47,1.3,6.91,2,10.37Zm19.05-15.72c.33,1,.64,2,.93,3a100.5,100.5,0,0,0-12.34,1.12,64.86,64.86,0,0,1-.66-7.2C358,276.29,362,277.52,366.1,278.27Zm-1.29-4.13c.29,1,.61,2,.92,3-4-.77-7.84-2-11.74-3.09,0-.29,0-.57,0-.86,1.14.17,2.29.32,3.45.44C359.87,273.86,362.35,274,364.81,274.14Zm-.3-1.1c-2.37-.12-4.74-.27-7.09-.53-1.16-.12-2.31-.28-3.46-.45,0-1.62,0-3.26.07-4.89a20.49,20.49,0,0,0,4.87.36c1.48-.1,2.94-.26,4.41-.39A40.86,40.86,0,0,0,364.51,273Zm-1.32-7-1,.08a35.36,35.36,0,0,1-8.11-.07c.08-2.93.19-5.85.22-8.79,3,.31,6,.59,9,.75-.15,2.09-.24,4.18-.19,6.27C363.1,264.9,363.13,265.49,363.19,266.08Zm.71-17.33c-.08,2.75-.34,5.49-.55,8.24-3-.16-6.05-.45-9.08-.77,0-1.62,0-3.25-.12-4.87s-.19-3.4-.3-5.12c1.26,0,2.53-.14,3.79-.28,2.11-.24,4.2-.61,6.29-.95C363.93,246.24,363.92,247.5,363.9,248.75Zm0-4.86-1.88.32a70.08,70.08,0,0,1-8.24.89c-.22-3.31-.46-6.62-.74-9.93a94.75,94.75,0,0,0,10.32-1.53C363.67,237,363.87,240.46,363.91,243.89Zm-.63-11.34A92.39,92.39,0,0,1,353,234.09c-.39-4.44-.8-8.86-1.27-13.28,0-.36-.09-.73-.13-1.09l10,.16Q362.66,226.2,363.28,232.55Zm-1.87-13.75-10-.16c-.32-2.92-.7-5.84-1.11-8.75,1.56-.11,3.11-.25,4.67-.43s3-.38,4.52-.55C360.2,212.19,360.84,215.5,361.41,218.8Zm-5-23.43q1.53,6.18,2.88,12.41c-3,.33-6.07.77-9.09,1q-.84-5.7-2-11.35C351,196.72,353.66,196,356.39,195.37Zm-18.32,4.19a56.66,56.66,0,0,0,9.12-1.83q1.1,5.57,1.93,11.17c-.57,0-1.15.07-1.72.09-2.33.1-4.66.1-7,0q-1.23-4.77-2.83-9.4C337.75,199.59,337.91,199.59,338.07,199.56Zm-1.59.12q1.59,4.57,2.82,9.27-4.38-.19-8.71-.81a75.84,75.84,0,0,0-2.76-8.62A50,50,0,0,0,336.48,199.68Zm-21.59-3.27a50.75,50.75,0,0,0,11.7,3,74.71,74.71,0,0,1,2.79,8.58c-2.71-.42-5.4-.94-8.06-1.59-1.7-.42-3.38-.91-5.07-1.38a44.74,44.74,0,0,1-3.11-9.34C313.72,195.91,314.3,196.17,314.89,196.41Zm-16-8.45c4.52,1.91,8.71,4.94,13.11,7.15a39.37,39.37,0,0,0,3,9.52c-1.76-.46-3.52-.9-5.32-1.19a41.72,41.72,0,0,0-11.49-.22A146.65,146.65,0,0,1,298.87,188Zm8.66,16.27a50.94,50.94,0,0,1,7.93,1.63,48.68,48.68,0,0,1,2.55,7.43,21.69,21.69,0,0,1,.43,5.84,88.85,88.85,0,0,1-10.17.86c-3,0-6-.13-9-.25-.13-1.05-.25-2.09-.36-3.13-.41-4.09-.63-8.21-.7-12.32A43.15,43.15,0,0,1,307.53,204.23Zm-9.39,15.47c-2.11-.08-4.21-.15-6.32-.14-.82,0-1.63,0-2.43,0-.12-1.19-.24-2.37-.34-3.57-.28-3.28-.49-6.57-.66-9.87a72.71,72.71,0,0,1,8.72-1.74A147.39,147.39,0,0,0,298.14,219.7Zm-6.06-33.55a21,21,0,0,1,5.76,1.39,141.56,141.56,0,0,0-.73,15.81,72.07,72.07,0,0,0-8.78,1.72c-.31-6.28-.46-12.56-.58-18.84A22.29,22.29,0,0,1,292.08,186.15Zm-3.78,33.46q-5.82.13-11.62.58c0-1,.07-2,.1-2.94q.08-3.9.22-7.76c3.4-1.06,6.83-2.14,10.31-3.07C287.55,210.82,287.86,215.23,288.3,219.61Zm-9-31a29.6,29.6,0,0,1,7.41-2.23c.1,6.31.25,12.66.57,19-3.43.9-6.83,2-10.22,3A114.66,114.66,0,0,1,279.28,188.6Zm-9.13,5.18a64.48,64.48,0,0,1,7.88-4.59,113.75,113.75,0,0,0-2.11,19.5l-1.87.57c-1.94.6-3.89,1.13-5.85,1.65Q269.18,202.36,270.15,193.78Zm-11,7.7c2.75-1.93,5.49-3.86,8.25-5.78.54-.38,1.09-.75,1.64-1.12L267.1,211.2c-3.34.86-6.68,1.62-10.06,2.27C257.62,209.47,258.33,205.46,259.1,201.48Zm-7.41,5.19,6.2-4.34c-.71,3.78-1.37,7.56-1.91,11.36-1.86.34-3.72.67-5.6.95C250.78,212,251.22,209.33,251.69,206.67Zm-1.47,9.06c1.87-.28,3.75-.59,5.61-.93-.34,2.57-.65,5.14-.86,7.72l-5.7.76C249.53,220.76,249.86,218.24,250.22,215.73Zm-1.59,16.52c.08-2.64.29-5.25.54-7.88l5.72-.77a79.62,79.62,0,0,0-.13,8.72l-6.14.47C248.62,232.6,248.63,232.42,248.63,232.25Zm0,1.64c2.07-.16,4.15-.3,6.23-.45a64.43,64.43,0,0,0,1.37,9.9c-2.38.35-4.76.75-7.13,1.18A80.31,80.31,0,0,1,248.6,233.89Zm1.17,15.38c-.23-1.23-.42-2.45-.57-3.68,2.4-.43,4.82-.84,7.23-1.21a65,65,0,0,0,3.31,10.12c.58,1.39,1.17,2.79,1.74,4.19-3,0-6,0-9-.06A54.78,54.78,0,0,1,249.77,249.27Zm3.11,10.44c3,.07,6,.08,9,.06a42.49,42.49,0,0,1,1.93,6.08c-2.83,0-5.65.1-8.48.34a13.53,13.53,0,0,0-.61-1.83C254.1,262.8,253.47,261.25,252.88,259.71Zm2.61,12.63a50.86,50.86,0,0,1,5.79,0c1.1.08,2.17.22,3.25.39a32,32,0,0,1-.68,5.33c-1.86-.23-3.71-.48-5.58-.79-1.28-.2-2.55-.39-3.83-.55C254.86,275.24,255.24,273.78,255.49,272.34Zm-1.34,5.46c1.76.19,3.5.49,5.25.77,1.4.23,2.8.41,4.2.6-.18.77-.37,1.55-.59,2.32a70.26,70.26,0,0,0-9.95.14C253.44,280.35,253.81,279.08,254.15,277.8Zm-4.62,13.69a78,78,0,0,0,3.2-8.78,67.87,67.87,0,0,1,10-.26c-.26.84-.52,1.68-.8,2.51-1.19,3.5-2.64,7-3.9,10.62-3.69.13-7.37.33-11,.67A44.5,44.5,0,0,0,249.53,291.49Zm-7.18,14.75a30.76,30.76,0,0,1,4-8.84c3.76-.36,7.54-.56,11.32-.71a46.44,46.44,0,0,0-2.32,9.7A71,71,0,0,0,242,308.44,18.82,18.82,0,0,1,242.35,306.24Zm-.39,3.35a70.85,70.85,0,0,1,13.27-2.12,26.17,26.17,0,0,0,0,4,25.58,25.58,0,0,0,2.32,8.53c-4.13.14-8.26.43-12.36.91A21,21,0,0,1,242,309.59ZM254.12,333c-2.59-3.79-5.79-7.23-8.31-11.06,4.06-.48,8.14-.74,12.21-.87,1.6,3.33,3.61,6.5,5.38,9.77C260.29,331.43,257.2,332.14,254.12,333Zm18.74-3.84q-4.25.61-8.44,1.46c-1.76-3.2-3.77-6.3-5.36-9.58,5-.13,9.94-.06,14.91.07.6,1.25,1.23,2.47,1.86,3.7s1.22,2.47,1.84,3.73C276.07,328.68,274.47,328.88,272.86,329.12Zm6.11-.76q-1.74-3.15-3.35-6.37l-.42-.89c5.87.17,11.72.41,17.58.52.74,2,1.52,3.91,2.32,5.85C289.73,327.52,284.36,327.8,279,328.36Zm17.31-.91c-.82-1.93-1.61-3.86-2.35-5.81l2.25,0c3.46,0,6.9,0,10.36-.18.35,2.09.73,4.15,1.13,6.23C303.87,327.54,300.07,327.44,296.28,327.45Zm21.08.88c-2.87-.22-5.72-.42-8.57-.56-.42-2.11-.81-4.21-1.19-6.33,3.37-.14,6.73-.35,10.09-.59C317.63,323.35,317.5,325.84,317.36,328.33Zm.36-8.5c-3.43.25-6.85.45-10.29.59-.67-3.93-1.24-7.87-1.74-11.82,3.92-.47,7.83-1,11.74-1.59A124.5,124.5,0,0,1,317.72,319.83Zm.64-14.57a81.7,81.7,0,0,0-1.68-9.85l11.67-.11a54.68,54.68,0,0,1,1.41,8.92l-3.63.47q-3.87.53-7.74,1.1C318.38,305.62,318.37,305.45,318.36,305.26Zm9,24-.66-.07c-2.76-.28-5.5-.52-8.24-.74.14-2.55.27-5.1.34-7.65,3.49-.26,7-.55,10.45-.84A79.8,79.8,0,0,1,327.33,329.23Zm9.45.86c-2.8-.23-5.6-.49-8.38-.75a78.85,78.85,0,0,0,1.91-9.51c3.46-.29,6.93-.59,10.41-.85C340.14,322.89,338.51,326.49,336.78,330.09Zm7.53.48c-2.08-.09-4.18-.23-6.27-.38,1.78-3.61,3.43-7.26,3.9-11.31l4.54-.31A93.72,93.72,0,0,1,344.31,330.57Zm10.53.14c-3.14.08-6.28,0-9.44-.09a97.7,97.7,0,0,0,2.18-12.12c2.29-.14,4.57-.25,6.86-.34l2.38-.06A125.19,125.19,0,0,1,354.84,330.71Zm12.15-1a99.05,99.05,0,0,1-11,.95c.85-4.18,1.52-8.39,2-12.62,3.59-.07,7.16,0,10.74.11A104.12,104.12,0,0,1,367,329.73Zm2.19-22.67c-.05,3.36-.19,6.72-.45,10.07-3.57-.15-7.14-.18-10.71-.11.14-1.56.26-3.12.32-4.68a66.27,66.27,0,0,0-.18-7.87c3.69.35,7.36.85,11,1.28C369.19,306.19,369.19,306.62,369.18,307.06Zm0-2.37c-3.72-.43-7.44-.95-11.16-1.31-.26-2.79-.64-5.56-1.11-8.32l12.27-.12C369.29,298.19,369.27,301.45,369.22,304.69Zm.88,7.78c.1-2.2.14-4.41.17-6.6a102.33,102.33,0,0,0,11.06.72c0-.11,0-.22,0-.33a3.15,3.15,0,0,0,0-.53,1.21,1.21,0,0,0,0-.19,98.41,98.41,0,0,1-11-.72c0-2.53,0-5.05,0-7.58,0-.77,0-1.54,0-2.31l8.93-.08-.06-.19c-.09-.28-.18-.56-.3-.84a.06.06,0,0,0,0,0l-8.59.06a45.87,45.87,0,0,0-1.53-10.93c-.06-.21-.13-.43-.2-.64,1.69,0,3.38.09,5.09.27a2,2,0,0,1-.07-.42c0-.13,0-.27,0-.4v-.25c-1.77-.17-3.54-.25-5.3-.25-.29-.92-.58-1.84-.88-2.75a37.1,37.1,0,0,0,5.59.48c-.09-.18-.2-.38-.31-.56s-.22-.32-.33-.48l0-.06a35.92,35.92,0,0,1-5.29-.54c-.34-1-.67-2.07-1-3.12,1.39.07,2.79.11,4.18.14a1.29,1.29,0,0,1-.05-.21,1.77,1.77,0,0,1-.06-.3,5.4,5.4,0,0,1,0-.56l-4.35-.15c-.39-1.37-.73-2.76-1-4.16-.11-.62-.19-1.26-.27-1.88a26.36,26.36,0,0,1,4.26,0c0-.16,0-.32-.05-.49v-.09a4.36,4.36,0,0,1,0-.51,27.69,27.69,0,0,0-4.27,0,56,56,0,0,1,.13-7.88c1.75.07,3.49.11,5.25.06,0-.24.08-.5.13-.76s0-.22.05-.32c-1.79.05-3.56,0-5.35,0,.11-1.39.22-2.76.31-4.14.16-2.69.23-5.39.21-8.08a53.41,53.41,0,0,1,5.79-.65v-.11c0-.32,0-.64,0-1a51.91,51.91,0,0,0-5.83.62q-.08-5.15-.55-10.29,3.12-.64,6.21-1.4c0-.36,0-.73-.05-1.1-2.07.51-4.16,1-6.25,1.43q-.54-5.57-1.42-11.06l-.24-1.39,7.46.12c0-.36,0-.72,0-1.09-2.53,0-5.07-.07-7.6-.12-.57-3.34-1.22-6.69-1.92-10a44.19,44.19,0,0,1,8.83-.23c0-.36-.07-.73-.11-1.08a47,47,0,0,0-9,.18c-.9-4.18-1.88-8.34-2.89-12.5a32.19,32.19,0,0,1,9.5-.56c-.09-.35-.21-.7-.33-1,0,0,0,0,0-.07a33.5,33.5,0,0,0-9.39.69c-.59-2.44-1.2-4.86-1.82-7.3l-1,.34c.6,2.39,1.19,4.78,1.79,7.18-2.72.6-5.42,1.36-8.13,2.09-.49-2.38-1-4.74-1.59-7.1l-1.05.23q.87,3.57,1.59,7.15c-1.33.34-2.67.67-4,.95a48.8,48.8,0,0,1-5.75.81c-.88-2.44-1.84-4.85-2.91-7.22h0l-1.13.08q1.62,3.57,2.94,7.24a50.06,50.06,0,0,1-8.74-.27,49.09,49.09,0,0,0-3.36-6.68l-1.29,0a45.4,45.4,0,0,1,3.4,6.57A50.57,50.57,0,0,1,316,195.69a31.79,31.79,0,0,1-3.08-1.33,17.45,17.45,0,0,1,0-3.54l-1-.2a16.16,16.16,0,0,0-.06,3.18c-4.32-2.24-8.42-5.13-12.88-7,0-.51.11-1,.17-1.52l-1-.48c-.07.52-.12,1.06-.18,1.59a23,23,0,0,0-4.82-1.23,22.61,22.61,0,0,0-5.39,0c0-.81,0-2.32,0-3.41-.34-.06-.71-.11-1.08-.15,0,1.14,0,2.81,0,3.7a31.25,31.25,0,0,0-7.1,2,62.52,62.52,0,0,1,1.77-6.19l-1.15,0c-.74,2.22-1.36,4.46-1.87,6.7A58,58,0,0,0,270.9,192c-.2.12-.4.26-.59.39.33-3,.66-6.09.95-9.15l-1,.42-.16.08c-.3,3.14-.65,6.3-1,9.43q-4.9,3.24-9.7,6.64c.71-3.6,1.45-7.2,2.16-10.78-.44.35-.88.69-1.3,1.05-.7,3.52-1.42,7-2.1,10.59-2.09,1.48-4.17,3-6.25,4.44.51-2.84,1-5.68,1.53-8.51-.48.52-.93,1-1.36,1.52-.48,2.62-1,5.24-1.44,7.89-1.15.83-2.3,1.65-3.46,2.46a5.51,5.51,0,0,0-.09.71c0,.23,0,.47-.06.72,1.11-.78,2.23-1.55,3.33-2.34-.42,2.41-.81,4.83-1.19,7.25-.81.12-1.62.24-2.42.34,0,.36,0,.71-.07,1.09l2.33-.32c-.37,2.49-.69,5-1,7.52l-1.73.24c0,.35,0,.72-.05,1.09l1.67-.24c-.26,2.79-.44,5.57-.51,8.34L246,233c0,.37,0,.72,0,1.09l1.54-.11a82.3,82.3,0,0,0,.52,10.77c-.81.15-1.61.29-2.41.45l0,1v0l2.58-.49A61,61,0,0,0,251,258.25l.13.35-4.22-.13c.11.38.21.75.34,1.09l4.3.13c.69,1.73,1.48,3.42,2.19,5.16a13,13,0,0,1,.49,1.45q-2.58.26-5.16.63a.49.49,0,0,0,0,.11,4.66,4.66,0,0,0,.26.5c.08.13.15.26.23.38,1.62-.22,3.25-.41,4.88-.57a13.21,13.21,0,0,1,.05,4c-1.78.11-3.54.27-5.31.47h0l0,0a2.72,2.72,0,0,0-.25.32,1.56,1.56,0,0,0-.17.25c0,.07-.1.16-.13.23a2.49,2.49,0,0,0-.16.33c2-.22,3.92-.43,5.89-.54-.14.75-.31,1.52-.52,2.32-.17.64-.34,1.27-.52,1.91a26.23,26.23,0,0,0-5.09,0c0,.25.12.53.2.82,0,0,0,.09,0,.23a25.13,25.13,0,0,1,4.59,0c-.36,1.35-.74,2.7-1.15,4-1.58.18-3.16.43-4.73.77l-.66,1.25a44.21,44.21,0,0,1,5.07-.92,77.17,77.17,0,0,1-3,8.11,52,52,0,0,1-3,5.44c-1.92.21-3.84.45-5.74.78-.15.38-.3.77-.44,1.16,1.82-.32,3.66-.57,5.5-.78a32.4,32.4,0,0,0-3.32,7,19.72,19.72,0,0,0-.73,4.16c-1.07.28-2.13.59-3.19.94,0,0,0,.05,0,.08l.12.83a1,1,0,0,0,0,.17c1-.32,2-.61,3-.88a20.07,20.07,0,0,0,1.68,8.32A26.06,26.06,0,0,0,244,321c-1,.13-2,.28-3,.43l.42,1c1.07-.17,2.14-.31,3.21-.45,2.5,3.92,5.78,7.4,8.42,11.22-1.84.5-3.68,1-5.5,1.59l.56.94c1.85-.56,3.71-1.08,5.59-1.58a25.24,25.24,0,0,1,2.81,5.56c.32-.1.67-.2,1-.29a25.7,25.7,0,0,0-2.77-5.55c3-.78,6.09-1.5,9.17-2.12a38.61,38.61,0,0,1,2.39,5.53l1.05-.21a34.36,34.36,0,0,0-2.4-5.53c4.37-.87,8.79-1.56,13.22-2.07a29.08,29.08,0,0,0,2.63,4.29c.28.36.57.71.88,1.07l1.32-.14A35.21,35.21,0,0,1,280.4,331c-.3-.53-.58-1.07-.87-1.59,5.29-.58,10.61-.92,16-1,.8,1.89,1.63,3.77,2.46,5.65l1.19,0q-1.26-2.83-2.49-5.72h1.11c3.38,0,6.74.12,10.1.32q.63,3.21,1.35,6.39l1.13.17c-.49-2.16-.94-4.32-1.37-6.49,2.78.17,5.55.4,8.33.66-.12,2-.32,4.78-.47,6.92l.12,0,.71.12.23,0c.15-2.14.36-5,.48-7q4.33.39,8.66.83-1,3.7-2.46,7.3l1.08.18q1.39-3.63,2.46-7.37c2.71.26,5.44.52,8.16.73A62.74,62.74,0,0,0,333,338.7l1.12.11a64.48,64.48,0,0,1,3.39-7.56c2.16.17,4.34.31,6.5.42-.65,2.54-1.42,5.05-2.29,7.54h1.14c.86-2.47,1.62-5,2.27-7.49,2.52.1,5.05.16,7.58.15l1.9-.05c-.5,2.36-1.05,4.71-1.62,7l.67-.05.46,0c.57-2.32,1.11-4.64,1.6-7a101.52,101.52,0,0,0,11-.94q-.66,3-1.58,5.92c.42-.11.84-.23,1.24-.36.57-1.9,1.06-3.8,1.48-5.73a78.08,78.08,0,0,0,9.29-2c.17-.42.34-.84.49-1.26a79.64,79.64,0,0,1-9.55,2.14,97.61,97.61,0,0,0,1.6-11.34c3.48.19,6.93.48,10.39.94.08-.35.15-.71.23-1.05-3.5-.47-7-.77-10.52-.94C369.93,315.6,370,314,370.1,312.47Z"/><path class="cls-10" d="M312.9,190.81c-.17,0,12-3.72,14.9-3.86s8.51,3.1,9.5,3.8,4.6,6.9,5,7.85a35.24,35.24,0,0,1,1.36,6.32c-.07.54-2.11,1.1-3.36-1.14-.47-.83-1.09-2.64-1.59-3.53a68.64,68.64,0,0,0-4.2-6.43s.34,2.23-7.13,2.29S318.72,191.64,312.9,190.81Z"/><path class="cls-11" d="M287.06,124.3a1.75,1.75,0,0,0-.8,1.9c.16.73.76,2.72,1.33,4.46s1.66,4.05,2.49,4.68,3.79-.22,5.31-1.47,2.94-5.79,5.76-6.64,5.68,1.9,7.57,2.4,4.38.2,4.66-.3.08-3.17-.25-5.78c-.17-1.43-1.06-5.26-2.38-6.43S294.51,119.78,287.06,124.3Z"/><path class="cls-23" d="M307.68,106.89c1.62,4.43-2.25,7-3.93,7.71-2.38.94-5.26-.77-7.58.32a4.77,4.77,0,0,0-2.15,2.32,8.51,8.51,0,0,1-1.13,2.13,4.73,4.73,0,0,1-3.78,1.16,4.33,4.33,0,0,0-2.43.3c-.27.16-.5.39-.76.57-1.2.82-2.86.43-4.14-.25a10.72,10.72,0,0,1-5.5-8.3c-.16-1.75-.17-5,1.33-6s4.11-.58,5.86-1c2.79-.67,4.37-2.18,7.11-3,3-1,6.27,1,9.43.58,1.7-.2,3.38-1.06,5.05-.68a3.64,3.64,0,0,1,2.62,4.16"/><path class="cls-10" d="M330.9,194.36s2.82,3.9,4,5.45a21.38,21.38,0,0,1,2.36,4.84s.9,2.56,2.23,2.69,1-3.73.8-4.81a25.09,25.09,0,0,0-1.38-3.8l-3.67-5.32-1.48-.7"/><path class="cls-10" d="M327.6,192.77s2.83,3.91,4,5.46a21.64,21.64,0,0,1,2.35,4.84s.9,2.56,2.23,2.69,1-3.73.8-4.81a25.09,25.09,0,0,0-1.38-3.8L332,191.83l-1.48-.7"/><path class="cls-10" d="M324.55,193.18s2.44,3.38,3.49,4.71a18.88,18.88,0,0,1,2,4.19s.77,2.21,1.93,2.33.83-3.23.69-4.16a22.13,22.13,0,0,0-1.2-3.29l-3.17-4.59-1.28-.62"/><path class="cls-11" d="M314.25,374.57a21.75,21.75,0,0,1,4.67,4.68c2.06,2.87,3.7,7.4,3.7,8.75s-3.75,9.53-7.08,11.2-7.89,10.82-10.09,11.54H288.62s-1.32.24-2-3.41c-.81-4.21,4.44-10.05,7.67-11.39s8.36-13.79,8.36-13.79.81-2.11,4.4-2.81c2.52-.49,3.9.27,5.06-.22A3.55,3.55,0,0,0,314.25,374.57Z"/><path class="cls-25" d="M283.26,204.79s6.44,4.31,23,17.31,15.78,18.83,28.55,23.34,26.41,10.41,30.28,17c6.86,11.68-10.72-9.13-28.53-14.42s-26.62,8.61-39.53,5.51-24.26-19.08-22.73-20.59,15.82-2.33,23.32,3.46,20.31,11.41,20,5.73-4.33-8.44-14.34-15.59S276.32,202,283.26,204.79Z"/><path class="cls-27" d="M380.33,318.11c-.08.34-.15.7-.23,1.05a66.56,66.56,0,0,1-2.44,8.26c-.15.42-.32.84-.49,1.26-.48,1.28-1,2.6-1.61,3.94a42.13,42.13,0,0,1-9.16,3.81c-.4.13-.82.25-1.24.36a61,61,0,0,1-11,2l-.46,0-.67.06c-3.64.27-7,.37-10.13.34h-1.14c-2.68,0-5.2-.19-7.6-.4-.38,0-.75-.06-1.12-.11-2.57-.24-5-.56-7.36-.91-.37-.07-.73-.12-1.08-.17-2.28-.36-4.49-.75-6.68-1.13l-.23-.05-.71-.11-.12,0c-2.17-.38-4.32-.76-6.49-1.08L309.2,335c-3.23-.46-6.54-.81-10.07-1l-1.19,0c-2.49-.06-5.1,0-7.86.14-2.45.15-4.79.35-7.06.58-.44.06-.88.1-1.32.14-5.39.61-10.22,1.41-14.33,2.24l-1.05.22c-3.51.73-6.46,1.47-8.79,2.13l-1,.29c-3.21.91-4.95,1.57-4.95,1.57s-1.47-2.15-3.45-5.54l-.56-1a107.85,107.85,0,0,1-6.13-12.36l-.42-1a51.77,51.77,0,0,1-3.08-10.7,1.16,1.16,0,0,1,0-.18c0-.28-.08-.56-.12-.82,0,0,0-.06,0-.09a24.65,24.65,0,0,1,1.74-11.34c.14-.38.29-.77.44-1.16A134.22,134.22,0,0,1,246,284.69c-.93,5.25-.26,12.84,4.71,13.91,11.95,2.56,29.16-7.86,38.76-10.5s23.38,2.41,31.85.77c21.9-4.25,20.7,5.06-3.1,5.36-5.87.07-18.93,12.32-15.44,14.51s13.83-1.15,26.22-3.89,19.93,4.9,25,4.9c11.28,0,5-11.13,8.25-13.5,8.58-6.31,14,1.05,14,1.05s2.08,3.28,5,8c0,.08,0,.18,0,.28a1,1,0,0,1,0,.18,3.19,3.19,0,0,1,0,.54c0,.1,0,.21,0,.32A47,47,0,0,1,380.33,318.11Z"/><path class="cls-16" d="M266,1.64V49.88a2.83,2.83,0,0,1-5.65,0V0C262.28.49,264.15,1,266,1.64Z"/><path class="cls-16" d="M357.46,0V57c0,2.24-1.41,4-3.12,4s-3.14-1.81-3.14-4V1.67C353.29,1.14,355.37.57,357.46,0Z"/><rect class="cls-16" x="264.31" y="49.19" width="89.19" height="6"/><rect class="cls-16" x="267.55" y="28.32" width="82.41" height="52.52" rx="2.48"/><rect class="cls-13" x="273.84" y="32.99" width="70.12" height="43.17" rx="1.09"/><path class="cls-16" d="M300.87,63.67l-15,8.67a1.62,1.62,0,0,1-2.21-.59l-2.54-4.4a1.61,1.61,0,0,1,.59-2.2l15-8.68Z"/><path class="cls-16" d="M299.64,55.84l3.24,5.61a.9.9,0,0,0,1.25.33l2.18-1.26a.64.64,0,0,1,.87.23l.51.9a.62.62,0,0,1-.23.86l-8.91,5.15a3.1,3.1,0,0,1-2.49.26l-6.95-2.26,1.51-7.15a3.11,3.11,0,0,1,1.47-2L301,51.34a.64.64,0,0,1,.87.23l.51.89a.64.64,0,0,1-.23.87L300,54.59A.92.92,0,0,0,299.64,55.84Z"/><rect class="cls-16" x="301.89" y="54.22" width="3.1" height="6.32" rx="0.68" transform="translate(11.96 159.41) rotate(-30)"/><path class="cls-16" d="M334.92,44l-10.16,5.86a.66.66,0,0,1-.89-.23l-3.5-6.08a.64.64,0,0,1,.24-.88l10.16-5.87a1.61,1.61,0,0,1,2.2.59l2.54,4.4A1.61,1.61,0,0,1,334.92,44Z"/><path class="cls-16" d="M319.23,43.33l4.28,7.41a.68.68,0,0,0,.92.25l3.44-2,.75,1.29-7.13,4.12A1.06,1.06,0,0,1,320,54l-5.39-9.32a1.07,1.07,0,0,1,.4-1.46l7.13-4.12.75,1.3-3.45,2A.67.67,0,0,0,319.23,43.33Z"/><path class="cls-16" d="M316.81,44.89l-1.53.88-6.75,3.91a1.08,1.08,0,0,0-.39,1.48l3.05,5.28a1.08,1.08,0,0,0,1.48.4l6.74-3.9,1.54-.88ZM318.89,52l-6.54,3.77a.28.28,0,0,1-.39-.1l-2.81-4.87a.27.27,0,0,1,.1-.38l6.54-3.79.64-.36,3.09,5.36Z"/><line class="cls-28" x1="3.5" y1="410.74" x2="622.5" y2="410.74"/><line class="cls-28" x1="367.52" y1="419.68" x2="508.26" y2="419.68"/><line class="cls-28" x1="116.98" y1="419.68" x2="155.32" y2="419.68"/><line class="cls-28" x1="162.92" y1="419.68" x2="232.06" y2="419.68"/></g></g></svg>