<?xml version="1.0" standalone="no"?><!-- Generator: Gravit.io --><svg xmlns="http://www.w3.org/2000/svg" xmlns:xlink="http://www.w3.org/1999/xlink" style="isolation:isolate" viewBox="0 0 410 410" width="410px" height="410px"><linearGradient id="_lgradient_18" x1="0" y1="0.5" x2="1" y2="0.5" gradientTransform="matrix(413.518,0,0,413.518,-0.61,-1.1)" gradientUnits="userSpaceOnUse"><stop offset="2.1739130434782608%" stop-opacity="0.7" style="stop-color:rgb(145,171,255)"/><stop offset="99.1304347826087%" stop-opacity="0.7" style="stop-color:rgb(174,1,157)"/></linearGradient><path d=" M 332.969 357.086 L 288.538 378.291 L 244.106 399.496 C 229.163 406.627 204.358 407.933 188.749 402.409 L 142.337 385.986 L 95.925 369.562 C 80.316 364.038 61.853 347.422 54.722 332.479 L 33.517 288.047 L 12.311 243.615 C 5.18 228.672 3.874 203.868 9.398 188.259 L 25.822 141.847 L 42.246 95.434 C 47.769 79.825 64.385 61.363 79.328 54.231 L 123.76 33.026 L 168.192 11.821 C 183.135 4.69 207.939 3.384 223.548 8.908 L 269.961 25.331 L 316.373 41.755 C 331.982 47.279 350.445 63.895 357.576 78.838 L 378.781 123.27 L 399.986 167.702 C 407.118 182.645 408.423 207.449 402.9 223.058 L 386.476 269.47 L 370.052 315.883 C 364.529 331.492 347.912 349.954 332.969 357.086 Z " fill="url(#_lgradient_18)"/></svg>