<?xml version="1.0" standalone="no"?><!-- Generator: Gravit.io --><svg xmlns="http://www.w3.org/2000/svg" xmlns:xlink="http://www.w3.org/1999/xlink" style="isolation:isolate" viewBox="211.482 225.424 246.036 233.151" width="246.036px" height="233.151px"><linearGradient id="_lgradient_1" x1="0" y1="0.5" x2="1" y2="0.5" gradientTransform="matrix(257.133,0,0,237.368,205.933,223.316)" gradientUnits="userSpaceOnUse"><stop offset="0%" stop-opacity="0.7" style="stop-color:rgb(235,0,141)"/><stop offset="100%" stop-opacity="0.7" style="stop-color:rgb(153,102,255)"/></linearGradient><path d=" M 391.629 448.27 L 347.217 453.342 L 302.804 458.414 C 291.837 459.667 277.601 453.481 271.033 444.61 L 244.433 408.684 L 217.834 372.758 C 211.266 363.886 209.505 348.465 213.903 338.341 L 231.717 297.342 L 249.53 256.343 C 253.929 246.219 266.404 236.983 277.371 235.73 L 321.783 230.658 L 366.196 225.586 C 377.163 224.333 391.399 230.519 397.967 239.39 L 424.567 275.316 L 451.166 311.242 C 457.734 320.114 459.495 335.535 455.097 345.659 L 437.283 386.658 L 419.47 427.657 C 415.071 437.781 402.596 447.017 391.629 448.27 Z " fill="url(#_lgradient_1)"/></svg>