<?xml version="1.0" standalone="no"?><!-- Generator: Gravit.io --><svg xmlns="http://www.w3.org/2000/svg" xmlns:xlink="http://www.w3.org/1999/xlink" style="isolation:isolate" viewBox="13.474 107.771 650 465.787" width="650px" height="465.787px"><linearGradient id="_lgradient_3" x1="0" y1="0.5" x2="1" y2="0.5" gradientTransform="matrix(650,0,0,465.787,13.474,107.771)" gradientUnits="userSpaceOnUse"><stop offset="0.43478260869565216%" stop-opacity="0.7" style="stop-color:rgb(235,0,141)"/><stop offset="100%" stop-opacity="0.7" style="stop-color:rgb(153,102,255)"/></linearGradient><path d=" M 90.96 384.645 C 85.364 387.27 82.896 393.88 85.389 399.529 L 110.949 454.397 C 112.205 457.129 114.496 459.257 117.313 460.306 C 118.547 460.754 119.856 460.986 121.173 460.986 C 122.82 461 124.445 460.648 125.943 459.968 L 319.057 369.768 L 301.566 552.655 C 301.228 556.255 302.615 559.794 305.308 562.199 C 313.775 569.207 324.326 573.199 335.304 573.558 C 338.331 573.554 341.341 573.174 344.275 572.427 C 359.953 568.336 372.108 554.366 380.4 530.507 L 456.396 305.476 L 606.907 235.268 C 651.21 214.597 674.041 172.68 658.709 139.963 C 650.008 122.863 633.342 111.231 614.292 108.951 C 593.126 105.756 571.494 109.086 552.27 118.498 L 378.579 199.944 L 191.832 126.901 C 168.315 118.043 149.688 118.271 136.626 127.701 C 125.666 136.694 119.43 150.212 119.696 164.388 C 119.81 167.985 121.621 171.311 124.581 173.367 L 250.329 259.81 L 178.314 293.89 L 57.557 263.215 C 52.608 261.998 47.457 264.229 44.949 268.668 L 14.851 322.85 C 13.289 325.721 13.044 329.129 14.178 332.195 C 15.306 335.265 17.704 337.695 20.759 338.869 L 110.159 375.791 L 90.96 384.645 Z  M 142.979 158.711 C 143.648 153.908 146.078 149.536 149.799 146.441 C 156.277 141.781 168.091 142.464 183.878 148.369 L 350.184 213.234 L 274.299 248.676 L 142.979 158.711 Z  M 40.748 322.74 L 60.513 287.64 L 176.721 316.49 C 179.225 317.123 181.868 316.885 184.223 315.814 L 561.928 139.398 C 576.944 131.991 593.855 129.295 610.432 131.671 C 622.058 132.742 632.413 139.451 638.151 149.618 C 647.685 170.069 628.945 199.944 597.249 214.71 L 466.388 276.057 L 474.343 252.536 C 476.353 246.485 473.069 239.946 467.018 237.94 C 460.96 235.934 454.425 239.217 452.419 245.268 L 358.928 523.46 C 353.361 539.254 346.431 548.685 338.708 550.723 C 333.923 551.645 328.972 550.705 324.849 548.116 L 347.569 309.56 C 348.163 303.288 343.564 297.721 337.285 297.127 C 331.014 296.526 325.446 301.133 324.849 307.404 L 321.33 343.867 L 126.395 434.743 L 110.387 400.664 L 142.414 385.673 C 146.537 383.855 149.194 379.778 149.194 375.278 C 149.194 370.775 146.537 366.698 142.414 364.884 L 40.748 322.74 Z " fill="url(#_lgradient_3)"/></svg>