<?xml version="1.0" standalone="no"?><!-- Generator: Gravit.io --><svg xmlns="http://www.w3.org/2000/svg" xmlns:xlink="http://www.w3.org/1999/xlink" style="isolation:isolate" viewBox="0 0 800 800" width="800px" height="800px"><g><g><g><linearGradient id="_lgradient_2" x1="0" y1="0.5" x2="1" y2="0.5" gradientTransform="matrix(350.003,0,0,420.61,224.999,189.695)" gradientUnits="userSpaceOnUse"><stop offset="2.1739130434782608%" stop-opacity="1" style="stop-color:rgb(145,171,255)"/><stop offset="98.69565217391305%" stop-opacity="1" style="stop-color:rgb(174,1,157)"/></linearGradient><path d=" M 539.731 464.709 C 536.351 456.637 528.223 451.455 520.468 448.275 L 494.617 436.377 C 494.589 417.4 494.41 322.882 494.516 312.941 C 494.669 297.476 492.826 283.663 488.762 271.714 L 520.95 260.084 L 521.024 289.822 L 518.836 289.821 C 517.315 289.687 515.971 290.781 515.796 292.299 L 512.963 316.858 C 512.875 317.605 513.098 318.351 513.572 318.939 C 514.045 319.524 514.738 319.902 515.486 319.965 L 537.968 319.957 C 538.724 319.872 539.413 319.511 539.88 318.923 C 540.36 318.337 540.573 317.579 540.489 316.829 C 539.922 312.006 539.357 307.19 538.796 302.367 L 537.622 292.272 C 537.443 290.767 536.096 289.671 534.578 289.806 L 532.39 289.809 L 532.437 255.926 L 533.581 255.511 L 537.387 254.136 C 540.614 252.972 542.759 249.911 542.759 246.486 C 542.759 243.059 540.613 239.998 537.387 238.833 L 402.767 190.183 C 400.978 189.533 399.023 189.533 397.236 190.183 L 262.611 238.834 C 259.384 239.999 257.237 243.061 257.237 246.487 C 257.237 249.913 259.384 252.973 262.611 254.137 L 311.43 271.781 C 307.167 284.038 305.227 298.212 305.386 314.04 L 305.388 436.373 L 279.533 448.275 C 271.776 451.455 264.15 456.291 260.27 464.709 C 260.27 464.709 203.272 610.305 234.189 610.305 L 565.809 610.305 C 596.73 610.302 539.731 464.709 539.731 464.709 Z  M 451.815 452.205 C 451.815 452.205 408.424 466.582 400.067 517.08 C 400.045 517.213 399.961 517.213 399.938 517.08 C 391.579 466.582 348.19 452.205 348.19 452.205 L 376.629 423.963 C 336.536 405.981 325.874 344.836 325.874 344.836 C 323.608 335.997 323.335 329.951 323.335 329.951 C 343.408 328.584 413.463 322.55 418.252 299.84 C 424.855 312.04 459.813 342.697 473.957 345.025 C 473.957 345.025 460.228 405.488 422.728 423.92 L 451.815 452.205 Z " fill="url(#_lgradient_2)"/></g></g></g></svg>