<?xml version="1.0" standalone="no"?><!-- Generator: Gravit.io --><svg xmlns="http://www.w3.org/2000/svg" xmlns:xlink="http://www.w3.org/1999/xlink" style="isolation:isolate" viewBox="0 0 1000 800" width="1000px" height="800px"><g><linearGradient id="_lgradient_2" x1="0" y1="0.5" x2="1" y2="0.5" gradientTransform="matrix(662.608,0,0,-514.491,235.392,631.246)" gradientUnits="userSpaceOnUse"><stop offset="2.1739130434782608%" stop-opacity="1" style="stop-color:rgb(1,164,61)"/><stop offset="99.1304347826087%" stop-opacity="1" style="stop-color:rgb(240,240,61)"/></linearGradient><path d=" M 834.5 119.854 C 823 121.354 780.4 126.954 740 132.154 C 699.6 137.354 646.9 144.254 623 147.354 C 599.1 150.454 577.7 153.154 575.5 153.354 C 570.9 153.854 279.4 162.754 267.7 162.754 L 259.8 162.754 L 260.7 172.954 C 261.1 178.654 261.5 185.754 261.5 188.754 L 261.5 194.154 L 248.7 195.854 C 241.7 196.754 235.7 197.754 235.4 197.954 C 234.8 198.654 268 396.054 268.9 396.854 C 269.2 397.254 332 398.254 408.5 399.154 C 647.3 402.054 771.3 403.754 771.8 404.254 C 772.5 404.854 770.8 529.454 770.1 530.554 C 769.7 531.154 753.3 531.054 722.5 530.154 C 696.7 529.454 592.9 526.554 492 523.854 C 391.1 521.054 304.3 518.554 299.2 518.154 L 289.8 517.554 L 290.5 524.354 C 291.8 538.754 291.7 538.454 296.3 539.554 C 298.6 540.154 350 551.054 410.5 563.754 C 471 576.454 521.2 587.154 522 587.354 C 522.8 587.654 501 595.754 473.5 605.354 C 402.7 630.054 397.9 631.754 402.5 631.154 C 407.3 630.554 622.2 608.754 623.3 608.754 C 623.7 608.754 624 596.054 624 580.654 L 624 552.454 L 634.3 553.154 C 656.8 554.454 840.1 561.954 840.5 561.554 C 840.8 561.254 842 553.454 843.3 544.154 L 845.6 527.254 L 859.8 527.654 L 874 528.054 L 873.9 521.654 C 873.9 518.154 872.8 479.054 871.6 434.754 L 869.3 354.254 L 883.1 252.754 C 890.7 196.954 897.2 149.554 897.5 147.454 L 898 143.554 L 881.2 144.354 L 864.3 145.054 L 863.5 130.854 L 862.8 116.754 L 859.2 116.854 C 857.1 116.954 846.1 118.254 834.5 119.854 Z " fill="url(#_lgradient_2)"/><linearGradient id="_lgradient_3" x1="0" y1="0.5" x2="1" y2="0.5" gradientTransform="matrix(626.8,0,0,364.5,235.4,177.754)" gradientUnits="userSpaceOnUse"><stop offset="2.1739130434782608%" stop-opacity="1" style="stop-color:rgb(67,212,119)"/><stop offset="98.26086956521739%" stop-opacity="1" style="stop-color:rgb(254,255,65)"/></linearGradient><path d=" M 235.4 209.154 L 832.688 177.754 L 862.2 532.554 L 292.8 542.254 L 235.4 209.154 Z " fill="url(#_lgradient_3)"/><path d=" M 477.7 205.402 C 321.9 208.002 194.2 210.302 194 210.502 C 193.7 210.902 208.6 350.502 209 351.102 C 209.1 351.302 227.3 350.902 249.6 350.402 C 356.3 347.702 749.6 338.402 754.1 338.402 L 759.1 338.402 L 764.9 274.102 C 768 238.802 770.9 207.802 771.2 205.102 L 771.8 200.402 L 766.4 200.502 C 763.4 200.602 633.5 202.802 477.7 205.402 Z " fill="rgb(40,125,82)"/></g></svg>